/* XPM */
static char * TeXmacs_sigma_xpm[] = {
"47 48 345 2",
"  	c None",
". 	c #303030",
"+ 	c #313131",
"@ 	c #383838",
"# 	c #4D4D4D",
"$ 	c #575757",
"% 	c #535353",
"& 	c #292929",
"* 	c #3E3E3E",
"= 	c #515151",
"- 	c #555555",
"; 	c #565656",
"> 	c #595959",
", 	c #424242",
"' 	c #454545",
") 	c #525252",
"! 	c #545454",
"~ 	c #585858",
"{ 	c #2A2A2A",
"] 	c #484848",
"^ 	c #4E4E4E",
"/ 	c #4F4F4F",
"( 	c #505050",
"_ 	c #2B2B2B",
": 	c #3D3D3D",
"< 	c #494949",
"[ 	c #4B4B4B",
"} 	c #4C4C4C",
"| 	c #3F3B35",
"1 	c #474747",
"2 	c #707070",
"3 	c #9E9E9E",
"4 	c #AEAEAE",
"5 	c #5C5C5C",
"6 	c #68655D",
"7 	c #CBA172",
"8 	c #382219",
"9 	c #242424",
"0 	c #363636",
"a 	c #414141",
"b 	c #444444",
"c 	c #464646",
"d 	c #4A4A4A",
"e 	c #7B7B7B",
"f 	c #A1A1A1",
"g 	c #B4B4B4",
"h 	c #BFBFBF",
"i 	c #C6C6C6",
"j 	c #9A856B",
"k 	c #A06D4E",
"l 	c #2C2C2C",
"m 	c #393939",
"n 	c #404040",
"o 	c #434343",
"p 	c #898989",
"q 	c #A6A6A6",
"r 	c #8C8C8C",
"s 	c #6F6F6F",
"t 	c #ACACAC",
"u 	c #B9B9B9",
"v 	c #696969",
"w 	c #605B5A",
"x 	c #B06C55",
"y 	c #2E2E2E",
"z 	c #656565",
"A 	c #969696",
"B 	c #A4A4A4",
"C 	c #808080",
"D 	c #626262",
"E 	c #6E6E6E",
"F 	c #BBBBBB",
"G 	c #60544F",
"H 	c #262626",
"I 	c #343434",
"J 	c #3A3A3A",
"K 	c #3B3B3B",
"L 	c #3C3C3C",
"M 	c #717171",
"N 	c #A2A2A2",
"O 	c #777777",
"P 	c #646464",
"Q 	c #606060",
"R 	c #5D5D5D",
"S 	c #7E7E7E",
"T 	c #BEBEBE",
"U 	c #999999",
"V 	c #5A5A5A",
"W 	c #323232",
"X 	c #2D2D2D",
"Y 	c #373737",
"Z 	c #353535",
"` 	c #818181",
" .	c #9D9D9D",
"..	c #737373",
"+.	c #5F5F5F",
"@.	c #929292",
"#.	c #BDBDBD",
"$.	c #868686",
"%.	c #5A5856",
"&.	c #70533C",
"*.	c #333333",
"=.	c #919191",
"-.	c #5B5B5B",
";.	c #A5A5A5",
">.	c #747474",
",.	c #BAA47F",
"'.	c #996447",
").	c #2F2F2F",
"!.	c #7A7A7A",
"~.	c #767676",
"{.	c #616161",
"].	c #676767",
"^.	c #B3B3B3",
"/.	c #C1C1C1",
"(.	c #B0B0B0",
"_.	c #76706A",
":.	c #E39C73",
"<.	c #909090",
"[.	c #BCBCBC",
"}.	c #C2C2C2",
"|.	c #B68172",
"1.	c #5A3527",
"2.	c #7D7D7D",
"3.	c #A8A8A8",
"4.	c #6C6C6C",
"5.	c #3F3F3F",
"6.	c #8B8B8B",
"7.	c #6C6765",
"8.	c #403632",
"9.	c #1C1C1C",
"0.	c #9B9B9B",
"a.	c #7C7C7C",
"b.	c #0D0D0D",
"c.	c #6D6D6D",
"d.	c #C0C0C0",
"e.	c #5E5E5E",
"f.	c #907D61",
"g.	c #764D37",
"h.	c #7A5B40",
"i.	c #BD6E54",
"j.	c #57433C",
"k.	c #272727",
"l.	c #636363",
"m.	c #B8B8B8",
"n.	c #877F73",
"o.	c #DFB07A",
"p.	c #4C2E21",
"q.	c #603027",
"r.	c #F1A678",
"s.	c #FA9D71",
"t.	c #C17358",
"u.	c #3C3A39",
"v.	c #252525",
"w.	c #797979",
"x.	c #ADADAD",
"y.	c #5D5D5C",
"z.	c #C79279",
"A.	c #9A5F46",
"B.	c #75382E",
"C.	c #FA8B6D",
"D.	c #CDA45C",
"E.	c #755A27",
"F.	c #353432",
"G.	c #848484",
"H.	c #B1B1B1",
"I.	c #7D6C69",
"J.	c #9A5E4A",
"K.	c #7F3C32",
"L.	c #FB7F66",
"M.	c #6B5B1D",
"N.	c #080808",
"O.	c #6A6A6A",
"P.	c #B2B2B2",
"Q.	c #9F9F9F",
"R.	c #615651",
"S.	c #874035",
"T.	c #F97E63",
"U.	c #5D4F19",
"V.	c #1B1B1B",
"W.	c #979797",
"X.	c #403A34",
"Y.	c #8A4236",
"Z.	c #F67D61",
"`.	c #534815",
" +	c #282828",
".+	c #6B6B6B",
"++	c #787878",
"@+	c #9C9C9C",
"#+	c #939393",
"$+	c #948874",
"%+	c #B17C57",
"&+	c #8C4237",
"*+	c #F37D5F",
"=+	c #49400F",
"-+	c #856446",
";+	c #BA6B52",
">+	c #935E4C",
",+	c #3D3C3C",
"'+	c #878787",
")+	c #A9A9A9",
"!+	c #838383",
"~+	c #626161",
"{+	c #D5AC82",
"]+	c #794F38",
"^+	c #8D4337",
"/+	c #F07D5D",
"(+	c #3E360B",
"_+	c #D6976D",
":+	c #FA9D72",
"<+	c #F18965",
"[+	c #4F413B",
"}+	c #AAAAAA",
"|+	c #B7B7B7",
"1+	c #90746D",
"2+	c #B36B52",
"3+	c #854034",
"4+	c #EE7D5B",
"5+	c #322D05",
"6+	c #E78164",
"7+	c #DDAF6D",
"8+	c #8D6C2B",
"9+	c #3C392F",
"0+	c #5E5D5D",
"a+	c #825F53",
"b+	c #49231D",
"c+	c #DC7354",
"d+	c #272600",
"e+	c #45211B",
"f+	c #F0745F",
"g+	c #BA8E44",
"h+	c #050502",
"i+	c #727272",
"j+	c #605F5E",
"k+	c #7A422C",
"l+	c #1E1E00",
"m+	c #4D251E",
"n+	c #F57460",
"o+	c #A97A38",
"p+	c #151515",
"q+	c #AFAFAF",
"r+	c #A3A3A3",
"s+	c #B6B6B6",
"t+	c #989898",
"u+	c #50261F",
"v+	c #F77661",
"w+	c #976C30",
"x+	c #757575",
"y+	c #532720",
"z+	c #F87862",
"A+	c #855F28",
"B+	c #422D24",
"C+	c #6A4B41",
"D+	c #403F3E",
"E+	c #552821",
"F+	c #FA7963",
"G+	c #765422",
"H+	c #77553D",
"I+	c #EDA072",
"J+	c #FA8D69",
"K+	c #6F4E43",
"L+	c #232323",
"M+	c #8A8A8A",
"N+	c #8F8F8F",
"O+	c #464545",
"P+	c #413F3F",
"Q+	c #171717",
"R+	c #47221C",
"S+	c #F57661",
"T+	c #694A1D",
"U+	c #9F5543",
"V+	c #F0B47F",
"W+	c #F29768",
"X+	c #8D643B",
"Y+	c #7D4B42",
"Z+	c #583128",
"`+	c #BD5C4B",
" @	c #62431B",
".@	c #AE5345",
"+@	c #F29E72",
"@@	c #4F4D07",
"#@	c #282822",
"$@	c #181818",
"%@	c #301914",
"&@	c #48241C",
"*@	c #493114",
"=@	c #B85848",
"-@	c #EF8A64",
";@	c #3B3903",
">@	c #0F0F0F",
",@	c #111111",
"'@	c #BE5B4B",
")@	c #E7855B",
"!@	c #333203",
"~@	c #212121",
"{@	c #222222",
"]@	c #1E1E1E",
"^@	c #C35D4D",
"/@	c #DF8254",
"(@	c #282702",
"_@	c #0B0B0B",
":@	c #313030",
"<@	c #141414",
"[@	c #C75F4E",
"}@	c #D8804D",
"|@	c #986D4D",
"1@	c #DC7E5F",
"2@	c #684A41",
"3@	c #CB6150",
"4@	c #D17D48",
"5@	c #6B372C",
"6@	c #F1AF7D",
"7@	c #FD966E",
"8@	c #CF7A5B",
"9@	c #924639",
"0@	c #C47342",
"a@	c #7F3D32",
"b@	c #F98E6E",
"c@	c #B4954A",
"d@	c #574B1C",
"e@	c #371A16",
"f@	c #A35F36",
"g@	c #884136",
"h@	c #FD7E67",
"i@	c #645C19",
"j@	c #090909",
"k@	c #24170A",
"l@	c #93463A",
"m@	c #FC7F67",
"n@	c #574F11",
"o@	c #686868",
"p@	c #191919",
"q@	c #99493C",
"r@	c #FC8268",
"s@	c #484208",
"t@	c #9C4B3E",
"u@	c #F98267",
"v@	c #3C3804",
"w@	c #A04C3F",
"x@	c #F48162",
"y@	c #343004",
"z@	c #EE7F5C",
"A@	c #2B2804",
"B@	c #D6754F",
"C@	c #211E03",
"D@	c #714326",
"                                                          . +                                 ",
"                                                      @ # $ %                                 ",
"                                                & * = - ; $ > ,                               ",
"                                            + ' = ) % ! ; $ ~ $ {                             ",
"                                        @ ] ^ / ( = % ! ; ; $ ~ ]                             ",
"                                  _ : < [ } # ^ / = ) ! $ ; ; ~ ~ |                           ",
"                              . , 1 ] < [ [ [ # ^ % 2 3 4 5 ; ; ~ 6 7 8                       ",
"                        9 0 a b ' 1 1 c 1 ] d - e f g h i 2 - ! ~ > j k                       ",
"                    l m a n , , , , o b c $ p q r s t h u v - % $ ~ w x                       ",
"                y * : * * * * : * n ' z A B C z D E F h t % - ! - $ > G                       ",
"          H I J J K : L J m J L 1 M N 3 O P D Q R S h T U ! ! - = $ ~ V W                     ",
"      X I @ 0 Y J K @ Z 0 @ < ` g  ...D D +.$ % > @.h #.$./ % - = ; $ ~ %.&.                  ",
"  y Y W *.I Z Y Y W W *.o =.T 4 s D D -.( [ # ( R ;.h F >.# ) ! ) ! $ ~ 5 ,.'.                ",
"  [ + + W I Z 0 + ).+ ).P h 4 !.~.{.< o ' < } / ].^./.(.z / = % ! % ; $ ~ _.:.                ",
"  K n . W *.Z 0 l y . X ~.F <.=.$ K * a b 1 d ^ ~.[.}.B ~ / ( ) ! ) - ; $ V |.1.              ",
"  H b + + W I *.{ y y y 2.3.B 4.0 m L 5.o c < / 6.h /.<.$ ^ / = % % % ; $ ~ 7.8.              ",
"  9.*.K . + *.*._ l X ).S 0.3 I { _ X ).I o ] ! 3 h h a.> # / ( ) % % - ; $ > -               ",
"  b.).J *.+ W I l l l X c.6.R X Y m J L m Y c -.(.d.#.].> # ^ / = ) ! % - $ ~ e.f.g.          ",
"  h.i.j.K . + W *.k.l { D D _ I 0 Y m K L m ' l.q }.m.V ~ ! # ^ ( = % ! ! ; $ ~ n.o.p.        ",
"q.r.s.t.u.I + W *.y { v.y k.).*.Z Y @ J L K o 5 $ w.x.B 2 V ( # / = ) ! % - ; ~ y.z.A.        ",
"B.C.D.E.F.K . + W I & { & ).+ W I 0 Y m K @ * = $ V {.G.H.f 4.= ^ ( = % ! ! ; $ ~ I.J.        ",
"K.L.M.N.X @ Z . + *.).{ X y . W *.Z 0 @ m K + n } > D z O.6.P.Q.z / ( ) % - % ; ~ V R.        ",
"S.T.U.  V.W L . + W *.H & X ).+ W I Z Y m J K Y ' < ) D 4.2 O =.H.W.{.= % ! ) - $ ~ e.X.      ",
"Y.Z.`.    l Y Y . W *.*. +H y . + *.I 0 @ m K K b 1 d ^ > .+O ++e @+[.#+> % - = ; $ > $+%+    ",
"&+*+=+  -+;+>+,+. + W *.I ).X ).. W I Z Y @ J J , c < } / ) {.'+)+T 4 !+-.- ! = - $ ~ ~+{+]+  ",
"^+/+(+  _+:+<+[+@ . + W I . l y ).+ *.I 0 Y m K a b 1 [ ~ 2.}+|+@+2 ; ) - ~ % ) % ; $ ~ 1+2+  ",
"3+4+5+  6+7+8+9+L . + W *.. l X y . W *.Z 0 @ L n o e.<.g P.'+D ) ) ) - < ] ) ( / - ; ~ 0+a+  ",
"b+c+d+e+f+g+h+& I J . + *.l l l y E 5 I W I @ d i+;.[.B w.; ) ) ) ( c 5.[ / ^ L = - ; $ ~ j+  ",
"  k+l+m+n+o+  p+W J W + I _ l & : P A q+r+q t s+s+t+4.- ) ) = } 5.* 1 [ < m Y [ % ! - ; ~ P / ",
"      u+v+w+    k.I L . + & l { & -.z Q.h h ^.p {.) ) ) = c J K ' 1 1 *.0 ] ( = ) % - P x+a.L ",
"      y+z+A+    B+C+D+I . . k.l k.*.+.` q+w.; ) ) ) # * I @ a o n W W ] # ^ / ( $ 5 ~ ) [ ' H ",
"      E+F+G+  H+I+J+K+, . + l & l L+n M+N+) ) ( 1 0 ).Y : 5.K ).*.b d [ } ^ $ > d n o ' O+P+Q+",
"      R+S+T+  U+V+W+X+n Y . +  +_ l L+4.C / n l l I m K J { + , 1 ] < } -.% ' 5.b ' ' m Y+Z+  ",
"        `+ @  .@+@@@#@W d + + + k.l { L+y v. +*.Z 0 I { X a o ' c ( $ ( * , ' ' a y $@  %@    ",
"        &@*@  =@-@;@>@. n : . W ).H l l _ y . W . k._ K n , ' ( - 1 n o ' ' L k.,@            ",
"              '@)@!@  ~@W ^ . . W l ~@H l y y {@& @ : 5.b - / o n b ' ' I ]@                  ",
"              ^@/@(@  _@:@: o ).+ W *._ 9 9 H Y J L < = # : , ' ' 5.l <@                      ",
"              [@}@    |@1@2@# + . + W I Z 0 Y : [ = b n b ' b J 9                             ",
"              3@4@  5@6@7@8@K ' ).+ W *.I : ( [ a n ' ' b + 9.                                ",
"              9@0@  a@b@c@d@W [ *.. *.b ^ < : o ' ' : & ,@                                    ",
"              e@f@  g@h@i@j@y @ d 1 # , n b ' o Y ~@                                          ",
"                k@  l@m@n@  9.K o@e.% ' ' o y p@                                              ",
"                    q@r@s@    L t r 5 K H b.                                                  ",
"                    t@u@v@    {@W.4.{                                                         ",
"                    w@x@y@                                                                    ",
"                    l@z@A@                                                                    ",
"                      B@C@                                                                    ",
"                      D@                                                                      "};
