/* XPM */
static char *tm_arc_mode[] = {
/* columns rows colors chars-per-pixel */
"20 20 73 1 ",
"  c gray25",
". c #e0e0e0",
"X c gray26",
"o c #dcdcdc",
"O c gray27",
"+ c gray28",
"@ c #d8d8d8",
"# c #d7d7d7",
"$ c gray29",
"% c #d4d4d4",
"& c #d3d3d3",
"* c #d1d1d1",
"= c gray31",
"- c #cecece",
"; c gray32",
": c #cbcbcb",
"> c #c7c7c7",
", c gray34",
"< c #c5c5c5",
"1 c gray35",
"2 c #c1c1c1",
"3 c #b9b9b9",
"4 c #b7b7b7",
"5 c #b6b6b6",
"6 c gray40",
"7 c #b3b3b3",
"8 c #b2b2b2",
"9 c gray42",
"0 c #a0a0a0",
"q c gray48",
"w c #9a9a9a",
"e c gray49",
"r c gray51",
"t c #919191",
"y c #8f8f8f",
"u c #8c8c8c",
"i c gray55",
"p c #868686",
"a c gray56",
"s c #818181",
"d c #7f7f7f",
"f c gray58",
"g c #767676",
"h c #747474",
"j c gray62",
"k c #707070",
"l c gray64",
"z c #686868",
"x c gray66",
"c c #646464",
"v c gray67",
"b c #5c5c5c",
"n c #5b5b5b",
"m c #585858",
"M c gray71",
"N c gray72",
"B c #535353",
"V c gray73",
"C c #4f4f4f",
"Z c gray74",
"A c #4a4a4a",
"S c #494949",
"D c gray76",
"F c #474747",
"G c gray77",
"H c #444444",
"J c #434343",
"K c #414141",
"L c gray79",
"P c #3d3d3d",
"I c #3b3b3b",
"U c gray81",
"Y c None",
/* pixels */
"YYYYYYYYYYYYYYYYYYYY",
"YYYYYYMw%%%%wZYYYYYY",
"YYYYD5 OO     5DYYYY",
"YYYD,  5hMMh5 O,DYYY",
"YYU,OOMYYYYYYM% ,DYY",
"YYDO%MYYYYYYYYMO yYY",
"YYYZDYYYYYYYYYYdO,PY",
"YYYYYYYYYYYYYYYDOOxY",
"YYYYYYYYYYYYYYYY5OdY",
"YYYYYYYYYYYYYYYY9 dY",
"YYYYPy2O2yPYYYYY5 dY",
"YYYD,O  O 2DYYYDOOxY",
"YYYw ,xPz, 0YYYd ,PY",
"YYPOOZYYYZ OPYP%OiYY",
"YYMO2YYYYY2 MYZO,DYY",
"YYP0xYYYYP% DYYMDYYY",
"YYYYYYYYYi ,YYYYYYYY",
"YYYYYDyy5  zYYYYYYYY",
"YYYYYx  OOhYYYYYYYYY",
"YYYYYPhizDYYYYYYYYYY"
};
