<?xml version="1.0" encoding="UTF-8"?>
<!-- Created with Inkscape (http://www.inkscape.org/) -->
<svg id="svg3039" width="20" height="20" version="1.1" xmlns="http://www.w3.org/2000/svg" xmlns:cc="http://creativecommons.org/ns#" xmlns:dc="http://purl.org/dc/elements/1.1/" xmlns:rdf="http://www.w3.org/1999/02/22-rdf-syntax-ns#">
 <metadata id="metadata3044">
  <rdf:RDF>
   <cc:Work rdf:about="">
    <dc:format>image/svg+xml</dc:format>
    <dc:type rdf:resource="http://purl.org/dc/dcmitype/StillImage"/>
    <dc:title/>
   </cc:Work>
  </rdf:RDF>
 </metadata>
 <g id="layer1" transform="translate(0,4)">
  <path id="text3271" d="m10.271 9.1486h-0.4834q-0.076904-1.2524-0.50537-3.0322l-0.57129-2.395q-0.51636-2.1533-0.51636-3.0872 0-0.84595 0.50537-1.3623 0.50537-0.51636 1.3184-0.51636 0.79102 0 1.3074 0.52734 0.52734 0.51636 0.52734 1.3184 0 0.83496-0.54932 3.1201l-0.58228 2.395q-0.30762 1.2744-0.45044 3.0322zm-0.23071 1.571q0.73608 0 1.2524 0.52734 0.52734 0.51636 0.52734 1.2634 0 0.73608-0.52734 1.2634-0.51636 0.51636-1.2524 0.51636-0.73608 0-1.2634-0.51636-0.51636-0.52734-0.51636-1.2634t0.51636-1.2634q0.51636-0.52734 1.2634-0.52734z" fill="#bfbfbf" stroke="#bfbfbf" stroke-width=".5" aria-label="!"/>
 </g>
</svg>
