/* XPM */
static char *tm_alternate_first[] = {
/* columns rows colors chars-per-pixel */
"16 16 38 1 ",
"  c #e0e0e0",
". c gray51",
"X c #dbdbdb",
"o c #d9d9d9",
"O c gray52",
"+ c #d5d5d5",
"@ c gray53",
"# c #d2d2d2",
"$ c #d0d0d0",
"% c gray54",
"& c #cdcdcd",
"* c gray55",
"= c gray62",
"- c #a4a4a4",
"; c gray64",
": c #9f9f9f",
"> c #9b9b9b",
", c #989898",
"< c gray69",
"1 c #8a8a8a",
"2 c gray70",
"3 c #848484",
"4 c #7f7f7f",
"5 c #7b7b7b",
"6 c gray75",
"7 c gray76",
"8 c #6a6a6a",
"9 c #616161",
"0 c gray80",
"q c #585858",
"w c #4a4a4a",
"e c gray87",
"r c gray89",
"t c #303030",
"y c #252525",
"u c gray92",
"i c #0c0c0c",
"p c None",
/* pixels */
"pppppppppppppppp",
"ppppq%@  @  @ @%",
"pppp2:iiiiiiiii@",
"pppq%eiiiiiiiit@",
"ppp,,iiiiiiiii2:",
"pp6@yiiiiiiiie@q",
"p7%wiiiiiiiit%2p",
"7%qiiiiiiiit%2pp",
"@       @   :ppp",
"6@          @,pp",
"p7@           6p",
"pp6          @@7",
"ppp:@          =",
"pppq@          @",
"pppp,@          ",
"ppppq@         @"
};
