/* XPM */
static char *tm_add[] = {
/* columns rows colors chars-per-pixel */
"16 16 7 1 ",
"  c #e0e0e0",
". c #dedede",
"X c gray62",
"o c gray68",
"O c #767676",
"+ c #585858",
"@ c None",
/* pixels */
"@@@@@@@@@@@@@@@@",
"@@@@@@@@@@@@@@@@",
"@@@@@@+XX+@@@@@@",
"@@@@@@O  O@@@@@@",
"@@@@@@O  O@@@@@@",
"@@@@@@O  O@@@@@@",
"@@+OOOo  oOOO+@@",
"@@X          X@@",
"@@X          o@@",
"@@+OOOo  oOOO+@@",
"@@@@@@O  O@@@@@@",
"@@@@@@O  O@@@@@@",
"@@@@@@O  O@@@@@@",
"@@@@@@+XX+@@@@@@",
"@@@@@@@@@@@@@@@@",
"@@@@@@@@@@@@@@@@"
};
