/* XPM */
static char *tm_alternate_both[] = {
/* columns rows colors chars-per-pixel */
"16 16 32 1 ",
"  c #e0e0e0",
". c #dbdbdb",
"X c gray52",
"o c gray53",
"O c #d2d2d2",
"+ c #d0d0d0",
"@ c gray54",
"# c #cdcdcd",
"$ c gray55",
"% c #c9c9c9",
"& c #a4a4a4",
"* c #a1a1a1",
"= c #9f9f9f",
"- c #989898",
"; c #8a8a8a",
": c #848484",
"> c #7f7f7f",
", c #7b7b7b",
"< c gray75",
"1 c gray76",
"2 c #6a6a6a",
"3 c #616161",
"4 c gray80",
"5 c #585858",
"6 c #4a4a4a",
"7 c gray87",
"8 c gray89",
"9 c #303030",
"0 c #252525",
"q c gray92",
"w c #0c0c0c",
"e c None",
/* pixels */
"eeeeeeeeeeeeeeee",
"eeee5@o  o  o o@",
"eeee;=wwwwwwwwwo",
"eee5@7wwwwwwww9o",
"eee--wwwwwwwww;=",
"ee<o0wwwwwwww7o5",
"e1@6wwwwwwww9@<e",
"1@5wwwwwwww9@;ee",
"@      oo  o&eee",
"1@5wwwwwwww9@;ee",
"e1@6wwwwwwww9@<e",
"ee<o0wwwwwwww7@1",
"eee--wwwwwwwww;=",
"eee5@7wwwwwwww0@",
"eeee-=wwwwwwwwwo",
"eeee5o        o@"
};
