<?xml version="1.0" encoding="UTF-8"?>
<!-- Created with Inkscape (http://www.inkscape.org/) -->
<svg id="svg3039" width="16" height="16" version="1.1" xmlns="http://www.w3.org/2000/svg" xmlns:cc="http://creativecommons.org/ns#" xmlns:dc="http://purl.org/dc/elements/1.1/" xmlns:rdf="http://www.w3.org/1999/02/22-rdf-syntax-ns#">
 <metadata id="metadata3044">
  <rdf:RDF>
   <cc:Work rdf:about="">
    <dc:format>image/svg+xml</dc:format>
    <dc:type rdf:resource="http://purl.org/dc/dcmitype/StillImage"/>
    <dc:title/>
   </cc:Work>
  </rdf:RDF>
 </metadata>
 <g id="layer1">
  <path id="path4187" d="m8 0.80859c-0.34602 0-0.69204 0.063845-1 0.19141-0.43552 0.1804-0.8196 0.56448-1 1-0.25512 0.61592-0.25512 1.3841 0 2 0.1804 0.43552 1 1 1 1v1h-2v1h2v5.5l-5-2.5-0.5 1.5 6.5 4 6.5-4-0.5-1.5-5 2.5v-5.5h2v-1h-2v-1s0.8196-0.56448 1-1c0.25512-0.61592 0.25512-1.3841 0-2-0.1804-0.43552-0.56448-0.8196-1-1-0.30796-0.12756-0.65398-0.19141-1-0.19141zm0 1.1914c0.55228 0 1 0.44772 1 1s-0.44772 1-1 1-1-0.44772-1-1 0.44772-1 1-1z" fill="#9f9f9f" fill-rule="evenodd" filter="url(#filter4205)" stroke-width="0"/>
 </g>
</svg>
