<?xml version="1.0" encoding="UTF-8"?>
<!-- Created with Inkscape (http://www.inkscape.org/) -->
<svg id="svg3039" width="20" height="20" version="1.1" xmlns="http://www.w3.org/2000/svg" xmlns:cc="http://creativecommons.org/ns#" xmlns:dc="http://purl.org/dc/elements/1.1/" xmlns:rdf="http://www.w3.org/1999/02/22-rdf-syntax-ns#">
 <metadata id="metadata3044">
  <rdf:RDF>
   <cc:Work rdf:about="">
    <dc:format>image/svg+xml</dc:format>
    <dc:type rdf:resource="http://purl.org/dc/dcmitype/StillImage"/>
    <dc:title/>
   </cc:Work>
  </rdf:RDF>
 </metadata>
 <g id="layer1" transform="translate(0,4)">
  <path id="text3221" transform="matrix(.74288 0 0 .90605 4.5129 1.7267)" d="m13.842 10.283-1.6726 2.135q-1.2298-0.60016-2.3613-1.6529-0.87564 0.78709-1.8595 1.161-0.98387 0.37387-2.3416 0.37387-2.6958 0-4.0535-1.5152-1.0527-1.1708-1.0527-2.6958 0-1.3873 0.82645-2.4892 0.82645-1.1118 2.4695-1.9284-0.7379-0.87564-1.1118-1.6627-0.37387-0.79693-0.37387-1.5053 0-1.3085 1.0429-2.2137 1.0527-0.915 2.991-0.915 1.8693 0 2.9221 0.95435 1.0527 0.95435 1.0527 2.3318 0 0.87564-0.52145 1.6627-0.52145 0.78709-2.1055 1.7808l2.0071 2.6466q0.35419-0.62968 0.61-1.6431l2.499 0.57064q-0.37387 1.3282-0.64935 1.9481-0.27548 0.61-0.59032 1.0232 0.46242 0.4329 1.1905 0.95435 0.7379 0.51161 1.0823 0.67887zm-7.5266-7.8414 0.74774-0.57064q0.82645-0.63951 0.82645-1.2692 0-0.53129-0.40339-0.90516-0.39355-0.37387-1.0724-0.37387-0.65919 0-1.0331 0.33451-0.37387 0.32468-0.37387 0.75758 0 0.51161 0.62968 1.2397zm-1.0823 3.0008q-0.95435 0.48209-1.4266 1.161t-0.47226 1.3873q0 0.89532 0.58048 1.466 0.59032 0.5608 1.5742 0.5608 0.64935 0 1.2495-0.25581 0.60016-0.25581 1.3085-0.84613z" fill="#bfbfbf" stroke="#bfbfbf" stroke-width=".5" aria-label="&amp;"/>
 </g>
</svg>
