/* XPM */
static char *tm_add_2[] = {
/* columns rows colors chars-per-pixel */
"16 16 22 1 ",
"  c #e0e0e0",
". c #dedede",
"X c gray51",
"o c #d9d9d9",
"O c gray53",
"+ c #cdcdcd",
"@ c gray58",
"# c #adadad",
"$ c gray62",
"% c #a9a9a9",
"& c #8d8d8d",
"* c gray74",
"= c #6fad6f",
"- c gray77",
"; c #666666",
": c gray78",
"> c #5d5d5d",
", c #5c5c5c",
"< c #585858",
"1 c gray81",
"2 c #007300",
"3 c None",
/* pixels */
"3333333113333333",
"333331---1133333",
"3311-&$@@$&-1133",
"331*$+X XX+$*133",
"31-&X  =& XX$-13",
"31&+   22XXX+&13",
"3-$X   22 X X$-3",
"1-@X&222222=X@-3",
"1-@X=222222&o@;3",
"31$X   22 XXo$;3",
"31&+   22  X+&<3",
"31-$XXX&= XX$;<3",
"331*$+XXXX+%=133",
"3311-&$@@%&-1133",
"3333311-::133333",
"3333333333333333"
};
