<?xml version="1.0" encoding="UTF-8"?>
<!-- Created with Inkscape (http://www.inkscape.org/) -->
<svg id="svg3039" width="20" height="20" version="1.1" xmlns="http://www.w3.org/2000/svg" xmlns:cc="http://creativecommons.org/ns#" xmlns:dc="http://purl.org/dc/elements/1.1/" xmlns:rdf="http://www.w3.org/1999/02/22-rdf-syntax-ns#">
 <metadata id="metadata3044">
  <rdf:RDF>
   <cc:Work rdf:about="">
    <dc:format>image/svg+xml</dc:format>
    <dc:type rdf:resource="http://purl.org/dc/dcmitype/StillImage"/>
    <dc:title/>
   </cc:Work>
  </rdf:RDF>
 </metadata>
 <g id="layer1" transform="translate(0,4)">
  <path id="text3268" d="m19.021 6.0444c0-0.12218-0.08145-0.22399-0.18327-0.26472-1.1607-0.3869-2.0567-1.2014-2.7897-2.1177-0.57016-0.73306-0.99778-1.629-1.181-2.5861-0.040726-0.18327-0.20363-0.32581-0.40726-0.32581-0.22399 0-0.40726 0.18327-0.40726 0.40726 0 0.020363 0.02036 0.061089 0.02036 0.081452 0.20363 1.0792 0.67198 2.077 1.344 2.9323 0.44798 0.57016 0.97742 1.0589 1.5883 1.4661h-15.598c-0.22399 0-0.40726 0.18327-0.40726 0.40726s0.18327 0.40726 0.40726 0.40726h15.598c-0.61089 0.40726-1.1403 0.89597-1.5883 1.4661-0.67198 0.85524-1.1403 1.853-1.344 2.9323 0 0.02036-0.02036 0.06109-0.02036 0.08145 0 0.22399 0.18327 0.40726 0.40726 0.40726 0.20363 0 0.36653-0.14254 0.40726-0.32581 0.18327-0.95706 0.61089-1.853 1.181-2.5861 0.73306-0.91633 1.629-1.7308 2.7897-2.1177 0.10181-0.040726 0.18327-0.14254 0.18327-0.26472z" fill="#bfbfbf" stroke="#bfbfbf" stroke-width=".5" aria-label="→"/>
 </g>
</svg>
