/* XPM */
static char *tm_anchor[] = {
/* columns rows colors chars-per-pixel */
"16 16 28 1 ",
"  c #e0e0e0",
". c gray38",
"X c #dadada",
"o c gray42",
"O c #cecece",
"+ c gray48",
"@ c #b9b9b9",
"# c gray49",
"$ c #b6b6b6",
"% c #a6a6a6",
"& c #a1a1a1",
"* c gray57",
"= c #9a9a9a",
"- c gray65",
"; c #727272",
": c #717171",
"> c gray70",
", c gray71",
"< c #676767",
"1 c #656565",
"2 c gray73",
"3 c gray74",
"4 c gray",
"5 c #595959",
"6 c #525252",
"7 c #4d4d4d",
"8 c #4b4b4b",
"9 c None",
/* pixels */
"9999999669999999",
"999999&  &999999",
"999996 1< 699999",
"999996 <, 699999",
"999999=  =999999",
"9999999  9999999",
"99999      99999",
"9999999  9999999",
"9999999  9999999",
"9999999  9999999",
"93+>999  999<#49",
"9:X @,9  9,@ X:9",
"995$  @  @  $599",
"9999;O    o-9999",
"999998*..%799999",
"9999999229999999"
};
