<?xml version="1.0" encoding="UTF-8"?>
<!-- Created with Inkscape (http://www.inkscape.org/) -->
<svg id="svg3039" width="20" height="20" version="1.1" xmlns="http://www.w3.org/2000/svg" xmlns:cc="http://creativecommons.org/ns#" xmlns:dc="http://purl.org/dc/elements/1.1/" xmlns:rdf="http://www.w3.org/1999/02/22-rdf-syntax-ns#">
 <metadata id="metadata3044">
  <rdf:RDF>
   <cc:Work rdf:about="">
    <dc:format>image/svg+xml</dc:format>
    <dc:type rdf:resource="http://purl.org/dc/dcmitype/StillImage"/>
    <dc:title/>
   </cc:Work>
  </rdf:RDF>
 </metadata>
 <g id="layer1" transform="translate(0,4)">
  <path id="text3387" d="m8.6252 14.809c0-0.12633-0.090233-0.21656-0.21656-0.21656-1.3535 0-2.3461-0.88428-2.3461-1.8227v-4.5117c0-1.0467-0.86624-1.8768-2.0754-2.2558 1.2091-0.37898 2.0754-1.2091 2.0754-2.2558v-4.5117c0-0.93842 0.99256-1.8227 2.3461-1.8227 0.12633 0 0.21656-0.090233 0.21656-0.21656s-0.090233-0.21656-0.21656-0.21656c-1.8949 0-3.5371 0.93842-3.5371 2.2558v4.5117c0 1.0467-0.99256 2.0393-2.3461 2.0393-0.12633 0-0.21656 0.090233-0.21656 0.21656s0.090233 0.21656 0.21656 0.21656c1.3535 0 2.3461 0.99256 2.3461 2.0393v4.5117c0 1.3174 1.6422 2.2558 3.5371 2.2558 0.12633 0 0.21656-0.09023 0.21656-0.21656zm9.0233-8.8067c0-0.12633-0.09023-0.21656-0.21656-0.21656-1.3535 0-2.3461-0.99256-2.3461-2.0393v-4.5117c0-1.3174-1.6422-2.2558-3.5371-2.2558-0.12633 0-0.21656 0.090233-0.21656 0.21656s0.09023 0.21656 0.21656 0.21656c1.3535 0 2.3461 0.88428 2.3461 1.8227v4.5117c0 1.0467 0.86624 1.8768 2.0754 2.2558-1.2091 0.37898-2.0754 1.2091-2.0754 2.2558v4.5117c0 0.93842-0.99256 1.8227-2.3461 1.8227-0.12633 0-0.21656 0.09023-0.21656 0.21656 0 0.12633 0.09023 0.21656 0.21656 0.21656 1.8949 0 3.5371-0.93842 3.5371-2.2558v-4.5117c0-1.0467 0.99256-2.0393 2.3461-2.0393 0.12633 0 0.21656-0.090233 0.21656-0.21656z" fill="#bfbfbf" stroke="#bfbfbf" stroke-width=".75" aria-label="{}"/>
 </g>
</svg>
