/* XPM */
static char *tm_build[] = {
/* columns rows colors chars-per-pixel */
"24 24 104 2 ",
"   c #e0e0e1",
".  c #ddddde",
"X  c #dcdcdc",
"o  c #dbdbdb",
"O  c #d8d8d9",
"+  c #d7d7d7",
"@  c #d7d7d8",
"#  c #d6d6d6",
"$  c #d6d6d7",
"%  c #d5d5d6",
"&  c #d3d3d4",
"*  c #d2d2d2",
"=  c #d2d2d3",
"-  c #d1d1d2",
";  c #d0d0d0",
":  c #cecece",
">  c #ceced0",
",  c #cccccd",
"<  c #cbcbcb",
"1  c #cbcbcc",
"2  c #cacacb",
"3  c #c9c9ca",
"4  c #c7c7c7",
"5  c #c6c6c7",
"6  c #c5c5c5",
"7  c #c3c3c3",
"8  c #c2c2c2",
"9  c #c1c1c1",
"0  c #bfbfbf",
"q  c #bebebe",
"w  c #bdbdbd",
"e  c #bcbcbd",
"r  c #bbbbbc",
"t  c #b7b7b8",
"y  c #b6b6b7",
"u  c #b5b5b6",
"i  c #b2b2b3",
"p  c #b1b1b2",
"a  c #b0b0b1",
"s  c #afafb0",
"d  c #acacad",
"f  c gray39",
"g  c #ababac",
"h  c #ababac",
"j  c #aaaaaa",
"k  c #aaaaab",
"l  c #aaaaab",
"z  c #a7a7a8",
"x  c DimGray",
"c  c #a3a3a4",
"v  c #a0a0a0",
"b  c gray43",
"n  c #9f9fa0",
"m  c #9e9e9e",
"M  c #9e9e9f",
"N  c #9d9d9f",
"B  c #9b9b9b",
"V  c gray45",
"C  c #9b9b9d",
"Z  c #949495",
"A  c #939393",
"S  c #909090",
"D  c gray50",
"F  c #8b8b8b",
"G  c #89898b",
"H  c #808082",
"J  c #7b7b7c",
"K  c #737374",
"L  c #676769",
"P  c #666668",
"I  c #656567",
"U  c #646466",
"Y  c #5b5b5b",
"T  c #5b5b5d",
"R  c #585858",
"E  c gray70",
"W  c #4f4f52",
"Q  c #4c4c4f",
"!  c #4a4a4d",
"~  c #46464a",
"^  c #444447",
"/  c #404040",
"(  c gray80",
")  c #373737",
"_  c gray81",
"`  c #2e2e2e",
"'  c #2b2b2b",
"]  c gray85",
"[  c gainsboro",
"{  c #232323",
"}  c #212121",
"|  c #202029",
" . c #1e1e1e",
".. c gray91",
"X. c #171717",
"o. c gray92",
"O. c gray93",
"+. c #0f0f0f",
"@. c gray95",
"#. c gray96",
"$. c gray97",
"%. c #080808",
"&. c #070707",
"*. c None",
/* pixels */
"*.*.*.*.*.*.*.*.*.*.*.*.*.*.*.*.*.*.*.*.*.*.*.*.",
"*.*.v B B B B B B B B B B B B B B B B B v *.*.*.",
"*.*.B &.&.&.&.&.&.&.&.&.&.&.&.&.} &.&.&.B *.*.*.",
"*.*.B &.&.&.&.&.&.&.&.&.&.&.] t $ _ &.&.B *.*.*.",
"*.*.B &.&.&.&.&.&.&.&.} H v $ r $ R $.&.B *.*.*.",
"*.*.B &.&.&.&.&.&.&.] > r j j $ E &.&.&.B *.*.*.",
"*.*.B &.&.&.&.&.&.] > j F M & W &.&.&.&.B *.*.*.",
"*.*.B &.&.&.&.&.&.3 j F D . ^ &.&.&.&.&.B *.*.*.",
"*.*.B &.&.&.&._ B & G G F $ P &.&.&.&.&.B *.*.*.",
"*.*.B &.&.&.~ $ a M 3   > v > H $.$.&.&.B *.*.*.",
"*.*.B &.&.! o v F t j O.P > B 3 D #.&.&.B *.*.*.",
"*.*.B &.&.O.r t v $ ) &.&.K > D 3 j #.#.B *.*.*.",
"*.*.B &.&.&.} 3 $ ) &.&.&.&.G 3 D 9 r O.B *.*.*.",
"*.*.B &.&.&.&.} ` &.&.&.&.&.&.B 9 D t 2 v *.*.*.",
"*.*.B &.&.&.&.&.&.&.&.&.&.&.&.#.j 9 D j   R *.*.",
"*.*.B &.&.&.&.&.&.&.&.&.&.&.&.&.#.t t D j $ P *.",
"*.*.B &.&.&.&.&.&.&.&.&.&.&.&.&.&.O.3 j F v . P ",
"*.*.B &.&.&.&.&.&.&.&.&.&.&.&.&.&.#.} > j a 3 ^ ",
"*.*.B &.&.&.&.&.&.&.&.&.&.&.&.&.&.&.&.] . $ ! *.",
"*.*.B &.&.&.&.&.&.&.&.&.&.&.&.&.&.&.&.&.j R *.*.",
"*.*.B &.&.&.&.&.&.&.&.&.&.&.&.&.&.&.&.&.B *.*.*.",
"*.*.B &.&.&.&.&.&.&.&.&.&.&.&.&.&.&.&.&.B *.*.*.",
"*.*.B &.&.&.&.&.&.&.&.&.&.&.&.&.&.&.&.&.B *.*.*.",
"*.*.v B B B B B B B B B B B B B B B B B v *.*.*."
};
