/* XPM */
static char *tm_both_hv[] = {
/* columns rows colors chars-per-pixel */
"32 32 3 1 ",
"  c gray25",
". c gray77",
"X c None",
/* pixels */
"XXXX..XXXXX..XXXXXX..XXXXX..XXXX",
"XXXX..XXXXX..XXXXXX..XXXXX..XXXX",
"XXXX..XXXXX..XXXXXX..XXXXX..XXXX",
"XXXX..XXXXX..XXXXXX..XXXXX..XXXX",
"....                        ....",
"....                        ....",
"XXXX  XXXXX  XXXXXX  XXXXX  XXXX",
"XXXX  XXXXX  XXXXXX  XXXXX  XXXX",
"XXXX  XXXXX  XXXXXX  XXXXX  XXXX",
"XXXX  XXXXX  XXXXXX  XXXXX  XXXX",
"XXXX  XXXXX  XXXXXX  XXXXX  XXXX",
"....                        ....",
"....                        ....",
"XXXX  XXXXX  XXXXXX  XXXXX  XXXX",
"XXXX  XXXXX  XXXXXX  XXXXX  XXXX",
"XXXX  XXXXX  XXXXXX  XXXXX  XXXX",
"XXXX  XXXXX  XXXXXX  XXXXX  XXXX",
"XXXX  XXXXX  XXXXXX  XXXXX  XXXX",
"XXXX  XXXXX  XXXXXX  XXXXX  XXXX",
"....                        ....",
"....                        ....",
"XXXX  XXXXX  XXXXXX  XXXXX  XXXX",
"XXXX  XXXXX  XXXXXX  XXXXX  XXXX",
"XXXX  XXXXX  XXXXXX  XXXXX  XXXX",
"XXXX  XXXXX  XXXXXX  XXXXX  XXXX",
"XXXX  XXXXX  XXXXXX  XXXXX  XXXX",
"....                        ....",
"....                        ....",
"XXXX..XXXXX..XXXXXX..XXXXX..XXXX",
"XXXX..XXXXX..XXXXXX..XXXXX..XXXX",
"XXXX..XXXXX..XXXXXX..XXXXX..XXXX",
"XXXX..XXXXX..XXXXXX..XXXXX..XXXX"
};
