/* XPM */
static char *tm_bbb[] = {
/* columns rows colors chars-per-pixel */
"20 20 72 1 ",
"  c gray28",
". c #e0e0e0",
"X c #dfdfdf",
"o c gray29",
"O c #dcdcdc",
"+ c #dbdbdb",
"@ c gray30",
"# c #d6d6d6",
"$ c gray32",
"% c #d3d3d3",
"& c gray33",
"* c #d0d0d0",
"= c #cfcfcf",
"- c gray34",
"; c #cccccc",
": c gray35",
"> c #c9c9c9",
", c gray37",
"< c #c3c3c3",
"1 c gray38",
"2 c #bebebe",
"3 c #bdbdbd",
"4 c #bababa",
"5 c #b9b9b9",
"6 c #b6b6b6",
"7 c #b4b4b4",
"8 c #b3b3b3",
"9 c #b0b0b0",
"0 c #adadad",
"q c gray45",
"w c #aaaaaa",
"e c gray46",
"r c #a4a4a4",
"t c #a2a2a2",
"y c gray50",
"u c gray51",
"i c gray52",
"p c gray53",
"a c gray54",
"s c #8e8e8e",
"d c gray55",
"f c #8a8a8a",
"g c gray57",
"h c #858585",
"j c #7f7f7f",
"k c #7c7c7c",
"l c #7a7a7a",
"z c #787878",
"x c #767676",
"c c gray64",
"v c #6f6f6f",
"b c #6c6c6c",
"n c #686868",
"m c gray67",
"M c gray68",
"N c #636363",
"B c #5f5f5f",
"V c #5e5e5e",
"C c #5c5c5c",
"Z c gray71",
"A c #585858",
"S c #565656",
"D c #535353",
"F c gray74",
"G c gray75",
"H c #4d4d4d",
"J c #4c4c4c",
"K c #494949",
"L c #474747",
"P c gray79",
"I c #404040",
"U c None",
/* pixels */
"UUUUUUUUUUUUUUUUUUUU",
"UUPKKKKKKKKPUUUUUUUU",
"UUz777777000dcDUUUUU",
"UK**4dh4:::74+:VUUUU",
"UUDd*mV+idd0 zr*KUUU",
"UUUP*mm+DUUPriD:mUUU",
"UUUK*mm+DUUUc4KicUUU",
"UUUK*mm+DUUK0hV+mUUU",
"UUUP*mm+zmmh+h7*KUUU",
"UUUK*mD++ ++0+4VUUUU",
"UUUK*mD ***++7+7DUUU",
"UUUK*mm+cVVVi*z:rPUU",
"UUUK*mm+DUUUD+mm+DUU",
"UUUK*mm+DUUUK*mD+mUU",
"UUUP*mm+VUUUV+VV+VUU",
"UUKc*mV+hmcz7:m74KUU",
"UP4++zz++ + :d**DUUU",
"UP4+ +   +  +*dDUUUU",
"UUPmmccmcmmcVDPUUUUU",
"UUUUUUUUUUUUUUUUUUUU"
};
