/* XPM */
static char *tm_border_none[] = {
/* columns rows colors chars-per-pixel */
"32 32 2 1 ",
"  c #e0e0e0",
". c None",
/* pixels */
"................................",
"................................",
"................................",
"................................",
"................................",
"................................",
"......                    ......",
"......                    ......",
"......                    ......",
"......                    ......",
"......                    ......",
"......                    ......",
"......                    ......",
"......                    ......",
"......                    ......",
"......                    ......",
"......                    ......",
"......                    ......",
"......                    ......",
"......                    ......",
"......                    ......",
"......                    ......",
"......                    ......",
"......                    ......",
"......                    ......",
"......                    ......",
"................................",
"................................",
"................................",
"................................",
"................................",
"................................"
};
