<?xml version="1.0" encoding="UTF-8"?>
<!-- Created with Inkscape (http://www.inkscape.org/) -->
<svg id="svg3039" width="20" height="20" version="1.1" xmlns="http://www.w3.org/2000/svg" xmlns:cc="http://creativecommons.org/ns#" xmlns:dc="http://purl.org/dc/elements/1.1/" xmlns:rdf="http://www.w3.org/1999/02/22-rdf-syntax-ns#">
 <metadata id="metadata3044">
  <rdf:RDF>
   <cc:Work rdf:about="">
    <dc:format>image/svg+xml</dc:format>
    <dc:type rdf:resource="http://purl.org/dc/dcmitype/StillImage"/>
    <dc:title/>
   </cc:Work>
  </rdf:RDF>
 </metadata>
 <g id="layer1" transform="translate(0,4)">
  <path id="text3268" d="m16.476 11.699v-0.08277c-0.6415-3.2075-3.4558-4.9251-6.8082-5.6494 3.3524-0.72428 6.1667-2.4418 6.8082-5.6494v-0.082774c0-0.22763-0.18624-0.41387-0.41387-0.41387-0.20694 0-0.37248 0.14486-0.41387 0.3311-0.80705 4.0766-5.5666 5.401-10.057 5.401h-1.6555c-0.062081 0-0.10347 0.020694-0.14486 0.020694-0.16555 0.062081-0.26902 0.22763-0.26902 0.39318s0.10347 0.3311 0.26902 0.39318c0.041387 0 0.082774 0.020694 0.14486 0.020694h1.6555c4.4905 0 9.25 1.3244 10.057 5.401 0.04139 0.18624 0.20694 0.3311 0.41387 0.3311 0.22763 0 0.41387-0.18624 0.41387-0.41387z" fill="#bfbfbf" stroke="#bfbfbf" stroke-width=".5" aria-label="≺"/>
 </g>
</svg>
