/* XPM */
static char *tm_bigaround[] = {
/* columns rows colors chars-per-pixel */
"20 20 72 1 ",
"  c gray25",
". c #e0e0e0",
"X c gray26",
"o c #dedede",
"O c #dcdcdc",
"+ c gray27",
"@ c #d8d8d8",
"# c #d7d7d7",
"$ c gray29",
"% c #d4d4d4",
"& c #d3d3d3",
"* c gray30",
"= c #cecece",
"- c gray32",
"; c #c8c8c8",
": c #c5c5c5",
"> c #c1c1c1",
", c gray36",
"< c #bfbfbf",
"1 c #bdbdbd",
"2 c #bbbbbb",
"3 c #b9b9b9",
"4 c #b6b6b6",
"5 c gray40",
"6 c #b2b2b2",
"7 c gray45",
"8 c #a2a2a2",
"9 c #a0a0a0",
"0 c gray48",
"q c #9a9a9a",
"w c #989898",
"e c gray50",
"r c #969696",
"t c #959595",
"y c gray52",
"u c #8c8c8c",
"i c #8b8b8b",
"p c gray54",
"a c #898989",
"s c #868686",
"d c #858585",
"f c gray56",
"g c #838383",
"h c gray57",
"j c #7d7d7d",
"k c gray59",
"l c #797979",
"z c gray60",
"x c #767676",
"c c #6e6e6e",
"v c #6b6b6b",
"b c gray65",
"n c #686868",
"m c #646464",
"M c #5b5b5b",
"N c #535353",
"B c gray73",
"V c #505050",
"C c gray",
"Z c #4a4a4a",
"A c gray76",
"S c #474747",
"D c gray77",
"F c #434343",
"G c gray78",
"H c gray79",
"J c #3d3d3d",
"K c gray80",
"L c #3b3b3b",
"P c #3a3a3a",
"I c gray81",
"U c None",
/* pixels */
"UUUUUUUIFUUFIUUUUUUU",
"UUUUUv< $IC$ 3mUUUUU",
"UUUUM$$mIUUIx $CUUUU",
"UUUUt tUUUUUUq gUUUU",
"UUUUq fUUUUUUt fUUUU",
"UUUUq fUUUUUUt fUUUU",
"UUUUq fUUUUUUt fUUUU",
"UUUU9 gUUUUUUt tUUUU",
"UUUU3$vUUUUUUx 6UUUU",
"UUv6 =IUUUUUUI< 3mUU",
"UF=  xUUUUUUUUf  =FU",
"UUUC$$CUUUUUUM$=FUUU",
"UUUU9 gUUUUUUf qUUUU",
"UUUUq gUUUUUUt tUUUU",
"UUUUq fUUUUUUt fUUUU",
"UUUUq fUUUUUUq fUUUU",
"UUUUt fUUUUUUq fUUUU",
"UUUUx 3UUUUUI< vUUUU",
"UUUUI< $fIIq= 3IUUUU",
"UUUUUUCfqFFqgCUUUUUU"
};
