/* XPM */
static char *tm_back[] = {
/* columns rows colors chars-per-pixel */
"24 24 144 2 ",
"   c #e2e0de",
".  c #dad8d7",
"X  c #d5d5d4",
"o  c #d5d3d1",
"O  c #d4d3d1",
"+  c #cfcfcf",
"@  c #cecece",
"#  c #cccccc",
"$  c #cbcbcb",
"%  c #cdcccc",
"&  c #cccbcb",
"*  c #c8c7c6",
"=  c #c8c6c5",
"-  c #c6c6c6",
";  c #c7c5c4",
":  c #c7c4c1",
">  c #c4c4c4",
",  c #c4c4c4",
"<  c #c3c3c3",
"1  c #c3c3c3",
"2  c #c2c2c2",
"3  c #c5c3c2",
"4  c #c2c2c2",
"5  c #c2c1c0",
"6  c #c2c1c1",
"7  c #c4c1bf",
"8  c #c3c0be",
"9  c #c2c0bf",
"0  c #c0bfbf",
"q  c #c0bebc",
"w  c #bababa",
"e  c #bcbbbb",
"r  c #bcbcbb",
"t  c #bab8b6",
"y  c #b9b9b9",
"u  c #b7b7b7",
"i  c #b7b4b2",
"p  c #b2b2b2",
"a  c gray33",
"s  c #b1b1af",
"d  c #b4b1ae",
"f  c #b3afad",
"g  c #b1adab",
"h  c #aeaba9",
"j  c #aeaaa7",
"k  c #aaa9a8",
"l  c #aca9a7",
"z  c #a9a6a3",
"x  c #a9a6a4",
"c  c #a7a6a5",
"v  c #a8a3a1",
"b  c #a6a4a3",
"n  c #a4a4a4",
"m  c #a4a3a2",
"M  c gray39",
"N  c #a2a09f",
"B  c #a2a09f",
"V  c #9f9f9f",
"C  c #a4a09d",
"Z  c #a29d9b",
"A  c #a19d9a",
"S  c #9c9c9c",
"D  c #9d9a99",
"F  c #989898",
"G  c #959595",
"H  c #9b9794",
"J  c #979593",
"K  c #999493",
"L  c #97918d",
"P  c #97928e",
"I  c #958e8b",
"U  c #929292",
"Y  c #918f8e",
"T  c gray46",
"R  c #938c89",
"E  c #928b88",
"W  c #8e8c8b",
"Q  c #8a8a8a",
"!  c gray48",
"~  c #878787",
"^  c #858585",
"/  c #8a8682",
"(  c #888380",
")  c #877e79",
"_  c #828282",
"`  c #847b75",
"'  c #757575",
"]  c #7e7772",
"[  c #7e736b",
"{  c #7d736a",
"}  c #7d7269",
"|  c #7a6d66",
" . c #737373",
".. c #6b6663",
"X. c #656565",
"o. c #71665f",
"O. c #6b625c",
"+. c #6d6158",
"@. c #6b615a",
"#. c #685e57",
"$. c #685b53",
"%. c #605953",
"&. c #595959",
"*. c gray68",
"=. c #64574e",
"-. c #5e554e",
";. c #594d45",
":. c #574c45",
">. c #515151",
",. c gray71",
"<. c gray72",
"1. c #454545",
"2. c #483c33",
"3. c #453c36",
"4. c #4c3c32",
"5. c #3c3c3c",
"6. c gray79",
"7. c #333333",
"8. c gray81",
"9. c #45382f",
"0. c #47372c",
"q. c #403227",
"w. c #3f3126",
"e. c #3a2d24",
"r. c #3a2b21",
"t. c #38291f",
"y. c #36271d",
"u. c #39271c",
"i. c #38261b",
"p. c #37251a",
"a. c #2f2017",
"s. c #322015",
"d. c #311f14",
"f. c #2b1c11",
"g. c #26190e",
"h. c #251408",
"j. c #221207",
"k. c #241205",
"l. c #1f0f06",
"z. c #200f05",
"x. c #231104",
"c. c #210e02",
"v. c #1f0c00",
"b. c None",
/* pixels */
"b.b.b.b.b.b.b.b.b.b.b.b.b.b.b.b.b.b.b.b.b.b.b.b.",
"b.b.b.b.b.b.b.b.b.b.b.b.b.b.b.b.b.b.b.b.b.b.b.b.",
"b.b.b.b.b.b.b.b.b.b.b.b.b.b.b.b.b.b.b.b.b.b.b.b.",
"b.b.b.b.b.b.b.b.b.b.b.b.b.b.b.b.b.b.b.b.b.b.b.b.",
"b.b.b.b.b.b.b.b.b.b.b.b.b.b.b.b.b.b.b.b.b.b.b.b.",
"b.b.b.b.b.b.b.b.b.b.b.8.>. .*.8.b.b.b.b.b.b.b.b.",
"8.^ s , , , t k D T B @ B ] D , t >.b.b.b.b.b.b.",
"^ J i.v.v.v.j.i.4.- K j.v.v.v.v.9.> B 5.b.b.b.b.",
"X.& %.a.v.v.v.c.R | v.v.v.v.v.v.v.h.X.& , B ^ _ ",
"b.<.G u , , , O Z v.v.u.| j.v.v.v.v.v.v.h.3.O.& ",
"b.b.b.b.b.b.b.s e.v.0.- e.v.v.v.v.v.v.v.v.v.v.g ",
"b.b.b.b.b.b.b.t o.) O : Z +.f.v.i.w.v.v.v.v.v.g ",
"b.b.b.b.b.b.8.R q +.v.v.4.  d : g :.v.v.v.v.v.g ",
"b.b.b.b.b.b.& R 8 +.f.v.v.d i.v.v.v.v.v.v.v.v.x ",
"b.b.b.b.b.b.& v.f.) g 8 . J v.v.v.v.v.v.v.v.v.g ",
"b.b.b.b.b.T b v j.v.v.v.R =.v.v.v.v.v.v.v.j.O.O ",
"b.b.b.b.b.s i.$., D | R i j.v.v.v.v.v.g.( O T ' ",
"b.b.b.b.b.^ / c.v.0.[ j i.v.v.h.q.=.B - ' 8.b.b.",
"b.b.b.b.b.8.V t :.u.R n x 8 q t B ^ &.b.b.b.b.b.",
"b.b.b.b.b.b.b.<.D k T 8.b.b.b.b.b.b.b.b.b.b.b.b.",
"b.b.b.b.b.b.b.b.b.b.b.b.b.b.b.b.b.b.b.b.b.b.b.b.",
"b.b.b.b.b.b.b.b.b.b.b.b.b.b.b.b.b.b.b.b.b.b.b.b.",
"b.b.b.b.b.b.b.b.b.b.b.b.b.b.b.b.b.b.b.b.b.b.b.b.",
"b.b.b.b.b.b.b.b.b.b.b.b.b.b.b.b.b.b.b.b.b.b.b.b."
};
