<?xml version="1.0" encoding="UTF-8" standalone="no"?>
<svg
   id="svg3039"
   viewBox="0 0 20.000001 20.000001"
   version="1.1"
   width="20"
   height="20"
   xmlns="http://www.w3.org/2000/svg"
   xmlns:svg="http://www.w3.org/2000/svg">
  <defs
     id="defs1">
    <style
       id="style1">
      .cls-1 {
        fill: transparent;
        stroke: #bfbfbf;
      }

      .cls-2, .cls-3 {
        isolation: isolate;
      }
    </style>
  </defs>
  <g
     id="layer1"
     transform="matrix(1.064709,0,0,1.0261615,1.7664407,-0.90681446)">
    <g
       id="text3271"
       class="cls-3">
      <g
         class="cls-2"
         id="g1">
        <path
           class="cls-1"
           d="m 0.71045,17.94824 v -0.99805 h 2.1792 V 4.33984 H 0.71045 V 3.34179 h 8.5415 c 1.52441,0 2.71875,0.35156 3.58398,1.05518 0.86426,0.70361 1.29688,1.57129 1.29688,2.604 0,0.8252 -0.30273,1.53516 -0.9082,2.13135 -0.60547,0.59619 -1.43945,0.99463 -2.50195,1.19531 1.17773,0.09717 2.14453,0.47998 2.90039,1.14893 0.75586,0.66895 1.13281,1.50586 1.13281,2.51074 0,1.10938 -0.42871,2.04688 -1.28711,2.8125 -0.85742,0.76562 -2.06836,1.14844 -3.63086,1.14844 z M 5.40527,9.96387 h 3.07715 c 0.91699,0 1.62207,-0.27686 2.11523,-0.83154 0.49414,-0.55469 0.74023,-1.26465 0.74023,-2.13135 0,-0.28418 -0.0332,-0.56494 -0.09961,-0.8418 C 11.16991,5.88184 11.06054,5.59961 10.91015,5.31152 10.75976,5.02392 10.52148,4.79004 10.19433,4.60986 9.86718,4.42968 9.46679,4.33984 8.99218,4.33984 H 5.40527 v 5.62402 z m 0,6.98633 h 3.625 c 0.44824,0 0.84668,-0.06445 1.19238,-0.19238 0.3457,-0.12793 0.61523,-0.30664 0.80762,-0.53516 0.19238,-0.22949 0.35059,-0.44824 0.47559,-0.66016 0.125,-0.21192 0.20996,-0.44824 0.25488,-0.71191 0.04492,-0.26367 0.07324,-0.45312 0.08691,-0.56641 0.0127,-0.11523 0.01953,-0.2207 0.01953,-0.31836 0,-0.94922 -0.21484,-1.72168 -0.64453,-2.31836 C 10.77343,11.03857 10.11035,10.7334 9.23242,10.7334 H 5.40527 Z"
           id="path1" />
      </g>
    </g>
  </g>
</svg>
