<?xml version="1.0" encoding="UTF-8"?>
<!-- Created with Inkscape (http://www.inkscape.org/) -->
<svg id="svg3039" width="20" height="20" version="1.1" xmlns="http://www.w3.org/2000/svg" xmlns:cc="http://creativecommons.org/ns#" xmlns:dc="http://purl.org/dc/elements/1.1/" xmlns:rdf="http://www.w3.org/1999/02/22-rdf-syntax-ns#">
 <metadata id="metadata3044">
  <rdf:RDF>
   <cc:Work rdf:about="">
    <dc:format>image/svg+xml</dc:format>
    <dc:type rdf:resource="http://purl.org/dc/dcmitype/StillImage"/>
    <dc:title/>
   </cc:Work>
  </rdf:RDF>
 </metadata>
 <g id="layer1" transform="translate(0,4)">
  <path id="text3268" d="m15.449 5.9784c0 1.372-0.50546 2.6356-1.3539 3.5924l-3.5924-3.5924 3.5924-3.5924c0.84845 0.95677 1.3539 2.2204 1.3539 3.5924zm-1.8594-4.0978-3.5924 3.5924-3.5924-3.5924c0.95677-0.84845 2.2204-1.3539 3.5924-1.3539 1.372 0 2.6356 0.50546 3.5924 1.3539zm-4.0978 4.0978-3.5924 3.5924c-0.84845-0.95677-1.3539-2.2204-1.3539-3.5924s0.50546-2.6356 1.3539-3.5924zm4.0978 4.0978c-0.95677 0.84845-2.2204 1.3539-3.5924 1.3539-1.372 0-2.6356-0.50546-3.5924-1.3539l3.5924-3.5924zm2.5815-4.0978c0-3.4119-2.762-6.1739-6.1739-6.1739-3.4119 0-6.1739 2.762-6.1739 6.1739 0 3.4119 2.762 6.1739 6.1739 6.1739 3.4119 0 6.1739-2.762 6.1739-6.1739z" fill="#bfbfbf" stroke="#bfbfbf" stroke-width=".5" aria-label="⊗"/>
 </g>
</svg>
