<?xml version="1.0" encoding="UTF-8"?>
<!-- Created with Inkscape (http://www.inkscape.org/) -->
<svg id="svg5078" width="32px" height="32px" version="1.1" xmlns="http://www.w3.org/2000/svg" xmlns:cc="http://creativecommons.org/ns#" xmlns:dc="http://purl.org/dc/elements/1.1/" xmlns:rdf="http://www.w3.org/1999/02/22-rdf-syntax-ns#">
 <metadata id="metadata5083">
  <rdf:RDF>
   <cc:Work rdf:about="">
    <dc:format>image/svg+xml</dc:format>
    <dc:type rdf:resource="http://purl.org/dc/dcmitype/StillImage"/>
    <dc:title/>
   </cc:Work>
  </rdf:RDF>
 </metadata>
 <g id="layer1" fill="none" stroke="#565656" stroke-width="2">
  <path id="path6187" d="m28.009 27h3.9907"/>
  <path id="path4773" d="m28 5h3.9907"/>
  <path id="path4775" d="m28 12h3.9907"/>
  <path id="path4777" d="m28 20h3.9907"/>
  <path id="path4781" d="M 0.009323,27 4,27"/>
  <path id="path4783" d="m0 5h3.9907"/>
  <path id="path4785" d="m0 12h3.9907"/>
  <path id="path4787" d="m0 20h3.9907"/>
  <g id="g4797" transform="matrix(0 -1 1 0 0 47.991)">
   <path id="path4789" d="m19.981 5h-3.9907"/>
   <path id="path4791" d="m19.991 27h-3.9907"/>
   <path id="path4793" d="m19.991 20h-3.9907"/>
   <path id="path4795" d="m19.991 12h-3.9907"/>
  </g>
  <g id="g4803" transform="matrix(0 -1 1 0 0 19.991)">
   <path id="path4805" d="m19.981 5h-3.9907"/>
   <path id="path4807" d="m19.991 27h-3.9907"/>
   <path id="path4809" d="m19.991 20h-3.9907"/>
   <path id="path4811" d="m19.991 12h-3.9907"/>
  </g>
  <path id="path4813" d="m28.009 27h3.9907"/>
  <path id="path4815" d="m28.009 27h3.9907"/>
 </g>
</svg>
