/* XPM */
static char *tm_copy_before[] = {
/* columns rows colors chars-per-pixel */
"16 16 5 1 ",
"  c #b0ffb0",
". c #6fbf6f",
"X c #67b967",
"o c #5c5c5c",
"O c None",
/* pixels */
"OOOOOOOOOOOOOOOO",
"OOOOOOOOOOOOOOOO",
"OOOOOOOOOOOOOOOO",
"OOOOOOOOOOOOOOOO",
"OOO.OOOOOOOOOOOO",
"OO. OOOOOooOOOOO",
"O.  OOOOOooOOOOO",
".        ooooooo",
"X        ooooooo",
"OX  OOOOOooOOOOO",
"OOX OOOOOooOOOOO",
"OOO.OOOOOOOOOOOO",
"OOOOOOOOOOOOOOOO",
"OOOOOOOOOOOOOOOO",
"OOOOOOOOOOOOOOOO",
"OOOOOOOOOOOOOOOO"
};
