/* XPM */
static char *tm_cline_mode[] = {
/* columns rows colors chars-per-pixel */
"20 20 77 1 ",
"  c gray25",
". c #e0e0e0",
"X c #dfdfdf",
"o c gray26",
"O c #dadada",
"+ c #d9d9d9",
"@ c gray28",
"# c #d8d8d9",
"$ c #d3d3d3",
"% c #d1d1d2",
"& c #d0d0d0",
"* c gray31",
"= c #ceced0",
"- c #cccccd",
"; c #cbcbcc",
": c #cacacb",
"> c gray33",
", c #c7c7c7",
"< c gray34",
"1 c #c9c9cb",
"2 c #c0c0c0",
"3 c gray36",
"4 c #bebebe",
"5 c gray38",
"6 c #b2b2b2",
"7 c #b7b7bd",
"8 c #b3b3b9",
"9 c #b0b0b7",
"0 c #afafb6",
"q c DimGray",
"w c #afafaf",
"e c gray42",
"r c #ababab",
"t c #acacb3",
"y c #a3a3a3",
"u c #a1a1a1",
"i c #9e9eaa",
"p c #9a9a9a",
"a c #9a9aa8",
"s c #9898a8",
"d c #9191a3",
"f c #8a8a9d",
"g c #959595",
"h c gray53",
"j c #89899d",
"k c #808098",
"l c #7d7d97",
"z c gray57",
"x c #797979",
"c c #767676",
"v c #737394",
"b c #63638e",
"n c #61618f",
"m c #60608d",
"M c #6b6b6b",
"N c gray65",
"B c gray68",
"V c #50508c",
"C c gray69",
"Z c #525252",
"A c #434382",
"S c #3b3b80",
"D c #373782",
"F c #34347a",
"G c #2f2f7b",
"H c #2e2e74",
"J c #2b2b78",
"K c #282874",
"L c #262678",
"P c #494949",
"I c gray77",
"U c gray79",
"Y c #3d3d3d",
"T c #393939",
"R c gray81",
"E c #242476",
"W c None",
/* pixels */
"WWWTu&whMPWWWWWWWWWW",
"WWWc....  &whMPWWWWW",
"WWT>.lbf9&.... wWWWW",
"WWc >KEEEEDnf> 4WWWW",
"WT>.vLEEEEEED# MWWWW",
"Wc.-KLEEEEEEs 9WWWWW",
"T> vEEEEEEEE>XMWWWWW",
"c >KEEEEEEEKdX5RWWWW",
"4 fLEEEEEEEEK- xWWWW",
"u  fKEELEEEEKb &PWWW",
"Tp  :VKLEEEEEE9 uWWW",
"WWB>..sKEEEEEES  BWW",
"WWWTh. iEEEEEEK9 4WW",
"WWWWWu 7EEEEAs   wWW",
"WWWWB  VEKn9   wMRWW",
"WWWT> fGl>  #pZWWWWW",
"WWWh  i XX>xPWWWWWWW",
"WWB     wMTWWWWWWWWW",
"WW4 X@dZWWWWWWWWWWWW",
"WWw4zTWWWWWWWWWWWWWW"
};
