/* XPM */
static char *tm_cell_wrap[] = {
/* columns rows colors chars-per-pixel */
"16 16 10 1 ",
"  c gray25",
". c gray45",
"X c #e0e0e0",
"o c gray57",
"O c #929292",
"+ c #767676",
"@ c gray74",
"# c #666666",
"$ c gray78",
"% c None",
/* pixels */
"%%%%%%%%%%%%%%%%",
"XXXXXXXXXXXXXXX%",
"X%%%%%%%%%%%%%X%",
"X%$OOOOOOOOO$%X%",
"X%.         .%X%",
"X%+ooooooooo+%X%",
"X%.         .%X%",
"X%$OOOOOOOOO$%X%",
"X%%%%%%%%%%%%%X%",
"X%$OOOOOOOOO$%X%",
"X%.         .%X%",
"X%+ooooooooo+%X%",
"X%.         .%X%",
"X%$OOOOOOOOO$%X%",
"X%%%%%%%%%%%%%X%",
"XXXXXXXXXXXXXXX%"
};
