/* XPM */
static char *tm_cancel_2[] = {
/* columns rows colors chars-per-pixel */
"24 24 83 1 ",
"  c #f8d4d4",
". c #f6d2d2",
"X c #f5d1d1",
"o c #f2d0d0",
"O c #f2d0d0",
"+ c #f3cece",
"@ c #f3cece",
"# c #f0d0d0",
"$ c #efcece",
"% c #eed0d0",
"& c #eecdcd",
"* c #edcece",
"= c #f3cbcb",
"- c #f3caca",
"; c #f2caca",
": c #eccdcd",
"> c #ebcccc",
", c #eacccc",
"< c #eacbcb",
"1 c #eacbcb",
"2 c #e7c8c8",
"3 c #f2c9c9",
"4 c #f2c7c7",
"5 c #f2c7c7",
"6 c #f4c6c6",
"7 c #f2c6c6",
"8 c #f0c6c6",
"9 c #f0c5c5",
"0 c #f0c2c2",
"q c #f0c2c2",
"w c #f0c1c1",
"e c #eebfbf",
"r c #e1c3c3",
"t c #e0c2c2",
"y c #dfc3c3",
"u c #d7bcbc",
"i c #ccb2b2",
"p c #ccb3b3",
"a c #c2a7a7",
"s c #ecbbbb",
"d c #ebbaba",
"f c #eab8b8",
"g c #e8b5b5",
"h c #e5b3b3",
"j c #e5b3b3",
"k c #e3b1b1",
"l c #e2b0b0",
"z c #e1acac",
"x c #e0abab",
"c c #e0abab",
"v c #bb9d9d",
"b c #b89c9c",
"n c #b59898",
"m c #af9090",
"M c #a98989",
"N c #a48383",
"B c #a38282",
"V c #9c7c7c",
"C c #987878",
"Z c #947474",
"A c #8f7070",
"S c #8f6f6f",
"D c #8e6e6e",
"F c #826363",
"G c #806363",
"H c #6c5151",
"J c #6b5050",
"K c #6e4f4f",
"L c #6c5252",
"P c #624848",
"I c #5a4646",
"U c #574343",
"Y c #4f4242",
"T c #514040",
"R c #4c3f3f",
"E c #4b3d3d",
"W c #423b3b",
"Q c #433b3b",
"! c #433a3a",
"~ c #3b3737",
"^ c #3a3636",
"/ c gray81",
"( c None",
/* pixels */
"((((((((ES/(((((((((((((",
"((((((EN%.F(((((((((((((",
"((((!N:7zgr!(((((/S/((((",
"((((/pwzzz-V((((!b%n/(((",
"(((((L%zccg%U((/n-z-b/((",
"((((((b7cccwn(/b8zzz-b/(",
"((((((U%zzcz%Lb-zczz-b!(",
"(((((((N7cccw:-zccz-b/((",
"(((((((!:hcccwzzzz7b/(((",
"((((((((A-czccccz-n/((((",
"((((((((/ufzcccz-b/(((((",
"((((((((L:fzccz8b/((((((",
"(((((((K:gccccc%G(((((((",
"((((((L:fcczcczgr!((((((",
"(((((L:gzczgfczc7Z((((((",
"((((K:gcccg:%zccg:E(((((",
"(((K:fzzzg:Laezcc7M(((((",
"(((L:gccf:K(L:zzzz%U((((",
"((((K:gf:L(((M7zzceb((((",
"(((((K2:L((((E:gccz%L(((",
"((((((KK((((((Z7zzzwp/((",
"((((((((((((((!rgz7:N!((",
"(((((((((((((((G%%NE((((",
"(((((((((((((((/AE(((((("
};
