<?xml version="1.0" encoding="UTF-8"?>
<svg id="svg5375" width="24" height="24" version="1.1" xmlns="http://www.w3.org/2000/svg" xmlns:cc="http://creativecommons.org/ns#" xmlns:dc="http://purl.org/dc/elements/1.1/" xmlns:rdf="http://www.w3.org/1999/02/22-rdf-syntax-ns#">
 <metadata id="metadata5380">
  <rdf:RDF>
   <cc:Work rdf:about="">
    <dc:format>image/svg+xml</dc:format>
    <dc:type rdf:resource="http://purl.org/dc/dcmitype/StillImage"/>
    <dc:title/>
   </cc:Work>
  </rdf:RDF>
 </metadata>
 <g id="layer1" fill-opacity=".87843">
  <path id="path5385" d="m6.5 3.5h11v13h-11v-8.5z" stroke="#fff" stroke-opacity=".50222"/>
  <path id="path5103" d="m6.5 14.5v2h11v-2.5s2.9659-0.10518 3.7233 0.63342c1.0535 1.0275 0.92266 1.8624 0.86605 2.446-0.089304 0.92055-0.45535 1.2954-1.3386 1.661-1.033 0.42757-2.7507 0.25957-2.7507 0.25957s-0.75908 2.0893-4.4814 2.3214c-3.2713 0.20397-5.0186-1.8214-5.0186-1.8214s-0.71443 1-2.0667 1.0039c-1.0713 0.003088-2.4333-1.0039-2.4333-2.5039-1.5 0-2.5 0-2.1874-2.027 0.18812-1.22 1.3853-2.3301 2.3759-2.3916 1.3116-0.081425 2.3116 0.91858 2.3116 0.91858z" stroke="#7f7f7f" stroke-width="1px"/>
 </g>
</svg>
