/* XPM */
static char * tm_cell_hmin_xpm[] = {
"17 17 6 1",
" 	c None",
"=	c #00000000FFFF",
".	c #0000FFFFFFFF",
"o	c #000000000000",
"O	c #999999999999",
"r      c #FFFF00000000",
"     O r r O     ",
"       r r       ",
"     O r r O     ",
"       r r       ",
"     O r r O     ",
"       ooo       ",
"     O oOo O     ",
"       oOo       ",
"     O OOo O     ",
"       oOo       ",
"     O ooo O     ",
"       r r       ",
"     O r r O     ",
"       r r       ",
"     O r r O     ",
"       r r       ",
"     O r r O     "};
