/* XPM */
static char * tm_cell_vcenter_xpm[] = {
"17 17 6 1",
" 	c None",
"=	c #00000000FFFF",
".	c #0000FFFFFFFF",
"o	c #000000000000",
"O	c #999999999999",
"r      c #FFFF00000000",
" O             O ",
"OOOOOOOOOOOOOOOOO",
" O             O ",
" O             O ",
" O             O ",
" O ooooooooooo O ",
" O oOOOOOOOOOo O ",
" O oOOOOOOOOOo O ",
"===oOOOOOOOOOo===",
" O oOOOOOOOOOo O ",
" O oOOOOOOOOOo O ",
" O ooooooooooo O ",
" O             O ",
" O             O ",
" O             O ",
"OOOOOOOOOOOOOOOOO",
" O             O "};
