/* XPM */
static char *tm_copy_after[] = {
/* columns rows colors chars-per-pixel */
"16 16 6 1 ",
"  c #b0ffb0",
". c #72c472",
"X c #6fbf6f",
"o c #6bc06b",
"O c #5c5c5c",
"+ c None",
/* pixels */
"++++++++++++++++",
"++++++++++++++++",
"++++++++++++++++",
"++++++++++++++++",
"++++++++++++.+++",
"+++++OO+++++ .++",
"+++++OO+++++  .+",
"OOOOOOO        .",
"OOOOOOO        o",
"+++++OO+++++  o+",
"+++++OO+++++ o++",
"++++++++++++X+++",
"++++++++++++++++",
"++++++++++++++++",
"++++++++++++++++",
"++++++++++++++++"
};
