/* XPM */
static char *tm_customized[] = {
/* columns rows colors chars-per-pixel */
"16 16 31 1 ",
"  c #e0e0e2",
". c #dedede",
"X c #dedee0",
"o c #ddddde",
"O c #dbdbdd",
"+ c #d9d9db",
"@ c #d6d6d7",
"# c #d0d0d2",
"$ c #cfcfd0",
"% c #cbcbcd",
"& c gray55",
"* c #bdbdbf",
"= c #b1b1b1",
"- c #afafaf",
"; c gray66",
": c #979797",
"> c #919191",
", c #919195",
"< c gray69",
"1 c #838383",
"2 c #7e7e7e",
"3 c #777777",
"4 c gray77",
"5 c #666666",
"6 c #606060",
"7 c gray79",
"8 c #5d5d5d",
"9 c #5b5b5b",
"0 c #585858",
"q c #565656",
"w c None",
/* pixels */
"wwwwwww88wwwwwww",
"wwwwww2++2wwwwww",
"wwwwww:++:wwwwww",
"wwwwww4%&5wwwwww",
"wwwww6#@@#6wwwww",
"wwww6#X..X#6wwww",
"wwww%X%XX%X%wwww",
"wwww>>;XX;>>wwww",
"wwwwww;XX;wwwwww",
"wwwwww-XX-wwwwww",
"wwwwwq+OO+0wwwww",
"wwwww1o$$o1wwwww",
"wwwww* ,, *wwwww",
"wwww7oo89+o6wwww",
"wwww<X=ww=X<wwww",
"wwww839ww839wwww"
};
