/* XPM */
static char *tm_cell_background[] = {
/* columns rows colors chars-per-pixel */
"16 16 6 1 ",
"  c #e0e0e0",
". c #b23737",
"X c #37b237",
"o c #555537",
"O c #3737b2",
"+ c None",
/* pixels */
"++++++++++++++++",
"               +",
" XXXXXX OOOOOO +",
" XXXXXX OOOOOO +",
" XXXXXX OOOOOO +",
" XXXXXX OOOOOO +",
" XXXXXX OOOOOO +",
" XXXXXX OOOOOO +",
"               +",
" ...... oooooo +",
" ...... oooooo +",
" ...... oooooo +",
" ...... oooooo +",
" ...... oooooo +",
" ...... oooooo +",
"               +"
};
