/* XPM */
static char *tm_carc_mode[] = {
/* columns rows colors chars-per-pixel */
"20 20 27 1 ",
"  c gray25",
". c #e0e0e0",
"X c #dedede",
"o c #dadadb",
"O c #d3d3d3",
"+ c gray30",
"@ c #d1d1d1",
"# c #cfcfd1",
"$ c gray42",
"% c #aeaeb7",
"& c #9f9fab",
"* c gray51",
"= c gray54",
"- c #898989",
"; c #8a8a9e",
": c #86869c",
"> c #61618f",
", c #6b6b6b",
"< c #626262",
"1 c #55558b",
"2 c #40407f",
"3 c #3a3a7f",
"4 c #2f2f7c",
"5 c #444444",
"6 c #3e3e3e",
"7 c #252577",
"8 c None",
/* pixels */
"888888888888<$#@$<88",
"88888888888-      -8",
"8888888868<  ;33;o <",
"88885-$O OO :7777; $",
"888,O       477773 @",
"88*  #;>2>o 377774 @",
"8,  &47777$ ;7777: $",
"5O &7777771Xo;33;  <",
"- #47777777;      -8",
"$ ;7777777771%o O<88",
"#X>77777777777> O888",
"  2777777777772  688",
"O >47777777777> O888",
"$X;77777777777; $888",
"- #47777777774# -888",
"6O &777777777& O5888",
"8,  &4774774&  ,8888",
"88*  #;>3>;#  *88888",
"888,O       @,888888",
"88885-$O @$-68888888"
};
