<?xml version="1.0" encoding="UTF-8"?>
<!-- Created with Inkscape (http://www.inkscape.org/) -->
<svg id="svg3039" width="16" height="16" version="1.1" xmlns="http://www.w3.org/2000/svg" xmlns:cc="http://creativecommons.org/ns#" xmlns:dc="http://purl.org/dc/elements/1.1/" xmlns:rdf="http://www.w3.org/1999/02/22-rdf-syntax-ns#">
 <metadata id="metadata3044">
  <rdf:RDF>
   <cc:Work rdf:about="">
    <dc:format>image/svg+xml</dc:format>
    <dc:type rdf:resource="http://purl.org/dc/dcmitype/StillImage"/>
    <dc:title/>
   </cc:Work>
  </rdf:RDF>
 </metadata>
 <g id="layer1" fill="none" stroke-linecap="round">
  <path id="path9330" d="m2.0481 13.953 8.1294-7.5109 1.8621-0.4996s2.3247-0.94488 2.1515-1.9012c-0.17317-0.95627-0.78889-2.3643-1.7452-2.1911-0.95627 0.17317-2.7939 1.0322-2.8823 2-0.09094 0.99586 0.61374 2.5919 0.61374 2.5919z" stroke="#9f9f9f" stroke-linejoin="round" stroke-width="1.25"/>
  <path id="path9332" d="m10.195 15.906s-4.0104-4.4433-4.7464-7.231c-0.46174-1.749 0.82872-3.6708 0.3504-5.4153-0.35812-1.3061-2.2935-3.3536-2.2935-3.3536" stroke="#c05f5f" stroke-width="1.5"/>
  <path id="path9328" d="m0.8502 5.9061 12 4s2.2643 0.55719 2.5 1.5-0.55719 2.2643-1.5 2.5-2.0212-0.65432-2.5-1.5c-0.4927-0.8702 0-3 0-3z" stroke="#9f9f9f" stroke-linejoin="round" stroke-width="1.25"/>
 </g>
</svg>
