/* XPM */
static char * tm_cell_left_xpm[] = {
"17 17 6 1",
" 	c None",
"=	c #00000000FFFF",
".	c #0000FFFFFFFF",
"o	c #000000000000",
"O	c #999999999999",
"r      c #FFFF00000000",
" =             O ",
"O=OOOOOOOOOOOOOOO",
" =             O ",
" =             O ",
" =             O ",
" =             O ",
" =oooooooooo   O ",
" =OOOOOOOOOo   O ",
" =OOOOOOOOOo   O ",
" =OOOOOOOOOo   O ",
" =OOOOOOOOOo   O ",
" =OOOOOOOOOo   O ",
" =oooooooooo   O ",
" =             O ",
" =             O ",
"O=OOOOOOOOOOOOOOO",
" =             O "};
