/* XPM */
static char *tm_cut[] = {
/* columns rows colors chars-per-pixel */
"24 24 5 1 ",
"  c gray25",
". c #e0e0e0",
"X c #0b0b0b",
"o c gray100",
"O c None",
/* pixels */
"OO...................OOO",
"OO.XXXXXXXXXXXXXXXXX.OOO",
"OO.XXXXXXXXXXXXXXXXX.OOO",
"OO.XXXXXXXXXXXXXXXXX.OOO",
"OO.XX O O O O O O XX.OOO",
"OO.XXOOOOOOOOOOOOOXX.OOO",
"OO.XX OOOOOOOOOOO XX.OOO",
"OO.XXOOOOO X X X X X X O",
"OO.XX OOOOXXXXXXXXXXXXXO",
"OO.XXOOOOO XXXXXXXXXXX O",
"OO.XX OOOOXXXXXXXXXXXXXO",
"OO.XXOOOOO XXXXXXXXXXX O",
"OO.XX OOOOXXXXXXXXXXXXXO",
"OO.XXOOOOO XXXXXXXXXXX O",
"OO.XX O O XXXXXXXXXXXXXO",
"OO.XXXXXXX XXXXXXXXXXX O",
"OO.XXXXXXXXXXXXXXXXXXXXO",
"OO.XXXXXXX X X X X X X O",
"OO.XXXXXXXXXXXXXXXXX.OOO",
"OO.XXXXXXXXXXXXXXXXX.OOO",
"OO.XXXXXXXXXXXXXXXXX.OOO",
"OO.XXXXXXXXXXXXXXXXX.OOO",
"OO.XXXXXXXXXXXXXXXXX.OOO",
"OO...................OOO"
};
