<?xml version="1.0" encoding="UTF-8"?>
<!-- Created with Inkscape (http://www.inkscape.org/) -->
<svg id="svg3039" width="20" height="20" version="1.1" xmlns="http://www.w3.org/2000/svg" xmlns:cc="http://creativecommons.org/ns#" xmlns:dc="http://purl.org/dc/elements/1.1/" xmlns:rdf="http://www.w3.org/1999/02/22-rdf-syntax-ns#">
 <metadata id="metadata3044">
  <rdf:RDF>
   <cc:Work rdf:about="">
    <dc:format>image/svg+xml</dc:format>
    <dc:type rdf:resource="http://purl.org/dc/dcmitype/StillImage"/>
    <dc:title/>
   </cc:Work>
  </rdf:RDF>
 </metadata>
 <g id="layer1" transform="translate(0,4)">
  <path id="text3199" d="m16.251 1.2252c0.19867-0.81674 0.22074-1.5673-0.22074-2.1412-0.61807-0.83882-1.788-1.0154-2.9138-1.0154-1.7439 0-3.5539 0.46356-5.0991 1.6997-0.99333 0.77259-1.7659 1.6997-2.3619 2.7593-0.75052 1.2803-1.2361 2.6489-1.5673 3.9954-0.28696 1.1258-0.44148 2.2736-0.35319 3.3332 0.066222 0.90504 0.28696 1.7439 0.79467 2.4061 0.72845 0.99334 1.9425 1.5231 3.3332 1.5231 1.501 0 3.1566-0.37526 4.5031-1.4569 0.41941-0.35318 0.77259-0.77259 1.0596-1.192l-0.75052-1.0375-0.28696 0.15452c-0.28696 0.66222-0.6843 1.3465-1.2803 1.8322-0.75052 0.596-1.6556 0.94919-2.5164 0.94919-0.97126 0-1.7659-0.46356-2.2736-1.1479-0.5077-0.6843-0.75052-1.5673-0.81674-2.4723-0.11037-1.1037 0.066222-2.2736 0.35319-3.4436 0.30904-1.2582 0.72845-2.4944 1.3907-3.7084 0.46356-0.88296 1.0816-1.6776 1.8984-2.3399 1.0375-0.81674 2.2295-1.1479 3.3994-1.1479 0.77259 0 1.501 0.19867 1.9204 0.75052 0.39733 0.52978 0.37526 1.2141 0.19867 1.9646-0.19867 0.77259-0.57393 1.6114-1.2803 2.1853-0.52978 0.41941-1.1479 0.70637-1.7659 0.70637-0.28696 0-0.61808 0-0.79467-0.22074-0.19867-0.26489-0.0883-0.66222 0.0883-1.0154 0.13244-0.30904 0.28696-0.66222 0.13244-0.90504-0.13244-0.17659-0.37526-0.24282-0.61808-0.24282-0.26489 0-0.55185 0.044148-0.77259 0.24282-0.24282 0.19867-0.37526 0.5077-0.44148 0.79467-0.11037 0.48563-0.088296 0.94919 0.17659 1.2803 0.46356 0.596 1.2803 0.72845 2.1191 0.72845 0.99333 0 2.075-0.30904 2.9579-1.0375 0.90504-0.72845 1.5231-1.7439 1.788-2.7813z" fill="#bfbfbf" stroke="#bfbfbf" stroke-width=".5" aria-label="ð’ž"/>
 </g>
</svg>
