/* XPM */
static char *tm_close_tool[] = {
/* columns rows colors chars-per-pixel */
"16 16 30 1 ",
"  c #e0e0e0",
". c #dedede",
"X c gray51",
"o c #dcdbdb",
"O c #d9d9d9",
"+ c gray53",
"@ c #d5d2d2",
"# c #d4d0d0",
"$ c #cdcdcd",
"% c gray58",
"& c #adadad",
"* c gray62",
"= c #a9a9a9",
"- c #8d8d8d",
"; c #b27b7b",
": c gray74",
"> c gray77",
", c #666666",
"< c gray78",
"1 c #5d5d5d",
"2 c #5c5c5c",
"3 c #585858",
"4 c gray81",
"5 c #8f2727",
"6 c #8b2323",
"7 c #812222",
"8 c #8a2222",
"9 c #7f2020",
"0 c #730000",
"q c None",
/* pixels */
"qqqqqqq44qqqqqqq",
"qqqqq11>>>4qqqqq",
"qq44>;=%%-->44qq",
"qq4:=$XXXXX*:4qq",
"q4>-X XX XX+*>4q",
"q4-$ ;5$+5;X$-4q",
"q>*X 509905XX*>q",
"4>%X +5009$XX%>q",
"4>%X $9009$ X%>q",
"q>*XX509909XX*<q",
"q4;$X;5$$5;X$-4q",
"q4>=+ XX XXX*>4q",
"qq4:*$XXXX$*:4qq",
"qq44>-*%%*->44qq",
"qqqqq4>>>44qqqqq",
"qqqqqqqqqqqqqqqq"
};
