/* XPM */
static char *tm_cloud_dir[] = {
/* columns rows colors chars-per-pixel */
"24 24 111 2 ",
"   c None",
".  c #eaeacc",
"X  c #e7e7c5",
"o  c #e5e5c3",
"O  c #e5e5c1",
"+  c #dadab8",
"@  c #d2d2b7",
"#  c #d5d5a4",
"$  c #c4c4ab",
"%  c #c7c7a2",
"&  c #b2b287",
"*  c #9c9c90",
"=  c #9a9a99",
"-  c #abab80",
";  c #abab81",
":  c #aaaa80",
">  c #a9a981",
",  c #a6a680",
"<  c #a4a47c",
"1  c #a3a37e",
"2  c #a2a283",
"3  c #a1a17c",
"4  c #a1a189",
"5  c #9d9d7b",
"6  c #9b9b7a",
"7  c #96967c",
"8  c #949490",
"9  c #92928f",
"0  c #8f8f75",
"q  c #87876a",
"w  c #909090",
"e  c #8f8f8f",
"r  c #8d8d8c",
"t  c #8b8b8b",
"y  c #878787",
"u  c #888887",
"i  c #878785",
"p  c #858584",
"a  c #838383",
"s  c #818181",
"d  c #818180",
"f  c #7e7e6e",
"g  c #7a7a71",
"h  c #7c7c7b",
"j  c #7e7e79",
"k  c #7a7a78",
"l  c #787878",
"z  c #757575",
"x  c #727272",
"c  c #737371",
"v  c #6e6e6b",
"b  c #6d6d6a",
"n  c #656551",
"m  c #646457",
"M  c #61614e",
"N  c #6a6a68",
"B  c #676767",
"V  c #626260",
"C  c #5c5c5c",
"Z  c #5b5b5b",
"A  c #646458",
"S  c #5c5c58",
"D  c #5c5c57",
"F  c #585856",
"G  c gray70",
"H  c #575755",
"J  c #535353",
"K  c #54544e",
"L  c gray72",
"P  c #4f4f4f",
"I  c #4d4d4d",
"U  c gray74",
"Y  c gray75",
"T  c #5b5b47",
"R  c #474747",
"E  c gray76",
"W  c #454542",
"Q  c #444440",
"!  c #404040",
"~  c #3b3b3b",
"^  c gray80",
"/  c #373737",
"(  c #393935",
")  c #2e2e2b",
"_  c #2e2e26",
"`  c #2d2d28",
"'  c #2c2c24",
"]  c #252522",
"[  c #24241f",
"{  c #20201a",
"}  c #1f1f19",
"|  c #1d1d15",
" . c #1b1b14",
".. c #1c1c14",
"X. c #1a1a13",
"o. c #1a1a13",
"O. c #1b1b17",
"+. c #1b1b15",
"@. c #181811",
"#. c #171710",
"$. c #15150f",
"%. c #14140e",
"&. c #13130e",
"*. c #12120b",
"=. c #12120c",
"-. c #11110b",
";. c #0f0f09",
":. c #0f0f08",
">. c #0c0c07",
",. c #0c0c07",
"<. c #080808",
/* pixels */
"                                                ",
"                                                ",
"              w w w w w w w w w w w w           ",
"              w <.<.<.<.<.<.<.<.<.<.w           ",
"          w w w w w w w w w w w w <.w           ",
"          w <.<.<.<.<.<.<.<.<.<.w <.w           ",
"          w <.<.<.<.<.<.<.<.<.<.w <.w           ",
"          w <.<.<.<.<.<.<.<.<.<.w <.w           ",
"          w <.<.<.<.<.<.<.<.<.<.w <.w           ",
"          w <.<.<.<.<.<.<.<.<.<.w <.w           ",
"          w <.<.<.<.<.<.<.<.<.<.w <.w           ",
"      : - - - - - - - - - - - ; 8 <.w . . X     ",
"      5 q T T T T T T T T T T 1 4 <.w - # +     ",
"    ^ f 3 T T T T T T T T T T q , <.w - O *     ",
"  L y j > n T T T T T T T T T M - O.w & o y Z   ",
"~ y ] ,.7 0 T T T T T T T T T T < m w % $ [ d R ",
"J N ,.,.A 2 T T T T T T T T T T q 6 w @ g ,.H C ",
"G V ,.,.| 9 w w w w w w w w w w w w w = { ,.D C ",
"E d >.,.,.%.*.:.:.:.:.:.:.:.:.:.:.$. ...,.,.l U ",
"  h Q ,.,.=.#.:.:.:.:.:.:.:.:.:.*.*.o.&.,.) s   ",
"  ! d c F d k _ @.@.@.@.@.@.X.K r S ' ;.` i I   ",
"    / P C U Z y b ( +.-.} W d z Y B a e d L     ",
"              / G x u t p v Y                   ",
"                                                "
};
