/* XPM */
static char *tm_camera[] = {
/* columns rows colors chars-per-pixel */
"16 16 27 1 ",
"  c #e0e0e0",
". c gray51",
"X c #dbdbdb",
"o c #d9d9d9",
"O c gray52",
"+ c #d5d5d5",
"@ c gray53",
"# c #d2d2d2",
"$ c #bebebe",
"% c gray58",
"& c gray62",
"* c #a9a9a9",
"= c #a4a4a4",
"- c gray66",
"; c gray67",
": c #8f8f8f",
"> c #8d8d8d",
", c #7b7b7b",
"< c gray",
"1 c gray75",
"2 c #6f6f6f",
"3 c gray80",
"4 c #585858",
"5 c gray81",
"6 c gray85",
"7 c #414141",
"8 c None",
/* pixels */
"8888888888888888",
"8888888888888888",
"88888,;;;;,88888",
"88888.  . .88888",
",.    .    .. .,",
"-.    &,,& .   -",
"-    >5--4;.   -",
"-   .7#...7.   -",
"-   %4  ..4%.  -",
"-   .7. ..7.   -",
"-   .>5--4;    -",
"-   ..&,,-     -",
",.. .  . . . ..,",
"8888888888888888",
"8888888888888888",
"8888888888888888"
};
