/* XPM */
static char *tm_cloud_file[] = {
/* columns rows colors chars-per-pixel */
"24 24 61 1 ",
"  c None",
". c #e0e0e0",
"X c #d8d8d8",
"o c #d5d5d5",
"O c #cecece",
"+ c #c3c3c3",
"@ c gray51",
"# c #bdbdbd",
"$ c #bababa",
"% c #b5b5b5",
"& c gray55",
"* c #afafaf",
"= c #adadad",
"- c gray57",
"; c #a7a7a7",
": c #a6a6a6",
"> c gray58",
", c gray59",
"< c gray60",
"1 c #9b9b9b",
"2 c #999999",
"3 c gray61",
"4 c #969696",
"5 c gray62",
"6 c #8f8f8f",
"7 c gray64",
"8 c gray65",
"9 c #848484",
"0 c gray67",
"q c #7f7f7f",
"w c #7b7b7b",
"e c #787878",
"r c #767676",
"t c gray70",
"y c #737373",
"u c #707070",
"i c #6e6e6e",
"p c gray72",
"a c gray73",
"s c gray74",
"d c #616161",
"f c #5c5c5c",
"g c #575757",
"h c gray78",
"j c #545454",
"k c gray79",
"l c #515151",
"z c #4b4b4b",
"x c gray81",
"c c #454545",
"v c #404040",
"b c #3d3d3d",
"n c gainsboro",
"m c #313131",
"M c gray88",
"N c #252525",
"B c gray92",
"V c #191919",
"C c #111111",
"Z c #0b0b0b",
"A c #090909",
/* pixels */
"                        ",
"                        ",
"                        ",
"      .XXXXXXXXXX.      ",
"      XAAAAAAAAAAX      ",
"      XAAAAAAAAAAX      ",
"      XAAAAAAAAAAX      ",
"      XAAAAAAAAAAX      ",
"      XAAAAAAAAAAX      ",
"      XAAAAAAAAAAX      ",
"      XAAAAAAAAAAX      ",
"      XAAAAAAAAAAX      ",
"      XAAAAAAAAAAX      ",
"  f<&3oAAAAAAAAAAO0wd   ",
" h%lBg@AAAAAAAAAA+pw-1x ",
" 8aAAA+AAAAAAAAAA+AAZ5e ",
" 2vAAA++++++++++++AAAh7 ",
" 82pbAAAAAAAAAAAAAAAAy9 ",
" zu39AAAVAAAAAAAAnsa4;k ",
"   j%xCx$cAAAAAAN*69ix  ",
"    d>#,r=1lmMcw%t      ",
"         xp5::3ql       ",
"                        ",
"                        "
};
