/* XPM */
static char *tm_delete_before[] = {
/* columns rows colors chars-per-pixel */
"16 16 8 1 ",
"  c #ffb0b0",
". c #f9a9a9",
"X c #e28d8d",
"o c #cf7b7b",
"O c #8a5656",
"+ c #7e5454",
"@ c #5c5c5c",
"# c None",
/* pixels */
"################",
"################",
"################",
"################",
"X ++ X##########",
"O oo O###@@#####",
"#X..X####@@#####",
"#O       @@@@@@@",
"#O       @@@@@@@",
"#X..X####@@#####",
"O oo O###@@#####",
"X ++ X##########",
"################",
"################",
"################",
"################"
};
