/* XPM */
static char *tm_delete_up[] = {
/* columns rows colors chars-per-pixel */
"16 16 37 1 ",
"  c #e0e0e0",
". c #dedede",
"X c gray51",
"o c #dbdbdb",
"O c #dcdbdb",
"+ c #d9d9d9",
"@ c #d5d5d5",
"# c #d2d2d2",
"$ c #d4d2d2",
"% c #d2d0d0",
"& c gray54",
"* c #cdcdcd",
"= c gray55",
"- c #c4c4c4",
"; c gray57",
": c #b2b2b2",
"> c gray61",
", c gray62",
"< c gray67",
"1 c #a28888",
"2 c #888888",
"3 c #7b7b7b",
"4 c gray",
"5 c gray78",
"6 c #616161",
"7 c gray79",
"8 c #5d5d5d",
"9 c #5c5c5c",
"0 c gray80",
"q c #565656",
"w c gray81",
"e c #7a3c3c",
"r c #6d3a3a",
"t c #763838",
"y c #743737",
"u c #581a1a",
"i c None",
/* pixels */
"iiiiiiiiiiiiiiii",
"iiiiiwwwwwwiiiii",
"iiiiiw4::4wiiiii",
"iiiw6<=  =<5wiii",
"iww4:      :4wwi",
"iw2==    = #-2wi",
"i5=  1e==t1  -5i",
"iw=  yutyuy   wi",
"i6#  #yuut#  #6i",
"i6#  =yuuy=  #wi",
"iw#  euytut  #5i",
"i5=  1y=#e1  #6i",
"i5=          =wi",
"iw:== = = = =:wi",
"iww5w55ww5w55wwi",
"iiiiiiiiiiiiiiii"
};
