/* XPM */
static char *tm_down[] = {
/* columns rows colors chars-per-pixel */
"16 16 9 1 ",
"  c #e0e0e0",
". c #dedede",
"X c gray51",
"o c #dbdbdb",
"O c #d2d2d2",
"+ c #8d8d8d",
"@ c #767676",
"# c gray75",
"$ c None",
/* pixels */
"$$$$$$$++$$$$$$$",
"$$$$$$$  $$$$$$$",
"$$$$$$$  $$$$$$$",
"$$$$$$$  $$$$$$$",
"$$$$$$$  $$$$$$$",
"$$$$$$$  $$$$$$$",
"$$$$$$$  $$$$$$$",
"$$$$$$$  $$$$$$$",
"$$$$$$$  $$$$$$$",
"$$$$$$$  $$$$$$$",
"$$$$##$  $##$$$$",
"$$$$Oo@  @oO$$$$",
"$$$$@Xo  oo@$$$$",
"$$$$$@o..o@$$$$$",
"$$$$$$@XX@$$$$$$",
"$$$$$$$##$$$$$$$"
};
