/* XPM */
static char *tm_entry_add[] = {
/* columns rows colors chars-per-pixel */
"20 20 30 1 ",
"  c #b9b9d7",
". c #6d6d97",
"X c #606092",
"o c #5c5c7c",
"O c #5b5b81",
"+ c #55557a",
"@ c #4e4e5e",
"# c #4d4d6c",
"$ c #4a4a69",
"% c #444463",
"& c #0808e2",
"* c #0707e8",
"= c #0000ff",
"- c #525252",
"; c gray76",
": c #414160",
"> c #424252",
", c #373746",
"< c #242434",
"1 c gray88",
"2 c #212121",
"3 c #1f1f1f",
"4 c #000045",
"5 c gray95",
"6 c #101010",
"7 c #0e0e0e",
"8 c gray96",
"9 c #0c0c0c",
"0 c #090909",
"q c None",
/* pixels */
"qqqqqqqqqqqqqqqqqqqq",
"qqqqqqqqqqqqqqqqqqqq",
"===================&",
"=444444444444444444=",
"&==================&",
"-000000000000000000-",
"-022222222222222220-",
"-022222222222222220-",
"-065555666555555550-",
"-611111111111,#,116-",
"-066556666656: %600-",
";622222222222# #220-",
"-622222222222# #220-",
"-00000000<:::X X:::#",
";;;;;--;;o         O",
"qqqqqqqqq:+++. .+++>",
"qqqqqqqqqqqqq+ +qqqq",
"qqqqqqqqqqqqq+ +qqqq",
"qqqqqqqqqqqqq+ +qqqq",
"qqqqqqqqqqqqq:+>qqqq"
};
