/* XPM */
static char *tm_exit_image[] = {
/* columns rows colors chars-per-pixel */
"20 20 116 2 ",
"   c #e3fe7f",
".  c #e2fd7c",
"X  c #e2fd7e",
"o  c #e3fb7c",
"O  c #daf57c",
"+  c #d8f27a",
"@  c #d7f07c",
"#  c #cfe777",
"$  c #cbe577",
"%  c #c8e175",
"&  c #c5de76",
"*  c #b8cf6e",
"=  c #b1ca6b",
"-  c #acc46a",
";  c #abc369",
":  c #afbe80",
">  c #8f9281",
",  c #8e9182",
"<  c #c5a18b",
"1  c #c39f87",
"2  c #c19e85",
"3  c #b5937b",
"4  c #b2937e",
"5  c #a5876e",
"6  c #9e8267",
"7  c #af584e",
"8  c #d17474",
"9  c #cb6262",
"0  c #c24545",
"q  c #c24747",
"w  c #bd3939",
"e  c #a8be68",
"r  c #a2b969",
"t  c #a1b864",
"y  c #9eb362",
"u  c #96a962",
"i  c #91a563",
"p  c #91a363",
"a  c #8e9f62",
"s  c #8c9f64",
"d  c #869662",
"f  c #859462",
"g  c #7f8d60",
"h  c #887862",
"j  c #94795c",
"k  c #8b7056",
"l  c #887255",
"z  c #7f7f7f",
"x  c #7f807f",
"c  c #7e7e7e",
"v  c #797979",
"b  c #6d7d56",
"n  c #6b7954",
"m  c #706147",
"M  c #6a5f46",
"N  c #616f4c",
"B  c #656355",
"V  c #735241",
"C  c #5a6e49",
"Z  c #5f6d4a",
"A  c #526141",
"S  c #515e41",
"D  c #b82a2a",
"F  c #b72525",
"G  c #56503b",
"H  c #9b1e1e",
"J  c #951d1d",
"K  c #771717",
"L  c #425335",
"P  c #375432",
"I  c #385732",
"U  c #365231",
"Y  c #335130",
"T  c #454430",
"R  c #42412d",
"E  c #344f2d",
"W  c #38492d",
"Q  c #34442a",
"!  c gray80",
"~  c #334929",
"^  c #35452b",
"/  c #303e23",
"(  c #2e3b21",
")  c #2f3d20",
"_  c gray82",
"`  c gray83",
"'  c #203d20",
"]  c #2d381f",
"[  c #2c361b",
"{  c #293117",
"}  c #1b301e",
"|  c #172c1d",
" . c #2e301b",
".. c #283016",
"X. c #282b16",
"o. c #252b13",
"O. c #232911",
"+. c #131313",
"@. c #131311",
"#. c #220505",
"$. c #0e1917",
"%. c #0c1413",
"&. c #0b1412",
"*. c #0b1413",
"=. c #0a1211",
"-. c #0a1312",
";. c #0c0c0c",
":. c #0b0b0b",
">. c gray97",
",. c #070707",
"<. c #570303",
"1. c #ab0303",
"2. c #010101",
"3. c #ff0101",
"4. c white",
"5. c None",
/* pixels */
"5.5.5.5.5.5.5.5.5.5.5.5.5.5.5.5.5.5.5.5.",
"5.! ! ! ! ! _ ! ! ! ! ! ! ! ! ! ! ` ` 5.",
"+.z z z x x c 6 c c c c c c c c z ;.1.;.",
";.z -.-.=.=.=.-.-.-.-.-.-.-.-.-.z ;.1.1.",
";.> f n ^ -.-.-.W N d C | -.-.-.z ;.1.1.",
";.z } u   e $.t . i ' -.-.-.-.-.v ,.1.1.",
";.z -.-.L + y   S %.-.-.-.-.-.-.1.1.1.1.",
";.z %.A g p   & * O i $.-.-.-.-.J q 1.1.",
">.z s o # %   # - t @ = U U U U #.9 F 1.",
";.: : C W m : P U U U b k 7 7 7 D w 8 K ",
"@., ..( W j 3 L U U Y Y V 7 7 7 D w 8 K ",
">.z O.o.o.5 j / ^ Y Y Y Y Y Y Y >.9 F 1.",
";.z { {  .< l O.O.O.{ { [ [ / / J q 1.1.",
";.h O.O.T < F O.O.O.O.O.O.O.O.O.1.1.1.1.",
"-.c O.O.F : T O.O.O.O.O.O.O.O.O.v 1.1.1.",
":.c O.O.6 : T O.O.O.O.O.O.O.O.O.z ;.1.1.",
":.c O.O.4 :  .X...| O.O.O.O.O.O.z ;.1.1.",
":.c c c c c c 6 z c c c z z z z z ;.1.1.",
":.;.;.;.;.;.;.;.;.;.;.;.#.;.;.;.;.1.1.;.",
"5._ _ _ _ _ _ _ _ _ _ _ _ _ _ _ _ _ _ 5."
};
