<?xml version="1.0" encoding="UTF-8"?>
<!-- Created with Inkscape (http://www.inkscape.org/) -->
<svg id="svg3039" width="20" height="20" version="1.1" xmlns="http://www.w3.org/2000/svg" xmlns:cc="http://creativecommons.org/ns#" xmlns:dc="http://purl.org/dc/elements/1.1/" xmlns:rdf="http://www.w3.org/1999/02/22-rdf-syntax-ns#">
 <metadata id="metadata3044">
  <rdf:RDF>
   <cc:Work rdf:about="">
    <dc:format>image/svg+xml</dc:format>
    <dc:type rdf:resource="http://purl.org/dc/dcmitype/StillImage"/>
    <dc:title/>
   </cc:Work>
  </rdf:RDF>
 </metadata>
 <g id="layer1" transform="translate(0,4)">
  <path id="text3080" d="m2.0024 13.694q0-0.42309 0.84619-0.42309h0.21155q0.75217 0 1.0342-0.18804 0.25856-0.18804 0.49361-1.0342l3.0557-12.176q0.11753-0.51711 0.11753-0.68165 0-0.42309-0.94021-0.42309h-0.30557q-0.49361 0-0.61114-0.094021-0.21155-0.16454 0-0.49361 0.11753-0.14103 0.35258-0.14103h11.282q0.4466 0 0.4466 0.37608 0 0-0.56412 4.4895-0.04701 0.39959-0.35258 0.39959-0.35258 0-0.35258-0.37608 0-0.094021 0.07052-0.68165 0.07052-0.58763 0.07052-1.1047 0-1.5513-0.82268-1.9744-0.79918-0.42309-2.7736-0.42309h-2.3505q-0.70516 0-0.94021 0.14103-0.21155 0.14103-0.37608 0.82268l-1.4103 5.6412h1.8334q1.3398 0 1.9274-0.37608 0.58763-0.39959 0.96371-1.7629 0.11753-0.56412 0.4466-0.56412 0.32907 0 0.32907 0.32907 0 0.21155-0.07052 0.42309-1.2693 5.1006-1.3398 5.2182-0.04701 0.11753-0.18804 0.16454-0.16454 0.04701-0.30557-0.023505-0.14103-0.070516-0.14103-0.25856 0-0.11753 0.09402-0.61114 0.11753-0.49361 0.11753-0.79918 0-0.65815-0.4701-0.82268-0.4701-0.18804-1.5278-0.18804h-1.8569q-1.6924 6.793-1.6924 6.934 0 0.28206 0.56412 0.28206h2.6326q1.9509 0 3.0087-0.39959 1.0577-0.39959 1.7629-1.3398 0.72866-0.96371 1.5984-3.0792 0.02351-0.023505 0.04701-0.11753 0.04701-0.094021 0.04701-0.11753 0.0235-0.04701 0.07052-0.094021 0.04701-0.070516 0.07052-0.094021 0.04701-0.023505 0.11753-0.04701 0.07052-0.023505 0.14103-0.023505 0.30557 0 0.30557 0.28206 0 0.11753-2.139 5.3357-0.07052 0.14103-0.11753 0.23505-0.04701 0.07051-0.14103 0.11753-0.09402 0.04701-0.14103 0.07052-0.02351 0-0.21155 0-0.18804 0-0.25856 0h-11.047q-0.61114 0-0.61114-0.32907z" fill="#bfbfbf" stroke="#bfbfbf" stroke-width=".5" aria-label="E"/>
 </g>
</svg>
