/* XPM */
static char *tm_entry_remove[] = {
/* columns rows colors chars-per-pixel */
"20 20 42 1 ",
"  c #fa7c7c",
". c #fa7d7d",
"X c #f36d6d",
"o c #f56d6d",
"O c #d94444",
"+ c #db4141",
"@ c #dc3d3d",
"# c #dc3b3b",
"$ c #d93737",
"% c #d83535",
"& c #833030",
"* c #0808e2",
"= c #0707e8",
"- c #0000ff",
"; c #525252",
": c gray76",
"> c #583939",
", c #4d3535",
"< c gray82",
"1 c #453535",
"2 c #4d2e2e",
"3 c #722424",
"4 c #6d1f1f",
"5 c #6c1e1e",
"6 c #6b1d1d",
"7 c #421d1d",
"8 c gray88",
"9 c #371f1f",
"0 c #2f1f1f",
"q c #212121",
"w c #1f1f1f",
"e c #2b1414",
"r c #2a1212",
"t c #271010",
"y c #240d0d",
"u c #000045",
"i c gray95",
"p c #101010",
"a c gray96",
"s c #0c0c0c",
"d c #090909",
"f c None",
/* pixels */
"ffffffffffffffffffff",
"ffffffffffffffffffff",
"-------------------=",
"-uuuuuuuuuuuuuuuuuu-",
"*------------------=",
";ddddddddddddddddsd;",
";dqqqqqqqqqqqqqqqqs;",
";dqqqqqqqqqqqqqqqqs;",
";spppspppppppppppps;",
";a88882788q28888q2s;",
";sppppppppp4qippy4d;",
";sqqqqqqqq3 @7qq$ 6;",
";sqqqqqqqqq@ @7@ @y;",
";sssdddddssy$ X.$yp;",
":;:;;;;;;;;;>X X>;;;",
"fffffffffff,@ X @1ff",
"ffffffffff1@ O2@ @1f",
"ffffffffff> @,f,@ &f",
"ffffffffff1>,fff,&1f",
"ffffffffffffffffffff"
};
