/* XPM */
static char *tm_expand_tool[] = {
/* columns rows colors chars-per-pixel */
"16 16 9 1 ",
"  c #e0e0e0",
". c #d9d9d9",
"X c gray52",
"o c #a8a8a8",
"O c #a8a8ab",
"+ c #a1a1a1",
"@ c #9b9b9b",
"# c #6f6f6f",
"$ c None",
/* pixels */
"$$$$$$$$$$$$$$$$",
"$$$$$$$$$$$$$$$$",
"$$XX    X     XX",
"$$X    X       X",
"$$o#########@##@",
"$$o############o",
"$$o############o",
"$$o############o",
"#$o############o",
"o$o############o",
"@$o############o",
"o$o############o",
"o$o############o",
"o$@oooooooooooo@",
"o$$$$$$$$$$$$$$$",
"@oooooo#$$$$$$$$"
};
