/* XPM */
static char *tm_focus_load[] = {
/* columns rows colors chars-per-pixel */
"16 16 20 1 ",
"  c #d6f3d6",
". c #d4eed4",
"X c #d4eed4",
"o c #d4f2d4",
"O c #d3f1d3",
"+ c #d3edd3",
"@ c #cdedcd",
"# c #ccedcc",
"$ c #c6eac6",
"% c #c5e8c5",
"& c #b4ceb4",
"* c #bfe5bf",
"= c #8aa98a",
"- c #83a383",
"; c #84a384",
": c #5c7b5c",
"> c #597659",
", c #587558",
"< c #3e433e",
"1 c None",
/* pixels */
"1111111111111111",
"1111111>>1111111",
"111111>.X>111111",
"11111,+$%X:11111",
"1111,+$**%X:1111",
"111,+$****%X:111",
"11,+$******%X:11",
"1> O##%**%##O >1",
"<;===&@**@&===;<",
"11111-@**@-11111",
"11111-@**@-11111",
"11111-@**@-11111",
"11111-@**@-11111",
"11111-o##o-11111",
"11111:====:11111",
"1111111111111111"
};
