/* XPM */
static char *tm_find_next[] = {
/* columns rows colors chars-per-pixel */
"24 24 90 1 ",
"  c #ffcfcf",
". c #fecece",
"X c #f7c9c9",
"o c #f6c9c9",
"O c #f6c8c7",
"+ c #f6c8c8",
"@ c #f3c5c5",
"# c #fdc6c6",
"$ c #ffc5c5",
"% c #f8c4c4",
"& c #ffc3c3",
"* c #ffc3c3",
"= c #ffc0c0",
"- c #edc0c0",
"; c #cab29a",
": c #c9b299",
"> c #c6b19e",
", c #c5b09d",
"< c #c3ac9c",
"1 c #c8af96",
"2 c #c3ae9a",
"3 c #c7ae96",
"4 c #c4ab93",
"5 c #c0ab97",
"6 c #c0a080",
"7 c #bda997",
"8 c #b7a696",
"9 c #b8a491",
"0 c #b8a38f",
"q c #bfa182",
"w c #b19f8f",
"e c #a99787",
"r c #a3988d",
"t c #a79587",
"y c #a69585",
"u c #9c8e86",
"i c gray50",
"p c #ffc0c0",
"a c #c5a09f",
"s c #b98e8e",
"d c #a49282",
"f c #a2907e",
"g c #a08f7e",
"h c #a87676",
"j c #99897f",
"k c #99897f",
"l c #9a8978",
"z c #958677",
"x c #958470",
"c c #928178",
"v c #9a6470",
"b c #8e7e6e",
"n c #86746c",
"m c #98606e",
"M c #7f7f7f",
"N c #7d7165",
"B c #776c61",
"V c #716268",
"C c #834f61",
"Z c #736153",
"A c #73515c",
"S c #6b585a",
"D c #6a5759",
"F c #8a4545",
"G c #645a4e",
"H c #5d5146",
"J c #544e57",
"K c #4f4a45",
"L c #763535",
"P c #463b33",
"I c #443e55",
"U c #453f46",
"Y c #322f50",
"T c #39333f",
"R c #363632",
"E c #352f29",
"W c #3a1c1c",
"Q c #231e1a",
"! c #1d1a35",
"~ c #1f1938",
"^ c #220e0e",
"/ c #050333",
"( c #020232",
") c #010131",
"_ c #20200c",
"` c #23230a",
"' c #242409",
"] c #2a2a07",
"[ c gray98",
"{ c None",
/* pixels */
"MMMMMMMMMMMMMMMMMMM{{{{{",
"M[[[[[[[[[[[[[[[[[M{{{{{",
"M[[[[[[[[[[[[[[[[[M{{{{{",
"M[[[[[[[[[[[[[[[[[M{{{{{",
"M[[[[[[[[[[[[[[[[[i{{{{{",
"M[[[[[[[[[[[[[[[[[i{{{{{",
"M[[[[[[[[[[[[[[[[[M{{{{{",
"M[[[[[[[[[[_EHHE`[M{{{{{",
"c[[[[h^[[[P0tNnt0Pi{{{{{",
"M[[[[.-L[GwT((((Twr{{{{{",
"M[[[[.*+a<~())(()!2K{{{{",
"......pp#XC()))())Vz{{{{",
".**pppppp*.v))))))I0{{{{",
"......pp*+m())))))Y2{{{{",
"M[[[[.*%XA))))))))Jt{{{{",
"M[[[[.+sZc))))))))uN{{{{",
"M[[[[XF[_tD((()))D3fR{{{",
"M[[[[W[[[QfjU~~Uj735fR{{",
"M[[[[[[[[[[Hl75jb:664fR{",
"M[[[[[[[[[[[[[[['x36d5fR",
"M[[[[[[[[[[[[[[[[`82663d",
"M[[[[[[[[[[[[[[[[[iu163f",
"M[[[[[[[[[[[[[[[[[iRu:fE",
"MMMMMMMMMMMMMMMMiin{RBE{"
};
