<?xml version="1.0" encoding="UTF-8"?>
<!-- Created with Inkscape (http://www.inkscape.org/) -->
<svg id="svg5375" width="24" height="24" version="1.1" xmlns="http://www.w3.org/2000/svg" xmlns:cc="http://creativecommons.org/ns#" xmlns:dc="http://purl.org/dc/elements/1.1/" xmlns:rdf="http://www.w3.org/1999/02/22-rdf-syntax-ns#">
 <metadata id="metadata5380">
  <rdf:RDF>
   <cc:Work rdf:about="">
    <dc:format>image/svg+xml</dc:format>
    <dc:type rdf:resource="http://purl.org/dc/dcmitype/StillImage"/>
    <dc:title/>
   </cc:Work>
  </rdf:RDF>
 </metadata>
 <g id="layer1">
  <path id="path7819" d="m0 9c0.023372 0.067792 0.040719 0.13797 0.070117 0.20338 0.0090114 0.020049 0.03575 0.025695 0.052326 0.04013 0.088694 0.077238 0.1576 0.07623 0.26686 0.10273 0.051849 0.012577 0.092036 0.051194 0.1439 0.061801 0.27364 0.055963 0.59652 0.035441 0.87254 0.00883 0.23683-0.022834 0.47576-0.00687 0.71294-0.02167 0.2162-0.013491 0.4382-0.086099 0.6423-0.15169 0.1029-0.033071 0.21458-0.048101 0.31919-0.075445 0.38504-0.10065 0.76844-0.18289 1.1656-0.22232 0.16646-0.016529 0.33687-0.015667 0.50233-0.035315 0.18725-0.022236 0.45362-0.11316 0.6423-0.16052 0.11461-0.028767 0.23765-0.041797 0.34404-0.097115 0.114-0.059274 0.20671-0.14035 0.31396-0.20948 0.16478-0.10622 0.32227-0.21451 0.4814-0.32907 0.039329-0.028313 0.0906-0.052402 0.12427-0.088287 0.11031-0.11755 0.23037-0.23039 0.33881-0.35154 0.1371-0.15317 0.25475-0.32715 0.41599-0.45749 0.1759-0.14219 0.39688-0.26473 0.61091-0.3379 0.096038-0.032829 0.19719-0.048851 0.29303-0.084274 0.56327-0.20819 1.0707-0.46993 1.6836-0.49842 0.28196-0.013106 0.57983-0.032432 0.85815 0.017657 0.12751 0.022949 0.26917 0.092576 0.38983 0.12922 0.25545 0.07758 0.49799 0.17744 0.74434 0.28011 0.45164 0.18822 0.88221 0.53927 1.3866 0.56423 0.15661 0.00775 0.33292 0.014827 0.48794-0.012842 0.13786-0.024606 0.27163-0.06419 0.41076-0.085076 0.42155-0.063283 0.84468-0.12007 1.2637-0.19985 0.23645-0.045022 0.45939-0.13269 0.69332-0.1862 0.19662-0.044982 0.40561-0.062191 0.60568-0.085076 0.36175-0.04138 0.75464-0.048809 1.1185-0.026486 0.09954 0.00611 0.19856 0.0256 0.29826 0.031302 0.5256 0.030061 1.0564-0.029423 1.5816 0.00401 0.25946 0.01652 0.51494 0.072713 0.77573 0.080261 0.24481 0.00709 0.59968-0.029053 0.83199 0.035315 0.18028 0.049953 0.37647 0.12252 0.53896 0.21831 0.04546 0.026795 0.08274 0.066307 0.1282 0.093102 0.11326 0.066764 0.23732 0.1135 0.34928 0.18219 0.07852 0.048177 0.32551 0.089117 0.37021 0.16453 0.01128 0.01903-0.0061 0.061071 0.0052 0.080261 0.02087 0.035209 0.01685 0.11355 0.0052 0.15571-0.01536 0.055778-0.05826 0.10636-0.08241 0.15972-0.21942 0.48464-0.70494 0.62745-1.176 0.78254-0.14273 0.046989-0.2781 0.11086-0.41599 0.16855-0.10326 0.043195-0.22989 0.063802-0.33881 0.089089-0.13962 0.032413-0.2852 0.025686-0.42646 0.04013-0.216 0.022088-0.43709 0.039513-0.65277 0.066616-0.29943 0.037628-0.60138 0.04179-0.90262 0.071432-0.44243 0.043534-0.88036 0.12199-1.3147 0.20868-0.08795 0.017553-0.17936 0.011865-0.26686 0.035315-0.07177 0.019233-0.13907 0.05103-0.21061 0.071432-0.1145 0.032651-0.23387 0.030862-0.34928 0.057788-0.15522 0.036217-0.55188 0.15076-0.63707 0.29777-0.04981 0.085952-0.04055 0.24912-0.04055 0.34673 0 0.19333-0.01716 0.3972-0.03139 0.59152-4e-3 0.05471-0.02606 0.10569-0.0314 0.15972-0.0076 0.07686 0.01179 0.15965-0.0092 0.23516-0.08185 0.29504-0.31396 0.52065-0.31396 0.83632 0 0.02921-0.0068 0.06971 0.0052 0.09712 0.11304 0.25719 0.43255 0.37322 0.64754 0.51126 0.10981 0.07051 0.22793 0.14245 0.31788 0.23597 0.07152 0.07435 0.13854 0.14857 0.22108 0.21349 0.1177 0.09258 0.25528 0.15935 0.34928 0.28011 0.0591 0.07592 0.13872 0.16704 0.17398 0.25764 0.05517 0.14176 0.12142 0.59385 0.08765 0.7376-0.01156 0.04921-0.06026 0.1046-0.08765 0.14688-0.08552 0.13202-0.09157 0.23418-0.09157 0.38686 0 0.03636-0.01105 0.09472 0.0039 0.12842 0.11637 0.26179 0.50972 0.34386 0.70902 0.54256 0.09564 0.09535 0.17496 0.38376 0.18576 0.51126 0.0065 0.07672-0.0036 0.15419 0.0039 0.23115 0.0092 0.09352 0.03338 0.18944 0.02093 0.28492-0.0059 0.04522-0.03488 0.08494-0.04579 0.12842-0.03733 0.14888-0.06025 0.30049-0.11773 0.44464-0.17053 0.4276-0.54814 0.69797-0.90393 0.95992-0.12774 0.09405-0.23044 0.21743-0.35451 0.31623-0.09535 0.07592-0.2506 0.16776-0.35974 0.22232-0.12956 0.06477-0.30306 0.0577-0.45131 0.1244-0.14023 0.06309-0.26223 0.1617-0.39114 0.24399-0.0889 0.05675-0.19228 0.08949-0.28256 0.14206-0.09019 0.05252-0.17669 0.11106-0.2721 0.15571-0.10576 0.04949-0.21198 0.01689-0.32311 0.03612-0.215 0.03721-0.4255 0.10523-0.64754 0.08427-0.0557-0.0053-0.10292-0.06878-0.15305-0.0931-0.06077-0.02948-0.13692-0.04588-0.19099-0.08909-0.11211-0.08958-0.21734-0.19329-0.33881-0.27128-0.17768-0.11408-0.45906-0.20033-0.66716-0.22634-0.16189-0.02023-0.33049 0.01393-0.49317 0-0.61923-0.05301-1.2427-7e-3 -1.8641-0.02729-0.29093-0.0095-0.57956-0.0472-0.8673-0.08909-0.1266-0.01843-0.26016-0.02198-0.3846-0.04816-0.059745-0.01257-0.1177-0.04172-0.17529-0.0626-0.15968-0.05789-0.42451-0.13225-0.58998-0.16052-0.1395-0.02384-0.28659-0.0733-0.42646-0.08427-0.26129-0.020525-0.57166-0.065925-0.82133-0.14608-0.17793-0.057124-0.37074-0.11722-0.53503-0.20466-0.1531-0.081484-0.28069-0.19763-0.45131-0.24881-0.086493-0.025944-0.17878-0.034614-0.26686-0.053775-0.37354-0.081256-0.77205-0.155-1.1145-0.33308-0.067378-0.035034-0.14195-0.070891-0.20015-0.12039-0.049559-0.042155-0.092466-0.094755-0.14913-0.12842-0.12918-0.076743-0.27538-0.12339-0.41076-0.18701-0.28798-0.13534-0.58161-0.27018-0.85684-0.431-0.35695-0.20857-0.69902-0.47643-1.1093-0.57788-0.21718-0.0537-0.44131-0.0858-0.66323-0.10675-0.13207-0.01247-0.26348-0.05251-0.39506-0.0626-0.52294-0.0401-0.93471 0.03188-1.3866 0.29375-0.16942 0.09817-0.48247 0.22575-0.62137 0.01766-0.10482-0.15703-0.10064-0.37041-0.1125-0.55139-0.021215-0.32378-0.035265-0.66226-0.015698-0.9864 0.00496-0.08214 0.0233-0.16224 0.026163-0.2448 0.015132-0.43634 0.021612-0.87085 0.040553-1.3066 0.00587-0.13496 0.00168-0.26976 0.015698-0.40451 0.013516-0.12992 0.047976-0.25702 0.061483-0.38686 0.041338-0.39734 0.11006-0.78778 0.19491-1.1782 0.066985-0.30823 0.095196-0.65667 0.22631-0.94627 0.078581-0.17357 0.17811-0.36913 0.30218-0.51608 0.037752-0.044708 0.27553-0.23161 0.27733-0.23516 0.029866-0.058914 0.052675-0.12114 0.079012-0.18171z" fill="#1e0c00" stroke-width="0"/>
  <path id="path7805" d="m-1 9c1.4106 0.02629 4 0 5.5-0.5s2.5-1.5 3.5-2 1.7955-0.47306 2.5-0.5c1 0 2.5866 0.48243 3.5477 1.2473 0.10118 0.07 1.9523 1.7527 1.9523 2.2527s1 2 0 2.5c-1.5 1-3.4396-1.87-4.5-2.5" fill="none" stroke="#fff" stroke-linecap="round" stroke-width=".7"/>
  <path id="path7807" d="m13.5 7c0.87487-0.29189 4.5-0.5 6.5-0.5s4 0.5 3 2c-1 1-5 1-7 1" fill="none" stroke="#fff" stroke-linejoin="round" stroke-width=".7"/>
  <path id="path7809" d="m16 12c0.61054-0.44214-0.42112 1.6909-1 2-1 0.5-3 0.5-4.3613 0.34638-0.63868-0.84638-0.63868-1.3464 0.36132-2.3464s1.5 0 2.5-0.5" fill="none" stroke="#fff" stroke-linecap="round" stroke-linejoin="round" stroke-width=".7"/>
  <path id="path7811" d="m16 13c0.18825-0.17522 1.2134 0.11689 1.4162 0.37282 0.13796 0.19293 0.16766 0.4191 0.24724 0.61801 0.08738 0.6794-0.22932 1.0295-0.61091 1.4712-0.2942 0.33708-0.63928 0.66788-1.0426 0.87564-0.44928 0.23144-1.0148 0.42591-1.5148 0.49842-0.39993 0.02251-1.1322 0.095506-1.4951 0.16393-1-0.5-1.3557-0.04004-2-1.5 0.07348-0.62808 0.11852-0.68612 0.5-1" fill="none" stroke="#fff" stroke-linecap="round" stroke-linejoin="round" stroke-width=".7"/>
  <path id="path7813" d="m17.622 15.257c0.62418 0.01032 0.56448 0.37678 0.77574 0.65817 0.22637 1.3522-0.3927 2.0365-1.3147 2.5603-0.63106 0.40586-1.2502 0.62415-1.9151 0.80501-1.7339 0.22268-2.5269-0.11213-2.2696-1.7738 0.01294-0.02729 0.02834-0.12131 0.08765-0.08026 0.02164 0.01498 0.04537 0.13485 0.01449 0.07321" fill="none" stroke="#fff" stroke-linecap="round" stroke-linejoin="round" stroke-width=".7"/>
  <path id="path7815" d="m-1 16.5c1-1 2.3589-0.45853 2.5-0.5 3 1 2.5 1.5 4.5 2 1.5 0.5 2.5 0.5 4 0.5 0.81977 0.09094 2.2837-0.50471 3-0.5" fill="none" stroke="#fff" stroke-linecap="round" stroke-width=".7"/>
  <path id="path7817" d="m6.5 12c0.19861 0.15539 1.5 0.5 2 0.5 1.5 0 1.4474-0.10158 2.5-0.5" fill="none" stroke="#fff" stroke-linecap="round" stroke-linejoin="round" stroke-width=".7"/>
  <path id="path7821" d="m0 9v7" fill="none" stroke="#fff" stroke-width="1.4"/>
 </g>
</svg>
