/* XPM */
static char *tm_focus_help[] = {
/* columns rows colors chars-per-pixel */
"16 16 35 1 ",
"  c #e0e0e0",
". c #dedede",
"X c #dbdbdb",
"o c #d9d9d9",
"O c gray52",
"+ c #d5d5d5",
"@ c gray53",
"# c gray54",
"$ c #c9c9c9",
"% c gray57",
"& c #c0c0c0",
"* c #bebebe",
"= c #a1a1a1",
"- c #9b9b9b",
"; c gray68",
": c #8d8d8d",
"> c gray69",
", c #8a8a8a",
"< c #848484",
"1 c gray71",
"2 c #818181",
"3 c #787878",
"4 c gray74",
"5 c gray75",
"6 c #6f6f6f",
"7 c gray76",
"8 c #6a6a6a",
"9 c #666666",
"0 c #5d5d5d",
"q c #5c5c5c",
"w c gray80",
"e c #585858",
"r c #565656",
"t c gray81",
"y c None",
/* pixels */
"yyyyyyyyyyyyyyyy",
"yyyyyy8:28yyyyyy",
"yyyy2O O  &tyyyy",
"yyyt$OO8&OO2yyyy",
"yyytOO$y&  :yyyy",
"yyyy3=83OOOtyyyy",
"yyyyyytO $tyyyyy",
"yyyyyy8OOtyyyyyy",
"yyyyyy2 =yyyyyyy",
"yyyyyy3O8yyyyyyy",
"yyyyyyy8yyyyyyyy",
"yyyyyy:O&tyyyyyy",
"yyyyytO O:yyyyyy",
"yyyyyy&OO8yyyyyy",
"yyyyyyt23yyyyyyy",
"yyyyyyyyyyyyyyyy"
};
