<?xml version="1.0" encoding="UTF-8"?>
<!-- Created with Inkscape (http://www.inkscape.org/) -->
<svg id="svg3039" width="16" height="16" version="1.1" xmlns="http://www.w3.org/2000/svg" xmlns:cc="http://creativecommons.org/ns#" xmlns:dc="http://purl.org/dc/elements/1.1/" xmlns:rdf="http://www.w3.org/1999/02/22-rdf-syntax-ns#">
 <metadata id="metadata3044">
  <rdf:RDF>
   <cc:Work rdf:about="">
    <dc:format>image/svg+xml</dc:format>
    <dc:type rdf:resource="http://purl.org/dc/dcmitype/StillImage"/>
    <dc:title/>
   </cc:Work>
  </rdf:RDF>
 </metadata>
 <g id="layer1">
  <g id="text6107" fill="#7f7f7f" filter="url(#filter6220)" stroke="#7f7f7f">
   <path id="path6116" d="m4.424 4.08c0 0.768 0.592 1.024 0.992 1.024 0.512 0 1.008-0.352 1.008-1.008 0-0.752-0.688-0.96-0.72-0.976 0.416-0.304 1.072-0.496 1.808-0.496 1.472 0 1.488 0.624 1.488 1.376 0 0.704-0.128 0.96-0.448 1.28-0.992 1.04-1.44 2.272-1.44 3.312v0.608c0 0.352 4e-7 0.432 0.368 0.432 0.384 0 0.384-0.096 0.384-0.48v-0.432c0-1.648 1.488-2.624 2.096-2.976 0.32-0.192 1.088-0.624 1.088-1.632 0-2.064-2.848-2.064-3.44-2.064-2.224 0-3.184 1.008-3.184 2.032"/>
   <path id="path6112" d="m6.4838 12.745c0 0.688 0.544 1.248 1.248 1.248 0.672 0 1.248-0.56 1.248-1.248s-0.576-1.248-1.248-1.248c-0.704 0-1.248 0.56-1.248 1.248"/>
  </g>
 </g>
</svg>
