/* XPM */
static char *tm_frak[] = {
/* columns rows colors chars-per-pixel */
"20 20 79 1 ",
"  c gray25",
". c #e0e0e0",
"X c gray26",
"o c gray27",
"O c #dadada",
"+ c #d8d8d8",
"@ c #d7d7d7",
"# c gray29",
"$ c #d4d4d4",
"% c #d3d3d3",
"& c #d1d1d1",
"* c #cecece",
"= c gray32",
"- c gray33",
"; c #c8c8c8",
": c gray34",
"> c #c5c5c5",
", c gray35",
"< c #c1c1c1",
"1 c gray36",
"2 c #bfbfbf",
"3 c gray37",
"4 c #bbbbbb",
"5 c gray38",
"6 c #b9b9b9",
"7 c #b7b7b7",
"8 c gray40",
"9 c #b3b3b3",
"0 c #b2b2b2",
"q c DimGray",
"w c #b0b0b0",
"e c gray42",
"r c #aaaaaa",
"t c #a7a7a7",
"y c #a6a6a6",
"u c gray46",
"i c #a2a2a2",
"p c #a0a0a0",
"a c gray47",
"s c #9e9e9e",
"d c #9a9a9a",
"f c gray49",
"g c gray51",
"h c #919191",
"j c gray52",
"k c gray55",
"l c gray56",
"z c gray58",
"x c #7d7d7d",
"c c gray59",
"v c #797979",
"b c gray60",
"n c #777777",
"m c #717171",
"M c #707070",
"N c #6e6e6e",
"B c gray66",
"V c #656565",
"C c #646464",
"Z c #626262",
"A c gray68",
"S c gray69",
"D c #5c5c5c",
"F c gray71",
"G c #565656",
"H c #4f4f4f",
"J c gray74",
"K c gray",
"L c #4a4a4a",
"P c gray76",
"I c #434343",
"U c #414141",
"Y c gray79",
"T c #3e3e3e",
"R c #3d3d3d",
"E c #3b3b3b",
"W c #3a3a3a",
"Q c gray81",
"! c None",
/* pixels */
"!!!!!!!!!!!!!!!!!!!!",
"!!!!!!!CsgG!!!!!!!!!",
"!!!!!ReOOOO5C!!Mz!!!",
"!!!!!g=si2O +5e+H!!!",
"!!!!!+C!!Rz+O +M!!!!",
"!!!!H=!!!P+eveC!!!!!",
"!!!!RC!!R=i!!R!!!!!!",
"!!!!!!!!gOg!P2G!!!!!",
"!!!!!!!!i 2H=O2R!!!!",
"!!!!!!!!G+O+5=i!!!!!",
"!!!!!!P!!i +GHR!!!!!",
"!!!QMe+i!R= 2R!!!!!!",
"!!!P=2O2!!v+ s!!!!!!",
"!!!!!C 2!!!5 5!!!!!!",
"!!!!!CO5!!!kOe!!!!!!",
"!!!!!zO5!!!k s!!!!!!",
"!!!!!CO+P!Q22P!!!!!!",
"!!!!!R=O2s=2P!!!!!!!",
"!!!!!!Hs5ez!!!!!!!!!",
"!!!!!!!!!!!!!!!!!!!!"
};
