<?xml version="1.0" encoding="UTF-8"?>
<!-- Created with Inkscape (http://www.inkscape.org/) -->
<svg id="svg3039" width="16" height="16" version="1.1" xmlns="http://www.w3.org/2000/svg" xmlns:cc="http://creativecommons.org/ns#" xmlns:dc="http://purl.org/dc/elements/1.1/" xmlns:rdf="http://www.w3.org/1999/02/22-rdf-syntax-ns#">
 <metadata id="metadata3044">
  <rdf:RDF>
   <cc:Work rdf:about="">
    <dc:format>image/svg+xml</dc:format>
    <dc:type rdf:resource="http://purl.org/dc/dcmitype/StillImage"/>
    <dc:title/>
   </cc:Work>
  </rdf:RDF>
 </metadata>
 <g id="layer1">
  <g id="g37310" transform="matrix(1.2309 0 0 1.2197 -2.1099 -1.9643)">
   <path id="text36734" d="m8.6426 8.1738h1.4629q1.0186 0 2.0986-0.18457-0.80664 0.96387-1.5176 0.96387l-0.58105-0.013672-0.66309-0.013672-0.52637-0.013672h-0.35547l-0.054688 0.49902-0.068359 0.60156q-0.11621 0.96387-0.42383 1.4014-0.30078 0.43066-1.1689 0.84082l1.8936 0.10254-0.82031 0.79297-3.2402-0.15039 0.88184-0.84766 0.73828 0.08203q0.83398-0.52637 1.0254-2.1533l0.075195-0.66992 0.54004-4.8672h-0.23242q-1.3262 0-2.085 0.54688-0.75195 0.54004-0.75195 1.4834 0 0.56738 0.31445 1.1621l-1.1074 1.0664q-0.15723-0.5332-0.15723-1.0391 0-1.9141 1.5928-3.0967 1.1621-0.86133 3.3018-0.86133h2.2627q1.2715 0 2.5908-0.088867l-0.54688 1.4014-0.10938 0.25293q-0.1709 0.40332-0.4375 0.40332-0.04785 0-0.10254-0.00684 0.08203-0.34863 0.08203-0.54688 0-0.45117-0.47852-0.56055-0.47852-0.11621-2.3721-0.11621h-0.65625z" aria-label="F"/>
   <path id="text36730" d="m8.1426 7.6738h1.4629q1.0186 0 2.0986-0.18457-0.80664 0.96387-1.5176 0.96387l-0.58105-0.013672-0.66309-0.013672-0.52637-0.013672h-0.35547l-0.054688 0.49902-0.068359 0.60156q-0.11621 0.96387-0.42383 1.4014-0.30078 0.43066-1.1689 0.84082l1.8936 0.10254-0.82031 0.79297-3.2402-0.15039 0.88184-0.84766 0.73828 0.082031q0.83398-0.52637 1.0254-2.1533l0.075195-0.66992 0.54004-4.8672h-0.23242q-1.3262 0-2.085 0.54688-0.75195 0.54004-0.75195 1.4834 0 0.56738 0.31445 1.1621l-1.1074 1.0664q-0.15723-0.5332-0.15723-1.0391 0-1.9141 1.5928-3.0967 1.1621-0.86133 3.3018-0.86133h2.2627q1.2715 0 2.5908-0.088867l-0.54688 1.4014-0.10938 0.25293q-0.1709 0.40332-0.4375 0.40332-0.04785 0-0.10254-0.00684 0.08203-0.34863 0.08203-0.54688 0-0.45117-0.47852-0.56055-0.47852-0.11621-2.3721-0.11621h-0.65625z" fill="#bfbfbf" aria-label="F"/>
  </g>
 </g>
</svg>
