/* XPM */
static char *tm_group_zoom[] = {
/* columns rows colors chars-per-pixel */
"20 20 86 1 ",
"  c gray25",
". c #e0e0e0",
"X c #e0e0e0",
"o c #dfdfdf",
"O c #dfdedc",
"+ c #dedfdc",
"@ c #dedcdb",
"# c #dcdedb",
"$ c #dcdedc",
"% c gray27",
"& c #dbd8d4",
"* c #d8d9d5",
"= c #d1d1d1",
"- c #d4ceca",
"; c #cdd3c7",
": c #d3ccc5",
"> c #cbd2c4",
", c #c8d1c0",
"< c #cecece",
"1 c gray32",
"2 c #c5c5c5",
"3 c #c1c1c1",
"4 c #c1c3c1",
"5 c #c3ccba",
"6 c #c0cbb6",
"7 c #c0b1a3",
"8 c #bdac9d",
"9 c #bbbbbb",
"0 c #b7b7b7",
"q c #b6b6b6",
"w c #b6b1ad",
"e c #b0b0b0",
"r c #a7a7a7",
"t c #989898",
"y c #a7b998",
"u c #a4b890",
"i c #97b07f",
"p c #96ae7e",
"a c #93ae79",
"s c #9d9186",
"d c #9f7b58",
"f c #89a96b",
"g c #7fa05f",
"h c #7ea25d",
"j c #779d54",
"k c #929292",
"l c #8c8c8c",
"z c #8a8a89",
"x c #888988",
"c c #888886",
"v c gray56",
"b c #828281",
"n c #81817f",
"m c #7e8378",
"M c #767676",
"N c #70974d",
"B c #757d6e",
"V c #776351",
"C c #68765b",
"Z c gray63",
"A c #6f6f6c",
"S c gray65",
"D c #646464",
"F c #626262",
"G c #6e5c4b",
"H c gray70",
"J c gray74",
"K c gray75",
"L c #98704a",
"P c #6a5a49",
"I c #6b5849",
"U c #6b5847",
"Y c #685644",
"T c #6a5542",
"R c #675340",
"E c #70984a",
"W c #586a46",
"Q c #556a42",
"! c #536740",
"~ c #494949",
"^ c gray76",
"/ c #414141",
"( c #3d3d3d",
") c #3a3a3a",
"_ c gray81",
"` c None",
/* pixels */
"````~~``````````````",
"```(cx(````^qF``````",
"```ABBA````r.=(`````",
"``KxWQxK``S.>.t`````",
"`(bC!!Cb((1*j6.H````",
"`FmWQQQmFl.iEh.4_```",
"_xlxlllxt.6NEEu.b```",
"_xPPPTPP1.hEEEN;.K``",
"(lTRRRRs uEEEEEf.e``",
")lTTRRV..iaaaaaa> M`",
")lGPPPw .         =`",
"_bxxxxq 788888888&4`",
"``````x dLLLLLLLL:4`",
"``````l dLLLLLLLL:4`",
"``````l dLLLLLLLL:4`",
"``````l dLLLLLLLL:4`",
"``````x dLLLLLLLL:4`",
"``````l -::::::::.4`",
"``````K94444444444A`",
"````````````````````"
};
