/* XPM */
static char *tm_greek[] = {
/* columns rows colors chars-per-pixel */
"20 20 44 1 ",
"  c gray25",
". c #414141",
"X c #434343",
"o c gray27",
"O c gray28",
"+ c #484848",
"@ c #494949",
"# c #4B4B4B",
"$ c gray30",
"% c gray31",
"& c #505050",
"* c gray33",
"= c #565656",
"- c gray37",
"; c #5F5F5F",
": c #606060",
"> c #626262",
", c gray40",
"< c gray44",
"1 c #717171",
"2 c gray45",
"3 c gray47",
"4 c gray48",
"5 c #7B7B7B",
"6 c gray49",
"7 c #7E7E7E",
"8 c #808080",
"9 c #818181",
"0 c #848484",
"q c gray54",
"w c #8B8B8B",
"e c #909090",
"r c #9A9A9A",
"t c #A2A2A2",
"y c #AAAAAA",
"u c gray69",
"i c gray70",
"p c #B7B7B7",
"a c gray74",
"s c gray",
"d c gray75",
"f c gray76",
"g c #C5C5C5",
"h c None",
/* pixels */
"hhhhhhhhhhhhhhhhhhhh",
"hhhggggggggggggghhhh",
"hhh=+++= ++ ++++ghhh",
"hhhgi,  wdgdy0=+ihhh",
"hhhhhe +ihhhhhi+rhhh",
"hhhhhe  yhhhhhh;0hhh",
"hhhhhe  ihhhhhh11hhh",
"hhhhhe  ihhhhhhr7hhh",
"hhhhhe  yhhhhhhhhhhh",
"hhhhhe +ihhhhhhhhhhh",
"hhhhhe  ihhhhhhhhhhh",
"hhhhhe  yhhhhhhhhhhh",
"hhhhhe +ihhhhhhhhhhh",
"hhhhhe  ihhhhhhhhhhh",
"hhhhhe  yhhhhhhhhhhh",
"hhhhhe  ihhhhhhhhhhh",
"hhhhh0  thhhhhhhhhhh",
"hhh1,=  +;,ihhhhhhhh",
"hhhw7770071dhhhhhhhh",
"hhhhhhhhhhhhhhhhhhhh"
};
