<?xml version="1.0" encoding="UTF-8" standalone="no"?>
<svg
   id="svg3039"
   viewBox="0 0 20 20.000001"
   version="1.1"
   width="20"
   height="20"
   xmlns="http://www.w3.org/2000/svg"
   xmlns:svg="http://www.w3.org/2000/svg">
  <defs
     id="defs1">
    <style
       id="style1">
      .cls-1 {
        fill: none;
        stroke: #bfbfbf;
        stroke-width: .5px;
      }

      .cls-2 {
        fill: #bfbfbf;
      }

      .cls-3, .cls-4 {
        isolation: isolate;
      }

      .cls-4 {
        filter: url(#filter10642);
      }
    </style>
    <filter
       id="filter10642"
       x="-0.053954631"
       y="-0.043561227"
       width="1.1104506"
       height="1.0885146">
      <feGaussianBlur
         stdDeviation="0.18812063"
         id="feGaussianBlur1" />
    </filter>
  </defs>
  <g
     id="layer1"
     transform="translate(2.5231507,-1.9224005)">
    <g
       id="text3134"
       class="cls-4">
      <g
         class="cls-3"
         id="g1">
        <path
           class="cls-2"
           d="M 13.44092,9.39844 C 13.06201,6.20117 12.56494,4.80469 9.17822,4.80469 H 6.73877 c -1.11279,0 -1.16064,0.16602 -1.16064,0.94727 v 12.55078 c 0,0.8291 0,1.13672 2.25,1.13672 h 0.78174 v 0.73438 c -0.85303,-0.07129 -3.00781,-0.07129 -3.979,-0.07129 -0.92334,0 -2.77051,0 -3.59961,0.07129 v -0.73438 h 0.56836 c 1.82373,0 1.87109,-0.25977 1.87109,-1.11328 V 5.91797 c 0,-0.85352 -0.04736,-1.11328 -1.87109,-1.11328 H 1.03126 V 4.07031 h 12.33838 l 0.66309,5.32812 h -0.5918 z"
           id="path1" />
      </g>
      <g
         class="cls-3"
         id="g2">
        <path
           class="cls-1"
           d="M 13.44092,9.39844 C 13.06201,6.20117 12.56494,4.80469 9.17822,4.80469 H 6.73877 c -1.11279,0 -1.16064,0.16602 -1.16064,0.94727 v 12.55078 c 0,0.8291 0,1.13672 2.25,1.13672 h 0.78174 v 0.73438 c -0.85303,-0.07129 -3.00781,-0.07129 -3.979,-0.07129 -0.92334,0 -2.77051,0 -3.59961,0.07129 v -0.73438 h 0.56836 c 1.82373,0 1.87109,-0.25977 1.87109,-1.11328 V 5.91797 c 0,-0.85352 -0.04736,-1.11328 -1.87109,-1.11328 H 1.03126 V 4.07031 h 12.33838 l 0.66309,5.32812 h -0.5918 z"
           id="path2" />
      </g>
    </g>
  </g>
</svg>
