<?xml version="1.0" encoding="UTF-8"?>
<!-- Created with Inkscape (http://www.inkscape.org/) -->
<svg id="svg3039" width="20" height="20" version="1.1" xmlns="http://www.w3.org/2000/svg" xmlns:cc="http://creativecommons.org/ns#" xmlns:dc="http://purl.org/dc/elements/1.1/" xmlns:rdf="http://www.w3.org/1999/02/22-rdf-syntax-ns#">
 <metadata id="metadata3044">
  <rdf:RDF>
   <cc:Work rdf:about="">
    <dc:format>image/svg+xml</dc:format>
    <dc:type rdf:resource="http://purl.org/dc/dcmitype/StillImage"/>
    <dc:title/>
   </cc:Work>
  </rdf:RDF>
 </metadata>
 <g id="layer1" transform="translate(0,4)" fill="#bfbfbf" stroke="#bfbfbf" stroke-width=".5">
  <path id="text3271" d="m7.0446 12.114q0.42725 0 0.72021 0.29907 0.29907 0.29907 0.29907 0.72022t-0.29907 0.72022q-0.29907 0.29297-0.72021 0.29297-0.42114 0-0.72021-0.29297-0.29297-0.29907-0.29297-0.72022t0.29297-0.72022q0.29907-0.29907 0.72021-0.29907z" aria-label="."/>
  <path id="text5460" d="m1.999 12.159q0.42725 0 0.72021 0.29907 0.29907 0.29907 0.29907 0.72022 0 0.42114-0.29907 0.72022-0.29907 0.29297-0.72021 0.29297-0.42114 0-0.72021-0.29297-0.29297-0.29907-0.29297-0.72022 0-0.42114 0.29297-0.72022 0.29907-0.29907 0.72021-0.29907z" aria-label="."/>
  <path id="text5464" d="m12.045 12.159q0.42725 0 0.72022 0.29907 0.29907 0.29907 0.29907 0.72022 0 0.42114-0.29907 0.72022-0.29907 0.29297-0.72022 0.29297-0.42114 0-0.72022-0.29297-0.29297-0.29907-0.29297-0.72022 0-0.42114 0.29297-0.72022 0.29907-0.29907 0.72022-0.29907z" aria-label="."/>
  <path id="text5468" d="m17.001 12.159q0.42725 0 0.72022 0.29907 0.29907 0.29907 0.29907 0.72022 0 0.42114-0.29907 0.72022-0.29907 0.29297-0.72022 0.29297t-0.72022-0.29297q-0.29297-0.29907-0.29297-0.72022 0-0.42114 0.29297-0.72022 0.29907-0.29907 0.72022-0.29907z" aria-label="."/>
 </g>
</svg>
