/* XPM */
static char *tm_gui[] = {
/* columns rows colors chars-per-pixel */
"20 20 139 2 ",
"   c #ebebc8",
".  c #eaeacb",
"X  c #eaeac7",
"o  c #e9e9c7",
"O  c #e9e9c6",
"+  c #e8e8c5",
"@  c #e6e6bd",
"#  c #e5e5c1",
"$  c #e2e2bf",
"%  c #e0e0b7",
"&  c #dfdfbb",
"*  c #dedeb5",
"=  c #ddddb9",
"-  c #dadab5",
";  c #cecea0",
":  c #cbcba1",
">  c #c8c8a0",
",  c #c3c39d",
"<  c #bfbf9b",
"1  c #bebe98",
"2  c #bbbb97",
"3  c #b2b28f",
"4  c #b2b291",
"5  c #aeae8e",
"6  c #a8a887",
"7  c #adad81",
"8  c #abab81",
"9  c #aaaa7f",
"0  c #a8a87e",
"q  c #a8a87f",
"w  c #a7a77e",
"e  c #a7a77f",
"r  c #a6a67d",
"t  c #a7a780",
"y  c #a5a57b",
"u  c #a6a67f",
"i  c #a3a37f",
"p  c #a5a57d",
"a  c #a5a57f",
"s  c #a1a17a",
"d  c #a2a285",
"f  c #a2a27e",
"g  c #a3a37e",
"h  c #a0a07d",
"j  c #9f9f82",
"k  c #9f9f7d",
"l  c #a0a07d",
"z  c #9e9e7b",
"x  c #9d9d7a",
"c  c #9d9d7b",
"v  c #9b9b7b",
"b  c #9b9b77",
"n  c #989878",
"m  c #999977",
"M  c #989876",
"N  c #989876",
"B  c #979775",
"V  c #99997e",
"C  c #99997b",
"Z  c #969677",
"A  c #979779",
"S  c #979776",
"D  c #959573",
"F  c #939373",
"G  c #929279",
"H  c #919172",
"J  c #909072",
"K  c #8f8f70",
"L  c #8e8e70",
"P  c #909076",
"I  c #909077",
"U  c #8f8f76",
"Y  c #8b8b72",
"T  c #8b8b75",
"R  c #898973",
"E  c #8d8d6f",
"W  c #8b8b6e",
"Q  c #8a8a6e",
"!  c #8a8a6e",
"~  c #88886d",
"^  c #888870",
"/  c #888871",
"(  c #86866a",
")  c #85856a",
"_  c #868671",
"`  c #86866f",
"'  c #838370",
"]  c #81816e",
"[  c #828268",
"{  c #818167",
"}  c #818168",
"|  c #808067",
" . c #7b7b63",
".. c #797962",
"X. c #777762",
"o. c #7a7a6b",
"O. c #797969",
"+. c #76765f",
"@. c #72725f",
"#. c #72725e",
"$. c #717165",
"%. c #717166",
"&. c #707065",
"*. c #6b6b60",
"=. c #68685f",
"-. c #67675e",
";. c #6e6e5a",
":. c #6d6d59",
">. c #6b6b5a",
",. c #6a6a59",
"<. c #696958",
"1. c #686857",
"2. c #686855",
"3. c #666655",
"4. c #676753",
"5. c #666652",
"6. c #62624f",
"7. c #61614e",
"8. c #61614e",
"9. c #60604d",
"0. c #60604d",
"q. c #5f5f4b",
"w. c #5e5e4a",
"e. c #5d5d49",
"r. c #5d5d49",
"t. c #5e5e57",
"y. c #55554f",
"u. c #53534e",
"i. c #50504a",
"p. c #5b5b48",
"a. c #4b4b48",
"s. c #4a4a47",
"d. c #464641",
"f. c #41413f",
"g. c #3f3f3d",
"h. c #40403b",
"j. c #3e3e39",
"k. c gray81",
"l. c None",
/* pixels */
"l.l.l.l.l.l.l.l.l.l.l.l.l.l.l.l.l.l.l.l.",
"l.l.l.l.l.l.l.l.l.l.l.l.l.l.l.l.l.l.l.l.",
"l.l.l.l.l.f.f f Z I ' o.%.o.' I Z f t k.",
"l.l.l.l.l.%.~ 7.:.:.+. . . .+.:.:.) 7 -.",
"l.l.l.l.k.t 5.p.e.7.7.7.7.7.r.r.e.B s l ",
"l.l.l.l.=.H p.:.5 &       & I 7.7.t B t ",
"l.l.l.k.l :.p.p.+.' I :   2 7.p.7.6 H ' ",
"l.l.l.t.Z p.p.p.p.:.3 & 4 7.p.p. .l l -.",
"l.l.l.H +.p.p.7.:.3 & 6 5.r.r.r.l B s a.",
"l.l.y.l p.p.p.:., & f 5.r.r.r.r.t H t j.",
"l.l.I +.p.p.o.1 & f 5.r.r.r.r.7.t H I l.",
"l.a.f p.p.:.,   : Z G _ r.r.r. .t B =.l.",
"l.'  .r.7.~     - - - 1 5.r.r.l l l a.l.",
"d.t 7.r.e.e.p.p.7.p.e.e.r.r.p.f H t k.l.",
"o.7 t t t s l l B l s t t t t t H H l.l.",
"~ H ~ ~ E E H H H H H E E ~ ~ t t &.l.l.",
"l ~ ~  .~ ) ) ) ) ) ) ) )  .) l 7 u.l.l.",
"l 5 t t t 6 7 7 7 t t 7 7 7 6 t s j.l.l.",
"l.l.l.l.l.l.l.l.l.l.l.l.l.l.l.l.l.l.l.l.",
"l.l.l.l.l.l.l.l.l.l.l.l.l.l.l.l.l.l.l.l."
};
