<?xml version="1.0" encoding="UTF-8"?>
<svg id="Calque_1" data-name="Calque 1" xmlns="http://www.w3.org/2000/svg" viewBox="0 0 256 256">
  <defs>
    <style>
      .cls-1 {
        fill: #8080ff;
      }
      .cls-2 {
        fill: #ffffff;
      }
    </style>
  </defs>
  <path class="cls-1" d="M133.16,172.11c5.26,3.5,11.48,5.45,18.69,6.62,8.56,1.36,11.68,3.31,11.68,8.37,0,4.28-2.92,7.59-7.01,7.59-3.7,0-6.81-2.53-11.68-8.56-5.25-6.42-9.54-8.76-13.43-11.29l-1.56-.97v1.75c0,7.59,1.36,14.6,3.89,21.41.97,2.72,1.75,5.06,1.75,6.42,0,3.89-3.89,7.59-7.78,7.59s-7.01-3.31-7.01-7.01c0-2.33.97-5.45,2.34-9.15,2.34-6.23,3.11-10.9,3.11-19.27v-1.75c-6.81,4.28-8.17,5.25-10.12,7.01-1.95,1.95-2.34,2.34-7.98,8.76-3.31,3.7-5.25,4.87-8.37,4.87-4.48,0-7.2-2.92-7.2-7.01,0-5.06,3.5-7.2,12.26-8.76,8.95-1.75,12.07-2.92,20.05-7.79-7.4-4.48-12.26-5.84-18.88-7.2-9.54-1.95-13.04-4.09-13.04-8.95,0-4.09,2.53-7.2,6.42-7.2,3.11,0,5.25,1.56,9.54,6.23,6.23,7.01,9.93,10.12,17.32,14.21v-2.53c0-5.25-.97-11.29-2.92-17.71-1.36-4.09-2.14-7.59-2.14-10.12,0-3.7,3.11-6.62,7.01-6.62s7.2,3.11,7.2,7.01c0,2.33-.78,5.25-2.14,9.15-2.33,6.23-3.31,11.48-3.31,16.15v4.67c5.45-3.11,7.59-4.67,11.29-8.17,4.67-4.67,10.71-12.65,14.99-12.65s7.2,2.92,7.2,7.4c0,5.06-2.53,7.2-10.12,8.37-8.56,1.36-12.26,2.53-21.8,7.98l1.75,1.17Z"/>
  <path class="cls-2" d="M150.33,95l-47.75-29.76c-5.88-3.71-9.3-8.36-9.3-13.33,0-6.51,4.35-9.92,11.16-9.92,4.65,0,8.07,1.56,13.33,7.13l44.94,45.87h-12.39Z"/>
</svg>