/* XPM */
static char *magick[] = {
/* columns rows colors chars-per-pixel */
"15 17 12 1",
"  c None",
"Y c Gray0",
". c #d6d7d6",
"X c #a5a8a5",
"o c #959895",
"O c #8484ff",
"+ c #4b4ff9",
"@ c #555aa6",
"# c #0c13f2",
"$ c #757975",
"% c #545c54",
"& c #434e43",
/* pixels */
"               ",
"               ",
"       o       ",
"      XYX      ",
"     o.%.o     ",
"    $.& &.$    ",
"    %&   &%    ",
"               ",
"               ",
"      &+       ",
"     +@+##     ",
"     @+O+&     ",
"     +OOO#     ",
"     #&+&@     ",
"      &#       ",
"               ",
"               "
};
