<?xml version="1.0" encoding="UTF-8"?>
<!-- Created with Inkscape (http://www.inkscape.org/) -->
<svg id="svg3039" width="20" height="20" version="1.1" xmlns="http://www.w3.org/2000/svg" xmlns:cc="http://creativecommons.org/ns#" xmlns:dc="http://purl.org/dc/elements/1.1/" xmlns:rdf="http://www.w3.org/1999/02/22-rdf-syntax-ns#">
 <metadata id="metadata3044">
  <rdf:RDF>
   <cc:Work rdf:about="">
    <dc:format>image/svg+xml</dc:format>
    <dc:type rdf:resource="http://purl.org/dc/dcmitype/StillImage"/>
    <dc:title/>
   </cc:Work>
  </rdf:RDF>
 </metadata>
 <g id="layer1" transform="translate(0,4)">
  <path id="path5338" d="m4.6206-3.0927s4.9169 0.27702 6.9238 0.27702c2.0069 0 6.5097-0.30887 6.5097-0.30887l-1.8532 14.771s-5.6607 0.52612-8.0831 0.53186c-2.4224 0.0057-6.8948-0.53186-6.8948-0.53186z" fill="#72725b" stroke="#979771" stroke-linejoin="round" stroke-width="1px"/>
  <path id="path5340" d="m1.2548 11.679 0.32822 3s4.452 0.25484 6.9488 0.27076c2.4968 0.01593 7.6496-0.20706 7.6496-0.20706l-0.74516-2.9681s-3.8131 0.36684-6.2355 0.37258c-2.4224 0.0057-7.946-0.46814-7.946-0.46814z" fill="#1f1f1f" stroke="#979771" stroke-linejoin="round" stroke-width="1px"/>
  <path id="path5342" d="m16.404 14.71 2.5859-14.698-0.77702-3.1052-2.9363 15.026z" fill="#1f1f1f" stroke="#979771" stroke-linejoin="round" stroke-width="1px"/>
  <path id="text3792" transform="matrix(.94108 0 -.21035 1.0626 -1.7033 1.5927)" d="m13.518 5.7011h-1.8677q-0.0073-0.40283-0.0073-0.49072 0-0.9082 0.30029-1.4941t1.2012-1.3184 1.0767-0.95947q0.271-0.35889 0.271-0.79102 0-0.60059-0.4834-1.0254-0.47607-0.43213-1.2891-0.43213-0.78369 0-1.311 0.44678-0.52734 0.44678-0.7251 1.3623l-1.8896-0.23438q0.080566-1.311 1.1133-2.2266 1.04-0.91553 2.7246-0.91553 1.7725 0 2.8198 0.93018 1.0474 0.92285 1.0474 2.1533 0 0.68115-0.38818 1.2891-0.38086 0.60791-1.6406 1.6553-0.65186 0.54199-0.81299 0.87158-0.15381 0.32959-0.13916 1.1792zm-1.8677 2.7686v-2.0581h2.0581v2.0581z" fill="#0f0f0f" stroke="#9f9f9f" stroke-width=".25" aria-label="?"/>
 </g>
</svg>
