/* XPM */
static char * tb_help_xpm[] = {
"17 17 20 1",
" 	c None",
".	c #ffffff",
"+	c #476f40",
"@	c #0d130b",
"#	c #11200e",
"$	c #182816",
"%	c #294425",
"&	c #090f09",
"*	c #243e20",
"=	c #2e4c2b",
"-	c #436a3c",
";	c #365430",
">	c #d4d4d4",
",	c #162412",
"'	c #dae0d9",
")	c #88a683",
"!	c #5d8c55",
"~	c #54854c",
"{	c #395e33",
"]	c #5c8a55",
"      .....      ",
"     .+@#$%.     ",
"    .%&@$$$*.    ",
"   .=@-...;$->   ",
"    .,'   .$$.   ",
"    %.    .$-.   ",
"         .$$).   ",
"        .$$!.    ",
"       .$$!.     ",
"      .~$!.      ",
"      .$~.       ",
"      ....       ",
"                 ",
"       ..        ",
"      .${.       ",
"      .{].       ",
"       ..        "
};
