/* XPM */
static char *magick[] = {
/* columns rows colors chars-per-pixel */
"10 17 19 1",
"p c gray1",
". c gray6",
"X c gray8",
"o c #e0e0e0",
"O c #cfcfcf",
"+ c #b5b5b5",
"@ c #adadad",
"# c #a8a8a8",
"$ c #a0a0a0",
"% c #959595",
"& c gray45",
"* c #7d7d7d",
"= c gray57",
"- c #656565",
"; c DarkGray",
": c #4d4d4d",
"> c #424242",
", c gray78",
"  c #2f2f2f",
/* pixels */
"          ",
"          ",
"   >=-,   ",
"  &@=&X=  ",
" >X;  %.  ",
" >X=  %p  ",
"     ,X$  ",
"     O&   ",
"    -+    ",
"    $:    ",
"    #     ",
"    %     ",
"          ",
"   :o*    ",
"   ;p&    ",
"          ",
"          "
};
