/* XPM */
static char *tm_insert_down[] = {
/* columns rows colors chars-per-pixel */
"16 16 30 1 ",
"  c #e0e0e0",
". c #dedede",
"X c gray51",
"o c #dbdbdb",
"O c #d9d9d9",
"+ c #d5d5d5",
"@ c #d2d2d2",
"# c gray54",
"$ c #cdcdcd",
"% c gray55",
"& c #c4c4c4",
"* c gray57",
"= c #b2b2b2",
"- c gray61",
"; c gray62",
": c gray67",
"> c #888888",
", c #7fa17f",
"< c #7b7b7b",
"1 c gray",
"2 c gray78",
"3 c #616161",
"4 c gray79",
"5 c #5d5d5d",
"6 c #5c5c5c",
"7 c gray80",
"8 c #565656",
"9 c gray81",
"0 c #1a581a",
"q c None",
/* pixels */
"qqqqqqqqqqqqqqqq",
"q92922922929929q",
"q2-##### ## #-9q",
"q9#    ,,    #2q",
"q9     00    #9q",
"q2#    00    #2q",
"q2  ,000000,  9q",
"q9# ,000000, #2q",
"q2#    00    #9q",
"q9*    00    *9q",
"q9:*   ,,   #>9q",
"q991-#    #-199q",
"qqq92:#  #:99qqq",
"qqqqq91--12qqqqq",
"qqqqq999999qqqqq",
"qqqqqqqqqqqqqqqq"
};
