/* XPM */
static char *magick[] = {
/* columns rows colors chars-per-pixel */
"15 17 14 1",
"  c None",
"Y c #f6f7f6",
". c #e6e7e6",
"X c #d6d7d6",
"o c #c6c7c6",
"O c #858985",
"+ c #8484ff",
"@ c #4b4ff9",
"# c #555aa6",
"$ c #0c13f2",
"% c #757975",
"& c #656b65",
"* c #545c54",
"= c #434e43",
/* pixels */
"               ",
"               ",
"      =*=      ",
"     OY.YO     ",
"    %.* *.%    ",
"    o&   &o    ",
"    X     X    ",
"    O     O    ",
"               ",
"      =@       ",
"     @#@$$     ",
"     #@+@=     ",
"     @+++$     ",
"     $=@=#     ",
"      =$       ",
"               ",
"               "
};
