<?xml version="1.0" encoding="UTF-8"?>
<!-- Created with Inkscape (http://www.inkscape.org/) -->
<svg id="svg3039" width="20" height="20" version="1.1" xmlns="http://www.w3.org/2000/svg" xmlns:cc="http://creativecommons.org/ns#" xmlns:dc="http://purl.org/dc/elements/1.1/" xmlns:rdf="http://www.w3.org/1999/02/22-rdf-syntax-ns#">
 <metadata id="metadata3044">
  <rdf:RDF>
   <cc:Work rdf:about="">
    <dc:format>image/svg+xml</dc:format>
    <dc:type rdf:resource="http://purl.org/dc/dcmitype/StillImage"/>
    <dc:title/>
   </cc:Work>
  </rdf:RDF>
 </metadata>
 <g id="layer1" transform="translate(0,4)">
  <path id="text3221" transform="matrix(.63311 0 0 .90763 5.4359 1.986)" d="m1.7943-2.3795h2.9024v9.1303q0 1.7906-0.31484 2.7548-0.42306 1.2593-1.5348 2.0268-1.1118 0.75758-2.9319 0.75758-2.135 0-3.2861-1.1905-1.1511-1.2003-1.161-3.5124l2.745-0.31484q0.049193 1.2397 0.36403 1.7513 0.47226 0.77726 1.4364 0.77726 0.97403 0 1.3774-0.55097 0.40339-0.5608 0.40339-2.3121zm8.6285 14.423h-2.7647v-10.449h2.5679v1.4856q0.65919-1.0527 1.1806-1.3873 0.53129-0.33451 1.2003-0.33451 0.94451 0 1.8202 0.52145l-0.85596 2.4105q-0.69855-0.45258-1.2987-0.45258-0.58048 0-0.98387 0.32468-0.40339 0.31484-0.63951 1.1511-0.22629 0.83629-0.22629 3.5026zm4.083 0v-2.7647h2.7647v2.7647z" fill="#bfbfbf" stroke="#bfbfbf" stroke-width=".5" aria-label="Jr."/>
 </g>
</svg>
