<?xml version="1.0" encoding="UTF-8" standalone="no"?>
<svg
   xmlns:dc="http://purl.org/dc/elements/1.1/"
   xmlns:cc="http://creativecommons.org/ns#"
   xmlns:rdf="http://www.w3.org/1999/02/22-rdf-syntax-ns#"
   xmlns:svg="http://www.w3.org/2000/svg"
   xmlns="http://www.w3.org/2000/svg"
   xmlns:xlink="http://www.w3.org/1999/xlink"
   xmlns:sodipodi="http://sodipodi.sourceforge.net/DTD/sodipodi-0.dtd"
   xmlns:inkscape="http://www.inkscape.org/namespaces/inkscape"
   height="16"
   id="svg6159"
   inkscape:output_extension="org.inkscape.output.svg.inkscape"
   inkscape:version="0.48.0 r9654"
   sodipodi:docname="tm_korean.svg"
   sodipodi:version="0.32"
   version="1.0"
   viewBox="-72 -48 9 6"
   width="16">
  <metadata
     id="metadata12231">
    <rdf:RDF>
      <cc:Work
         rdf:about="">
        <dc:title></dc:title>
        <dc:description />
        <dc:subject>
          <rdf:Bag>
            <rdf:li>unsorted</rdf:li>
          </rdf:Bag>
        </dc:subject>
        <dc:publisher>
          <cc:Agent
             rdf:about="http://www.openclipart.org/">
            <dc:title>Open Clip Art Library, Source: Wikimedia Commons, Source: Wikimedia Commons, Source: Wikimedia Commons, Source: Wikimedia Commons</dc:title>
          </cc:Agent>
        </dc:publisher>
        <dc:creator>
          <cc:Agent>
            <dc:title />
          </cc:Agent>
        </dc:creator>
        <dc:rights>
          <cc:Agent>
            <dc:title />
          </cc:Agent>
        </dc:rights>
        <dc:date />
        <dc:format>image/svg+xml</dc:format>
        <dc:type
           rdf:resource="http://purl.org/dc/dcmitype/StillImage" />
        <cc:license
           rdf:resource="http://en.wikipedia.org/wiki/Public_domain" />
        <dc:language>en</dc:language>
      </cc:Work>
    </rdf:RDF>
  </metadata>
  <sodipodi:namedview
     bordercolor="#666666"
     borderopacity="1.0"
     gridtolerance="10.0"
     guidetolerance="10.0"
     id="base"
     inkscape:current-layer="svg6159"
     inkscape:cx="11.609428"
     inkscape:cy="6.1717347"
     inkscape:pageopacity="0.0"
     inkscape:pageshadow="2"
     inkscape:window-height="1152"
     inkscape:window-width="1920"
     inkscape:window-x="0"
     inkscape:window-y="0"
     inkscape:zoom="39.751111"
     objecttolerance="10.0"
     pagecolor="#ffffff"
     showgrid="true"
     inkscape:window-maximized="1">
    <inkscape:grid
       type="xygrid"
       id="grid12803"
       empspacing="5"
       visible="true"
       enabled="true"
       snapvisiblegridlinesonly="true" />
  </sodipodi:namedview>
  <defs
     id="defs6161">
    <inkscape:perspective
       id="perspective6206"
       inkscape:persp3d-origin="450 : 200 : 1"
       inkscape:vp_x="0 : 300 : 1"
       inkscape:vp_y="0 : 1000 : 0"
       inkscape:vp_z="900 : 300 : 1"
       sodipodi:type="inkscape:persp3d" />
    <rect
       height="4"
       id="b1"
       width="24"
       x="-12"
       y="-2" />
    <g
       id="b2">
      <rect
         height="4"
         id="rect6165"
         width="11"
         x="-12"
         y="-2" />
      <rect
         height="4"
         id="rect6167"
         width="11"
         x="1"
         y="-2" />
    </g>
  </defs>
  <g
     id="g12276"
     transform="matrix(0.0625,0,0,0.05859375,-67.5,-45)"
     style="opacity:0.75">
    <rect
       y="-48"
       x="-72"
       width="144"
       style="fill:#ffffff"
       id="rect6169"
       height="96" />
    <g
       transform="matrix(0.5546992,0.8320509,-0.8320509,0.5546992,0,0)"
       id="g6171">
      <!--arctan(3/2)-->
      <use
         y="0"
         xlink:href="#b2"
         x="0"
         width="144"
         transform="translate(0,-38)"
         id="use6173"
         height="96" />
      <use
         y="0"
         xlink:href="#b1"
         x="0"
         width="144"
         transform="translate(0,-44)"
         id="use6175"
         height="96" />
      <use
         y="0"
         xlink:href="#b2"
         x="0"
         width="144"
         transform="translate(0,-50)"
         id="use6177"
         height="96" />
      <use
         y="0"
         xlink:href="#b1"
         x="0"
         width="144"
         transform="translate(0,38)"
         id="use6179"
         height="96" />
      <use
         y="0"
         xlink:href="#b2"
         x="0"
         width="144"
         transform="translate(0,44)"
         id="use6181"
         height="96" />
      <use
         y="0"
         xlink:href="#b1"
         x="0"
         width="144"
         transform="translate(0,50)"
         id="use6183"
         height="96" />
    </g>
    <g
       transform="matrix(0.5546992,-0.8320509,0.8320509,0.5546992,0,0)"
       id="g6185">
      <!--arctan(-3/2)-->
      <use
         y="0"
         xlink:href="#b1"
         x="0"
         width="144"
         transform="translate(0,-38)"
         id="use6187"
         height="96" />
      <use
         y="0"
         xlink:href="#b1"
         x="0"
         width="144"
         transform="translate(0,-44)"
         id="use6189"
         height="96" />
      <use
         y="0"
         xlink:href="#b1"
         x="0"
         width="144"
         transform="translate(0,-50)"
         id="use6191"
         height="96" />
      <use
         y="0"
         xlink:href="#b2"
         x="0"
         width="144"
         transform="translate(0,38)"
         id="use6193"
         height="96" />
      <use
         y="0"
         xlink:href="#b2"
         x="0"
         width="144"
         transform="translate(0,44)"
         id="use6195"
         height="96" />
      <use
         y="0"
         xlink:href="#b2"
         x="0"
         width="144"
         transform="translate(0,50)"
         id="use6197"
         height="96" />
      <path
         style="fill:#c60c30"
         id="path6199"
         d="M 0,24 C 13.254834,24 24,13.254834 24,0 24,-13.254834 13.254834,-24 0,-24 c -9.9411255,0 -18,8.058875 -18,18 0,9.9411255 8.0588745,18 18,18"
         inkscape:connector-curvature="0" />
      <path
         style="fill:#003478"
         id="path6201"
         d="m 0,-24 c -6.627417,0 -12,5.372583 -12,12 0,6.627417 5.372583,12 12,12 6.627417,0 12,5.372583 12,12 0,6.627417 -5.372583,12 -12,12 -13.254834,0 -24,-10.745166 -24,-24 0,-13.254834 10.745166,-24 24,-24"
         inkscape:connector-curvature="0" />
    </g>
  </g>
</svg>
