/* XPM */
static char *tm_lock_closed[] = {
/* columns rows colors chars-per-pixel */
"16 16 35 1 ",
"  c #e0e0e0",
". c #d5d5d5",
"X c gray53",
"o c #d5d4d4",
"O c #d2d2d2",
"+ c #d0d0d0",
"@ c #d2d0d0",
"# c gray54",
"$ c #cdcdcd",
"% c #c9c9c9",
"& c #c7c7c7",
"* c #bebebe",
"= c gray59",
"- c #b7b7b7",
"; c gray60",
": c #b2b2b2",
"> c #b0b0b0",
", c gray61",
"< c #a1a1a1",
"1 c #929292",
"2 c #8f8f8f",
"3 c #8d8d8d",
"4 c gray71",
"5 c #7f7f7f",
"6 c #7b7b7b",
"7 c gray73",
"8 c gray",
"9 c gray75",
"0 c #6f6f6f",
"q c #6a6a6a",
"w c #666666",
"e c gray78",
"r c gray80",
"t c #915353",
"y c None",
/* pixels */
"yyyyyye52eyyyyyy",
"yyyy2..**..5yyyy",
"yyr>*5e66e5$>ryy",
"yy>>65*.$*56>>yy",
"y6.62.2ee5.26.6y",
"y$56.eyyyy6$65$y",
"e$6><yyyyyy<>e$e",
"5*e$6yyyyyy6$6*5",
".       .      .",
" tttttttttttttt ",
" tttttttttttttt ",
" tttttttttttttt ",
" tttttttttttttt ",
" tttttttttttttt ",
" tttttttttttttt ",
"$              o"
};
