/* XPM */
static char *tm_link[] = {
/* columns rows colors chars-per-pixel */
"20 20 98 2 ",
"   c #e0e0e0",
".  c #d9d9d9",
"X  c gray33",
"o  c #d0d0d0",
"O  c #cfcfcf",
"+  c gray36",
"@  c gray37",
"#  c #c4c4c4",
"$  c gray38",
"%  c #c0c0c0",
"&  c gray39",
"*  c #bebebe",
"=  c #bdbdbd",
"-  c gray40",
";  c #bababa",
":  c #b9b9b9",
">  c DimGray",
",  c #b6b6b6",
"<  c gray42",
"1  c #b4b4b4",
"2  c #b3b3b3",
"3  c gray43",
"4  c #b0b0b0",
"5  c gray44",
"6  c #aeaeae",
"7  c #adadad",
"8  c gray45",
"9  c gray46",
"0  c #a6a6a6",
"q  c #a4a4a4",
"w  c gray48",
"e  c #a2a2a2",
"r  c #a0a0a0",
"t  c #9b9b9b",
"y  c #9a9a9a",
"u  c gray51",
"i  c #989898",
"p  c #979797",
"a  c gray52",
"s  c #949494",
"d  c #929292",
"f  c #909090",
"g  c gray54",
"h  c gray55",
"j  c #8c8c8c",
"k  c gray56",
"l  c gray57",
"z  c #858585",
"x  c #848484",
"c  c gray58",
"v  c #828282",
"b  c gray59",
"n  c #7f7f7f",
"m  c #7c7c7c",
"M  c #7a7a7a",
"N  c gray62",
"B  c #767676",
"V  c #747474",
"C  c gray63",
"Z  c #727272",
"A  c #6f6f6f",
"S  c #6e6e6e",
"D  c gray65",
"F  c #6c6c6c",
"G  c gray66",
"H  c #696969",
"J  c #686868",
"K  c gray67",
"L  c #666666",
"P  c gray68",
"I  c #636363",
"U  c #626262",
"Y  c gray69",
"T  c #5f5f5f",
"R  c #5e5e5e",
"E  c gray70",
"W  c #5c5c5c",
"Q  c gray71",
"!  c #595959",
"~  c #585858",
"^  c gray72",
"/  c #565656",
"(  c gray73",
")  c #535353",
"_  c #525252",
"`  c gray74",
"'  c gray75",
"]  c #4d4d4d",
"[  c #4c4c4c",
"{  c gray76",
"}  c #474747",
"|  c #464646",
" . c gray78",
".. c #414141",
"X. c #404040",
"o. c gray80",
"O. c gray81",
"+. c None",
/* pixels */
"+.+.o.c s e c ] +.+.+.+.+.+.+.+.+.+.+.+.",
"+.S $ c U U c 3 e ] +.+.+.+.+.+.+.+.+.+.",
"] $ ) ] Q Q ] ] S $ Q +.+.+.+.+.+.+.+.+.",
"s S ) 3 3 3 3 c ] ) $ Q +.+.+.+.+.+.+.+.",
"3 ) S s +.+.o.s 8 ) ) $ ] +.+.+.+.+.+.+.",
"3 ] M c +.+.+.+.S e ) U e +.+.+.+.+.+.+.",
"8 ) Q 3 +.+.+.+.+.3 + + . U +.+.+.+.+.+.",
"S f ) 8 U +.+.) $ s S U S 8 3 Q +.+.+.+.",
"o.+ ) ) $ ) +.3 Q ] Q Q ) ] Q 3 c +.+.+.",
"+.U 8 ] Q 3 f e ) s X + X s ) ) s c +.+.",
"+.+.f s ] ) 3 X 8 X s ] e f $ Q ) 8 Q +.",
"+.+.+.c 3 ) ] ] S U ) Q 3 +.] $ ) ) $ o.",
"+.+.+.+.Q $ 8 f S M f $ ) +.+.U 8 ] s S ",
"+.+.+.+.+.+.U . 3 3 3 +.+.+.+.+.3 Q Q 8 ",
"+.+.+.+.+.+.+.e U ) 8 S +.+.+.+.c M ] 3 ",
"+.+.+.+.+.+.+.] $ ) ) 8 s o.+.+.s S ] $ ",
"+.+.+.+.+.+.+.+.Q 3 Q ) c 3 8 8 3 ) M s ",
"+.+.+.+.+.+.+.+.+.Q $ U ] ) Q Q ] ) 3 ] ",
"+.+.+.+.+.+.+.+.+.+.] 8 3 c U U c + S +.",
"+.+.+.+.+.+.+.+.+.+.+.+.] M e s c o.+.+."
};
