/* XPM */
static char *tm_larrow_double[] = {
/* columns rows colors chars-per-pixel */
"24 24 22 1 ",
"  c #e0e0e0",
". c #d5d5d5",
"X c #c4c4c4",
"o c gray58",
"O c gray59",
"+ c gray61",
"@ c #adadad",
"# c #a4a4a4",
"$ c #8f8f8f",
"% c #888888",
"& c #7f7f7f",
"* c gray72",
"= c #7b7b7b",
"- c gray77",
"; c #616161",
": c gray79",
"> c gray80",
", c #585858",
"< c #565656",
"1 c gray83",
"2 c gray88",
"3 c None",
/* pixels */
"333333333333333333333333",
"333333333333333333333333",
"3333::::::::::::::::3333",
"33:%@oooooooooooooo@%;33",
"3:#                  o;3",
"3%                    $3",
":@           .        @:",
":o         @=%  o==   o:",
":o       o=12%@%12=   o:",
":o     o=1222;1222=   o:",
":o   o=12222222222=   o:",
":o o=1222222222222%   o:",
":o o=1222222222222=   o:",
":o   o=12222222222=   o:",
":o     @=1222:1222%   o:",
":.       o=12%@=12=   o:",
"1o         o==  @==   o:",
":@                    #:",
"3$                    %3",
"3;o                  #:3",
"33;$@o.ooo.ooo.o.oo#%:33",
"3333::1:::1:::1:1:::3333",
"333333333333333333333333",
"333333333333333333333333"
};
