/* XPM */
static char *tm_miscsymb[] = {
/* columns rows colors chars-per-pixel */
"20 20 62 1 ",
"  c gray25",
". c #e0e0e0",
"X c gray26",
"o c #dedede",
"O c gray27",
"+ c #dadada",
"@ c gray28",
"# c #d7d7d7",
"$ c gray29",
"% c #d4d4d4",
"& c gray30",
"* c gray31",
"= c #cecece",
"- c gray32",
"; c #cbcbcb",
": c #c8c8c8",
"> c #c5c5c5",
", c #c1c1c1",
"< c gray36",
"1 c #bfbfbf",
"2 c gray37",
"3 c #bbbbbb",
"4 c #b9b9b9",
"5 c #b3b3b3",
"6 c #b0b0b0",
"7 c gray42",
"8 c #aaaaaa",
"9 c #a7a7a7",
"0 c #a6a6a6",
"q c gray45",
"w c #a4a4a4",
"e c gray47",
"r c gray48",
"t c #9a9a9a",
"y c gray51",
"u c #8f8f8f",
"i c gray57",
"p c #7d7d7d",
"a c #7b7b7b",
"s c gray60",
"d c #777777",
"f c #767676",
"g c #707070",
"h c #6e6e6e",
"j c gray66",
"k c #646464",
"l c gray68",
"z c gray70",
"x c gray72",
"c c #494949",
"v c gray76",
"b c gray77",
"n c #434343",
"m c gray78",
"M c #414141",
"N c gray79",
"B c #3d3d3d",
"V c gray80",
"C c #3b3b3b",
"Z c #3a3a3a",
"A c gray81",
"S c None",
/* pixels */
"SSSSSSSSSSSSSSSSSSSS",
"SSSSSSSSSSSSSSSSSSSS",
"SSSSSSSSSSSSSSSSSSSS",
"SSSSSSVbbbbbbVSSSSSS",
"SSSSSS4%%%%%%8SSSSSS",
"SSSSSSV8@ @@qVSSSSSS",
"SSSbuSSSq @eSSSuVSSS",
"SSSj@gSSb>>VSSs@zSSS",
"SSSj >gSS48SSs>@zSSS",
"SSSj @%4q<<q<@ @zSSS",
"SSSj  @%<%%<%   zSSS",
"SSSg @ebS8qSb8@@zSSS",
"SSSj@uSSV<<SSSe@zSSS",
"SSSx4ASSi@@sSSA<bSSS",
"SSSSVSSi>  %sSSVSSSS",
"SSSSSSe@   @%uSSSSSS",
"SSSSSSjisisisjSSSSSS",
"SSSSSSSSSSSSSSSSSSSS",
"SSSSSSSSSSSSSSSSSSSS",
"SSSSSSSSSSSSSSSSSSSS"
};
