/* XPM */
static char *tm_math_preferences[] = {
/* columns rows colors chars-per-pixel */
"20 20 84 1 ",
"  c #e0e0e0",
". c #dbdbdb",
"X c #d9d9d9",
"o c #d6d6d6",
"O c #d5d5d5",
"+ c gray32",
"@ c #d3d3d3",
"# c gray33",
"$ c #d0d0d0",
"% c #cfcfcf",
"& c gray34",
"* c gray35",
"= c #cacaca",
"- c #c6c6c6",
"; c #c3c3c3",
": c gray38",
"> c #bebebe",
", c #bdbdbd",
"< c gray40",
"1 c #bababa",
"2 c #b9b9b9",
"3 c gray43",
"4 c #adadad",
"5 c gray46",
"6 c #a6a6a6",
"7 c gray48",
"8 c #a2a2a2",
"9 c #9e9e9e",
"0 c #9b9b9b",
"q c #9a9a9a",
"w c #989898",
"e c #949494",
"r c gray53",
"t c #929292",
"y c #909090",
"u c gray54",
"i c #8e8e8e",
"p c gray55",
"a c #8c8c8c",
"s c #8a8a8a",
"d c gray56",
"f c #888888",
"g c #858585",
"h c #828282",
"j c gray59",
"k c gray60",
"l c #7a7a7a",
"z c gray61",
"x c gray62",
"c c #767676",
"v c #727272",
"b c gray64",
"n c #6f6f6f",
"m c gray65",
"M c #696969",
"N c #636363",
"B c #626262",
"V c gray69",
"C c #5f5f5f",
"Z c gray70",
"A c #5c5c5c",
"S c gray71",
"D c #595959",
"F c #585858",
"G c gray72",
"H c gray73",
"J c #525252",
"K c #4d4d4d",
"L c #4c4c4c",
"P c gray76",
"I c #494949",
"U c gray77",
"Y c #474747",
"T c #464646",
"R c gray79",
"E c #414141",
"W c #3d3d3d",
"Q c #3c3c3c",
"! c gray81",
"~ c LightGray",
"^ c #333333",
"/ c gainsboro",
"( c gray88",
") c None",
/* pixels */
")))))))))!lsss0s))))",
"))))))))!0J(/^8TT!))",
"))))))))s!/(^8TT3C))",
"))))))))s//^8TT8Cb))",
"))))))))s(/!8T8^Tb))",
"))))))))s(((!4^/CC))",
")))))))lb(((((/(bJ))",
"))))))lb((((((()0)))",
")))))lb(((/)/^N0!)))",
"))))lb((((bsshN)))))",
")))lb((((bl!!!!!!!!)",
"))lb((((blT;###X--C!",
")lb((((bl)^;XbTJhXl!",
"lb((((bl)))T#-T!^40^",
"sJ(((bl))))!hX4^)JC!",
")0J(bl))))))!3XT)^!)",
"))s0l)))))))!#s!!Cb^",
")))C)))))))!;8!!!30!",
"))))))))))^4-NNl8Xl!",
"))))))))))T-###-;;J!"
};
