<?xml version="1.0" encoding="UTF-8"?>
<!-- Created with Inkscape (http://www.inkscape.org/) -->
<svg id="svg3039" width="20" height="20" version="1.1" xmlns="http://www.w3.org/2000/svg" xmlns:cc="http://creativecommons.org/ns#" xmlns:dc="http://purl.org/dc/elements/1.1/" xmlns:rdf="http://www.w3.org/1999/02/22-rdf-syntax-ns#">
 <metadata id="metadata3044">
  <rdf:RDF>
   <cc:Work rdf:about="">
    <dc:format>image/svg+xml</dc:format>
    <dc:type rdf:resource="http://purl.org/dc/dcmitype/StillImage"/>
    <dc:title/>
   </cc:Work>
  </rdf:RDF>
 </metadata>
 <g id="layer1" transform="translate(0,4)" fill="#bfbfbf" stroke="#bfbfbf" stroke-width=".5">
  <path id="text3221" transform="matrix(.89576 0 0 1.162 .34023 -.041539)" d="m0.003699 12.044v-0.61984q0.72806 0 1.1905-0.13774 0.46242-0.14758 0.62967-0.41322 0.16726-0.27548 0.20661-0.45258 0.049193-0.18694 0.049193-0.49193v-10.518q0-0.28532-0.078709-0.35419-0.068871-0.068871-0.41322-0.10823-0.60016-0.039355-1.0035-0.039355h-0.58048v-0.62968h3.4239q0.28532 0 0.36403 0.039355 0.078709 0.039355 0.21645 0.22629l7.1134 10.459v-8.6088q0-0.305-0.03935-0.48209-0.03936-0.1771-0.21645-0.45258-0.16726-0.27548-0.62968-0.41322-0.46242-0.13774-1.1905-0.13774v-0.62968q2.1153 0.059032 2.3514 0.059032 0.24597 0 2.3613-0.059032v0.62968q-0.72806 0-1.1905 0.13774-0.46242 0.13774-0.62968 0.41322-0.16726 0.27548-0.21645 0.46242-0.03936 0.1771-0.03936 0.47226v11.128q0 0.32468-0.03936 0.42306-0.03935 0.09839-0.23613 0.09839-0.13774 0-0.34435-0.26564l-8.2251-12.082q-0.078709-0.11806-0.19677-0.24597v10.478q0 0.305 0.039355 0.49193 0.039355 0.1771 0.20661 0.45258 0.1771 0.26564 0.63951 0.41322 0.46242 0.13774 1.1905 0.13774v0.61984q-2.1153-0.05903-2.3613-0.05903-0.23613 0-2.3514 0.05903z" aria-label="N"/>
  <path id="text3225" transform="matrix(.90165 0 0 1.1091 .04505 -.1802)" d="m11.874 12.638v-0.4643q1.3413-0.02948 1.6877-1.017l3.1248-9.0207q0.05896-0.18425 0.12529-0.24321 0.06633-0.058959 0.23584-0.058959 0.08844 0 0.14003 0.01474 0.05896 0.01474 0.09581 0.066329t0.05159 0.081069q0.01474 0.029479 0.05896 0.14003l3.2575 9.4334q0.11792 0.37586 0.36112 0.49378 0.24321 0.11055 0.9286 0.11055h0.26532v0.4643q-0.95071-0.04422-1.9751-0.04422-1.6287 0-2.1741 0.04422v-0.4643q1.2529 0 1.2529-0.45693 0-0.02948-0.04422-0.21373l-0.79595-2.3068h-3.7292l-0.70014 1.9751q-0.02948 0.05896-0.02948 0.22847 0 0.3169 0.2948 0.54537t0.84017 0.22847v0.4643q-1.4519-0.04422-1.7393-0.04422-0.49378 0-1.5329 0.04422zm3.029-3.906h3.3975l-1.7024-4.9083z" aria-label="A"/>
 </g>
</svg>
