/* XPM */
static char *tm_name_bis[] = {
/* columns rows colors chars-per-pixel */
"20 20 69 1 ",
"  c gray25",
". c #e0e0e0",
"X c gray26",
"o c #dedede",
"O c #dcdcdc",
"+ c gray27",
"@ c #dadada",
"# c gray28",
"$ c #d8d8d8",
"% c #d7d7d7",
"& c #d4d4d4",
"* c #d1d1d1",
"= c #cecece",
"- c gray32",
"; c gray33",
": c #c8c8c8",
"> c gray34",
", c #c5c5c5",
"< c gray35",
"1 c #c1c1c1",
"2 c gray36",
"3 c gray37",
"4 c #bbbbbb",
"5 c #b9b9b9",
"6 c #b7b7b7",
"7 c gray40",
"8 c #b3b3b3",
"9 c #b2b2b2",
"0 c #b0b0b0",
"q c #acacac",
"w c #aaaaaa",
"e c #a2a2a2",
"r c #a0a0a0",
"t c #9e9e9e",
"y c gray48",
"u c #9a9a9a",
"i c #959595",
"p c #8f8f8f",
"a c #8c8c8c",
"s c #8b8b8b",
"d c gray55",
"f c #858585",
"g c gray56",
"h c #818181",
"j c #7f7f7f",
"k c #7d7d7d",
"l c #777777",
"z c #767676",
"x c #717171",
"c c gray63",
"v c #6b6b6b",
"b c gray69",
"n c #5b5b5b",
"m c gray71",
"M c #555555",
"N c gray72",
"B c #535353",
"V c #4f4f4f",
"C c gray74",
"Z c #4a4a4a",
"A c gray76",
"S c #434343",
"D c gray78",
"F c #414141",
"G c #3d3d3d",
"H c gray80",
"J c #3b3b3b",
"K c gray81",
"L c None",
/* pixels */
"LLLLLLLLLLLLLLLLLLLL",
"LLLLLLLLLLLLLLLLLLLL",
"bbNLLLLKbbGLLLLLLLLL",
"-o*ALLLG-*ALLLLLLLLL",
"-o eLLLG-*ALLLLLLLLL",
"-o*-ALLG-*ALLLLLLLLL",
",o,ouLLG-*ALLLLLLLLL",
"-*ho-GLG-oALLK,-cLLL",
"-ob6oiLG-*ALLxoowLLL",
"-*Nxo,GG**ALLw-6-GLL",
",*NK6 sG-*NLA*whosLL",
"-oNLho-G-*ALs xG-6LL",
"-*bLG6 s-*AL6,GLeoNL",
",oNLLho,-*Abo-6,- uL",
"-oNLLG,o**Auo6w6w*,G",
",*NLLLs ooA,,LLLLuoc",
"-oNLLLG,o*houLLLLb*6",
"bbGLLLLNbbNbGLLLLLbN",
"LLLLLLLLLLLLLLLLLLLL",
"LLLLLLLLLLLLLLLLLLLL"
};
