<?xml version="1.0" encoding="UTF-8"?>
<!-- Created with Inkscape (http://www.inkscape.org/) -->
<svg id="svg3039" width="20" height="20" version="1.1" xmlns="http://www.w3.org/2000/svg" xmlns:cc="http://creativecommons.org/ns#" xmlns:dc="http://purl.org/dc/elements/1.1/" xmlns:rdf="http://www.w3.org/1999/02/22-rdf-syntax-ns#">
 <metadata id="metadata3044">
  <rdf:RDF>
   <cc:Work rdf:about="">
    <dc:format>image/svg+xml</dc:format>
    <dc:type rdf:resource="http://purl.org/dc/dcmitype/StillImage"/>
    <dc:title/>
   </cc:Work>
  </rdf:RDF>
 </metadata>
 <g id="layer1" transform="translate(0,4)" fill="#bfbfbf" stroke="#bfbfbf" stroke-width=".5">
  <path id="text3398" d="m10.597 5.9318q0 2.8265-1.4451 4.3779-1.4239 1.5514-3.8679 1.5514-1.5089 0-2.699-0.68007-1.1689-0.70132-1.8489-2.0189-0.68007-1.3389-0.68007-3.2303 0-2.8265 1.4239-4.3567 1.4239-1.5302 3.8679-1.5302 1.5514 0 2.7203 0.70132 1.1901 0.68007 1.8489 1.9977 0.68007 1.2964 0.68007 3.1878zm-8.6071 0q0 2.0189 0.78633 3.2091 0.80758 1.1689 2.5503 1.1689 1.7214 0 2.529-1.1689 0.80758-1.1901 0.80758-3.2091t-0.80758-3.1666-2.5503-1.1476-2.529 1.1476-0.78633 3.1666z" aria-label="o"/>
  <path id="text3404" d="m15.351-0.048839q2.1012 0 3.3746 1.4645 1.2947 1.4645 1.2947 4.4146 0 2.9077-1.2947 4.4146-1.2734 1.5069-3.3958 1.5069-1.3159 0-2.1861-0.48815-0.84896-0.50938-1.3371-1.1673h-0.12734q0.04245 0.36081 0.0849 0.91263t0.04245 0.95508v4.6693h-1.8677v-16.47h1.5281l0.25469 1.5494h0.0849q0.50938-0.74284 1.3371-1.2522t2.2073-0.50938zm-0.33958 1.5706q-1.7404 0-2.462 0.9763-0.70039 0.9763-0.74284 2.9714v0.36081q0 2.1012 0.67917 3.2473 0.70039 1.1249 2.5681 1.1249 1.04 0 1.6979-0.57305 0.67917-0.57305 0.99753-1.5494 0.33958-0.99753 0.33958-2.271 0-1.9526-0.76406-3.1199-0.74284-1.1673-2.3134-1.1673z" aria-label="p"/>
 </g>
</svg>
