/* XPM */
static char *tm_pageins[] = {
/* columns rows colors chars-per-pixel */
"20 20 35 1 ",
"  c gray25",
". c #b4b4b5",
"X c #acacad",
"o c #949499",
"O c gray45",
"+ c #7777d2",
"@ c gray57",
"# c #535353",
"$ c #444455",
"% c #404057",
"& c #404052",
"* c gray74",
"= c #35355e",
"- c #232369",
"; c #1111b3",
": c #0101ff",
"> c #1a1a90",
", c #0000ba",
"< c #3a3a3a",
"1 c gray78",
"2 c #29294c",
"3 c #2c2c44",
"4 c #2b2b42",
"5 c #2e2e37",
"6 c #2a2a30",
"7 c #242436",
"8 c #23233b",
"9 c #212133",
"0 c #12123b",
"q c #000071",
"w c #03034b",
"e c #02024e",
"r c #00004e",
"t c #000052",
"y c None",
/* pixels */
"1##################1",
"O                  O",
"*@@@@@@@@@@@@@@@@@@*",
"O       .ooX       O",
"*@@@@@@$wqqw$@@@@@@*",
"O      =,::,=      O",
"*@@@@@@$wqqw=@@@@@@*",
"O       Xoo.       O",
"*@@@@@@@@@@@@@@@@@@*",
"O                  O",
"1##################1",
"yyyyyyyyyyyyyyyyyyyy",
"yyyyyyyyyyyyyyyyyyyy",
"++++++++++++yyyyyyyy",
"wqqw73-------------3",
",::,0;:::::::::::::;",
"wqqw93>>>>>>>>>>>>>2",
"6776y;:::::::::::::;",
"yyyyy3-------------3",
"yyyyyyyyyyyyyyyyyyyy"
};
