/* XPM */
static char *tm_preferences[] = {
/* columns rows colors chars-per-pixel */
"24 24 69 1 ",
"  c #fcfcab",
". c #eeeea9",
"X c #eeeea7",
"o c #ebeba7",
"O c #ededa7",
"+ c #e3e3a6",
"@ c #dbdb9f",
"# c #d7d79e",
"$ c #d4d49b",
"% c #d0d09a",
"& c #cbcba5",
"* c #c8c8a3",
"= c #c2c292",
"- c #b6b696",
"; c #adad86",
": c #abab85",
"> c #989879",
", c #8a8a7d",
"< c #929292",
"1 c #8c8c8d",
"2 c gray59",
"3 c #898989",
"4 c #848484",
"5 c gray61",
"6 c #969678",
"7 c #7d7d7d",
"8 c gray63",
"9 c gray64",
"0 c #787878",
"q c #777777",
"w c gray65",
"e c #787871",
"r c #75756c",
"t c #747477",
"y c gray66",
"u c #737375",
"i c #717171",
"p c #707070",
"a c gray68",
"s c #696969",
"d c #676760",
"f c gray69",
"g c #676767",
"h c #656565",
"j c gray70",
"k c #65655f",
"l c #606060",
"z c gray72",
"x c gray73",
"c c #585858",
"v c gray74",
"b c gray",
"n c gray75",
"m c #585854",
"M c #54544f",
"N c #535357",
"B c #525252",
"V c gray77",
"C c #4b4b48",
"Z c #484848",
"A c gray79",
"S c #424242",
"D c #464641",
"F c gray81",
"G c gray82",
"H c #313131",
"J c #2a2a2a",
"K c gray88",
"L c None",
/* pixels */
"LLffLLLLLLLLLLLFvsvVLLLL",
"LssqvLLLLLLLLFq1qsq<VLLL",
"ssvftLLLLLLLFqyJJJsqFLLL",
"sqfNssLLLLLLssJJJsqFLFVL",
"LvsqNtsLLLLL3GKKsqFLFq<F",
"LLLstNtsLLLV3KJvqFLFqqqV",
"LLLLssvtfLLfsKJ3VLFqsJff",
"LLLLLstNsfLvqKJqfVqsJJ3V",
"LLLLLLssvtsN1JKG73vJKG3L",
"LLLLLLLstNt1FJKKKJKKJsfL",
"LLLLLLLLsqNtvKKKJJJJqqFL",
"LLLLLLLLV1svsfF1qfy1sFLL",
"LLLLLLLV3Ffsvt1vrdvVLLLL",
"LLLLLLV1FKKfqVt* mLLLLLL",
"LLLLLV1FKKKF1t&##yLLLLLL",
"LLLLV1FKKKF3v*#>=+,CLLLL",
"LLLV1FJJJF1Vd #=6:#OkLLL",
"LLv1FJKJF1vLLmy+:66:OkLL",
"LV1FKJKF1VLLLLL,#666:OkL",
"V1FJKJF1VLLLLLLCO:666:Ok",
"3vKKKF1mLLLLLLLLdO:>66:.",
"V1FKF1VLLLLLLLLLLdO:666 ",
"LV1v1VLLLLLLLLLLLLdO:6#-",
"LLV3VLLLLLLLLLLLLLLd. -D"
};
