/* XPM */
static char *tm_prefs_other[] = {
/* columns rows colors chars-per-pixel */
"32 32 74 1 ",
"  c #e0e0e0",
". c #dedede",
"X c gray51",
"o c #d9d9d9",
"O c gray52",
"+ c #d5d5d5",
"@ c gray53",
"# c #d2d2d2",
"$ c #d0d0d0",
"% c gray54",
"& c #cdcdcd",
"* c gray55",
"= c #c9c9c9",
"- c #c7c7c7",
"; c gray56",
": c gray57",
"> c #c0c0c0",
", c #bebebe",
"< c gray58",
"1 c #bbbbbb",
"2 c gray59",
"3 c #b7b7b7",
"4 c #b6b6b6",
"5 c gray60",
"6 c #b2b2b2",
"7 c #b0b0b0",
"8 c gray61",
"9 c #adadad",
"0 c gray62",
"q c #a9a9a9",
"w c #a8a8a8",
"e c gray63",
"r c #a4a4a4",
"t c gray64",
"y c #a1a1a1",
"u c #9f9f9f",
"i c gray65",
"p c #9b9b9b",
"a c gray66",
"s c #989898",
"d c #969696",
"f c gray67",
"g c #929292",
"h c gray68",
"j c #8f8f8f",
"k c #8d8d8d",
"l c gray69",
"z c #8a8a8a",
"x c #888888",
"c c gray70",
"v c #848484",
"b c gray71",
"n c #818181",
"m c #7f7f7f",
"M c gray72",
"N c gray73",
"B c #787878",
"V c #767676",
"C c gray74",
"Z c gray",
"A c gray75",
"S c #6f6f6f",
"D c #666666",
"F c #656565",
"G c gray78",
"H c #616161",
"J c gray79",
"K c #5d5d5d",
"L c #5c5c5c",
"P c gray80",
"I c #585858",
"U c #565656",
"Y c gray81",
"T c None",
/* pixels */
"TTTTTTTTTTTTTTTTTTTTTTTTTTTTTTTT",
"TTTTTTTTTTUTTr OO rTTUTTTTTTTTTT",
"TTTTTTTTU7OUTrrCDrrTDO7UTTTTTTTT",
"TTTTTTTj$7>7TrrDCrrT777OjUTTTTTT",
"TTTTTTr$cDCO>>rDDr>>$CCcOrTTTTTT",
"TTTTTTDOcDCjcCDCDCCccDDcOUTTTTTT",
"TTTUcTTr>CDCCDCDCCDDCCD>jTUjUTTT",
"TTTrO$c$jCCCDCCDDCCCCDCrOj$OjTTT",
"TTUOcjOjCDCDCCDCDCCDCCDCj$jcOUTT",
"TT77DCCDCCCCDCcrrcCCDDCCDCDC77TT",
"TDOrDDDCCCDCjO$77$OjCCCDCCDC7ODT",
"TTC$$cCCDDC7$DTTTTD$>DCDCDc$>DTT",
"TTTU>CCDCCj$UTTTTTTY$jCCCDC>TTTT",
"Tccj$CCDDCODTTTTTTTTDOCDDCC>rrrT",
"UO>>rDCCCc$TTTTTTTTTT$cDCCDrr7OT",
"TOCDDCCDDr7TTTTTTTTTT7rCCDCCDCOT",
"T CCCDDCDr7TTTTTTTTTT7jCDCDCDCOT",
"TOjjjCCDDc$TTTTTTTTTT$cCDCCj7rOT",
"T>77>CCCCCODTTTTTTTTCOCCCCC>rrrT",
"TTTT>cDCCDj$YTTTTTTY$jDCDCc>TTTT",
"TTUrOjDCCDC7$CTTTTD$7CCDDCjO7UTT",
"TU$>CCCDDCCCjO$7r$OrCDCDCCDC7OUT",
"TT77DCCCCDDCCCcrrcCDDDCCCDCD77TT",
"TTU$cC>jCCCDDCDCDCDCCCCDr>cCODTT",
"TTTj$Or$jCCCDCCDCCDCCDCj$rOOrTTT",
"TTTTrDTc$CDCDCCDDDCDDCC$cTUrUTTT",
"TTTTTTT$rDCCcCDCCCCccCCj$UTTTTTT",
"TTTTTTcOCCD$>>7DDj7>$CDcOcTTTTTT",
"TTTTTTUrO7j$Uc>DCr7T>r7OjYTTTTTT",
"TTTTTTTTD7 CTc>CCj7TC 7UTTTTTTTT",
"TTTTTTTTTTDTTcO  O7TTUTTTTTTTTTT",
"TTTTTTTTTTTTTTUTTTTTTTTTTTTTTTTT"
};
