<?xml version="1.0" encoding="UTF-8"?>
<!-- Created with Inkscape (http://www.inkscape.org/) -->
<svg id="svg5375" width="24" height="24" version="1.1" xmlns="http://www.w3.org/2000/svg" xmlns:cc="http://creativecommons.org/ns#" xmlns:dc="http://purl.org/dc/elements/1.1/" xmlns:rdf="http://www.w3.org/1999/02/22-rdf-syntax-ns#">
 <metadata id="metadata5380">
  <rdf:RDF>
   <cc:Work rdf:about="">
    <dc:format>image/svg+xml</dc:format>
    <dc:type rdf:resource="http://purl.org/dc/dcmitype/StillImage"/>
    <dc:title/>
   </cc:Work>
  </rdf:RDF>
 </metadata>
 <g id="layer1" stroke-linejoin="round">
  <path id="path9704" d="m0.5 20.5 12-12s-0.52637-1.3133-0.5-2c0.04045-1.0533 0.44583-2.1033 1-3 0.49566-0.802 1.1687-1.5551 2-2 0.74928-0.401 1.6502-0.5 2.5-0.5s2.5 0.5 2.5 0.5l-4 4s-0.53736 0.97428-0.5 1.5c0.02642 0.37174 0.23648 0.73648 0.5 1s0.62826 0.47358 1 0.5c0.52572 0.037362 1.5-0.5 1.5-0.5l4-4s0.52022 1.6504 0.5 2.5c-0.06997 1.0866-0.52872 2.0694-1 3-0.41345 0.57364-1.5 1.5-1.5 1.5-0.9248 0.56743-1.5 1-3 1-0.68718 0-2-0.5-2-0.5l-12 12z" fill="#292929" stroke="#929292" stroke-width="1px"/>
  <path id="path3764" d="m15.5 14-11.5-11.5v-1l-1-1-2.5 2.5 1 1h1l11.5 11.5z" fill="#535357" stroke="#929292" stroke-width=".75"/>
  <path id="path2994" d="m20.5 23.5h1.5l1.5-1.5v-1.5l-4-4-2.5-1-0.5-2.5-3.5 3.5 2.5 0.5 1 2.5z" fill="#969678" stroke="#fcfcab"/>
 </g>
</svg>
