<?xml version="1.0" encoding="UTF-8" standalone="no"?>
<!-- Created with Inkscape (http://www.inkscape.org/) -->

<svg
   xmlns:dc="http://purl.org/dc/elements/1.1/"
   xmlns:cc="http://creativecommons.org/ns#"
   xmlns:rdf="http://www.w3.org/1999/02/22-rdf-syntax-ns#"
   xmlns:svg="http://www.w3.org/2000/svg"
   xmlns="http://www.w3.org/2000/svg"
   xmlns:xlink="http://www.w3.org/1999/xlink"
   xmlns:sodipodi="http://sodipodi.sourceforge.net/DTD/sodipodi-0.dtd"
   xmlns:inkscape="http://www.inkscape.org/namespaces/inkscape"
   height="16"
   id="svg2"
   inkscape:output_extension="org.inkscape.output.svg.inkscape"
   inkscape:version="0.48.0 r9654"
   sodipodi:docname="tm_portuguese.svg"
   sodipodi:version="0.32"
   version="1.0"
   width="16">
  <metadata
     id="metadata6159">
    <rdf:RDF>
      <cc:Work
         rdf:about="">
        <dc:title></dc:title>
        <dc:description />
        <dc:subject>
          <rdf:Bag>
            <rdf:li>unsorted</rdf:li>
          </rdf:Bag>
        </dc:subject>
        <dc:publisher>
          <cc:Agent
             rdf:about="http://www.openclipart.org/">
            <dc:title>Open Clip Art Library, Source: Wikimedia Commons, Source: Wikimedia Commons, Source: Wikimedia Commons, Source: Wikimedia Commons</dc:title>
          </cc:Agent>
        </dc:publisher>
        <dc:creator>
          <cc:Agent>
            <dc:title />
          </cc:Agent>
        </dc:creator>
        <dc:rights>
          <cc:Agent>
            <dc:title />
          </cc:Agent>
        </dc:rights>
        <dc:date />
        <dc:format>image/svg+xml</dc:format>
        <dc:type
           rdf:resource="http://purl.org/dc/dcmitype/StillImage" />
        <cc:license
           rdf:resource="http://en.wikipedia.org/wiki/Public_domain" />
        <dc:language>en</dc:language>
      </cc:Work>
    </rdf:RDF>
  </metadata>
  <sodipodi:namedview
     bordercolor="#666666"
     borderopacity="1.0"
     gridtolerance="10.0"
     guidetolerance="10.0"
     id="base"
     inkscape:current-layer="svg2"
     inkscape:cx="8.1148711"
     inkscape:cy="10.176607"
     inkscape:pageopacity="0.0"
     inkscape:pageshadow="2"
     inkscape:window-height="971"
     inkscape:window-width="1177"
     inkscape:window-x="417"
     inkscape:window-y="93"
     inkscape:zoom="29.813333"
     objecttolerance="10.0"
     pagecolor="#ffffff"
     showgrid="true"
     inkscape:window-maximized="0">
    <inkscape:grid
       type="xygrid"
       id="grid6609"
       empspacing="5"
       visible="true"
       enabled="true"
       snapvisiblegridlinesonly="true" />
  </sodipodi:namedview>
  <defs
     id="defs267">
    <inkscape:perspective
       id="perspective3224"
       inkscape:persp3d-origin="300 : 133.33333 : 1"
       inkscape:vp_x="0 : 200 : 1"
       inkscape:vp_y="0 : 1000 : 0"
       inkscape:vp_z="600 : 200 : 1"
       sodipodi:type="inkscape:persp3d" />
  </defs>
  <g
     id="g6395"
     transform="matrix(0.0625,0,0,0.05859375,0,0.51953145)"
     style="opacity:0.75">
    <path
       style="fill:#dc241f"
       id="path1339"
       d="m 102.4,213 153.6,0 0,-170.66667 -153.6,0 0,170.66667 0,0 z"
       inkscape:connector-curvature="0" />
    <path
       style="fill:#006233"
       id="path1341"
       d="m 0,213 102.4,0 0,-170.66667 -102.4,0 L 0,213 l 0,0 z"
       inkscape:connector-curvature="0" />
    <path
       style="fill:#ffe805;fill-rule:evenodd;stroke:none"
       id="path1343"
       d="m 135.78229,154.13556 c -12.8906,-0.38608 -71.996263,-37.28233 -72.401516,-43.15444 l 3.263851,-5.44313 c 5.862818,8.51897 66.288095,44.39848 72.222405,43.12659 l -3.08474,5.47098"
       inkscape:connector-curvature="0" />
    <path
       style="fill:#ffe805;fill-rule:evenodd;stroke:none"
       id="path1345"
       d="m 65.95942,104.79932 c -1.155934,3.11197 15.424089,13.36229 35.37181,25.49484 19.9481,12.13255 37.14786,19.62913 38.42269,18.55405 0.0775,-0.13885 0.62726,-1.08411 0.57684,-1.0762 -0.23931,0.36049 -0.82104,0.47338 -1.72863,0.21185 -5.3887,-1.55448 -19.44539,-8.00571 -36.85285,-18.56271 -17.407085,-10.557 -32.551972,-20.28464 -34.906357,-24.41901 -0.163303,-0.28636 -0.280329,-0.80828 -0.256244,-1.21468 l -0.05757,0 -0.501581,0.87526 -0.06848,0.13735 3.76e-4,-7.5e-4 z m 70.12879,49.5082 c -0.219,0.39662 -0.62613,0.41054 -1.40052,0.32475 -4.82127,-0.53359 -19.45141,-7.64785 -36.762165,-18.01068 C 77.781756,124.56317 61.145293,113.57681 62.952567,110.70416 l 0.491043,-0.86811 0.0967,0.0301 c -1.622895,4.86627 32.831176,24.56577 34.859323,25.8226 19.935687,12.3508 36.741857,19.5629 38.229667,17.68819 l -0.54109,0.93058"
       inkscape:connector-curvature="0" />
    <path
       style="fill:none;stroke:#000000;stroke-width:0.24445035000000001;stroke-linecap:round;stroke-linejoin:round"
       id="path1347"
       d="m 65.95942,104.79932 c -1.15631,3.11197 15.42371,13.36229 35.37181,25.49484 19.94773,12.1318 37.14786,19.62913 38.42269,18.55405 0.0779,-0.13885 0.62726,-1.08411 0.57684,-1.07658 -0.23893,0.36012 -0.82066,0.47376 -1.72825,0.21223 -5.38908,-1.55448 -19.44539,-8.00646 -36.85285,-18.56271 -17.407085,-10.557 -32.551977,-20.28539 -34.905982,-24.41901 -0.163682,-0.28636 -0.280329,-0.80903 -0.256623,-1.21543 l -0.0572,-7.6e-4 -0.501205,0.87602 -0.06886,0.13735 -3.75e-4,0 z m 70.12841,49.50896 c -0.21862,0.39661 -0.62613,0.40978 -1.40014,0.32474 -4.82127,-0.53359 -19.45141,-7.64785 -36.76254,-18.01068 C 77.78138,124.56317 61.144917,113.57757 62.952192,110.70492 l 0.491042,-0.86812 0.0967,0.0301 c -1.622895,4.86626 32.831172,24.56652 34.859324,25.82259 19.935692,12.35081 36.742232,19.5629 38.229662,17.68895 l -0.54109,0.93058 0,-7.5e-4 z"
       inkscape:connector-curvature="0" />
    <path
       style="fill:#ffe805;fill-rule:evenodd;stroke:none"
       id="path1349"
       d="m 102.47136,114.53825 c 12.90113,-0.10198 28.82116,-1.76295 37.9832,-5.41453 l -1.97397,-3.20718 c -5.41542,2.99721 -21.42311,4.96825 -36.11835,5.26289 -17.380745,-0.15993 -29.648973,-1.77838 -35.796258,-5.90297 l -1.863339,3.41527 c 11.299687,4.7816 22.878946,5.79723 37.768717,5.84652"
       inkscape:connector-curvature="0" />
    <path
       style="fill:#ffe805;fill-rule:evenodd;stroke:none"
       id="path1351"
       d="m 140.9885,109.19747 c -0.31532,0.50424 -6.29065,2.56409 -15.09296,4.0847 -5.9678,0.90989 -13.75303,1.68769 -23.46858,1.6971 -9.230143,0.009 -16.770043,-0.64836 -22.478958,-1.42203 -9.239932,-1.44874 -14.008904,-3.46456 -15.772151,-4.17613 0.168576,-0.33529 0.276945,-0.57122 0.439496,-0.8843 5.075264,2.02146 9.866436,3.23991 15.479027,4.10351 5.670912,0.76802 13.120128,1.43444 22.304746,1.42504 9.67001,-0.009 17.36908,-0.84592 23.30264,-1.72871 9.0262,-1.45664 13.95659,-3.33022 14.64932,-4.20022 l 0.63742,1.10029 0,7.5e-4 z m -1.73314,-3.25308 c -0.97833,0.7857 -5.85304,2.51441 -14.42959,3.88413 -5.72359,0.82108 -13.0016,1.55524 -22.29985,1.56427 -8.833542,0.009 -16.050967,-0.58665 -21.540516,-1.38703 -8.710127,-1.13679 -13.345144,-3.18874 -15.017331,-3.78705 0.166314,-0.28749 0.335641,-0.57347 0.509482,-0.85984 1.3008,0.65476 5.774392,2.47152 14.603422,3.72232 5.427465,0.76878 12.655049,1.34226 21.444943,1.33323 9.25461,-0.009 16.44945,-0.75787 22.13692,-1.57292 8.62095,-1.18609 13.25973,-3.39081 13.96413,-3.94359 l 0.62839,1.04648"
       inkscape:connector-curvature="0" />
    <path
       style="fill:none;stroke:#000000;stroke-width:0.24454745999999999;stroke-linecap:round;stroke-linejoin:round"
       id="path1353"
       d="m 140.98813,109.19672 c -0.31533,0.50424 -6.29028,2.56484 -15.09259,4.08545 -5.96818,0.90989 -13.75303,1.68769 -23.46858,1.6971 -9.230143,0.009 -16.770043,-0.64836 -22.478582,-1.42203 -9.239932,-1.44874 -14.008901,-3.46456 -15.771772,-4.17689 0.168572,-0.33528 0.276941,-0.57046 0.439492,-0.88354 5.075264,2.02071 9.866436,3.23916 15.479027,4.10276 5.670917,0.76802 13.120128,1.43444 22.304365,1.42579 9.67002,-0.01 17.36908,-0.84667 23.30264,-1.72946 9.0262,-1.45589 13.9566,-3.32947 14.64933,-4.19947 l 0.63742,1.10029 -7.5e-4,0 z m -1.7324,-3.25233 c -0.97832,0.7857 -5.85303,2.51441 -14.42958,3.88413 -5.72359,0.82033 -13.0016,1.55448 -22.29985,1.56351 -8.833547,0.009 -16.050972,-0.58664 -21.540145,-1.38627 -8.710127,-1.13755 -13.345519,-3.18949 -15.016952,-3.7878 0.166315,-0.28749 0.335642,-0.57272 0.509483,-0.85909 1.300424,0.65476 5.774016,2.47077 14.603046,3.72157 5.427085,0.76953 12.65542,1.34301 21.444938,1.33398 9.25461,-0.009 16.44946,-0.75787 22.13693,-1.57368 8.62095,-1.18608 13.25972,-3.3908 13.96375,-3.94283 l 0.62838,1.04573 0,7.5e-4 z"
       inkscape:connector-curvature="0" />
    <path
       style="fill:#ffe805;fill-rule:evenodd;stroke:none"
       id="path1355"
       d="m 60.109018,130.08043 c 7.934993,4.26795 25.559564,6.41886 42.237422,6.56675 15.18552,0.0241 34.96882,-2.34734 42.36686,-6.2676 l -0.20357,-4.27172 c -2.3145,3.61697 -23.51486,7.08642 -42.32773,6.94456 -18.812865,-0.14187 -36.282787,-3.04763 -42.106471,-6.80909 l 0.03387,3.83634"
       inkscape:connector-curvature="0" />
    <path
       style="fill:#ffe805;fill-rule:evenodd;stroke:none"
       id="path1357"
       d="m 145.11892,129.46593 3.8e-4,1.01939 c -1.11191,1.3287 -8.08362,3.33813 -16.82611,4.753 -6.65413,1.02014 -15.32926,1.78967 -26.13866,1.78967 -10.269427,0 -18.458406,-0.73152 -24.809634,-1.70726 -10.038771,-1.46116 -16.460365,-4.0211 -17.749124,-4.78536 l 0.0056,-1.18759 c 3.871918,2.57349 14.361851,4.45647 17.884582,5.03296 6.309461,0.96934 14.450278,1.69597 24.668536,1.69597 10.75898,0 19.38519,-0.76501 25.99718,-1.77838 6.27259,-0.90612 15.20811,-3.26249 16.96721,-4.83165 l 0,-7.5e-4 z m 0.004,-3.62336 3.8e-4,1.01939 c -1.11191,1.3287 -8.08362,3.33813 -16.82611,4.753 -6.65413,1.02014 -15.32927,1.78967 -26.13866,1.78967 -10.269428,0 -18.458783,-0.73152 -24.809635,-1.70726 -10.038772,-1.46116 -16.460365,-4.0211 -17.749125,-4.78612 l 0.0053,-1.18758 c 3.872298,2.57386 14.362227,4.45722 17.884582,5.03296 6.309461,0.96934 14.450279,1.69634 24.668538,1.69634 10.75897,0 19.38518,-0.76463 25.99755,-1.77875 6.27259,-0.90612 15.20811,-3.26249 16.96721,-4.83165"
       inkscape:connector-curvature="0" />
    <path
       style="fill:none;stroke:#000000;stroke-width:0.24440408999999999;stroke-linecap:round;stroke-linejoin:round"
       id="path1359"
       d="m 145.11892,129.46668 3.8e-4,1.01864 c -1.11191,1.32946 -8.08362,3.33888 -16.82648,4.75375 -6.65376,1.02014 -15.32889,1.78967 -26.13829,1.78967 -10.269427,0 -18.458782,-0.73227 -24.810009,-1.70726 -10.039147,-1.46191 -16.460365,-4.02185 -17.749125,-4.78611 l 0.0056,-1.18835 c 3.871919,2.57425 14.361852,4.45723 17.884582,5.03372 6.309462,0.96859 14.450279,1.69522 24.668542,1.69522 10.75897,0 19.38519,-0.76426 25.99717,-1.77763 6.27259,-0.90612 15.20811,-3.26249 16.96722,-4.83165 l 3.7e-4,0 z m 0.004,-3.62336 3.8e-4,1.01864 c -1.11191,1.3287 -8.08362,3.33813 -16.82648,4.753 -6.65376,1.02014 -15.3289,1.78967 -26.13829,1.78967 -10.269428,0 -18.458783,-0.73152 -24.810011,-1.70726 -10.039146,-1.46116 -16.460365,-4.0211 -17.749124,-4.78536 l 0.0056,-1.18834 c 3.871919,2.57386 14.361851,4.45722 17.884582,5.03296 6.309461,0.96934 14.450279,1.69634 24.668533,1.69634 10.75898,0 19.38519,-0.76463 25.99717,-1.77875 6.27259,-0.90612 15.20811,-3.26249 16.96722,-4.83165 l 3.7e-4,7.5e-4 z"
       inkscape:connector-curvature="0" />
    <path
       style="fill:#ffe805;fill-rule:evenodd;stroke:none"
       id="path1361"
       d="M 102.30918,153.40329 C 84.059985,153.29453 68.422925,148.42864 65.121067,147.6245 l 2.407816,3.76936 c 5.832713,2.45345 21.087475,6.10993 34.955647,5.70503 13.86817,-0.40452 25.98815,-1.47885 34.52933,-5.63655 l 2.46877,-3.90633 c -5.82067,2.74132 -25.6288,5.81943 -37.17345,5.84728"
       inkscape:connector-curvature="0" />
    <path
       style="fill:#ffe805;fill-rule:evenodd;stroke:none"
       id="path1363"
       d="m 137.94214,150.58708 c -0.36274,0.55353 -0.73262,1.10104 -1.10815,1.63388 -4.02845,1.41977 -10.37629,2.91103 -13.05465,3.34603 -5.47111,1.12814 -13.93666,1.96088 -21.44983,1.96465 -16.166118,-0.2367 -29.399505,-3.4021 -35.625058,-6.10165 l -0.502331,-0.86361 0.0824,-0.12982 0.851899,0.33039 c 11.071284,3.96015 23.505451,5.54022 35.28415,5.8247 7.4827,0.0263 14.97405,-0.85759 21.03103,-1.94094 9.28922,-1.86117 13.04525,-3.264 14.19779,-3.89994 l 0.29275,-0.16444 0,7.5e-4 z m 2.14028,-3.53154 c 0.009,0.0109 0.0188,0.0222 0.0278,0.0331 -0.27129,0.45795 -0.55087,0.92381 -0.83722,1.39192 -2.14894,0.76878 -7.97977,2.47453 -16.4946,3.66551 -5.61034,0.7635 -9.09732,1.50368 -20.25779,1.72118 -20.913631,-0.53209 -34.453689,-4.62167 -37.670128,-5.63053 l -0.476745,-0.91365 c 12.119974,3.1639 24.499584,5.37239 38.147253,5.59817 10.21036,-0.2175 14.55413,-0.96934 20.11743,-1.7272 9.9289,-1.5447 14.93154,-3.17933 16.43365,-3.65121 -0.0192,-0.0271 -0.0414,-0.0557 -0.0662,-0.0847 l 1.07654,-0.40189"
       inkscape:connector-curvature="0" />
    <path
       style="fill:none;stroke:#000000;stroke-width:0.23460365999999999;stroke-linecap:round;stroke-linejoin:round"
       id="path1365"
       d="m 137.94176,150.58633 c -0.36273,0.55428 -0.73262,1.10179 -1.10777,1.63388 -4.02845,1.42052 -10.37629,2.91178 -13.05465,3.34678 -5.47149,1.12738 -13.93703,1.96013 -21.45021,1.96389 -16.166493,-0.23669 -29.399504,-3.40134 -35.625053,-6.10089 l -0.502332,-0.86361 0.08203,-0.12982 0.851899,0.33039 c 11.071284,3.9609 23.505451,5.54097 35.284516,5.8247 7.4827,0.0263 14.97368,-0.85759 21.03141,-1.94094 9.28885,-1.86117 13.04487,-3.264 14.19742,-3.89994 l 0.29312,-0.16444 -3.8e-4,0 z m 2.14066,-3.53079 c 0.009,0.0109 0.0188,0.0214 0.0278,0.0331 -0.27129,0.45795 -0.55087,0.92381 -0.83722,1.39192 -2.14856,0.76802 -7.97939,2.47415 -16.4946,3.66475 -5.61034,0.76426 -9.09732,1.50444 -20.25779,1.72118 -20.913256,-0.53208 -34.453309,-4.62129 -37.670128,-5.62977 l -0.476745,-0.9144 c 12.119974,3.1639 24.49996,5.37239 38.147253,5.59816 10.21073,-0.21749 14.55451,-0.96933 20.11818,-1.72795 9.9289,-1.54394 14.93154,-3.17858 16.43327,-3.65045 -0.0188,-0.0271 -0.041,-0.0557 -0.0659,-0.085 l 1.07654,-0.40227 -7.5e-4,7.6e-4 z"
       inkscape:connector-curvature="0" />
    <path
       style="fill:#ffe805;fill-rule:evenodd;stroke:none"
       id="path1367"
       d="m 102.33214,89.71585 c 20.95653,0 37.87708,17.03946 37.87708,38.00031 0,20.96009 -16.92093,37.88515 -37.87708,37.88515 -20.956533,0 -37.934282,-16.98188 -37.934282,-37.94273 0,-20.96084 16.977749,-37.94198 37.934282,-37.94198 l 0,-7.5e-4 z m 0,-3.75469 c 22.96135,0 41.6888,18.73091 41.6888,41.69742 0,22.96613 -18.72745,41.6978 -41.6888,41.6978 -22.961354,0 -41.688803,-18.73129 -41.688803,-41.6978 0,-22.96651 18.727449,-41.69742 41.688803,-41.69742"
       inkscape:connector-curvature="0" />
    <path
       style="fill:#ffe805;fill-rule:evenodd;stroke:none"
       id="path1369"
       d="m 102.36036,85.45993 c 23.26764,0 42.24457,18.97927 42.24457,42.2487 0,23.27018 -18.97693,42.24907 -42.24457,42.24907 -23.267645,0 -42.244567,-18.97889 -42.244567,-42.24907 0,-23.26943 18.976922,-42.2487 42.244567,-42.2487 z m 0,0.92946 c 22.65468,0 41.31516,18.59507 41.31516,41.31924 0,22.72492 -18.66086,41.31999 -41.31516,41.31999 -22.654308,0 -41.315155,-18.59507 -41.315155,-41.31999 0,-22.72417 18.660472,-41.31924 41.315155,-41.31924"
       inkscape:connector-curvature="0" />
    <path
       style="fill:none;stroke:#000000;stroke-width:0.24440408999999999;stroke-linecap:round;stroke-linejoin:round"
       id="path1371"
       d="m 102.36036,85.45993 c 23.26764,0 42.24457,18.97927 42.24457,42.24945 0,23.26943 -18.9773,42.2487 -42.24457,42.2487 -23.267645,0 -42.244567,-18.97852 -42.244567,-42.2487 0,-23.27018 18.977297,-42.24945 42.244567,-42.24945 z m 0,0.92946 c 22.6543,0 41.31553,18.59507 41.31553,41.31999 0,22.72417 -18.66085,41.31924 -41.31553,41.31924 -22.654308,0 -41.315155,-18.59507 -41.315155,-41.31924 0,-22.72417 18.660847,-41.31999 41.315155,-41.31999 z"
       inkscape:connector-curvature="0" />
    <path
       style="fill:none;stroke:#000000;stroke-width:0.24440408999999999;stroke-linecap:round;stroke-linejoin:round"
       id="path1375"
       d="m 102.39761,88.97153 c 21.21842,0 38.69587,17.41689 38.69587,38.70022 0,21.28371 -17.47745,38.69984 -38.69587,38.69984 -21.218047,0 -38.695871,-17.41613 -38.695871,-38.69984 0,-21.28333 17.477824,-38.70022 38.695871,-38.70022 z m 0,0.92946 c 20.70894,0 37.76646,16.99806 37.76646,37.77076 0,20.77232 -17.05789,37.77039 -37.76646,37.77039 -20.708565,0 -37.766459,-16.99807 -37.766459,-37.77039 0,-20.7727 17.057519,-37.77076 37.766459,-37.77076 z"
       inkscape:connector-curvature="0" />
    <path
       style="fill:#ffe805;fill-rule:evenodd;stroke:none"
       id="path1377"
       d="m 100.65054,170.27078 3.67551,0 0,-85.00953 -3.67551,0 0,85.00953 z"
       inkscape:connector-curvature="0" />
    <path
       style="fill:none;stroke:#000000;stroke-width:0.24440408999999999;stroke-linecap:round;stroke-linejoin:round"
       id="path1379"
       d="m 101.12879,85.29135 2.56811,0"
       inkscape:connector-curvature="0" />
    <path
       style="fill:none;stroke:#000000;stroke-width:0.24440408999999999;stroke-linecap:round;stroke-linejoin:round"
       id="path1381"
       d="m 101.13331,170.18159 2.58053,0"
       inkscape:connector-curvature="0" />
    <path
       style="fill:#ffe805;fill-rule:evenodd;stroke:none"
       id="path1383"
       d="m 103.73453,84.80631 0.92151,0 0.008,85.8671 -0.92226,0 -0.007,-85.8671 -3.8e-4,0 z m -3.59309,7.5e-4 0.92866,0 7.5e-4,85.8656 -0.92904,0 0,-85.8656"
       inkscape:connector-curvature="0" />
    <path
       style="fill:none;stroke:#000000;stroke-width:0.24446166999999999;stroke-linecap:round;stroke-linejoin:round"
       id="path1385"
       d="m 103.73453,84.80631 0.92151,0 0.008,85.8671 -0.92226,0 -0.007,-85.8671 -3.8e-4,0 z m -3.59309,7.5e-4 0.92866,0 0.001,85.8656 -0.92941,0 0,-85.8656 -3.7e-4,0 z"
       inkscape:connector-curvature="0" />
    <path
       style="fill:#ffe805;fill-rule:evenodd;stroke:none"
       id="path1387"
       d="m 59.964527,125.91031 c 5.297647,-4.87718 24.843503,-8.03958 42.185493,-7.95755 17.34199,0.0817 37.87972,3.64481 42.34767,7.85369 l 0.0448,3.63728 c -3.74172,-3.5195 -19.69787,-7.71671 -42.3582,-7.76375 -22.660702,-0.047 -39.11354,4.2657 -42.220484,7.85782 l 7.51e-4,-3.62749"
       inkscape:connector-curvature="0" />
    <path
       style="fill:none;stroke:#000000;stroke-width:0.24423586000000000;stroke-linecap:round;stroke-linejoin:round"
       id="path1389"
       d="m 59.953993,126.07926 0,3.13907"
       inkscape:connector-curvature="0" />
    <path
       style="fill:none;stroke:#000000;stroke-width:0.24423586000000000;stroke-linecap:round;stroke-linejoin:round"
       id="path1391"
       d="m 144.63654,126.20871 0,3.13831"
       inkscape:connector-curvature="0" />
    <path
       style="fill:#ffe805;fill-rule:evenodd;stroke:none"
       id="path1393"
       d="m 102.38068,121.16747 c 9.97668,-0.0184 19.65611,0.94601 27.33447,2.44028 7.92296,1.58458 13.49829,3.56578 15.40453,5.7912 l -0.002,1.10104 c -2.29907,-2.76841 -9.80172,-4.79853 -15.581,-5.95903 -7.61967,-1.48298 -17.23475,-2.4399 -27.15612,-2.42071 -10.46961,0.0188 -20.218269,1.01111 -27.726557,2.47528 -6.024619,1.19549 -14.059324,3.57105 -15.062485,5.91275 l 0,-1.14733 c 0.551249,-1.62071 6.533725,-4.04444 14.927023,-5.7246 7.56398,-1.47509 17.331076,-2.44894 27.862019,-2.46888 l 3.8e-4,0 z m 0.004,-3.62336 c 9.97668,-0.0181 19.65611,0.94601 27.33448,2.44028 7.92294,1.58458 13.49828,3.56578 15.40452,5.7912 l -0.002,1.10105 c -2.29907,-2.76842 -9.80172,-4.79854 -15.581,-5.95904 -7.61967,-1.48298 -17.23475,-2.4399 -27.15612,-2.42071 -10.469611,0.0188 -20.17161,1.01111 -27.679898,2.47528 -5.813901,1.10217 -14.176725,3.57105 -15.109146,5.91275 l 0,-1.14733 c 0.551249,-1.60378 6.654511,-4.11368 14.927399,-5.7246 7.56398,-1.47509 17.331076,-2.44894 27.862025,-2.46888"
       inkscape:connector-curvature="0" />
    <path
       style="fill:none;stroke:#000000;stroke-width:0.24440408999999999;stroke-linecap:round;stroke-linejoin:round"
       id="path1395"
       d="m 102.38068,121.16747 c 9.97668,-0.0184 19.65648,0.94525 27.33447,2.44028 7.92296,1.58383 13.49829,3.56503 15.40491,5.79045 l -0.002,1.10179 c -2.29906,-2.76916 -9.80171,-4.79928 -15.58099,-5.95978 -7.61929,-1.48223 -17.23437,-2.43915 -27.15612,-2.42071 -10.469614,0.0196 -20.218274,1.0111 -27.726562,2.47603 -6.024618,1.19549 -14.058944,3.5703 -15.062109,5.91275 l 0,-1.14733 c 0.550873,-1.62146 6.53335,-4.04444 14.926647,-5.7246 7.564356,-1.47509 17.331076,-2.44969 27.862024,-2.46888 z m 0.004,-3.62336 c 9.97668,-0.0181 19.65648,0.94601 27.33448,2.44028 7.92294,1.58458 13.49828,3.56503 15.40489,5.79045 l -0.002,1.1018 c -2.29907,-2.76842 -9.80172,-4.79854 -15.581,-5.95904 -7.61929,-1.48298 -17.23438,-2.4399 -27.15612,-2.42071 -10.469616,0.0188 -20.171239,1.01111 -27.679903,2.47528 -5.8139,1.10217 -14.176345,3.57105 -15.109145,5.9135 l 0,-1.14808 c 0.550873,-1.60378 6.654511,-4.11368 14.927023,-5.7246 7.564356,-1.47509 17.331076,-2.44894 27.862025,-2.46888 z"
       inkscape:connector-curvature="0" />
    <path
       style="fill:#ffe805;fill-rule:evenodd;stroke:none"
       id="path1397"
       d="m 102.17749,99.06381 c 15.7221,-0.07865 29.43562,2.19832 35.70971,5.41227 l 2.28854,3.95902 c -5.45305,-2.93888 -20.248,-5.99478 -37.97568,-5.53759 -14.444254,0.0888 -29.878123,1.59023 -37.621965,5.7216 l 2.732168,-4.56937 c 6.355367,-3.29561 21.342597,-4.9675 34.867227,-4.98518"
       inkscape:connector-curvature="0" />
    <path
       style="fill:none;stroke:#000000;stroke-width:0.24494669999999999;stroke-linecap:round;stroke-linejoin:round"
       id="path1399"
       d="m 138.28531,105.11541 1.55742,2.50049"
       inkscape:connector-curvature="0" />
    <path
       style="fill:#ffe805;fill-rule:evenodd;stroke:none"
       id="path1401"
       d="m 102.38557,102.33307 c 8.96713,-0.0245 17.63248,0.48204 24.52367,1.72532 6.41745,1.19437 12.53764,2.98629 13.41212,3.95187 l 0.67805,1.19888 c -2.12824,-1.38967 -7.424,-2.93699 -14.22451,-4.22657 -6.82985,-1.28354 -15.48843,-1.70876 -24.40588,-1.68543 -10.121558,-0.0346 -17.984679,0.49897 -24.733637,1.67565 -7.1369,1.33623 -12.088742,3.2433 -13.310899,4.15018 l 0.665263,-1.267 c 2.373572,-1.21092 6.139759,-2.67057 12.468408,-3.81 6.978863,-1.27489 14.925896,-1.65796 24.927035,-1.7129 l 3.8e-4,0 z m -0.004,-3.61922 c 8.58181,-0.02333 17.05488,0.45494 23.65973,1.64291 5.20921,1.01337 10.36086,2.5972 12.24678,4.0053 l 0.99225,1.57744 c -1.68649,-1.87584 -8.03659,-3.65234 -13.64203,-4.64726 -6.55442,-1.1304 -14.67567,-1.57782 -23.25673,-1.64931 -9.005887,0.02446 -17.329198,0.57611 -23.787664,1.75279 -6.161963,1.17254 -10.137732,2.5607 -11.820083,3.64405 l 0.872593,-1.31704 c 2.321647,-1.22221 6.072405,-2.3447 10.795849,-3.26173 6.506632,-1.18458 14.880742,-1.72269 23.939305,-1.74715"
       inkscape:connector-curvature="0" />
    <path
       style="fill:none;stroke:#000000;stroke-width:0.24454745999999999;stroke-linecap:round;stroke-linejoin:round"
       id="path1403"
       d="m 102.38557,102.33307 c 8.96713,-0.0237 17.6321,0.48204 24.52329,1.72532 6.41745,1.19437 12.53765,2.98704 13.4125,3.95112 l 0.67843,1.19887 c -2.12824,-1.38966 -7.42438,-2.93699 -14.22451,-4.22656 -6.8291,-1.28355 -15.48806,-1.70876 -24.40551,-1.68543 -10.121181,-0.0346 -17.985053,0.49972 -24.733256,1.6764 -7.13728,1.33548 -12.089122,3.2433 -13.310903,4.1498 l 0.664887,-1.26737 c 2.373572,-1.21092 6.139759,-2.67058 12.468412,-3.81 6.978863,-1.27489 14.925892,-1.65721 24.92704,-1.71215 l -3.8e-4,0 z m -0.004,-3.61997 c 8.58144,-0.02258 17.05488,0.45569 23.65935,1.64291 5.20922,1.01412 10.36087,2.5972 12.24716,4.00605 l 0.99225,1.57668 c -1.68687,-1.87508 -8.03659,-3.65195 -13.64203,-4.64726 -6.55404,-1.13039 -14.67529,-1.57781 -23.25673,-1.6493 -9.005887,0.02521 -17.329198,0.57686 -23.787664,1.75279 -6.161583,1.17254 -10.137732,2.56069 -11.820083,3.6448 l 0.872593,-1.31704 c 2.321647,-1.22221 6.072405,-2.3447 10.795849,-3.26249 6.506257,-1.18458 14.880362,-1.72193 23.939305,-1.74714 z"
       inkscape:connector-curvature="0" />
    <path
       style="fill:#ffe805;fill-rule:evenodd;stroke:none"
       id="path1405"
       d="m 123.37033,145.27189 c -7.77282,-1.451 -15.56031,-1.66172 -20.99906,-1.59775 -26.200369,0.30706 -34.664032,5.37991 -35.696919,6.91595 l -1.958161,-3.19212 c 6.670315,-4.83503 20.937719,-7.54625 37.79694,-7.2693 8.75415,0.14337 16.30872,0.72475 22.66409,1.95561 l -1.80727,3.18836"
       inkscape:connector-curvature="0" />
    <path
       style="fill:none;stroke:#000000;stroke-width:0.24440408999999999;stroke-linecap:round;stroke-linejoin:round"
       id="path1407"
       d="m 65.151168,147.83974 1.285372,2.213"
       inkscape:connector-curvature="0" />
    <path
       style="fill:#ffe805;fill-rule:evenodd;stroke:none"
       id="path1409"
       d="m 102.22151,143.22371 c 7.28817,0.10875 14.44275,0.40979 21.34749,1.69747 l -0.50008,0.8828 c -6.41331,-1.18383 -13.24994,-1.63689 -20.82258,-1.60077 -9.669256,-0.0749 -19.449523,0.82823 -27.963985,3.2719 -2.686639,0.74695 -7.134268,2.4749 -7.588062,3.90219 l -0.497066,-0.82108 c 0.142988,-0.84365 2.831509,-2.59381 7.85635,-4.00567 9.752797,-2.79288 18.875328,-3.26362 28.168313,-3.32759 l -3.8e-4,7.5e-4 z m 0.33075,-3.66776 c 7.55119,0.14111 15.34921,0.49031 22.92899,1.99174 l -0.52077,0.91966 c -6.84415,-1.35918 -13.3839,-1.81186 -22.36344,-1.94997 -9.700118,0.0169 -19.989492,0.70933 -29.345315,3.4292 -3.020399,0.87978 -8.233383,2.78196 -8.407599,4.28714 l -0.497067,-0.88128 c 0.112883,-1.36784 4.625984,-3.15224 8.686046,-4.33306 9.427691,-2.74094 19.744158,-3.44575 29.519155,-3.46343"
       inkscape:connector-curvature="0" />
    <path
       style="fill:none;stroke:#000000;stroke-width:0.23460365999999999;stroke-linecap:round;stroke-linejoin:round"
       id="path1411"
       d="m 102.22151,143.22371 c 7.28817,0.10875 14.44238,0.40979 21.34749,1.69747 l -0.50008,0.8828 c -6.41331,-1.18383 -13.24994,-1.63689 -20.82258,-1.60002 -9.669636,-0.0756 -19.449523,0.82748 -27.964365,3.27115 -2.686634,0.7477 -7.134263,2.4749 -7.587682,3.90219 l -0.497442,-0.82033 c 0.143364,-0.84365 2.831505,-2.59456 7.856726,-4.00642 9.752797,-2.79288 18.875328,-3.26362 28.167933,-3.32759 l 0,7.5e-4 z m 0.33075,-3.66776 c 7.55119,0.14111 15.34921,0.49031 22.92899,1.99174 l -0.52077,0.91891 c -6.84453,-1.35881 -13.3839,-1.81187 -22.36382,-1.94997 -9.700118,0.0177 -19.989867,0.70932 -29.345315,3.42919 -3.020399,0.87978 -8.233378,2.78196 -8.407219,4.2879 l -0.497442,-0.88128 c 0.113258,-1.36784 4.625984,-3.15224 8.686046,-4.33306 9.42769,-2.74094 19.744157,-3.44575 29.51953,-3.46343 z"
       inkscape:connector-curvature="0" />
    <path
       style="fill:#ffe805;fill-rule:evenodd;stroke:none"
       id="path1419"
       d="m 66.94339,103.99329 c 12.978645,-0.16858 72.92078,36.6287 73.09726,43.40468 l -3.7135,5.69224 C 134.65308,145.2241 73.828937,109.41572 63.795055,110.09042 l 3.148335,-6.09713"
       inkscape:connector-curvature="0" />
    <path
       style="fill:none;stroke:#000000;stroke-width:0.24447031000000000;stroke-linecap:round;stroke-linejoin:round"
       id="path1421"
       d="m 139.76785,147.88113 -3.14833,4.88508"
       inkscape:connector-curvature="0" />
    <path
       style="fill:none;stroke:#000000;stroke-width:0.24447031000000000;stroke-linecap:round;stroke-linejoin:round"
       id="path1423"
       d="m 66.847061,104.31503 -2.928584,5.42694"
       inkscape:connector-curvature="0" />
    <path
       style="fill:#ffe805;fill-rule:evenodd;stroke:none"
       id="path1425"
       d="m 63.423667,109.87293 c 2.409323,-1.63389 20.112538,6.25216 38.636793,17.42177 18.47497,11.2016 36.12927,23.85983 34.53573,26.22937 l -0.52454,0.82372 -0.24044,0.1904 c 0.0515,-0.0376 0.3172,-0.36162 -0.026,-1.23989 -0.78717,-2.59005 -13.30977,-12.58298 -34.08795,-25.12871 -20.255893,-12.07912 -37.137313,-19.3582 -38.825305,-17.27803 l 0.532062,-1.01863 -3.8e-4,0 z m 76.988753,37.94122 c 1.52318,-3.00811 -14.89768,-15.37886 -35.2563,-27.42261 C 84.329028,108.58825 69.318844,101.63918 66.576896,103.71107 l -0.609574,1.10819 c -0.0049,0.0617 0.0222,-0.0749 0.150886,-0.17498 0.498948,-0.435 1.324881,-0.40565 1.697775,-0.41242 4.721562,0.0708 18.2048,6.27588 37.122267,17.1215 8.28945,4.82825 35.01698,21.96932 34.91539,26.79005 0.007,0.4143 0.0342,0.49897 -0.12192,0.70405 l 0.67995,-1.03331"
       inkscape:connector-curvature="0" />
    <path
       style="fill:none;stroke:#000000;stroke-width:0.24448200000000000;stroke-linecap:round;stroke-linejoin:round"
       id="path1427"
       d="m 63.423667,109.87217 c 2.408947,-1.63388 20.112538,6.25292 38.636793,17.42253 18.47497,11.2016 36.12889,23.85983 34.53535,26.22862 l -0.52416,0.82447 -0.24044,0.18965 c 0.0515,-0.0369 0.3172,-0.36162 -0.026,-1.2399 -0.78717,-2.59005 -13.30977,-12.58298 -34.08795,-25.1287 -20.255893,-12.07837 -37.137689,-19.3582 -38.825305,-17.27728 l 0.532062,-1.01939 -3.8e-4,0 z m 76.988753,37.94198 c 1.52318,-3.00886 -14.89768,-15.37886 -35.2563,-27.42261 C 84.329404,108.58749 69.318844,101.63918 66.576896,103.71107 l -0.609199,1.10894 c -0.0053,0.061 0.0222,-0.0756 0.150886,-0.17497 0.498573,-0.435 1.324886,-0.40565 1.697775,-0.41243 4.721187,0.0708 18.204425,6.27588 37.122642,17.1215 8.28907,4.82788 35.01699,21.96932 34.91502,26.79005 0.007,0.4143 0.0342,0.49973 -0.12154,0.70481 l 0.67994,-1.03407 0,-7.5e-4 z"
       inkscape:connector-curvature="0" />
    <path
       style="fill:#ffffff;fill-rule:evenodd;stroke:none"
       id="path1429"
       d="m 77.054784,132.36304 c 0,6.94192 2.842795,13.22118 7.448836,17.81011 4.614699,4.59872 10.885402,7.50035 17.8383,7.50035 6.9894,0 13.33197,-2.83841 17.92673,-7.41944 4.59475,-4.58029 7.44282,-10.90169 7.44357,-17.86807 l -3.8e-4,0 0,-33.78729 -50.662325,-0.0602 0.0053,33.82454"
       inkscape:connector-curvature="0" />
    <path
       style="fill:none;stroke:#000000;stroke-width:0.28602535000000001"
       id="path1431"
       d="m 77.054409,132.36304 c 0,6.9423 2.842794,13.22118 7.44846,17.81011 4.614319,4.59872 10.885022,7.50035 17.838301,7.50035 6.9894,0 13.33197,-2.83841 17.92673,-7.41944 4.59475,-4.58029 7.44244,-10.90206 7.44357,-17.86882 l -7.6e-4,0 0,-33.78729 -50.662322,-0.0602 0.0053,33.82529 7.56e-4,0 z"
       inkscape:connector-curvature="0" />
    <path
       style="fill:#dc241f;fill-rule:evenodd;stroke:none"
       id="path1433"
       d="m 78.003008,132.41083 0,0.0192 0,0 c 0,6.6375 2.748727,12.68232 7.157598,17.07069 4.417527,4.39665 10.501973,7.13045 17.157984,7.13045 6.69026,0 12.76229,-2.71386 17.161,-7.09357 4.39834,-4.37971 7.1241,-10.42454 7.12486,-17.08612 l -7.6e-4,0 0,-32.77844 -48.570956,-0.0087 -0.02973,32.74645 m 38.835856,-22.93189 0.002,20.85925 -0.0181,2.2066 3.7e-4,0 c 0,0.58138 -0.035,1.24328 -0.10235,1.80622 -0.39509,3.29862 -1.91187,6.17239 -4.15789,8.40873 -2.62982,2.61865 -6.26017,4.24161 -10.26002,4.24161 -3.979543,0 -7.525979,-1.68016 -10.167088,-4.30935 -2.708839,-2.69578 -4.279053,-6.39327 -4.279053,-10.21645 l -0.0056,-23.04966 28.988221,0.0523"
       inkscape:connector-curvature="0" />
    <path
       style="fill:none;stroke:#000000;stroke-width:0.21646693000000000"
       id="path1435"
       d="m 78.002633,132.41083 0,0.0192 0,0 c 0,6.6375 2.748347,12.68232 7.157222,17.07069 4.417523,4.39665 10.501969,7.13045 17.157985,7.13045 6.69063,0 12.76228,-2.71386 17.16137,-7.09357 4.39796,-4.37971 7.12411,-10.42454 7.12486,-17.08537 l -7.5e-4,0 0,-32.77919 -48.570962,-0.0079 -0.02972,32.7457 m 38.836232,-22.93189 0.002,20.86 -0.0177,2.2066 3.7e-4,0 c 0,0.58063 -0.035,1.24253 -0.10272,1.80623 -0.39472,3.29786 -1.9115,6.17239 -4.15789,8.40872 -2.62982,2.6179 -6.2598,4.24161 -10.26003,4.24161 -3.979539,0 -7.525976,-1.68016 -10.167085,-4.30934 -2.709214,-2.69654 -4.279432,-6.39403 -4.279432,-10.21721 l -0.0056,-23.04966 28.987857,0.0523 7.5e-4,7.5e-4 z"
       inkscape:connector-curvature="0" />
    <use
       y="0"
       xlink:href="#use3436"
       x="0"
       width="600"
       transform="translate(-8.8512299,-0.01731)"
       id="use3438"
       height="400" />
    <use
       y="0"
       xlink:href="#path1485"
       x="0"
       width="600"
       transform="translate(-0.0287872,22.10121)"
       id="use3434"
       height="400" />
    <use
       y="0"
       xlink:href="#use3438"
       x="0"
       width="600"
       transform="translate(-8.8741845,0.02164)"
       id="use3440"
       height="400" />
    <use
       y="0"
       xlink:href="#use3434"
       x="0"
       width="600"
       transform="translate(8.8824619,-10.98353)"
       id="use3436"
       height="400" />
    <path
       style="fill:#002c77"
       id="path1485"
       d="m 99.255676,117.59114 0,0.002 c 0,0.94375 0.362355,1.80359 0.943714,2.42749 0.58248,0.62578 1.3847,1.01449 2.26219,1.01449 0.882,0 1.68272,-0.38607 2.26257,-1.00922 0.57947,-0.6224 0.93957,-1.48148 0.93957,-2.429 l 0,0 0,-4.5942 -6.396379,-0.005 -0.01167,4.59345"
       inkscape:connector-curvature="0" />
    <use
       y="0"
       xlink:href="#use5944"
       x="0"
       width="600"
       transform="translate(-12.323166,-14.60313)"
       id="use6346"
       height="400" />
    <g
       transform="matrix(0.4266667,0,0,0.4266667,0,42.33333)"
       id="g6250">
      <use
         y="0"
         xlink:href="#path1539"
         x="0"
         width="600"
         transform="translate(10.60844,0)"
         id="use4364"
         height="400" />
      <path
         style="fill:#ffe805;fill-rule:evenodd;stroke:none"
         id="path1497"
         d="m 190.19141,154.43388 c 0.13493,-5.52098 4.05235,-6.82802 4.08057,-6.84742 0.0282,-0.0185 4.23139,1.40758 4.21728,6.89857 l -8.29785,-0.0512"
         inkscape:connector-curvature="0" />
      <path
         style="fill:#ffe805;fill-rule:evenodd;stroke:none"
         id="path1499"
         d="m 186.8093,147.68435 -0.68172,6.34648 4.14055,0.009 c 0.0397,-5.24934 3.97475,-6.12246 4.07,-6.10306 0.0891,-0.005 3.98886,1.15888 4.09292,6.10306 l 4.15113,0 -0.7505,-6.39322 -15.0215,0.0379"
         inkscape:connector-curvature="0" />
      <path
         style="fill:none;stroke:#000000;stroke-width:0.49936472999999998"
         id="path1501"
         d="m 186.8093,147.68612 -0.68172,6.34471 4.14055,0.009 c 0.0397,-5.24934 3.97387,-6.12246 4.06912,-6.10306 0.0891,-0.005 3.98886,1.16064 4.09292,6.10306 l 4.15113,0 -0.74962,-6.39322 -15.02238,0.0379 0,0.002 z"
         inkscape:connector-curvature="0" />
      <path
         style="fill:#ffe805;fill-rule:evenodd;stroke:none"
         id="path1503"
         d="m 185.85155,154.05994 16.94582,0 c 0.35629,0 0.6482,0.35277 0.6482,0.78404 0,0.42863 -0.29103,0.78141 -0.6482,0.78141 l -16.94582,0 c -0.35718,0 -0.64909,-0.35102 -0.64909,-0.78141 0,-0.43127 0.29191,-0.78404 0.64909,-0.78404"
         inkscape:connector-curvature="0" />
      <path
         style="fill:none;stroke:#000000;stroke-width:0.49943003000000002"
         id="path1505"
         d="m 185.85066,154.05994 16.94583,0 c 0.35717,0 0.64908,0.35277 0.64908,0.78404 l 0,0 c 0,0.43039 -0.29191,0.78141 -0.64908,0.78141 l -16.94583,0 c -0.35717,0 -0.64908,-0.35102 -0.64908,-0.78141 l 0,0 c 0,-0.43127 0.29191,-0.78404 0.64908,-0.78404 z"
         inkscape:connector-curvature="0" />
      <path
         style="fill:#ffe805;fill-rule:evenodd;stroke:none"
         id="path1507"
         d="m 192.01431,154.02907 c 0.0185,-3.31259 2.26208,-4.2501 2.27355,-4.24833 8.8e-4,0 2.34146,0.96661 2.35998,4.24833 l -4.63353,0"
         inkscape:connector-curvature="0" />
      <path
         style="fill:none;stroke:#000000;stroke-width:0.49703202000000002"
         id="path1509"
         d="m 192.01431,154.02907 c 0.0185,-3.31259 2.26208,-4.2501 2.27355,-4.24833 8.8e-4,0 2.34234,0.96661 2.36086,4.24833 l -4.63441,0"
         inkscape:connector-curvature="0" />
      <path
         style="fill:#ffe805;fill-rule:evenodd;stroke:none"
         id="path1511"
         d="m 186.20784,145.05616 16.2447,0 c 0.34218,0 0.62263,0.31662 0.62263,0.70467 0,0.38541 -0.28045,0.70468 -0.62263,0.70468 l -16.2447,0 c -0.34218,0 -0.62263,-0.3175 -0.62263,-0.70468 0,-0.38805 0.28045,-0.70467 0.62263,-0.70467"
         inkscape:connector-curvature="0" />
      <path
         style="fill:none;stroke:#000000;stroke-width:0.49901107000000000"
         id="path1513"
         d="m 186.20784,145.05439 16.2447,0 c 0.34218,0 0.62263,0.31839 0.62263,0.70468 l 0,0 c 0,0.38717 -0.28045,0.70467 -0.62263,0.70467 l -16.2447,0 c -0.34218,0 -0.62263,-0.31573 -0.62263,-0.70467 l 0,0 c 0,-0.38629 0.28045,-0.70468 0.62263,-0.70468 z"
         inkscape:connector-curvature="0" />
      <path
         style="fill:#ffe805;fill-rule:evenodd;stroke:none"
         id="path1515"
         d="m 186.5509,146.46551 15.53918,0 c 0.32719,0 0.59617,0.31662 0.59617,0.70379 0,0.38805 -0.2681,0.70467 -0.59617,0.70467 l -15.53918,0 c -0.32719,0 -0.59529,-0.31662 -0.59529,-0.70467 0,-0.38717 0.2681,-0.70379 0.59529,-0.70379"
         inkscape:connector-curvature="0" />
      <path
         style="fill:none;stroke:#000000;stroke-width:0.49901107000000000"
         id="path1517"
         d="m 186.5509,146.46551 15.5383,0 c 0.32719,0 0.59529,0.31662 0.59529,0.70379 l 0,0 c 0,0.38805 -0.2681,0.70467 -0.59529,0.70467 l -15.5383,0 c -0.32719,0 -0.59529,-0.31662 -0.59529,-0.70467 l 0,0 c 0,-0.38717 0.2681,-0.70379 0.59529,-0.70379 z"
         inkscape:connector-curvature="0" />
      <use
         y="0"
         xlink:href="#use4656"
         x="0"
         width="600"
         transform="translate(-5.27909,-3.162655)"
         id="use4658"
         height="400" />
      <path
         style="fill:none;stroke:#000000;stroke-width:0.50025284000000003"
         id="path1521"
         d="m 191.57159,135.88217 1.22673,0.002 0,0.87136 0.89513,0 0,-0.89076 1.25672,0.004 0,0.88723 0.89778,0 0,-0.89076 1.2576,0 -0.002,2.01171 c 0,0.31574 -0.25398,0.52035 -0.54854,0.52035 l -4.41129,0 c -0.29633,0 -0.56972,-0.23724 -0.5706,-0.52652 l -0.003,-1.9879 8.8e-4,0 z"
         inkscape:connector-curvature="0" />
      <path
         style="fill:#ffe805;fill-rule:evenodd;stroke:none"
         id="path1523"
         d="m 196.19366,138.5721 0.27692,6.45319 -4.30282,-0.0159 0.28485,-6.45055 3.74193,0.015"
         inkscape:connector-curvature="0" />
      <path
         style="fill:none;stroke:#000000;stroke-width:0.49897756999999998"
         id="path1525"
         d="m 196.19278,138.57386 0.27691,6.45143 -4.30282,-0.0159 0.28486,-6.45231 3.74105,0.0168"
         inkscape:connector-curvature="0" />
      <use
         y="0"
         xlink:href="#path1535"
         x="0"
         width="600"
         transform="translate(10.60845,0)"
         id="use4656"
         height="400" />
      <use
         y="0"
         xlink:href="#path1541"
         x="0"
         width="600"
         transform="translate(10.60889,0)"
         id="use4366"
         height="400" />
      <use
         y="0"
         xlink:href="#path1537"
         x="0"
         width="600"
         transform="translate(10.60889,-0.010585)"
         id="use4660"
         height="400" />
      <path
         style="fill:#ffde00;fill-rule:evenodd;stroke:none"
         id="path1535"
         d="m 186.3022,139.04482 1.20027,0.002 0,0.87136 0.87662,0 0,-0.89077 1.22938,0.004 0,0.88724 0.87926,0 0,-0.89077 1.23025,0.002 -0.002,2.01171 c 0,0.31398 -0.2487,0.51859 -0.5362,0.51859 l -4.31693,0 c -0.29014,0 -0.55824,-0.23548 -0.55824,-0.52741 l -0.002,-1.98702"
         inkscape:connector-curvature="0" />
      <path
         style="fill:none;stroke:#000000;stroke-width:0.50017255999999999;stroke-opacity:1"
         id="path1537"
         d="m 186.3022,139.04482 1.19939,0.003 0,0.87224 0.8775,0 0,-0.89253 1.22938,0.004 0,0.889 0.87926,0 0,-0.89253 1.23025,0.002 -0.002,2.01171 c 0,0.31398 -0.2487,0.51859 -0.5362,0.51859 l -4.31693,0 c -0.28926,0 -0.55824,-0.23548 -0.55913,-0.52564 l -0.003,-1.98879 8.8e-4,0 z"
         inkscape:connector-curvature="0" />
      <path
         style="fill:#ffde00;fill-rule:evenodd;stroke:none"
         id="path1539"
         d="m 190.93926,141.55925 0.13141,3.47751 -4.12644,0.002 0.11641,-3.47927 3.87862,0"
         inkscape:connector-curvature="0" />
      <path
         style="fill:none;stroke:#000000;stroke-width:0.50127672999999995"
         id="path1541"
         d="m 190.94014,141.55925 0.13141,3.47751 -4.12556,0.002 0.11641,-3.47927 3.87863,0 -8.9e-4,0 z"
         inkscape:connector-curvature="0" />
      <path
         style="fill:#000000;fill-rule:evenodd;stroke:none"
         id="path1543"
         d="m 193.89806,140.61027 c -0.0265,-0.62706 0.87661,-0.63411 0.86603,0 l 0,1.53635 -0.86603,0 0,-1.53635"
         inkscape:connector-curvature="0" />
      <use
         y="0"
         xlink:href="#path1547"
         x="0"
         width="600"
         transform="translate(10.64108,0)"
         id="use4362"
         height="400" />
      <path
         style="fill:#000000;fill-rule:evenodd;stroke:none"
         id="path1547"
         d="m 188.56605,142.84424 c -0.003,-0.6059 0.83693,-0.61824 0.82635,0 l 0,1.1871 -0.82635,0 0,-1.1871"
         inkscape:connector-curvature="0" />
    </g>
    <use
       y="0"
       xlink:href="#use4982"
       x="0"
       width="600"
       transform="translate(-19.287356,0)"
       id="use4984"
       height="400" />
    <use
       y="0"
       xlink:href="#use4980"
       x="0"
       width="600"
       transform="translate(38.792013,-19.76304)"
       id="use4982"
       height="400" />
    <g
       transform="matrix(0.4266667,0,0,0.4266667,0,62.09638)"
       id="use4980">
      <use
         y="0"
         xlink:href="#path1539"
         x="0"
         width="600"
         transform="translate(10.60844,0)"
         id="use5166"
         height="400" />
      <path
         style="fill:#ffe805;fill-rule:evenodd;stroke:none"
         id="path5168"
         d="m 190.19141,154.43388 c 0.13493,-5.52098 4.05235,-6.82802 4.08057,-6.84742 0.0282,-0.0185 4.23139,1.40758 4.21728,6.89857 l -8.29785,-0.0512"
         inkscape:connector-curvature="0" />
      <path
         style="fill:#ffe805;fill-rule:evenodd;stroke:none"
         id="path5170"
         d="m 186.8093,147.68435 -0.68172,6.34648 4.14055,0.009 c 0.0397,-5.24934 3.97475,-6.12246 4.07,-6.10306 0.0891,-0.005 3.98886,1.15888 4.09292,6.10306 l 4.15113,0 -0.7505,-6.39322 -15.0215,0.0379"
         inkscape:connector-curvature="0" />
      <path
         style="fill:none;stroke:#000000;stroke-width:0.49936472999999998"
         id="path5172"
         d="m 186.8093,147.68612 -0.68172,6.34471 4.14055,0.009 c 0.0397,-5.24934 3.97387,-6.12246 4.06912,-6.10306 0.0891,-0.005 3.98886,1.16064 4.09292,6.10306 l 4.15113,0 -0.74962,-6.39322 -15.02238,0.0379 0,0.002 z"
         inkscape:connector-curvature="0" />
      <path
         style="fill:#ffe805;fill-rule:evenodd;stroke:none"
         id="path5174"
         d="m 185.85155,154.05994 16.94582,0 c 0.35629,0 0.6482,0.35277 0.6482,0.78404 0,0.42863 -0.29103,0.78141 -0.6482,0.78141 l -16.94582,0 c -0.35718,0 -0.64909,-0.35102 -0.64909,-0.78141 0,-0.43127 0.29191,-0.78404 0.64909,-0.78404"
         inkscape:connector-curvature="0" />
      <path
         style="fill:none;stroke:#000000;stroke-width:0.49943003000000002"
         id="path5176"
         d="m 185.85066,154.05994 16.94583,0 c 0.35717,0 0.64908,0.35277 0.64908,0.78404 l 0,0 c 0,0.43039 -0.29191,0.78141 -0.64908,0.78141 l -16.94583,0 c -0.35717,0 -0.64908,-0.35102 -0.64908,-0.78141 l 0,0 c 0,-0.43127 0.29191,-0.78404 0.64908,-0.78404 z"
         inkscape:connector-curvature="0" />
      <path
         style="fill:#ffe805;fill-rule:evenodd;stroke:none"
         id="path5178"
         d="m 192.01431,154.02907 c 0.0185,-3.31259 2.26208,-4.2501 2.27355,-4.24833 8.8e-4,0 2.34146,0.96661 2.35998,4.24833 l -4.63353,0"
         inkscape:connector-curvature="0" />
      <path
         style="fill:none;stroke:#000000;stroke-width:0.49703202000000002"
         id="path5180"
         d="m 192.01431,154.02907 c 0.0185,-3.31259 2.26208,-4.2501 2.27355,-4.24833 8.8e-4,0 2.34234,0.96661 2.36086,4.24833 l -4.63441,0"
         inkscape:connector-curvature="0" />
      <path
         style="fill:#ffe805;fill-rule:evenodd;stroke:none"
         id="path5182"
         d="m 186.20784,145.05616 16.2447,0 c 0.34218,0 0.62263,0.31662 0.62263,0.70467 0,0.38541 -0.28045,0.70468 -0.62263,0.70468 l -16.2447,0 c -0.34218,0 -0.62263,-0.3175 -0.62263,-0.70468 0,-0.38805 0.28045,-0.70467 0.62263,-0.70467"
         inkscape:connector-curvature="0" />
      <path
         style="fill:none;stroke:#000000;stroke-width:0.49901107000000000"
         id="path5184"
         d="m 186.20784,145.05439 16.2447,0 c 0.34218,0 0.62263,0.31839 0.62263,0.70468 l 0,0 c 0,0.38717 -0.28045,0.70467 -0.62263,0.70467 l -16.2447,0 c -0.34218,0 -0.62263,-0.31573 -0.62263,-0.70467 l 0,0 c 0,-0.38629 0.28045,-0.70468 0.62263,-0.70468 z"
         inkscape:connector-curvature="0" />
      <path
         style="fill:#ffe805;fill-rule:evenodd;stroke:none"
         id="path5186"
         d="m 186.5509,146.46551 15.53918,0 c 0.32719,0 0.59617,0.31662 0.59617,0.70379 0,0.38805 -0.2681,0.70467 -0.59617,0.70467 l -15.53918,0 c -0.32719,0 -0.59529,-0.31662 -0.59529,-0.70467 0,-0.38717 0.2681,-0.70379 0.59529,-0.70379"
         inkscape:connector-curvature="0" />
      <path
         style="fill:none;stroke:#000000;stroke-width:0.49901107000000000"
         id="path5188"
         d="m 186.5509,146.46551 15.5383,0 c 0.32719,0 0.59529,0.31662 0.59529,0.70379 l 0,0 c 0,0.38805 -0.2681,0.70467 -0.59529,0.70467 l -15.5383,0 c -0.32719,0 -0.59529,-0.31662 -0.59529,-0.70467 l 0,0 c 0,-0.38717 0.2681,-0.70379 0.59529,-0.70379 z"
         inkscape:connector-curvature="0" />
      <use
         y="0"
         xlink:href="#use4656"
         x="0"
         width="600"
         transform="translate(-5.27909,-3.162655)"
         id="use5190"
         height="400" />
      <path
         style="fill:none;stroke:#000000;stroke-width:0.50025284000000003"
         id="path5192"
         d="m 191.57159,135.88217 1.22673,0.002 0,0.87136 0.89513,0 0,-0.89076 1.25672,0.004 0,0.88723 0.89778,0 0,-0.89076 1.2576,0 -0.002,2.01171 c 0,0.31574 -0.25398,0.52035 -0.54854,0.52035 l -4.41129,0 c -0.29633,0 -0.56972,-0.23724 -0.5706,-0.52652 l -0.003,-1.9879 8.8e-4,0 z"
         inkscape:connector-curvature="0" />
      <path
         style="fill:#ffe805;fill-rule:evenodd;stroke:none"
         id="path5194"
         d="m 196.19366,138.5721 0.27692,6.45319 -4.30282,-0.0159 0.28485,-6.45055 3.74193,0.015"
         inkscape:connector-curvature="0" />
      <path
         style="fill:none;stroke:#000000;stroke-width:0.49897756999999998"
         id="path5196"
         d="m 196.19278,138.57386 0.27691,6.45143 -4.30282,-0.0159 0.28486,-6.45231 3.74105,0.0168"
         inkscape:connector-curvature="0" />
      <use
         y="0"
         xlink:href="#path1535"
         x="0"
         width="600"
         transform="translate(10.60845,0)"
         id="use5198"
         height="400" />
      <use
         y="0"
         xlink:href="#path1541"
         x="0"
         width="600"
         transform="translate(10.60889,0)"
         id="use5200"
         height="400" />
      <use
         y="0"
         xlink:href="#path1537"
         x="0"
         width="600"
         transform="translate(10.60889,-0.010585)"
         id="use5202"
         height="400" />
      <path
         style="fill:#ffde00;fill-rule:evenodd;stroke:none"
         id="path5204"
         d="m 186.3022,139.04482 1.20027,0.002 0,0.87136 0.87662,0 0,-0.89077 1.22938,0.004 0,0.88724 0.87926,0 0,-0.89077 1.23025,0.002 -0.002,2.01171 c 0,0.31398 -0.2487,0.51859 -0.5362,0.51859 l -4.31693,0 c -0.29014,0 -0.55824,-0.23548 -0.55824,-0.52741 l -0.002,-1.98702"
         inkscape:connector-curvature="0" />
      <path
         style="fill:none;stroke:#000000;stroke-width:0.50017255999999999;stroke-opacity:1"
         id="path5206"
         d="m 186.3022,139.04482 1.19939,0.003 0,0.87224 0.8775,0 0,-0.89253 1.22938,0.004 0,0.889 0.87926,0 0,-0.89253 1.23025,0.002 -0.002,2.01171 c 0,0.31398 -0.2487,0.51859 -0.5362,0.51859 l -4.31693,0 c -0.28926,0 -0.55824,-0.23548 -0.55913,-0.52564 l -0.003,-1.98879 8.8e-4,0 z"
         inkscape:connector-curvature="0" />
      <path
         style="fill:#ffde00;fill-rule:evenodd;stroke:none"
         id="path5208"
         d="m 190.93926,141.55925 0.13141,3.47751 -4.12644,0.002 0.11641,-3.47927 3.87862,0"
         inkscape:connector-curvature="0" />
      <path
         style="fill:none;stroke:#000000;stroke-width:0.50127672999999995"
         id="path5210"
         d="m 190.94014,141.55925 0.13141,3.47751 -4.12556,0.002 0.11641,-3.47927 3.87863,0 -8.9e-4,0 z"
         inkscape:connector-curvature="0" />
      <path
         style="fill:#000000;fill-rule:evenodd;stroke:none"
         id="path5212"
         d="m 193.89806,140.61027 c -0.0265,-0.62706 0.87661,-0.63411 0.86603,0 l 0,1.53635 -0.86603,0 0,-1.53635"
         inkscape:connector-curvature="0" />
      <use
         y="0"
         xlink:href="#path1547"
         x="0"
         width="600"
         transform="translate(10.64108,0)"
         id="use5214"
         height="400" />
      <path
         style="fill:#000000;fill-rule:evenodd;stroke:none"
         id="path5216"
         d="m 188.56605,142.84424 c -0.003,-0.6059 0.83693,-0.61824 0.82635,0 l 0,1.1871 -0.82635,0 0,-1.1871"
         inkscape:connector-curvature="0" />
    </g>
    <g
       transform="matrix(0.3016989,0.3016989,-0.3016989,0.3016989,102.58909,42.122)"
       id="use5132">
      <use
         y="0"
         xlink:href="#path1539"
         x="0"
         width="600"
         transform="translate(10.60844,0)"
         id="use5328"
         height="400" />
      <path
         style="fill:#ffe805;fill-rule:evenodd;stroke:none"
         id="path5330"
         d="m 190.19141,154.43388 c 0.13493,-5.52098 4.05235,-6.82802 4.08057,-6.84742 0.0282,-0.0185 4.23139,1.40758 4.21728,6.89857 l -8.29785,-0.0512"
         inkscape:connector-curvature="0" />
      <path
         style="fill:#ffe805;fill-rule:evenodd;stroke:none"
         id="path5332"
         d="m 186.8093,147.68435 -0.68172,6.34648 4.14055,0.009 c 0.0397,-5.24934 3.97475,-6.12246 4.07,-6.10306 0.0891,-0.005 3.98886,1.15888 4.09292,6.10306 l 4.15113,0 -0.7505,-6.39322 -15.0215,0.0379"
         inkscape:connector-curvature="0" />
      <path
         style="fill:none;stroke:#000000;stroke-width:0.49936472999999998"
         id="path5334"
         d="m 186.8093,147.68612 -0.68172,6.34471 4.14055,0.009 c 0.0397,-5.24934 3.97387,-6.12246 4.06912,-6.10306 0.0891,-0.005 3.98886,1.16064 4.09292,6.10306 l 4.15113,0 -0.74962,-6.39322 -15.02238,0.0379 0,0.002 z"
         inkscape:connector-curvature="0" />
      <path
         style="fill:#ffe805;fill-rule:evenodd;stroke:none"
         id="path5336"
         d="m 185.85155,154.05994 16.94582,0 c 0.35629,0 0.6482,0.35277 0.6482,0.78404 0,0.42863 -0.29103,0.78141 -0.6482,0.78141 l -16.94582,0 c -0.35718,0 -0.64909,-0.35102 -0.64909,-0.78141 0,-0.43127 0.29191,-0.78404 0.64909,-0.78404"
         inkscape:connector-curvature="0" />
      <path
         style="fill:none;stroke:#000000;stroke-width:0.49943003000000002"
         id="path5338"
         d="m 185.85066,154.05994 16.94583,0 c 0.35717,0 0.64908,0.35277 0.64908,0.78404 l 0,0 c 0,0.43039 -0.29191,0.78141 -0.64908,0.78141 l -16.94583,0 c -0.35717,0 -0.64908,-0.35102 -0.64908,-0.78141 l 0,0 c 0,-0.43127 0.29191,-0.78404 0.64908,-0.78404 z"
         inkscape:connector-curvature="0" />
      <path
         style="fill:#ffe805;fill-rule:evenodd;stroke:none"
         id="path5340"
         d="m 192.01431,154.02907 c 0.0185,-3.31259 2.26208,-4.2501 2.27355,-4.24833 8.8e-4,0 2.34146,0.96661 2.35998,4.24833 l -4.63353,0"
         inkscape:connector-curvature="0" />
      <path
         style="fill:none;stroke:#000000;stroke-width:0.49703202000000002"
         id="path5342"
         d="m 192.01431,154.02907 c 0.0185,-3.31259 2.26208,-4.2501 2.27355,-4.24833 8.8e-4,0 2.34234,0.96661 2.36086,4.24833 l -4.63441,0"
         inkscape:connector-curvature="0" />
      <path
         style="fill:#ffe805;fill-rule:evenodd;stroke:none"
         id="path5344"
         d="m 186.20784,145.05616 16.2447,0 c 0.34218,0 0.62263,0.31662 0.62263,0.70467 0,0.38541 -0.28045,0.70468 -0.62263,0.70468 l -16.2447,0 c -0.34218,0 -0.62263,-0.3175 -0.62263,-0.70468 0,-0.38805 0.28045,-0.70467 0.62263,-0.70467"
         inkscape:connector-curvature="0" />
      <path
         style="fill:none;stroke:#000000;stroke-width:0.49901107000000000"
         id="path5346"
         d="m 186.20784,145.05439 16.2447,0 c 0.34218,0 0.62263,0.31839 0.62263,0.70468 l 0,0 c 0,0.38717 -0.28045,0.70467 -0.62263,0.70467 l -16.2447,0 c -0.34218,0 -0.62263,-0.31573 -0.62263,-0.70467 l 0,0 c 0,-0.38629 0.28045,-0.70468 0.62263,-0.70468 z"
         inkscape:connector-curvature="0" />
      <path
         style="fill:#ffe805;fill-rule:evenodd;stroke:none"
         id="path5348"
         d="m 186.5509,146.46551 15.53918,0 c 0.32719,0 0.59617,0.31662 0.59617,0.70379 0,0.38805 -0.2681,0.70467 -0.59617,0.70467 l -15.53918,0 c -0.32719,0 -0.59529,-0.31662 -0.59529,-0.70467 0,-0.38717 0.2681,-0.70379 0.59529,-0.70379"
         inkscape:connector-curvature="0" />
      <path
         style="fill:none;stroke:#000000;stroke-width:0.49901107000000000"
         id="path5350"
         d="m 186.5509,146.46551 15.5383,0 c 0.32719,0 0.59529,0.31662 0.59529,0.70379 l 0,0 c 0,0.38805 -0.2681,0.70467 -0.59529,0.70467 l -15.5383,0 c -0.32719,0 -0.59529,-0.31662 -0.59529,-0.70467 l 0,0 c 0,-0.38717 0.2681,-0.70379 0.59529,-0.70379 z"
         inkscape:connector-curvature="0" />
      <use
         y="0"
         xlink:href="#use4656"
         x="0"
         width="600"
         transform="translate(-5.27909,-3.162655)"
         id="use5352"
         height="400" />
      <path
         style="fill:none;stroke:#000000;stroke-width:0.50025284000000003"
         id="path5354"
         d="m 191.57159,135.88217 1.22673,0.002 0,0.87136 0.89513,0 0,-0.89076 1.25672,0.004 0,0.88723 0.89778,0 0,-0.89076 1.2576,0 -0.002,2.01171 c 0,0.31574 -0.25398,0.52035 -0.54854,0.52035 l -4.41129,0 c -0.29633,0 -0.56972,-0.23724 -0.5706,-0.52652 l -0.003,-1.9879 8.8e-4,0 z"
         inkscape:connector-curvature="0" />
      <path
         style="fill:#ffe805;fill-rule:evenodd;stroke:none"
         id="path5356"
         d="m 196.19366,138.5721 0.27692,6.45319 -4.30282,-0.0159 0.28485,-6.45055 3.74193,0.015"
         inkscape:connector-curvature="0" />
      <path
         style="fill:none;stroke:#000000;stroke-width:0.49897756999999998"
         id="path5358"
         d="m 196.19278,138.57386 0.27691,6.45143 -4.30282,-0.0159 0.28486,-6.45231 3.74105,0.0168"
         inkscape:connector-curvature="0" />
      <use
         y="0"
         xlink:href="#path1535"
         x="0"
         width="600"
         transform="translate(10.60845,0)"
         id="use5360"
         height="400" />
      <use
         y="0"
         xlink:href="#path1541"
         x="0"
         width="600"
         transform="translate(10.60889,0)"
         id="use5362"
         height="400" />
      <use
         y="0"
         xlink:href="#path1537"
         x="0"
         width="600"
         transform="translate(10.60889,-0.010585)"
         id="use5364"
         height="400" />
      <path
         style="fill:#ffde00;fill-rule:evenodd;stroke:none"
         id="path5366"
         d="m 186.3022,139.04482 1.20027,0.002 0,0.87136 0.87662,0 0,-0.89077 1.22938,0.004 0,0.88724 0.87926,0 0,-0.89077 1.23025,0.002 -0.002,2.01171 c 0,0.31398 -0.2487,0.51859 -0.5362,0.51859 l -4.31693,0 c -0.29014,0 -0.55824,-0.23548 -0.55824,-0.52741 l -0.002,-1.98702"
         inkscape:connector-curvature="0" />
      <path
         style="fill:none;stroke:#000000;stroke-width:0.50017255999999999;stroke-opacity:1"
         id="path5368"
         d="m 186.3022,139.04482 1.19939,0.003 0,0.87224 0.8775,0 0,-0.89253 1.22938,0.004 0,0.889 0.87926,0 0,-0.89253 1.23025,0.002 -0.002,2.01171 c 0,0.31398 -0.2487,0.51859 -0.5362,0.51859 l -4.31693,0 c -0.28926,0 -0.55824,-0.23548 -0.55913,-0.52564 l -0.003,-1.98879 8.8e-4,0 z"
         inkscape:connector-curvature="0" />
      <path
         style="fill:#ffde00;fill-rule:evenodd;stroke:none"
         id="path5370"
         d="m 190.93926,141.55925 0.13141,3.47751 -4.12644,0.002 0.11641,-3.47927 3.87862,0"
         inkscape:connector-curvature="0" />
      <path
         style="fill:none;stroke:#000000;stroke-width:0.50127672999999995"
         id="path5372"
         d="m 190.94014,141.55925 0.13141,3.47751 -4.12556,0.002 0.11641,-3.47927 3.87863,0 -8.9e-4,0 z"
         inkscape:connector-curvature="0" />
      <path
         style="fill:#000000;fill-rule:evenodd;stroke:none"
         id="path5374"
         d="m 193.89806,140.61027 c -0.0265,-0.62706 0.87661,-0.63411 0.86603,0 l 0,1.53635 -0.86603,0 0,-1.53635"
         inkscape:connector-curvature="0" />
      <use
         y="0"
         xlink:href="#path1547"
         x="0"
         width="600"
         transform="translate(10.64108,0)"
         id="use5376"
         height="400" />
      <path
         style="fill:#000000;fill-rule:evenodd;stroke:none"
         id="path5378"
         d="m 188.56605,142.84424 c -0.003,-0.6059 0.83693,-0.61824 0.82635,0 l 0,1.1871 -0.82635,0 0,-1.1871"
         inkscape:connector-curvature="0" />
    </g>
    <g
       transform="matrix(0.4266667,0,0,0.4266667,38.762662,62.0968)"
       id="use5100">
      <use
         y="0"
         xlink:href="#path1539"
         x="0"
         width="600"
         transform="translate(10.60844,0)"
         id="use5220"
         height="400" />
      <path
         style="fill:#ffe805;fill-rule:evenodd;stroke:none"
         id="path5222"
         d="m 190.19141,154.43388 c 0.13493,-5.52098 4.05235,-6.82802 4.08057,-6.84742 0.0282,-0.0185 4.23139,1.40758 4.21728,6.89857 l -8.29785,-0.0512"
         inkscape:connector-curvature="0" />
      <path
         style="fill:#ffe805;fill-rule:evenodd;stroke:none"
         id="path5224"
         d="m 186.8093,147.68435 -0.68172,6.34648 4.14055,0.009 c 0.0397,-5.24934 3.97475,-6.12246 4.07,-6.10306 0.0891,-0.005 3.98886,1.15888 4.09292,6.10306 l 4.15113,0 -0.7505,-6.39322 -15.0215,0.0379"
         inkscape:connector-curvature="0" />
      <path
         style="fill:none;stroke:#000000;stroke-width:0.49936472999999998"
         id="path5226"
         d="m 186.8093,147.68612 -0.68172,6.34471 4.14055,0.009 c 0.0397,-5.24934 3.97387,-6.12246 4.06912,-6.10306 0.0891,-0.005 3.98886,1.16064 4.09292,6.10306 l 4.15113,0 -0.74962,-6.39322 -15.02238,0.0379 0,0.002 z"
         inkscape:connector-curvature="0" />
      <path
         style="fill:#ffe805;fill-rule:evenodd;stroke:none"
         id="path5228"
         d="m 185.85155,154.05994 16.94582,0 c 0.35629,0 0.6482,0.35277 0.6482,0.78404 0,0.42863 -0.29103,0.78141 -0.6482,0.78141 l -16.94582,0 c -0.35718,0 -0.64909,-0.35102 -0.64909,-0.78141 0,-0.43127 0.29191,-0.78404 0.64909,-0.78404"
         inkscape:connector-curvature="0" />
      <path
         style="fill:none;stroke:#000000;stroke-width:0.49943003000000002"
         id="path5230"
         d="m 185.85066,154.05994 16.94583,0 c 0.35717,0 0.64908,0.35277 0.64908,0.78404 l 0,0 c 0,0.43039 -0.29191,0.78141 -0.64908,0.78141 l -16.94583,0 c -0.35717,0 -0.64908,-0.35102 -0.64908,-0.78141 l 0,0 c 0,-0.43127 0.29191,-0.78404 0.64908,-0.78404 z"
         inkscape:connector-curvature="0" />
      <path
         style="fill:#ffe805;fill-rule:evenodd;stroke:none"
         id="path5232"
         d="m 192.01431,154.02907 c 0.0185,-3.31259 2.26208,-4.2501 2.27355,-4.24833 8.8e-4,0 2.34146,0.96661 2.35998,4.24833 l -4.63353,0"
         inkscape:connector-curvature="0" />
      <path
         style="fill:none;stroke:#000000;stroke-width:0.49703202000000002"
         id="path5234"
         d="m 192.01431,154.02907 c 0.0185,-3.31259 2.26208,-4.2501 2.27355,-4.24833 8.8e-4,0 2.34234,0.96661 2.36086,4.24833 l -4.63441,0"
         inkscape:connector-curvature="0" />
      <path
         style="fill:#ffe805;fill-rule:evenodd;stroke:none"
         id="path5236"
         d="m 186.20784,145.05616 16.2447,0 c 0.34218,0 0.62263,0.31662 0.62263,0.70467 0,0.38541 -0.28045,0.70468 -0.62263,0.70468 l -16.2447,0 c -0.34218,0 -0.62263,-0.3175 -0.62263,-0.70468 0,-0.38805 0.28045,-0.70467 0.62263,-0.70467"
         inkscape:connector-curvature="0" />
      <path
         style="fill:none;stroke:#000000;stroke-width:0.49901107000000000"
         id="path5238"
         d="m 186.20784,145.05439 16.2447,0 c 0.34218,0 0.62263,0.31839 0.62263,0.70468 l 0,0 c 0,0.38717 -0.28045,0.70467 -0.62263,0.70467 l -16.2447,0 c -0.34218,0 -0.62263,-0.31573 -0.62263,-0.70467 l 0,0 c 0,-0.38629 0.28045,-0.70468 0.62263,-0.70468 z"
         inkscape:connector-curvature="0" />
      <path
         style="fill:#ffe805;fill-rule:evenodd;stroke:none"
         id="path5240"
         d="m 186.5509,146.46551 15.53918,0 c 0.32719,0 0.59617,0.31662 0.59617,0.70379 0,0.38805 -0.2681,0.70467 -0.59617,0.70467 l -15.53918,0 c -0.32719,0 -0.59529,-0.31662 -0.59529,-0.70467 0,-0.38717 0.2681,-0.70379 0.59529,-0.70379"
         inkscape:connector-curvature="0" />
      <path
         style="fill:none;stroke:#000000;stroke-width:0.49901107000000000"
         id="path5242"
         d="m 186.5509,146.46551 15.5383,0 c 0.32719,0 0.59529,0.31662 0.59529,0.70379 l 0,0 c 0,0.38805 -0.2681,0.70467 -0.59529,0.70467 l -15.5383,0 c -0.32719,0 -0.59529,-0.31662 -0.59529,-0.70467 l 0,0 c 0,-0.38717 0.2681,-0.70379 0.59529,-0.70379 z"
         inkscape:connector-curvature="0" />
      <use
         y="0"
         xlink:href="#use4656"
         x="0"
         width="600"
         transform="translate(-5.27909,-3.162655)"
         id="use5244"
         height="400" />
      <path
         style="fill:none;stroke:#000000;stroke-width:0.50025284000000003"
         id="path5246"
         d="m 191.57159,135.88217 1.22673,0.002 0,0.87136 0.89513,0 0,-0.89076 1.25672,0.004 0,0.88723 0.89778,0 0,-0.89076 1.2576,0 -0.002,2.01171 c 0,0.31574 -0.25398,0.52035 -0.54854,0.52035 l -4.41129,0 c -0.29633,0 -0.56972,-0.23724 -0.5706,-0.52652 l -0.003,-1.9879 8.8e-4,0 z"
         inkscape:connector-curvature="0" />
      <path
         style="fill:#ffe805;fill-rule:evenodd;stroke:none"
         id="path5248"
         d="m 196.19366,138.5721 0.27692,6.45319 -4.30282,-0.0159 0.28485,-6.45055 3.74193,0.015"
         inkscape:connector-curvature="0" />
      <path
         style="fill:none;stroke:#000000;stroke-width:0.49897756999999998"
         id="path5250"
         d="m 196.19278,138.57386 0.27691,6.45143 -4.30282,-0.0159 0.28486,-6.45231 3.74105,0.0168"
         inkscape:connector-curvature="0" />
      <use
         y="0"
         xlink:href="#path1535"
         x="0"
         width="600"
         transform="translate(10.60845,0)"
         id="use5252"
         height="400" />
      <use
         y="0"
         xlink:href="#path1541"
         x="0"
         width="600"
         transform="translate(10.60889,0)"
         id="use5254"
         height="400" />
      <use
         y="0"
         xlink:href="#path1537"
         x="0"
         width="600"
         transform="translate(10.60889,-0.010585)"
         id="use5256"
         height="400" />
      <path
         style="fill:#ffde00;fill-rule:evenodd;stroke:none"
         id="path5258"
         d="m 186.3022,139.04482 1.20027,0.002 0,0.87136 0.87662,0 0,-0.89077 1.22938,0.004 0,0.88724 0.87926,0 0,-0.89077 1.23025,0.002 -0.002,2.01171 c 0,0.31398 -0.2487,0.51859 -0.5362,0.51859 l -4.31693,0 c -0.29014,0 -0.55824,-0.23548 -0.55824,-0.52741 l -0.002,-1.98702"
         inkscape:connector-curvature="0" />
      <path
         style="fill:none;stroke:#000000;stroke-width:0.50017255999999999;stroke-opacity:1"
         id="path5260"
         d="m 186.3022,139.04482 1.19939,0.003 0,0.87224 0.8775,0 0,-0.89253 1.22938,0.004 0,0.889 0.87926,0 0,-0.89253 1.23025,0.002 -0.002,2.01171 c 0,0.31398 -0.2487,0.51859 -0.5362,0.51859 l -4.31693,0 c -0.28926,0 -0.55824,-0.23548 -0.55913,-0.52564 l -0.003,-1.98879 8.8e-4,0 z"
         inkscape:connector-curvature="0" />
      <path
         style="fill:#ffde00;fill-rule:evenodd;stroke:none"
         id="path5262"
         d="m 190.93926,141.55925 0.13141,3.47751 -4.12644,0.002 0.11641,-3.47927 3.87862,0"
         inkscape:connector-curvature="0" />
      <path
         style="fill:none;stroke:#000000;stroke-width:0.50127672999999995"
         id="path5264"
         d="m 190.94014,141.55925 0.13141,3.47751 -4.12556,0.002 0.11641,-3.47927 3.87863,0 -8.9e-4,0 z"
         inkscape:connector-curvature="0" />
      <path
         style="fill:#000000;fill-rule:evenodd;stroke:none"
         id="path5266"
         d="m 193.89806,140.61027 c -0.0265,-0.62706 0.87661,-0.63411 0.86603,0 l 0,1.53635 -0.86603,0 0,-1.53635"
         inkscape:connector-curvature="0" />
      <use
         y="0"
         xlink:href="#path1547"
         x="0"
         width="600"
         transform="translate(10.64108,0)"
         id="use5268"
         height="400" />
      <path
         style="fill:#000000;fill-rule:evenodd;stroke:none"
         id="path5270"
         d="m 188.56605,142.84424 c -0.003,-0.6059 0.83693,-0.61824 0.82635,0 l 0,1.1871 -0.82635,0 0,-1.1871"
         inkscape:connector-curvature="0" />
    </g>
    <use
       y="0"
       xlink:href="#path1539"
       x="0"
       width="600"
       transform="matrix(0.3016989,-0.3016989,0.3016989,0.3016989,-11.931716,156.15018)"
       id="use5274"
       height="400" />
    <path
       style="fill:#ffe805;fill-rule:evenodd;stroke:none"
       id="path5276"
       d="m 88.840802,148.56273 c -1.624968,-1.70638 -0.837419,-3.2826 -0.834756,-3.29696 0.0029,-0.0141 1.701269,-0.85194 3.353638,0.80894 l -2.518882,2.48802"
       inkscape:connector-curvature="0" />
    <path
       style="fill:#ffe805;fill-rule:evenodd;stroke:none"
       id="path5278"
       d="m 85.784098,147.54678 1.709052,2.1204 1.251857,-1.24653 c -1.571746,-1.5957 -0.647962,-3.04632 -0.613372,-3.0692 0.02528,-0.0285 1.553067,-0.85381 3.076118,0.60645 l 1.25239,-1.25239 -2.155251,-1.7024 -4.520529,4.54341"
       inkscape:connector-curvature="0" />
    <path
       style="fill:none;stroke:#000000;stroke-width:0.21306228999999999"
       id="path5280"
       d="m 85.784631,147.54732 1.708519,2.11986 1.251857,-1.24653 c -1.571746,-1.5957 -0.648226,-3.04606 -0.613636,-3.06894 0.02527,-0.0285 1.5536,-0.85327 3.076117,0.60646 l 1.25239,-1.2524 -2.154986,-1.70266 -4.520794,4.54367 5.33e-4,5.4e-4 z"
       inkscape:connector-curvature="0" />
    <path
       style="fill:#ffe805;fill-rule:evenodd;stroke:none"
       id="path5282"
       d="m 87.418654,149.75924 5.112533,-5.11253 c 0.107495,-0.10749 0.301991,-0.0891 0.432107,0.041 0.129318,0.12932 0.147947,0.32355 0.04019,0.43131 l -5.112534,5.11254 c -0.107763,0.10776 -0.301734,0.0899 -0.431582,-0.0399 -0.130112,-0.13012 -0.148475,-0.32462 -0.04071,-0.43238"
       inkscape:connector-curvature="0" />
    <path
       style="fill:none;stroke:#000000;stroke-width:0.21309015000000001"
       id="path5284"
       d="m 87.418385,149.75951 5.112538,-5.11254 c 0.107759,-0.10775 0.302255,-0.0894 0.432371,0.0407 l 0,0 c 0.129847,0.12985 0.147682,0.32382 0.03992,0.43158 l -5.112538,5.11254 c -0.107758,0.10775 -0.30173,0.0899 -0.431577,-0.0399 l 0,0 c -0.130116,-0.13011 -0.148476,-0.32461 -0.04072,-0.43237 z"
       inkscape:connector-curvature="0" />
    <path
       style="fill:#ffe805;fill-rule:evenodd;stroke:none"
       id="path5286"
       d="m 89.268638,147.89063 c -0.993818,-1.00499 -0.599783,-1.96472 -0.595789,-1.96764 2.65e-4,-2.7e-4 0.998042,-0.41479 1.99372,0.56971 l -1.397931,1.39793"
       inkscape:connector-curvature="0" />
    <path
       style="fill:none;stroke:#000000;stroke-width:0.21206699000000001"
       id="path5288"
       d="m 89.268638,147.89063 c -0.993818,-1.00499 -0.599783,-1.96472 -0.595789,-1.96764 2.65e-4,-2.7e-4 0.998306,-0.41506 1.993984,0.56945 l -1.398195,1.39819"
       inkscape:connector-curvature="0" />
    <path
       style="fill:#ffe805;fill-rule:evenodd;stroke:none"
       id="path5290"
       d="m 84.809715,146.93532 4.901009,-4.90101 c 0.103232,-0.10323 0.283371,-0.0923 0.400444,0.0247 0.116275,0.11628 0.127987,0.29722 0.02475,0.40045 l -4.901009,4.90101 c -0.103236,0.10324 -0.283635,0.0921 -0.400448,-0.0248 -0.117073,-0.11708 -0.127987,-0.29721 -0.02475,-0.40045"
       inkscape:connector-curvature="0" />
    <path
       style="fill:none;stroke:#000000;stroke-width:0.21291138000000001"
       id="path5292"
       d="m 84.809182,146.93479 4.901005,-4.90101 c 0.103236,-0.10324 0.283908,-0.0918 0.400448,0.0247 l 0,0 c 0.116808,0.11681 0.127987,0.29721 0.02475,0.40045 l -4.901009,4.90101 c -0.103236,0.10323 -0.283102,0.0926 -0.400448,-0.0248 l 0,0 c -0.11654,-0.11655 -0.127987,-0.29722 -0.02475,-0.40045 z"
       inkscape:connector-curvature="0" />
    <path
       style="fill:#ffe805;fill-rule:evenodd;stroke:none"
       id="path5294"
       d="m 85.338415,147.25702 4.688154,-4.68815 c 0.09871,-0.0987 0.275387,-0.0843 0.392196,0.0325 0.117073,0.11707 0.131712,0.29348 0.03273,0.39246 l -4.688154,4.68815 c -0.09871,0.0987 -0.275123,0.0841 -0.392196,-0.033 -0.116809,-0.11681 -0.131448,-0.29322 -0.03273,-0.39193"
       inkscape:connector-curvature="0" />
    <path
       style="fill:none;stroke:#000000;stroke-width:0.21291138000000001"
       id="path5296"
       d="m 85.338415,147.25702 4.687889,-4.68789 c 0.09871,-0.0987 0.275119,-0.0841 0.391927,0.0327 l 0,0 c 0.117078,0.11708 0.131717,0.29349 0.033,0.3922 l -4.687889,4.68789 c -0.09871,0.0987 -0.275123,0.0841 -0.392196,-0.033 l 0,0 c -0.116809,-0.11681 -0.131448,-0.29322 -0.03273,-0.39193 z"
       inkscape:connector-curvature="0" />
    <use
       y="0"
       xlink:href="#use4656"
       x="0"
       width="600"
       transform="matrix(0.3016989,-0.3016989,0.3016989,0.3016989,-17.679136,159.98927)"
       id="use5298"
       height="400" />
    <path
       style="fill:none;stroke:#000000;stroke-width:0.21344120999999999"
       id="path5300"
       d="m 83.660169,142.5493 0.370636,-0.36957 0.262887,0.26289 0.270058,-0.27006 -0.26874,-0.26874 0.380216,-0.37809 0.267677,0.26767 0.270857,-0.27085 -0.26874,-0.26874 0.379417,-0.37942 0.606396,0.60746 c 0.09526,0.0953 0.08036,0.23362 -0.0085,0.32248 l -1.330885,1.33089 c -0.0894,0.0894 -0.243456,0.10031 -0.330999,0.0133 l -0.600542,-0.59896 2.65e-4,-2.6e-4 z"
       inkscape:connector-curvature="0" />
    <path
       style="fill:#ffe805;fill-rule:evenodd;stroke:none"
       id="path5302"
       d="m 85.866193,141.96637 2.030464,1.86338 -1.302942,1.29337 -1.860185,-2.03207 1.133457,-1.12441"
       inkscape:connector-curvature="0" />
    <path
       style="fill:none;stroke:#000000;stroke-width:0.21289709000000001"
       id="path5304"
       d="m 85.866458,141.96717 2.02993,1.86285 -1.302942,1.29337 -1.860714,-2.0326 1.133726,-1.12362"
       inkscape:connector-curvature="0" />
    <use
       y="0"
       xlink:href="#path1535"
       x="0"
       width="600"
       transform="matrix(0.3016989,-0.3016989,0.3016989,0.3016989,-11.931713,156.15018)"
       id="use5306"
       height="400" />
    <use
       y="0"
       xlink:href="#path1541"
       x="0"
       width="600"
       transform="matrix(0.3016989,-0.3016989,0.3016989,0.3016989,-11.93158,156.15005)"
       id="use5308"
       height="400" />
    <use
       y="0"
       xlink:href="#path1537"
       x="0"
       width="600"
       transform="matrix(0.3016989,-0.3016989,0.3016989,0.3016989,-11.934773,156.14685)"
       id="use5310"
       height="400" />
    <path
       style="fill:#ffde00;fill-rule:evenodd;stroke:none"
       id="path5312"
       d="m 83.024567,145.09324 0.362654,-0.36159 0.262891,0.26289 0.264474,-0.26447 -0.268745,-0.26875 0.371968,-0.36984 0.267678,0.26768 0.265271,-0.26527 -0.268744,-0.26874 0.371699,-0.37063 0.6064,0.60746 c 0.09473,0.0947 0.08142,0.23149 -0.0053,0.31823 l -1.302413,1.30241 c -0.08754,0.0875 -0.239462,0.0974 -0.327539,0.009 l -0.600017,-0.59895"
       inkscape:connector-curvature="0" />
    <path
       style="fill:none;stroke:#000000;stroke-width:0.21340695000000001;stroke-opacity:1"
       id="path5314"
       d="m 83.024567,145.09324 0.362654,-0.36106 0.263156,0.26316 0.264738,-0.26475 -0.269274,-0.26927 0.371968,-0.36984 0.268211,0.26821 0.265272,-0.26527 -0.269278,-0.26927 0.371699,-0.37063 0.6064,0.60746 c 0.09473,0.0947 0.08142,0.23149 -0.0053,0.31823 l -1.302413,1.30241 c -0.08727,0.0873 -0.239462,0.0974 -0.327274,0.0101 l -0.600811,-0.59922 2.64e-4,-2.6e-4 z"
       inkscape:connector-curvature="0" />
    <path
       style="fill:#ffde00;fill-rule:evenodd;stroke:none"
       id="path5316"
       d="m 85.182165,144.45284 1.088807,1.00952 -1.244412,1.24547 -1.014571,-1.08481 1.170176,-1.17018"
       inkscape:connector-curvature="0" />
    <path
       style="fill:none;stroke:#000000;stroke-width:0.21387807000000000"
       id="path5318"
       d="m 85.18243,144.45258 1.088806,1.00951 -1.244143,1.24521 -1.014575,-1.08481 1.170181,-1.17018 -2.69e-4,2.7e-4 z"
       inkscape:connector-curvature="0" />
    <path
       style="fill:#000000;fill-rule:evenodd;stroke:none"
       id="path5320"
       d="m 85.788527,143.27387 c -0.197167,-0.1812 0.07316,-0.45578 0.261278,-0.26128 l 0.463518,0.46351 -0.261282,0.26128 -0.463514,-0.46351"
       inkscape:connector-curvature="0" />
    <use
       y="0"
       xlink:href="#path1547"
       x="0"
       width="600"
       transform="matrix(0.3016989,-0.3016989,0.3016989,0.3016989,-11.921868,156.14033)"
       id="use5322"
       height="400" />
    <path
       style="fill:#000000;fill-rule:evenodd;stroke:none"
       id="path5324"
       d="m 84.85385,145.55652 c -0.183595,-0.182 0.06598,-0.43902 0.249309,-0.24931 l 0.358144,0.35815 -0.249305,0.2493 -0.358148,-0.35814"
       inkscape:connector-curvature="0" />
    <use
       y="0"
       xlink:href="#use5944"
       x="0"
       width="600"
       transform="translate(-8.8828395,10.98391)"
       id="use6358"
       height="400" />
    <use
       y="0"
       xlink:href="#use5944"
       x="0"
       width="600"
       transform="translate(-12.344237,10.98824)"
       id="use6360"
       height="400" />
    <use
       y="0"
       xlink:href="#use5944"
       x="0"
       width="600"
       transform="translate(-10.656623,9.20534)"
       id="use6356"
       height="400" />
    <use
       y="0"
       xlink:href="#use5944"
       x="0"
       width="600"
       transform="translate(-8.8790763,7.5011)"
       id="use6352"
       height="400" />
    <path
       style="fill:#ffffff"
       id="use5944"
       d="m 113.12046,128.71428 c -0.34919,0 -0.63403,0.28448 -0.63403,0.63368 0,0.34846 0.28484,0.63368 0.63403,0.63368 0.34918,0 0.63403,-0.28448 0.63403,-0.63368 0,-0.3492 -0.28485,-0.63368 -0.63403,-0.63368"
       inkscape:connector-curvature="0" />
    <use
       y="0"
       xlink:href="#use5944"
       x="0"
       width="600"
       transform="translate(-3.4613995,0.00527)"
       id="use5946"
       height="400" />
    <use
       y="0"
       xlink:href="#use5946"
       x="0"
       width="600"
       transform="translate(1.687616,-1.78346)"
       id="use5948"
       height="400" />
    <use
       y="0"
       xlink:href="#use5948"
       x="0"
       width="600"
       transform="translate(1.7775467,-1.70444)"
       id="use5950"
       height="400" />
    <use
       y="0"
       xlink:href="#use5950"
       x="0"
       width="600"
       transform="translate(-3.4726869,-0.00301)"
       id="use5952"
       height="400" />
    <use
       y="0"
       xlink:href="#use5952"
       x="0"
       width="600"
       transform="translate(-5.3830592,3.4687)"
       id="use5954"
       height="400" />
    <use
       y="0"
       xlink:href="#use5954"
       x="0"
       width="600"
       transform="translate(-3.4613995,0.00452)"
       id="use5956"
       height="400" />
    <use
       y="0"
       xlink:href="#use5956"
       x="0"
       width="600"
       transform="translate(1.6876139,-1.78383)"
       id="use5958"
       height="400" />
    <use
       y="0"
       xlink:href="#use5958"
       x="0"
       width="600"
       transform="translate(1.7779243,-1.70368)"
       id="use5960"
       height="400" />
    <use
       y="0"
       xlink:href="#use5960"
       x="0"
       width="600"
       transform="translate(-3.4726869,-0.0032)"
       id="use5962"
       height="400" />
    <use
       y="0"
       xlink:href="#use5962"
       x="0"
       width="600"
       transform="translate(-5.4052608,3.5084)"
       id="use5964"
       height="400" />
    <use
       y="0"
       xlink:href="#use5964"
       x="0"
       width="600"
       transform="translate(-3.4613995,0.00433)"
       id="use5966"
       height="400" />
    <use
       y="0"
       xlink:href="#use5966"
       x="0"
       width="600"
       transform="translate(1.687616,-1.78346)"
       id="use5968"
       height="400" />
    <use
       y="0"
       xlink:href="#use5968"
       x="0"
       width="600"
       transform="translate(1.7779221,-1.70387)"
       id="use5970"
       height="400" />
    <use
       y="0"
       xlink:href="#use5944"
       x="0"
       width="600"
       transform="translate(-12.351763,7.49809)"
       id="use6354"
       height="400" />
    <path
       style="fill:#ffde00"
       id="use6320"
       d="m 91.926114,125.23354 c -0.34918,0 -0.634031,0.28448 -0.634031,0.63368 0,0.34845 0.284851,0.63368 0.634031,0.63368 0.349188,0 0.634035,-0.28448 0.634035,-0.63368 0,-0.3492 -0.284847,-0.63368 -0.634035,-0.63368"
       inkscape:connector-curvature="0" />
    <use
       y="0"
       xlink:href="#use5944"
       x="0"
       width="600"
       transform="translate(-8.8504811,-14.60313)"
       id="use6332"
       height="400" />
    <use
       y="0"
       xlink:href="#use5944"
       x="0"
       width="600"
       transform="translate(-10.628403,-12.89587)"
       id="use6334"
       height="400" />
    <use
       y="0"
       xlink:href="#use5944"
       x="0"
       width="600"
       transform="translate(-8.8542443,-11.11731)"
       id="use6336"
       height="400" />
    <use
       y="0"
       xlink:href="#use5944"
       x="0"
       width="600"
       transform="translate(-12.316019,-11.11241)"
       id="use6338"
       height="400" />
    <use
       y="0"
       xlink:href="#use5944"
       x="0"
       width="600"
       transform="translate(-21.194342,-3.48074)"
       id="use6340"
       height="400" />
  </g>
</svg>
