<?xml version="1.0" encoding="UTF-8"?>
<!-- Created with Inkscape (http://www.inkscape.org/) -->
<svg id="svg5078" width="32px" height="32px" version="1.1" xmlns="http://www.w3.org/2000/svg" xmlns:cc="http://creativecommons.org/ns#" xmlns:dc="http://purl.org/dc/elements/1.1/" xmlns:rdf="http://www.w3.org/1999/02/22-rdf-syntax-ns#">
 <metadata id="metadata5083">
  <rdf:RDF>
   <cc:Work rdf:about="">
    <dc:format>image/svg+xml</dc:format>
    <dc:type rdf:resource="http://purl.org/dc/dcmitype/StillImage"/>
    <dc:title/>
   </cc:Work>
  </rdf:RDF>
 </metadata>
 <g id="layer1">
  <path id="path6425" d="m1.5 0.5v23h17v-23z" fill="#0a0a0a" stroke="#bababa" stroke-width="1px"/>
  <path id="path6935" d="m13.5 8.5v23h17v-23z" fill="#0a0a0a" stroke="#bababa" stroke-width="1px"/>
  <path id="path6937" d="m10 6s4.0775-0.55136 6 0c1.5114 0.43346 2.7378 1.1248 3.5 2.5 0.56556 1.0204 0.5 3.5 0.5 3.5h2l-3 4-3-4h2s-0.12732-1.7546-0.5-2.5-0.70943-1.2365-1.5-1.5c-1.8974-0.63246-6 0-6 0z" fill="#c1c197" stroke="#c1c197" stroke-linejoin="round" stroke-width=".5"/>
  <path id="path6939" d="m17 26s-4.0775 0.55136-6 0c-1.5114-0.43346-2.7378-1.1248-3.5-2.5-0.56556-1.0204-0.5-3.5-0.5-3.5h-2l3-4 3 4h-2s0.12732 1.7546 0.5 2.5 0.70943 1.2365 1.5 1.5c1.8974 0.63246 6 0 6 0z" fill="#c1c197" stroke="#c1c197" stroke-linejoin="round" stroke-width=".5"/>
 </g>
</svg>
