<?xml version="1.0" encoding="UTF-8"?>
<!-- Created with Inkscape (http://www.inkscape.org/) -->
<svg id="svg5375" width="24" height="24" version="1.1" xmlns="http://www.w3.org/2000/svg" xmlns:cc="http://creativecommons.org/ns#" xmlns:dc="http://purl.org/dc/elements/1.1/" xmlns:rdf="http://www.w3.org/1999/02/22-rdf-syntax-ns#">
 <metadata id="metadata5380">
  <rdf:RDF>
   <cc:Work rdf:about="">
    <dc:format>image/svg+xml</dc:format>
    <dc:type rdf:resource="http://purl.org/dc/dcmitype/StillImage"/>
    <dc:title/>
   </cc:Work>
  </rdf:RDF>
 </metadata>
 <g id="layer1">
  <path id="path8432" d="m1.5 9.5 5.5 7.5 5.5-7.5-3 1v-2c0-2 1-3.5 2.5-4s2.9079-0.15764 4.5 0 5.5 1 5.5 1-3.7785-1.8847-6-2.5-5.5-1.5-8-0.5-3.5 3-3.5 5v3z" fill="#c0ffc0" stroke="#cfffcf"/>
  <path id="path8478" d="m22.5 14.5-5.5-7.5-5.5 7.5 3-1v2c0 2-1 3.5-2.5 4s-2.9079 0.15764-4.5 0-5.5-1-5.5-1 3.7785 1.8847 6 2.5 5.5 1.5 8 0.5 3.5-3 3.5-5v-3z" fill="#7f7f7f" stroke="#9f9f9f"/>
 </g>
</svg>
