/* XPM */
static char *tm_root[] = {
/* columns rows colors chars-per-pixel */
"20 20 54 1 ",
"  c gray4",
". c #f4f4f4",
"X c #f3f3f3",
"o c gray5",
"O c #f1f1f1",
"+ c gray6",
"@ c #ececec",
"# c gray8",
"$ c #d2d2d2",
"% c gray18",
"& c #cbcbcb",
"* c gray24",
"= c #bebebe",
"- c #bcbcbc",
"; c #b9b9b9",
": c #b6b6b6",
"> c gray29",
", c #aeaeae",
"< c #aaaaaa",
"1 c #9f9f9f",
"2 c #9d9d9d",
"3 c #9b9b9b",
"4 c gray43",
"5 c #8e8e8e",
"6 c #8d8d8d",
"7 c gray46",
"8 c #898989",
"9 c #4040c4",
"0 c #797979",
"q c gray58",
"w c #6a6a6a",
"e c gray62",
"r c gray63",
"t c #5d5d5d",
"y c #5b5b5b",
"u c gray65",
"i c gray66",
"p c gray67",
"a c #515151",
"s c #505050",
"d c #4e4e4e",
"f c gray70",
"g c #4b4b4b",
"h c gray71",
"j c #3f3fb4",
"k c #0101ff",
"l c #393939",
"z c gray79",
"x c #353535",
"c c gray80",
"v c #323232",
"b c #313131",
"n c gray81",
"m c None",
/* pixels */
"mmmmmmmmmmmmmmmmmmmm",
"mmmmmmmmmmbbbbbbbbbb",
"mj99jmmmmb$       #;",
"m9kk9mmmnu4bbbbbzbbb",
"m9kk9mmmb2dnmmmmmmmm",
"m9kk9mmmb:bmmmmmmmmm",
"m9kk9mmbu4bmmmmmmmmm",
"mj99jmmb2dbmj9999jmm",
"mmmmmmmb:bmm9kkkk9mm",
"mbbmmmbu6bmm9kkkk9mm",
"b6%bmmn2dnmm9kkkk9mm",
"aa wbmb:bmmm9kkkk9mm",
"bb,*bbr6bmmm9kkkk9mm",
"mba ub1dnmmm9kkkk9mm",
"mmb;,b:bmmmm9kkkk9mm",
"mmne+06bmmmmj9999jmm",
"mmmb%#dnmmmmmmmmmmmm",
"mmmnw;nmmmmmmmmmmmmm",
"mmmmnnmmmmmmmmmmmmmm",
"mmmmmmmmmmmmmmmmmmmm"
};
