/* XPM */
static char *tm_rarrow_bar[] = {
/* columns rows colors chars-per-pixel */
"24 24 25 1 ",
"  c #e0e0e0",
". c #dedede",
"X c gray51",
"o c gray52",
"O c #c4c4c4",
"+ c gray58",
"@ c gray61",
"# c #adadad",
"$ c #a4a4a4",
"% c #929292",
"& c #8f8f8f",
"* c #888888",
"= c #6a6a6a",
"- c gray77",
"; c #666666",
": c gray79",
"> c gray80",
", c #585858",
"< c #565656",
"1 c #515a5a",
"2 c #474f4f",
"3 c #454545",
"4 c #3c3c3c",
"5 c gray88",
"6 c None",
/* pixels */
"666666666666666666666666",
"666666666666666666666666",
"6666,,,,,,,,,,,,,,,,6666",
"66-&@OO+OOOOOOOOOOO@*,66",
"6-+                  $,6",
"6&                    &6",
",@               O+   @,",
",O  +-&         O2<O  O,",
",O  O34-&       O22O  O,",
",O  O3554-&     O22O  O,",
",O  O355554-&O  O22O  O,",
",O  O35555554-& O22O  O,",
",O  O25555554-& O22O  O,",
",O  O255554-&   O22O  O,",
",O  O2554-&     O22O  O,",
":O  O45-&       O22O  O,",
",O  O-&         O<2O  O,",
",@               O+   @,",
"6&                    &6",
"6,$                  +-6",
"66,*$+OOOOOOOOOOOO+@&-66",
"6666,,,,,,,,,,,,,,,,6666",
"666666666666666666666666",
"666666666666666666666666"
};
