/* XPM */
static char *tm_right_down[] = {
/* columns rows colors chars-per-pixel */
"16 16 49 1 ",
"  c #e0e0e0",
". c gray52",
"X c #d5d5d5",
"o c #d2d2d2",
"O c #d0d0d0",
"+ c gray54",
"@ c #cdcdcd",
"# c #c7c7c7",
"$ c gray56",
"% c #c4c4c4",
"& c gray57",
"* c #bebebe",
"= c gray59",
"- c #b7b7b7",
"; c gray60",
": c #b0b0b0",
"> c gray61",
", c #adadad",
"< c #a4a4a4",
"1 c gray64",
"2 c #989898",
"3 c #969696",
"4 c gray67",
"5 c gray68",
"6 c #8f8f8f",
"7 c #8d8d8d",
"8 c #8a8a8a",
"9 c gray70",
"0 c #848484",
"q c #7f7f7f",
"w c gray72",
"e c #7b7b7b",
"r c gray73",
"t c #767676",
"y c gray74",
"u c gray",
"i c #6d6d6d",
"p c gray76",
"a c #6a6a6a",
"s c gray77",
"d c #616161",
"f c gray79",
"g c #5d5d5d",
"h c #5c5c5c",
"j c gray80",
"k c #585858",
"l c #565656",
"z c gray81",
"x c None",
/* pixels */
"xxxxxxxxxxxxxxxx",
"xxkdkzxxxxxxxxxx",
"xje2yhxxxxxxxxxx",
"xd1#>ejxxxxxxxxx",
"xky;o;ehzxxxxxxx",
"xxlr$o>tjxxxxxxx",
"xxxhe;+:qjzzjkxx",
"xxxxlr*o>yhs0pkx",
"xxxxxjq=+,0w>6hx",
"xxxxxxkr=o-<&3gx",
"xxxxxxxk9%X@o4fx",
"xxxxxxzi0,O O3gx",
"xxxxxxg8%*o.%7jx",
"xxxxxxzu73335akx",
"xxxxxxzldggdjkxx",
"xxxxxxxxxxxxxxxx"
};
