/* XPM */
static char *tm_remove[] = {
/* columns rows colors chars-per-pixel */
"16 16 5 1 ",
"  c #e0e0e0",
". c gray62",
"X c #767676",
"o c #585858",
"O c None",
/* pixels */
"OOOOOOOOOOOOOOOO",
"OOOOOOOOOOOOOOOO",
"OOOOOOOOOOOOOOOO",
"OOOOOOOOOOOOOOOO",
"OOOOOOOOOOOOOOOO",
"OOOOOOOOOOOOOOOO",
"OOoXXXXXXXXXXoOO",
"OO.          .OO",
"OO.          .OO",
"OOoXXXXXXXXXXoOO",
"OOOOOOOOOOOOOOOO",
"OOOOOOOOOOOOOOOO",
"OOOOOOOOOOOOOOOO",
"OOOOOOOOOOOOOOOO",
"OOOOOOOOOOOOOOOO",
"OOOOOOOOOOOOOOOO"
};
