/* XPM */
static char *tm_save[] = {
/* columns rows colors chars-per-pixel */
"24 24 96 2 ",
"   c #ffcfcf",
".  c #f7c9c9",
"X  c #f6c8c8",
"o  c #f5c7c7",
"O  c #f4c4c4",
"+  c #f4c4c4",
"@  c #ffc2c2",
"#  c #ffc2c2",
"$  c #ffc0c0",
"%  c #cfcfb4",
"&  c #cacaa6",
"*  c #c7c7ae",
"=  c #c1c1a6",
"-  c #bfbfa0",
";  c #bfbf9a",
":  c #baba9c",
">  c #b9b98f",
",  c #b8b893",
"<  c #b7b799",
"1  c #b7b78c",
"2  c #b4b48a",
"3  c #b0b084",
"4  c #acac91",
"5  c #abab80",
"6  c #a9a97f",
"7  c #a1a18d",
"8  c #a5a57d",
"9  c #a4a47c",
"0  c #9e9e77",
"q  c #9c9c75",
"w  c #939385",
"e  c #ffc0c0",
"r  c #bb9292",
"t  c #ac7a7a",
"y  c #9c6161",
"u  c #9b6060",
"i  c #979771",
"p  c #939373",
"a  c #929271",
"s  c #8f8f6e",
"d  c #8c8c6d",
"f  c #8c8c77",
"g  c #8d8d6d",
"h  c #8c8c6d",
"j  c #8a8a6c",
"k  c #88886c",
"l  c #89896a",
"z  c #87876a",
"x  c #86867c",
"c  c #81816a",
"v  c #85857e",
"b  c #838367",
"n  c #828268",
"m  c #7d7d64",
"M  c #7d7d67",
"N  c #797961",
"B  c #76765f",
"V  c #75755e",
"C  c #7f7f7f",
"Z  c #797971",
"A  c #757562",
"S  c #737362",
"D  c #6d6d69",
"F  c #636360",
"G  c #8a4848",
"H  c #71715b",
"J  c #70705a",
"K  c #6b6b56",
"L  c #6a6a5d",
"P  c #636351",
"I  c #5f5f55",
"U  c #5e5e4d",
"Y  c #585847",
"T  c #515140",
"R  c #595956",
"E  c #56564e",
"W  c #4f4f4d",
"Q  c #4c4c47",
"!  c #4b4b41",
"~  c #454543",
"^  c #743434",
"/  c #50503f",
"(  c #44443f",
")  c #3c3c36",
"_  c #3c3c38",
"`  c #3a3a3a",
"'  c #353533",
"]  c #323232",
"[  c gray81",
"{  c #522828",
"}  c #181816",
"|  c #10100e",
" . c #110b0b",
".. c #240909",
"X. c #070707",
"o. c None",
/* pixels */
"o.o.o.o.o.o.o.o.o.o.        o.o.o.o.o.o.o.o.o.o.",
"o.o.o.C C C C C C C   e e   C C C C C C o.o.o.o.",
"o.o.o.C X.X.X.X.X.X.  e e   X.X.X.X.X.C o.o.o.o.",
"o.o.o.C X.X.X.X.X.X.  e e   X.X.X.X.X.C o.o.o.o.",
"o.o.o.C X.X.X.X.X.X.  e e   X.X.X.X.X.C o.o.o.o.",
"o.o.o.C X.X.{ .       e e       . { X.C o.o.o.o.",
"o.o.o.C X.X.X.^ O @ e e e e @ . ^ X.X.C o.o.o.o.",
"o.o.o.C X.X.X.X.G O @ e e @ O G X.X.X.C o.o.o.o.",
"< % % C X.X.X.X...u O @ @ O u X.X.X.X.C o.o.o.o.",
"= 0 i C X.X.X.X.X.X.t O O t X.X.X.X.X.C o.o.o.o.",
"4 6 i C X.X.X.X.X.X...r r X.X.X.X.X.X.C o.o.o.o.",
"w 3 i v X.X.X.X.X.X.X... .X.X.X.X.X.X.v o.o.o.o.",
"Z 1 t C X. .h i i i i i i i i i i i i i i i i c ",
"F , i C X.) N T / / / / T T T T / / / / / / K A ",
"W - i C X.A P / / / / / / / / / / / / / / / c Q ",
"` & i C } h T / / / / / / / / / / / / / / Y s [ ",
"o.& q C ! V / / / / / / / / / / / / / / / J L o.",
"o., 9 v c U / / / / / / / / / / / / / / / h ( o.",
"o.7 8 v z / / / / / / / / / / / / / / / U z o.o.",
"o.x 3 f J / / / / / / / / / / / / / / / V I o.o.",
"o.D , p Y / / / / / / / / / / / / / / / h _ o.o.",
"o.R ; z / / / / / / / / / / / / / / / P M o.o.o.",
"o.( 8 K / / / / / / / / / / / / / / / m E o.o.o.",
"o.[ p i i i i i i i i i i i i i i i i h ' o.o.o."
};
