/* XPM */
static char *tm_snap_curve_deco[] = {
/* columns rows colors chars-per-pixel */
"16 16 57 1 ",
"  c #b68f8f",
". c #ae8383",
"X c #ff9191",
"o c gray52",
"O c gray53",
"+ c #979292",
"@ c #919191",
"# c #928e8e",
"$ c gray54",
"% c gray55",
"& c gray56",
"* c #7e7e7e",
"= c #7d7d7d",
"- c #777777",
"; c #757575",
": c #9f5656",
"> c #9e5555",
", c gray63",
"< c #6e6e6e",
"1 c #6d6d6d",
"2 c gray67",
"3 c #656565",
"4 c #626262",
"5 c #575757",
"6 c gray72",
"7 c #515151",
"8 c gray",
"9 c gray75",
"0 c #c15454",
"q c #c15454",
"w c #c14949",
"e c #9a4a4a",
"r c #9b4949",
"t c #994444",
"y c #943f3f",
"u c #8e3e3e",
"i c #933e3e",
"p c #594a4a",
"a c #4d4d4d",
"s c #4b4b4b",
"d c gray76",
"f c #494949",
"g c gray77",
"h c #464646",
"j c #454545",
"k c gray78",
"l c #434343",
"z c gray79",
"x c #404040",
"c c #3f3f3f",
"v c #4a3b3b",
"b c #493a3a",
"n c gray80",
"m c #3d3d3d",
"M c #3b3b3b",
"N c gray81",
"B c None",
/* pixels */
"BMMaaaMMBBBBBBBB",
"aMBBBbMaaMBBBBBB",
"&o=5aBBbMaMBBBBB",
"BM6=&.aBBMaaBBBB",
"MBBBiX 1NBBaMBBB",
"aaaMiXi=&aBBaaBB",
"BbieqXwi:+6BBaMB",
"BiXXXXXXX:&aBMaM",
"BbiiwXqeiM6&6BMa",
"BBBBiXiaaBB6&MBa",
"BBBBiXiBMaBB*2BM",
"BBBBbibBBaMBaoMB",
"BBBBBBBBBMaNB1;B",
"BBBBBBBBBBMaBM&a",
"BBBBBBBBBBBaMB2=",
"BBBBBBBBBBBMaBMo"
};
