/* XPM */
static char *tm_similar_first[] = {
/* columns rows colors chars-per-pixel */
"16 16 24 1 ",
"  c #9d9d9d",
". c #9c9c9c",
"X c #999999",
"o c #989898",
"O c gray52",
"+ c #969696",
"@ c #929292",
"# c gray58",
"$ c #818181",
"% c #7f7f7f",
"& c gray60",
"* c #7c7c7c",
"= c #797979",
"- c #717171",
"; c #6f6f6f",
": c gray69",
"> c gray73",
", c #4d4d4d",
"< c #444444",
"1 c gray80",
"2 c #3e3e3e",
"3 c #3d3d3d",
"4 c gray81",
"5 c None",
/* pixels */
"53;.        .;55",
"53@.        ..55",
"53;..    . ..;55",
"5555553333555555",
"5555543##aafbfb5",
"555553&..&355555",
"55553;....;35555",
"5553:......:3555",
"554>.  .. ..>455",
"55,@.  .  ..@,55",
"54&..... ....&45",
"54&..........&45",
"5543333333333355",
"5555555555555555",
"5555555555555555",
"5555555555555555"
};
