<?xml version="1.0" encoding="UTF-8"?>
<!-- Created with Inkscape (http://www.inkscape.org/) -->
<svg id="svg3039" width="20" height="20" version="1.1" xmlns="http://www.w3.org/2000/svg" xmlns:cc="http://creativecommons.org/ns#" xmlns:dc="http://purl.org/dc/elements/1.1/" xmlns:rdf="http://www.w3.org/1999/02/22-rdf-syntax-ns#">
 <metadata id="metadata3044">
  <rdf:RDF>
   <cc:Work rdf:about="">
    <dc:format>image/svg+xml</dc:format>
    <dc:type rdf:resource="http://purl.org/dc/dcmitype/StillImage"/>
    <dc:title/>
   </cc:Work>
  </rdf:RDF>
 </metadata>
 <g id="layer1" transform="translate(0,4)">
  <path id="text3271" transform="matrix(1.0259 0 0 1.0259 -.18184 -.063898)" d="m4.2305 13.336v-4.1243q0-0.43056 0.067984-0.54387 0.090645-0.11331 0.47589-0.11331 0.18129 0 0.27193 0.022661 0.11331 0.022661 0.15863 0.090645 0.067984 0.067984 0.067984 0.15863 0.022661 0.067984 0.022661 0.24927 0.067984 1.1784 0.63451 2.0168 0.58919 0.8158 1.473 1.1784 0.90645 0.36258 1.6769 0.49855 0.77048 0.13597 1.5636 0.13597 1.5863 0 2.2661-0.8158 0.67984-0.8158 0.67984-1.8356 0-1.0651-0.90645-1.9715-0.36258-0.33992-0.8158-0.47589-0.43056-0.13597-2.0622-0.49855-2.0622-0.45322-2.8326-0.74782-0.74782-0.2946-1.5183-1.0651-1.2237-1.2917-1.2237-3.0139 0-1.9262 1.3143-3.2406 1.3143-1.3143 3.7618-1.3143 2.3114 0 3.8751 1.2464l1.0198-0.99709q0.27193-0.24927 0.45322-0.24927 0.27193 0 0.33992 0.13597 0.06798 0.11331 0.06798 0.49855v4.147q0 0.4079-0.09064 0.52121-0.06798 0.11331-0.45322 0.11331-0.33992 0-0.43056-0.067984-0.067985-0.090644-0.13597-0.52121-0.24927-1.4503-1.0424-2.3568-0.79314-0.90645-1.6769-1.201-0.88379-0.2946-1.9035-0.2946-1.541 0-2.2208 0.74782-0.67984 0.72516-0.67984 1.6316 0 0.95177 0.67984 1.5636 0.67984 0.61185 1.4956 0.79314l3.2859 0.7025q1.6316 0.33992 2.7647 1.6543t1.1331 3.1272q0 1.9489-1.2917 3.3992-1.269 1.4503-3.8524 1.4503-2.8553 0-4.5322-1.2464l-1.0424 1.0424q-0.22661 0.20395-0.43056 0.20395-0.27193 0-0.33992-0.13597-0.067984-0.11331-0.067984-0.49855z" fill="#bfbfbf" stroke="#bfbfbf" stroke-width=".5" aria-label="S"/>
 </g>
</svg>
