<?xml version="1.0" encoding="UTF-8"?>
<!-- Created with Inkscape (http://www.inkscape.org/) -->
<svg id="svg3039" width="20" height="20" version="1.1" xmlns="http://www.w3.org/2000/svg" xmlns:cc="http://creativecommons.org/ns#" xmlns:dc="http://purl.org/dc/elements/1.1/" xmlns:rdf="http://www.w3.org/1999/02/22-rdf-syntax-ns#">
 <metadata id="metadata3044">
  <rdf:RDF>
   <cc:Work rdf:about="">
    <dc:format>image/svg+xml</dc:format>
    <dc:type rdf:resource="http://purl.org/dc/dcmitype/StillImage"/>
    <dc:title/>
   </cc:Work>
  </rdf:RDF>
 </metadata>
 <g id="layer1" transform="translate(0,4)">
  <path id="path3978" d="m13.5 8.5h3v5h-3z" fill="#0101ff" stroke="#7777d2" stroke-linejoin="round" stroke-width=".5"/>
  <path id="text4031" transform="scale(1.0048 .99522)" d="m0.92486 10.093q0-0.79319 0.48473-1.2338 0.50676-0.46269 1.1017-0.46269 0.44066 0 0.74912 0.28643 0.3305 0.2644 0.3305 0.72709 0 1.0576-1.1237 1.4762 0.41863 0.35253 0.90335 0.35253 0.81522 0 1.322-1.0135 0.30846-0.55083 0.96945-3.305 0.68302-2.7541 0.68302-3.2609 0-0.57286-0.3305-0.81522-0.3305-0.2644-0.77116-0.2644-0.81522 0-1.6084 0.68302-0.77116 0.68302-1.1457 1.7186-0.1322 0.39659-0.24236 0.50676-0.088132 0.088132-0.39659 0.11016h-0.11016q-0.57286 0-0.57286-0.35253 0-0.2644 0.2644-0.79319 0.2644-0.55082 0.74912-1.1677 0.48473-0.61692 1.344-1.0576 0.85929-0.46269 1.8508-0.46269 1.8067 0 2.7101 1.1898 1.1457-1.1898 2.2694-1.1898 0.94742 0 1.6745 0.52879t0.72709 1.4542q0 0.79319-0.50676 1.2559-0.48473 0.44066-1.0796 0.44066-0.46269 0-0.77116-0.28643-0.30846-0.28643-0.30846-0.74912 0-1.0576 1.1237-1.4762-0.41863-0.35253-0.90335-0.35253-0.30846 0-0.57286 0.1322-0.2644 0.1322-0.48473 0.48473-0.22033 0.35253-0.37456 0.68302-0.15423 0.30846-0.35253 0.94742-0.17626 0.63896-0.28643 1.0796t-0.3305 1.322q-0.1983 0.88132-0.3305 1.3881-0.2644 1.0576-0.2644 1.5423 0 0.57286 0.3305 0.83725 0.35253 0.24236 0.79319 0.24236 0.81522 0 1.5864-0.68302 0.79319-0.68302 1.1677-1.6965 0.02203-0.044066 0.04407-0.1322 0.02203-0.088132 0.04407-0.11016 0.02203-0.044066 0.04407-0.11016 0.02203-0.066099 0.02203-0.088132 0.02203-0.022033 0.04407-0.066099 0.04407-0.044066 0.08813-0.044066 0.04407-0.022033 0.08813-0.044066 0.04407-0.022033 0.08813-0.022033 0.0661 0 0.15423 0h0.1322q0.57286 0 0.57286 0.3305 0 0.81522-1.2118 2.1592-1.2118 1.322-2.9745 1.322-1.9169 0-2.7541-1.1898h-0.022033q-0.96945 1.1898-2.2474 1.1898-0.92539 0-1.6525-0.50676-0.7271-0.52879-0.7271-1.4542z" fill="#bfbfbf" aria-label="x"/>
  <path id="path4035" d="m14.5 0.5h3v5h-3z" fill="#0101ff" stroke="#7777d2" stroke-linejoin="round" stroke-width=".5"/>
 </g>
</svg>
