/* XPM */
static char *magick[] = {
/* columns rows colors chars-per-pixel */
"19 17 18 1",
"  c None",
"Y c Gray0",
". c #f6f7f6",
"X c #e6e7e6",
"o c #d6d7d6",
"O c #c6c7c6",
"+ c #b6b7b6",
"@ c #a5a8a5",
"# c #959895",
"$ c #858985",
"% c #8484ff",
"& c #4b4ff9",
"* c #555aa6",
"= c #0c13f2",
"- c #757975",
"; c #656b65",
": c #545c54",
"> c #434e43",
/* pixels */
"                   ",
"                   ",
"           YYYYYYY ",
"          #$       ",
"         >.:       ",
"         @+        ",
"        >.:        ",
"        #O   >&    ",
"       >.:  &*&==  ",
"  @X   #O   *&%&>  ",
" :#Y- >.:   &%%%=  ",
"   oo #O    =>&>*  ",
"   -Y;X;     >=    ",
"    X.o            ",
"    $Y;            ",
"     $             ",
"                   "
};
