/* XPM */
static char *tm_snap_grid[] = {
/* columns rows colors chars-per-pixel */
"16 16 7 1 ",
"  c #ff9191",
". c #c14949",
"X c #9d4f4f",
"o c #933e3e",
"O c #4d4d4d",
"+ c #493a3a",
"@ c None",
/* pixels */
"@@@+X+@@@@@O@@@@",
"@@@o o@@@@@O@@@@",
"@@@o o@@@@@O@@@@",
"+oo. .oo+@@O@@@@",
"X       XOOOOOOO",
"+oo. .oo+@@O@@@@",
"@@@o o@@@@@O@@@@",
"@@@o o@@@@@O@@@@",
"@@@+X+@@@@@O@@@@",
"@@@@O@@@@@@O@@@@",
"@@@@O@@@@@@O@@@@",
"OOOOOOOOOOOOOOOO",
"@@@@O@@@@@@O@@@@",
"@@@@O@@@@@@O@@@@",
"@@@@O@@@@@@O@@@@",
"@@@@O@@@@@@O@@@@"
};
