/* XPM */
static char *tm_snap_text_deco[] = {
/* columns rows colors chars-per-pixel */
"16 16 29 1 ",
"  c #c1c1c1",
". c #bcbcbc",
"X c #b7b7b7",
"o c #ff9191",
"O c #979797",
"+ c #959595",
"@ c #939393",
"# c #8d8d8d",
"$ c #918a8a",
"% c #757575",
"& c #717171",
"* c #616161",
"= c #5b5b5b",
"- c gray72",
"; c #c14949",
": c #9d4f4f",
"> c #9a4545",
", c #954040",
"< c #933e3e",
"1 c #4d4d4d",
"2 c gray76",
"3 c #434343",
"4 c gray79",
"5 c #404040",
"6 c #3f3f3f",
"7 c #493a3a",
"8 c #3b3b3b",
"9 c gray81",
"0 c None",
/* pixels */
"0000000000000000",
"0000000000000000",
"0111111-11111000",
"0100000000001000",
"010@@@@@@@@01000",
"010X-1  8*.01000",
"010&08  80&9:900",
"010008  800<o<00",
"010001  800<o<00",
"010008  9<<;o;<<",
"010008  <ooooooo",
"01001$ .$:<;o;<<",
"01008==-=80<o<00",
"011111-1222;o<00",
"000000000009<900",
"0000000000000000"
};
