/* XPM */
static char *tm_search_next[] = {
/* columns rows colors chars-per-pixel */
"16 16 32 1 ",
"  c #e0e0e0",
". c #dedede",
"X c gray51",
"o c #dbdbdb",
"O c #d9d9d9",
"+ c gray52",
"@ c #d5d5d5",
"# c #d0d0d0",
"$ c #cdcdcd",
"% c gray58",
"& c #bbbbbb",
"* c gray59",
"= c #b6b6b6",
"- c gray60",
"; c gray61",
": c #adadad",
"> c #a4a4a4",
", c gray65",
"< c #8d8d8d",
"1 c gray69",
"2 c gray72",
"3 c #767676",
"4 c #6f6f6f",
"5 c gray77",
"6 c #656565",
"7 c gray79",
"8 c #5c5c5c",
"9 c gray80",
"0 c #585858",
"q c #565656",
"w c gray81",
"e c None",
/* pixels */
"eeeeeeeeeeeeeeee",
"eeee000eeeeeeeee",
"eee0;%30eeeeeeee",
"eee0++#20eeeeeee",
"eee0++ +<0eeeeee",
"eee0+   +>00eeee",
"eee0+    +;5eeee",
"eee0+     +%eeee",
"eee0+     +%eeee",
"eee0+    +;0eeee",
"eee0+   +>00eeee",
"eee0+ ++<0eeeeee",
"eee0++#30eeeeeee",
"eee0;%5eeeeeeeee",
"eeee00eeeeeeeeee",
"eeeeeeeeeeeeeeee"
};
