/* XPM */
static char * tm_session_field_xpm[] = {
"17 17 5 1",
" 	c None",
"x	c #000000000000",
"X	c #999999999999",
"o	c #00000000FFFF",
"O	c #99999999FFFF",
"                 ",
" oooooooooo      ",
" oooooooooo      ",
"                 ",
"    oooooooooooo ",
"    OOOOOOOOOOOO ",
"    oooooooooo   ",
"                 ",
" xxxxxxxxxx      ",
" xxxxxxxxxx      ",
"                 ",
"    xxxxxxxxxxxx ",
"    XXXXXXXXXXXX ",
"    xxxxxxxxxxxx ",
"    XXXXXXXXXXXX ",
"    xxxxxxxxxx   ",
"                 "};
