/* XPM */
static char *tm_stretch[] = {
/* columns rows colors chars-per-pixel */
"20 20 116 2 ",
"   c gray25",
".  c gray30",
"X  c gray32",
"o  c #aaaaaa",
"O  c gray44",
"+  c gray45",
"@  c #a19e9e",
"#  c #9c9595",
"$  c #9c9494",
"%  c #9b9292",
"&  c #998f8f",
"*  c #ef8787",
"=  c #ee8686",
"-  c #eb7c7c",
";  c #eb7979",
":  c #eb7979",
">  c #e87474",
",  c #e56868",
"<  c #e35e5e",
"1  c #e05959",
"2  c #de5555",
"3  c #df5353",
"4  c #de5353",
"5  c #dd4f4f",
"6  c #d74343",
"7  c #a4a4ff",
"8  c #a2a2fe",
"9  c #a3a3fe",
"0  c #9f9ffd",
"q  c #8f8ff6",
"w  c #8e8ef6",
"e  c #8b8bf4",
"r  c #6969e1",
"t  c #6868df",
"y  c #6464dd",
"u  c #6565dd",
"i  c #6363db",
"p  c #6161db",
"a  c #5d5dd4",
"s  c #5e5ed6",
"d  c #5d5dd7",
"f  c #868693",
"g  c #818181",
"h  c gray57",
"j  c #7b7b7b",
"k  c gray58",
"l  c #7b7a7a",
"z  c #737373",
"x  c #726a6a",
"c  c #64649c",
"v  c #5e5e9d",
"b  c #746666",
"n  c #756666",
"m  c gray67",
"M  c #5e5e5e",
"N  c gray68",
"B  c #695858",
"V  c #635555",
"C  c #585858",
"Z  c #555555",
"A  c gray71",
"S  c #685252",
"D  c #4c4c66",
"F  c #4d4d4d",
"G  c gray74",
"H  c #bd4141",
"J  c #d43434",
"K  c #be3f3f",
"L  c #b73838",
"P  c #cb3131",
"I  c #c72a2a",
"U  c #b73636",
"Y  c #bd2e2e",
"T  c #b32b2b",
"R  c #b82424",
"E  c #664545",
"W  c #761f1f",
"Q  c #7b1e1e",
"!  c #3b3ba2",
"~  c #3d3d9b",
"^  c #3c3c94",
"/  c #3a3a9a",
"(  c #3a3a92",
")  c #3f3f60",
"_  c #484848",
"`  c gray77",
"'  c #424242",
"]  c gray78",
"[  c #5a3f3f",
"{  c #373758",
"}  c #373751",
"|  c #37374b",
" . c #373752",
".. c #3f3f3f",
"X. c gray79",
"o. c gray80",
"O. c #393939",
"+. c gray81",
"@. c #413333",
"#. c #482e2e",
"$. c #36364a",
"%. c #36364a",
"&. c #393232",
"*. c LightGray",
"=. c gray83",
"-. c #2e2e2e",
";. c #3a2c2c",
":. c #392b2b",
">. c #372929",
",. c #402626",
"<. c #3d2727",
"1. c #711f1f",
"2. c #651c1c",
"3. c #5a1c1c",
"4. c #3f2323",
"5. c None",
/* pixels */
"5.5.$.} 5.5.5.5.5.5.5.5.5.5.5.5.5.5.5.5.",
"5.%.e t o.o.o.&.<.4.>.>.5.o.o.o.o.o.o.&.",
"5.d 8 ~ _ _ _ 5.J > , 2 W @._ _ _ _ _ _ ",
"( 8 d o.o._ o.-.5 = = = * P >.o.X.X.o.o.",
"t 8 ) _ _ _ _ 5.R P 6 ; * * W _ _ _ _ X.",
"( 8 d o.X.o.X.o.&.&.&.4.* * 2 >.X.X.X.o.",
"5.d 0 ~ _ _ _ _ _ _ E &.2 = , #._ _ _ _ ",
"5.%.e r o.o.o.F g h g m 4 = > E g g g F ",
"5.5.$.$.5.5.5.X O O O h 5 = < x + + o X ",
"5.5.5.5.5.5.5.F n 1.4 2 > = > 5 5 Q n A ",
"5.5.5.5.5.5.5.O   % U = = = * * K %   O ",
"5.5.5.5.5.5.5._ h h V T = = = P [ m m } ",
"5.5.5.5.5.5.5.O       % U * K & D { 5.5.",
"5.5.5.5.5.5.5._ h h g h V 2.S z i q $.5.",
"5.5.5.5.5.5.5.O           .     v 8 i 5.",
"5.5.5.5.5.5.5.E h h h h h h h h m a 7 ! ",
"5.5.5.5.5.5.5.O                   f 8 r ",
"5.5.5.5.5.5.5._ h h h h h h h h N a 8 ~ ",
"5.5.5.5.5.5.5.O                 v 8 p 5.",
"5.5.5.5.5.5.5.] m m m m N m N A p w %.5."
};
