<?xml version="1.0" encoding="UTF-8"?>
<!-- Created with Inkscape (http://www.inkscape.org/) -->
<svg id="svg3039" width="20" height="20" version="1.1" xmlns="http://www.w3.org/2000/svg" xmlns:cc="http://creativecommons.org/ns#" xmlns:dc="http://purl.org/dc/elements/1.1/" xmlns:rdf="http://www.w3.org/1999/02/22-rdf-syntax-ns#">
 <metadata id="metadata3044">
  <rdf:RDF>
   <cc:Work rdf:about="">
    <dc:format>image/svg+xml</dc:format>
    <dc:type rdf:resource="http://purl.org/dc/dcmitype/StillImage"/>
    <dc:title/>
   </cc:Work>
  </rdf:RDF>
 </metadata>
 <g id="layer1" transform="translate(0,4)" fill="#bfbfbf" stroke="#bfbfbf" stroke-width=".5">
  <path id="text3221" transform="scale(.97466 1.026)" d="m1.0295 13.163v-4.3101q0-0.24179 0.010512-0.32589 0.010513-0.0841 0.073588-0.14718t0.18922-0.063075q0.24179 0 0.26281 0.22076 0.063075 2.134 1.3351 3.3114 1.251 1.1669 3.3955 1.1669 1.293 0 2.092-0.9251 0.79895-0.93561 0.79895-2.1551 0-1.1669-0.6728-1.9869-0.28384-0.36794-0.64126-0.59921-0.34691-0.24179-0.56768-0.31538-0.21025-0.073588-0.62024-0.17871-2.6702-0.64126-2.8384-0.71485-1.272-0.43101-2.0499-1.5138-0.76741-1.0933-0.76741-2.4284 0-1.7241 1.2089-2.9435 1.2194-1.23 2.9856-1.23 0.88305 0 1.6189 0.28384 0.74639 0.27332 1.0512 0.52562 0.30486 0.2523 0.77792 0.70434l0.74639-1.23q0.1682-0.28384 0.32589-0.28384 0.1682 0 0.19974 0.10512 0.04205 0.094612 0.04205 0.40999v4.3312q0 0.24179-0.010512 0.32589-0.010513 0.0841-0.0841 0.13666-0.063075 0.052563-0.18922 0.052563-0.21025 0-0.26281-0.2523-0.59921-4.4994-4.1945-4.4994-1.23 0-2.0394 0.83049-0.79895 0.81998-0.79895 1.9869 0 0.94612 0.5887 1.724 0.5887 0.76741 1.5874 1.0092l2.7543 0.66229q1.3771 0.32589 2.3022 1.5453 0.9251 1.2194 0.9251 2.8068 0 1.8292-1.1984 3.1537-1.1879 1.3246-3.0486 1.3246-1.3351 0-2.3653-0.44152t-1.5874-1.0618q-0.43101 0.71485-0.71485 1.1143l-0.063075 0.10512q-0.1682 0.28384-0.32589 0.28384-0.1682 0-0.19974-0.10512-0.031537-0.10512-0.031537-0.40999z" aria-label="S"/>
  <path id="text3225" transform="scale(.89397 1.1186)" d="m12.745 7.3004q0-2.129 1.4538-3.6241 1.4538-1.502 3.4518-1.502 0.62009 0 1.1713 0.22736 0.55119 0.22736 0.80611 0.42717 0.25492 0.19292 0.62009 0.55808l0.70965-1.0404q0.11024-0.17225 0.22048-0.17225 0.11713 0 0.1378 0.068898 0.02067 0.062009 0.02067 0.2687v3.3485q0 0.22736-0.02756 0.28248-0.02756 0.055119-0.1998 0.055119-0.1378 0-0.17225-0.041339-0.027559-0.041339-0.055118-0.19981-0.21358-1.5227-1.061-2.4321-0.84056-0.90946-2.0118-0.90946-0.3376 0-0.71654 0.075788-0.37205 0.075788-0.91635 0.36516-0.53741 0.28937-0.95769 0.77166-0.41339 0.4754-0.71654 1.3849-0.30315 0.90257-0.30315 2.1014 0 1.1851 0.30315 2.0945t0.71654 1.3849q0.42028 0.46851 0.95769 0.75788 0.5443 0.28937 0.92324 0.37205 0.38583 0.07579 0.72343 0.07579 1.2126 0 2.1427-0.86123 0.93013-0.86123 1.0197-2.315 0.01378-0.068898 0.01378-0.096458 0-0.034449 0.01378-0.068899 0.01378-0.034449 0.04823-0.048229t0.08957-0.01378q0.18602 0 0.18602 0.24114 0 1.3435-1.0335 2.4735-1.0266 1.123-2.6526 1.123-2.0049 0-3.4587-1.4882-1.4469-1.4882-1.4469-3.6447z" aria-label="C"/>
 </g>
</svg>
