<?xml version="1.0" encoding="UTF-8"?>
<!-- Created with Inkscape (http://www.inkscape.org/) -->
<svg id="svg3039" width="20" height="20" version="1.1" xmlns="http://www.w3.org/2000/svg" xmlns:cc="http://creativecommons.org/ns#" xmlns:dc="http://purl.org/dc/elements/1.1/" xmlns:rdf="http://www.w3.org/1999/02/22-rdf-syntax-ns#">
 <metadata id="metadata3044">
  <rdf:RDF>
   <cc:Work rdf:about="">
    <dc:format>image/svg+xml</dc:format>
    <dc:type rdf:resource="http://purl.org/dc/dcmitype/StillImage"/>
    <dc:title/>
   </cc:Work>
  </rdf:RDF>
 </metadata>
 <g id="layer1" transform="translate(0,4)" fill="#bfbfbf">
  <path id="text4047" transform="scale(.86709 1.1533)" d="m7.4889 1.5635q0 1.8095-1.0297 2.7293-1.0197 0.90976-2.8693 0.90976h-2.0195v-7.1382h2.2394q1.1197 0 1.9395 0.3999 0.82978 0.3999 1.2797 1.1797 0.45988 0.7698 0.45988 1.9195zm-1.5696 0.03999q0-1.1897-0.51987-1.7395-0.51987-0.55986-1.5096-0.55986h-0.80979v4.6488h0.64983q2.1894 0 2.1894-2.3494zm9.5275 0.019995q0 1.1097-0.3699 1.9395-0.35991 0.81979-1.1097 1.2797-0.7498 0.45988-1.9195 0.45988-1.1597 0-1.9195-0.45988-0.74981-0.45988-1.1197-1.2897-0.35991-0.82978-0.35991-1.9395 0-1.1097 0.35991-1.9295 0.3699-0.81979 1.1197-1.2697 0.7598-0.45988 1.9295-0.45988 1.1597 0 1.9095 0.45988 0.74981 0.44988 1.1097 1.2797 0.3699 0.81979 0.3699 1.9295zm-5.2087 0q0 1.1197 0.42989 1.7695 0.42989 0.63983 1.3796 0.63983 0.96975 0 1.3896-0.63983 0.41989-0.64983 0.41989-1.7695 0-1.1297-0.41989-1.7695-0.41989-0.63983-1.3796-0.63983t-1.3896 0.63983q-0.42989 0.63983-0.42989 1.7695zm9.7175-2.3994q-0.86978 0-1.3297 0.64983-0.45988 0.64983-0.45988 1.7795 0 1.1397 0.41989 1.7695 0.42989 0.61984 1.3696 0.61984 0.43989 0 0.86978-0.099974 0.43989-0.099974 0.94975-0.27993v1.2697q-0.46988 0.18995-0.92976 0.27993-0.45988 0.089977-1.0297 0.089977-1.0997 0-1.8195-0.44988-0.70982-0.45988-1.0497-1.2797-0.33991-0.82978-0.33991-1.9295 0-1.0797 0.3899-1.9095 0.3899-0.82978 1.1297-1.2997 0.74981-0.46988 1.8295-0.46988 0.52986 0 1.0597 0.13996 0.53986 0.12997 1.0297 0.35991l-0.48987 1.2297q-0.3999-0.18995-0.80979-0.32991-0.3999-0.13996-0.7898-0.13996z" aria-label="DOC"/>
  <path id="text4078" transform="scale(.98812 1.012)" d="m3.2409 13.226q-0.46706 0-0.85822-0.15763-0.39116-0.15763-0.68308-0.44371-0.28607-0.29191-0.44371-0.68308-0.15763-0.39116-0.15763-0.85822 0-0.44371 0.15763-0.82903 0.16347-0.39116 0.45538-0.68308 0.29191-0.29775 0.68308-0.46122 0.39116-0.16931 0.84655-0.16931 0.44371 0 0.82903 0.15763 0.39116 0.15763 0.68308 0.44955 0.29775 0.28607 0.46122 0.67724 0.16931 0.39116 0.16931 0.85822 0 0.46706-0.15763 0.85822-0.15763 0.39116-0.44955 0.68308-0.28607 0.28608-0.67724 0.44371-0.39116 0.15763-0.85822 0.15763zm0-0.37365q0.47874 0 0.8699-0.22769 0.397-0.22769 0.63053-0.62469 0.23353-0.40284 0.23353-0.91661 0-0.36781-0.13428-0.68892-0.12844-0.3211-0.36197-0.56631-0.23353-0.24521-0.55463-0.37949-0.31527-0.14012-0.68308-0.14012-0.49625 0-0.89325 0.22769-0.397 0.22769-0.62469 0.63053-0.22769 0.397-0.22769 0.91661 0 0.51377 0.22185 0.91661 0.22769 0.397 0.61886 0.62469 0.397 0.22769 0.90493 0.22769zm0.087574-0.43203q-0.5955 0-0.89325-0.36781-0.29191-0.36781-0.29191-0.96915 0-0.39116 0.14012-0.68892 0.14012-0.30359 0.40868-0.4729 0.26856-0.17515 0.65972-0.17515 0.37949 0 0.71811 0.17515l-0.16931 0.39116q-0.29191-0.1518-0.54296-0.1518-0.34446 0-0.53712 0.24521-0.18682 0.24521-0.18682 0.67724 0 0.44371 0.16347 0.68891 0.16931 0.23937 0.55463 0.23937 0.13428 0 0.29775-0.03503 0.16931-0.04087 0.31527-0.09925v0.40284q-0.14012 0.05838-0.28607 0.09925t-0.3503 0.04087zm5.488 0.7473h-2.9133v-0.61302l1.045-1.0567q0.31527-0.32694 0.50793-0.54296 0.19266-0.22185 0.28024-0.397 0.087574-0.18099 0.087574-0.38532 0-0.25105-0.14012-0.37365-0.13428-0.1226-0.36781-0.1226-0.23937 0-0.46706 0.11093-0.22769 0.11093-0.47874 0.31527l-0.47874-0.56631q0.18099-0.15763 0.37949-0.29191 0.20434-0.13428 0.46706-0.21602 0.26856-0.087574 0.64221-0.087574 0.40868 0 0.70059 0.15179 0.29775 0.14596 0.45538 0.40284 0.16347 0.25105 0.16347 0.57215 0 0.34446-0.14012 0.63053-0.13428 0.28608-0.397 0.56631-0.25688 0.28024-0.62469 0.61886l-0.53712 0.50209v0.04087h1.8157zm3.3161-2.0843q0 0.6714-0.14596 1.1501-0.14012 0.47874-0.46122 0.73562-0.31527 0.25688-0.85239 0.25688-0.75314 0-1.1034-0.56631-0.3503-0.57215-0.3503-1.5763 0-0.67724 0.14012-1.156 0.14012-0.47874 0.46122-0.73562 0.3211-0.25688 0.85239-0.25688 0.7473 0 1.1034 0.56631 0.35613 0.56631 0.35613 1.5822zm-2.0376 0q0 0.71227 0.1226 1.0742 0.1226 0.35613 0.45538 0.35613 0.32694 0 0.45538-0.35613 0.12844-0.35613 0.12844-1.0742 0-0.71227-0.12844-1.0742-0.12844-0.36197-0.45538-0.36197-0.33278 0-0.45538 0.36197-0.1226 0.36197-0.1226 1.0742zm4.6648 2.0843h-0.88158v-2.4112q0-0.1518 0.0058-0.397 0.01168-0.24521 0.01752-0.43203-0.02919 0.03503-0.12844 0.12844-0.09341 0.08757-0.17515 0.15763l-0.47874 0.38532-0.42619-0.53128 1.3428-1.0684h0.72394zm4.0751 0h-2.9133v-0.61302l1.045-1.0567q0.31527-0.32694 0.50793-0.54296 0.19266-0.22185 0.28024-0.397 0.08757-0.18099 0.08757-0.38532 0-0.25105-0.14012-0.37365-0.13428-0.1226-0.36781-0.1226-0.23937 0-0.46706 0.11093-0.22769 0.11093-0.47874 0.31527l-0.47873-0.56631q0.18099-0.15763 0.37949-0.29191 0.20434-0.13428 0.46706-0.21602 0.26856-0.087574 0.64221-0.087574 0.40868 0 0.70059 0.15179 0.29775 0.14596 0.45538 0.40284 0.16347 0.25105 0.16347 0.57215 0 0.34446-0.14012 0.63053-0.13428 0.28608-0.397 0.56631-0.25688 0.28024-0.62469 0.61886l-0.53712 0.50209v0.04087h1.8157z" aria-label="©2012"/>
 </g>
</svg>
