<?xml version="1.0" encoding="UTF-8"?>
<!-- Created with Inkscape (http://www.inkscape.org/) -->
<svg id="svg3039" width="20" height="20" version="1.1" xmlns="http://www.w3.org/2000/svg" xmlns:cc="http://creativecommons.org/ns#" xmlns:dc="http://purl.org/dc/elements/1.1/" xmlns:rdf="http://www.w3.org/1999/02/22-rdf-syntax-ns#">
 <metadata id="metadata3044">
  <rdf:RDF>
   <cc:Work rdf:about="">
    <dc:format>image/svg+xml</dc:format>
    <dc:type rdf:resource="http://purl.org/dc/dcmitype/StillImage"/>
    <dc:title/>
   </cc:Work>
  </rdf:RDF>
 </metadata>
 <g id="layer1" transform="translate(0,4)">
  <path id="text3315" d="m1.2585 3.2873 0.45296-5.3426h14.529l0.45296 5.3426h-0.59233q-0.092915-1.0685-0.18583-1.6841-0.0813-0.61556-0.29036-1.1963-0.19744-0.59233-0.45296-0.87107-0.2439-0.29036-0.72009-0.51103-0.47619-0.23229-1.0917-0.29036-0.61556-0.058072-1.5447-0.058072-1.0917 0-1.3589 0.046457-0.29036 0.069686-0.36004 0.27874-0.06969 0.19744-0.06969 0.62717v12.532q0 0.47619 0.09291 0.67363 0.10453 0.18583 0.6504 0.33682 0.54587 0.13937 1.7538 0.13937h0.95237v0.7317q-0.9756-0.06969-4.518-0.06969-3.5191 0-4.4947 0.06969v-0.7317h0.95237q1.2079 0 1.7538-0.13937 0.55749-0.15099 0.6504-0.33682 0.092915-0.19744 0.092915-0.67363v-12.532q0-0.33681-0.023229-0.47619-0.02322-0.13937-0.12775-0.25551-0.10453-0.12776-0.34843-0.17421-0.23229-0.046457-1.2776-0.046457-0.92914 0-1.5563 0.058072-0.61556 0.058072-1.0917 0.29036-0.47619 0.22067-0.7317 0.51103-0.2439 0.27874-0.45296 0.87107-0.19744 0.58072-0.27874 1.1963-0.0813 0.61556-0.17421 1.6841z" fill="#bfbfbf" stroke="#bfbfbf" stroke-width=".5" aria-label="T"/>
 </g>
</svg>
