/* XPM */
static char *tm_typewriter[] = {
/* columns rows colors chars-per-pixel */
"20 20 32 1 ",
"  c gray25",
". c gray26",
"X c #e0e0e0",
"o c gray27",
"O c gray28",
"+ c #dadada",
"@ c gray30",
"# c #d4d4d4",
"$ c #c4c4c4",
"% c gray36",
"& c #c2c2c2",
"* c gray37",
"= c gray38",
"- c #989898",
"; c #939393",
": c #8f8f8f",
"> c #8d8d8d",
", c #838383",
"< c #797979",
"1 c gray63",
"2 c gray67",
"3 c #636363",
"4 c #5d5d5d",
"5 c gray70",
"6 c gray71",
"7 c #545454",
"8 c #515151",
"9 c #424242",
"0 c #3e3e3e",
"q c #3b3b3b",
"w c gray81",
"e c None",
/* pixels */
"eeeeeeeeeeeeeeeeeeee",
"eeew733333333337eeee",
"eee<+          +2eee",
"eee- #%%%  =%=+ -eee",
"eee- %ee7++7ee% -eee",
"eee, =ee7++7ee%+<eee",
"eeee6wee7++7eew6eeee",
"eeeeeeee7++7eeeeeeee",
"eeeeeeee7++7eeeeeeee",
"eeeeeeee7++7eeeeeeee",
"eeeeeeee7++9eeeeeeee",
"eeeeeeee7++7eeeeeeee",
"eeeeeeee7++7eeeeeeee",
"eeeeeeee7++7eeeeeeee",
"eeeeeeee7++7eeeeeeee",
"eeeeeeee7++7eeeeeeee",
"eeeeee6%%  =%3eeeeee",
"eeeeee>      >eeeeee",
"eeeeeew633336weeeeee",
"eeeeeeeeeeeeeeeeeeee"
};
