/* XPM */
static char *tm_tmdoc_annotate[] = {
/* columns rows colors chars-per-pixel */
"20 20 102 2 ",
"   c gray25",
".  c gray28",
"X  c gray32",
"o  c gray33",
"O  c #e0e0e0",
"+  c #dfdfdf",
"@  c gray34",
"#  c gray35",
"$  c gray38",
"%  c #cbcbcb",
"&  c #c8c8c8",
"*  c gray42",
"=  c #c0c0c0",
"-  c gray43",
";  c #b7b7b7",
":  c #a7a7a7",
">  c #a6a6a6",
",  c #a6a6a5",
"<  c #a2a2a2",
"1  c #a3a3a2",
"2  c #a1a19f",
"3  c #9f9f9e",
"4  c #9d9d9b",
"5  c gray54",
"6  c #9b9b9a",
"7  c #999999",
"8  c #9a9a99",
"9  c #969696",
"0  c #989895",
"q  c #969695",
"w  c #959594",
"e  c #949492",
"r  c #90908e",
"t  c #8c8c89",
"y  c #8c8c8a",
"u  c #898986",
"i  c #888888",
"p  c gray60",
"a  c #898986",
"s  c #858585",
"d  c #848484",
"f  c #84847e",
"g  c #818181",
"h  c #81817e",
"j  c gray62",
"k  c #7e7e7e",
"l  c #80807d",
"z  c #7d7d7b",
"x  c #7e7e79",
"c  c #7d7d7d",
"v  c #7d7d78",
"b  c #797975",
"n  c #787878",
"m  c #797977",
"M  c #73736f",
"N  c gray66",
"B  c #717171",
"V  c #747471",
"C  c #6c6c65",
"Z  c #696963",
"A  c #686862",
"S  c #676760",
"D  c gray69",
"F  c #656565",
"G  c gray70",
"H  c #636363",
"J  c gray71",
"K  c #62625b",
"L  c #60605a",
"P  c gray72",
"I  c #5c5c5c",
"U  c gray74",
"Y  c gray75",
"T  c #5a5a53",
"R  c #575750",
"E  c #53534a",
"W  c #505048",
"Q  c #535353",
"!  c #525252",
"~  c gray76",
"^  c #4f4f4f",
"/  c #4c4c4c",
"(  c #4b4b4b",
")  c gray78",
"_  c #4c4c45",
"`  c #484848",
"'  c #424242",
"]  c #414141",
"[  c gray81",
"{  c #42423a",
"}  c #414139",
"|  c #3d3d35",
" . c #3d3d32",
".. c #2d2d22",
"X. c #2b2b21",
"o. c #26261c",
"O. c #28281a",
"+. c #252518",
"@. c #242416",
"#. c #222215",
"$. c #212114",
"%. c None",
/* pixels */
"%.%.%.%.%.%.%.%.%.%.%.%.%.%.%.%.%.%.%.%.",
"%.%.%.%.%.) D V l t 4 t f V D Y %.%.%.%.",
"%.%.%.` f 4 n C E | .. .W C n w t ) %.%.",
"%.%.) 3 C O.#.$.$.$.$.$.$.$.$.#.L 2 ) %.",
"%.%.D M $.$.$.$.$.$.$.$.$.$.$.$.$.C V %.",
"%.%.n C $.$.$.$.$.$.$.$.$.$.$.$.$.L k %.",
"%.%.) 2 X.$.$.$.$.$.$.$.$.$.$.$.O.4 ) %.",
"%.%.%.V 4 _ O.$.$.$.$.$.$.$.O.| 4 n %.%.",
"%.%.%.%.U t 2 4 l l } E l t 2 w U %.%.%.",
"%.%.%.%.%.%.%.) U 4 T 4 D U ` %.%.%.%.%.",
"%.%.[ $ $ %.%.%.; 2 t M %.%.%.%.%.%.%.%.",
"%.%.f   O %.%.D > > w ` %.%.%.%.%.%.%.%.",
"%.[ @   f %.D : t   @ [ %.%.%.%.%.%.%.%.",
"%.f   @ [ %.` ) ` O   f %.%.%.%.%.%.%.%.",
"[ @   f %.%.%.%.%.f   # [ %.%.%.%.%.%.%.",
"[ @   y %.%.%.%.%.f   # [ %.%.%.%.%.%.%.",
"%.k   O ` %.%.%.` O   k %.%.%.%.%.%.%.%.",
"%.[ @   f %.%.%.f   @ [ %.%.%.%.%.%.%.%.",
"%.%.k   @ %.%.%.O   k %.%.%.%.%.%.%.%.%.",
"%.%.[ & = %.%.%.= = [ %.%.%.%.%.%.%.%.%."
};
