/* XPM */
static char *tm_tuple[] = {
/* columns rows colors chars-per-pixel */
"20 20 70 1 ",
"  c gray25",
". c #e0e0e0",
"X c gray27",
"o c #dadada",
"O c #d8d8d8",
"+ c #d4d4d4",
"@ c gray30",
"# c #d1d1d1",
"$ c #cecece",
"% c gray32",
"& c gray33",
"* c gray34",
"= c gray35",
"- c #c1c1c1",
"; c #bfbfbf",
": c gray37",
"> c #bbbbbb",
", c #b9b9b9",
"< c #b3b3b3",
"1 c #b0b0b0",
"2 c gray42",
"3 c #a6a6a6",
"4 c #a4a4a4",
"5 c #a0a0a0",
"6 c gray47",
"7 c gray48",
"8 c #9c9c9c",
"9 c #9a9a9a",
"0 c #969696",
"q c gray51",
"w c gray52",
"e c #8c8c8c",
"r c #898989",
"t c #858585",
"y c gray56",
"u c #838383",
"i c gray57",
"p c gray58",
"a c gray59",
"s c #7b7b7b",
"d c #797979",
"f c gray60",
"g c #777777",
"h c #717171",
"j c #707070",
"k c #6e6e6e",
"l c #6b6b6b",
"z c #686868",
"x c gray67",
"c c gray68",
"v c gray69",
"b c gray70",
"n c #585858",
"m c gray71",
"M c #565656",
"N c #535353",
"B c gray74",
"V c gray",
"C c gray75",
"Z c #444444",
"A c #434343",
"S c gray78",
"D c #414141",
"F c gray79",
"G c #3d3d3d",
"H c gray80",
"J c #3b3b3b",
"K c #3a3a3a",
"L c gray81",
"P c None",
/* pixels */
"PPPPPPPPLPPLPPPPPPPP",
"PPPPPPPV=SK$VPPPPPPP",
"PPPPPPK=pPPp$KPPPPPP",
"PPPPPPe1PPPK,9PPPPPP",
"PPPPPM$VPPPPcOMPPPPP",
"PPPPP9,PPPPPP15PPPPP",
"PPPPP,9PPPPPP9=PPPPP",
"PPPPVOePPPPPPrXMPPPP",
"PPPPz zPPPPPPc dPPPP",
"PPPPrXVPPPPPPSOePPPP",
"PPPPrOSPPPPPPK$ePPPP",
"PPPPdXMPPPPPPVXrPPPP",
"PPPPM pPPPPPPdXzPPPP",
"PPPPK$ePPPPPPeOKPPPP",
"PPPPP55PPPPPP91PPPPP",
"PPPPPp$KPPPPK=rPPPPP",
"PPPPPK=pPPPPp=KPPPPP",
"PPPPPPM$SPPS$MPPPPPP",
"PPPPPPPr=LL=rPPPPPPP",
"PPPPPPPPdKKzPPPPPPPP"
};
