<?xml version="1.0" encoding="UTF-8"?>
<!-- Created with Inkscape (http://www.inkscape.org/) -->
<svg id="svg3039" width="20" height="20" version="1.1" xmlns="http://www.w3.org/2000/svg" xmlns:cc="http://creativecommons.org/ns#" xmlns:dc="http://purl.org/dc/elements/1.1/" xmlns:rdf="http://www.w3.org/1999/02/22-rdf-syntax-ns#">
 <metadata id="metadata3044">
  <rdf:RDF>
   <cc:Work rdf:about="">
    <dc:format>image/svg+xml</dc:format>
    <dc:type rdf:resource="http://purl.org/dc/dcmitype/StillImage"/>
    <dc:title/>
   </cc:Work>
  </rdf:RDF>
 </metadata>
 <g id="layer1" transform="translate(0,4)">
  <path id="text3315" d="m4.7552 10.476q0-0.70847 0.4065-1.0453 0.4065-0.33681 0.92914-0.33681 0.54587 0 0.92914 0.36004 0.39489 0.34843 0.39489 0.96399 0 0.66202-0.46457 1.0337-0.45296 0.37166-1.1034 0.27874 0.5691 0.95237 1.6144 1.3821 1.0569 0.42973 2.0325 0.42973 1.0221 0 1.8467-0.88269 0.83623-0.88269 0.83623-3.0429 0-1.8351-0.72009-2.892-0.70847-1.0569-2.1138-1.0569h-1.0453q-0.36004 0-0.46457-0.034843-0.10453-0.034843-0.10453-0.23229 0-0.23229 0.36004-0.27874 0.36004 0 0.92914-0.069686 1.3821-0.046457 2.1138-1.2427 0.66202-1.115 0.66202-2.7061 0-1.4518-0.69686-2.0557-0.68524-0.61556-1.5795-0.61556-0.83623 0-1.7538 0.34843-0.91753 0.34843-1.4169 1.1266 1.475 0 1.475 1.1963 0 0.52264-0.33681 0.87107-0.3252 0.33681-0.87107 0.33681-0.52264 0-0.87107-0.3252-0.34843-0.33681-0.34843-0.90592 0-1.3589 1.2079-2.2996 1.2195-0.94076 3.0081-0.94076 1.7654 0 3.0662 0.92914 1.3124 0.92914 1.3124 2.3577 0 1.4053-0.92914 2.5551-0.92914 1.1498-2.4042 1.626 1.8118 0.36004 2.892 1.5912 1.0801 1.2195 1.0801 2.7177 0 1.8583-1.4634 3.2288-1.4634 1.3589-3.6004 1.3589-1.9744 0-3.3914-1.0685-1.4169-1.0685-1.4169-2.6597z" fill="#bfbfbf" stroke="#bfbfbf" stroke-width=".5" aria-label="3"/>
 </g>
</svg>
