/* XPM */
static char * tm_table_special_xpm[] = {
"17 17 9 1",
" 	c None",
"=	c #00000000FFFF",
".	c #0000FFFFFFFF",
"o	c #000000000000",
"O	c #999999999999",
"r      c #FFFF00000000",
"y      c #FFFFFFFF0000",
"a      c #FFFF80000000",
"*      c #FFFFFFFFFFFF",
"          yay    ",
" ooooooayoyayooay",
" o   O  ayyay ay ",
" o   O   ayayayo ",
" oOOOOyyyyaaayyyy",
" o   Oaaaaaaaaaaa",
" o   Oyyyyaaayyyy",
" o   O  yayaya o ",
" oOOOOOyaOyayyao ",
" o   Oya  yay ya ",
" o   O    yay  y ",
" o   O    O    o ",
" oOOOOOOOOOOOOOo ",
" o   O    O    o ",
" o   O    O    o ",
" ooooooooooooooo ",
"                 "};
