<?xml version="1.0" encoding="UTF-8"?>
<!-- Created with Inkscape (http://www.inkscape.org/) -->
<svg id="svg3039" width="20" height="20" version="1.1" xmlns="http://www.w3.org/2000/svg" xmlns:cc="http://creativecommons.org/ns#" xmlns:dc="http://purl.org/dc/elements/1.1/" xmlns:rdf="http://www.w3.org/1999/02/22-rdf-syntax-ns#">
 <metadata id="metadata3044">
  <rdf:RDF>
   <cc:Work rdf:about="">
    <dc:format>image/svg+xml</dc:format>
    <dc:type rdf:resource="http://purl.org/dc/dcmitype/StillImage"/>
    <dc:title/>
   </cc:Work>
  </rdf:RDF>
 </metadata>
 <g id="layer1" transform="translate(0,4)">
  <path id="text3003" d="m3.7993 0.97149v-1.9069q0-0.65271 0.20477-0.85748 0.21757-0.21757 0.87027-0.21757h10.251q0.6527 0 0.84468 0.21757 0.20477 0.21757 0.20477 0.85748v1.9069q0 0.34555-0.0256 0.52472-0.0256 0.17917-0.25596 0.37115-0.21757 0.17917-0.63991 0.17917-0.60151 0-0.74229-0.26876-0.14078-0.28156-0.14078-0.80628v-1.3822h-3.4683v12.811h1.3694q0.31995 0 0.48633 0.0256t0.35835 0.23037q0.20477 0.19197 0.20477 0.56312 0 0.78068-1.0494 0.78068h-4.5433q-0.31995 0-0.48633-0.0256-0.16638-0.0256-0.35835-0.21757-0.19197-0.20477-0.19197-0.56312 0-0.78069 1.0366-0.79348h1.3694v-12.811h-3.4811v1.3822q0 0.34555-0.038394 0.52472-0.025597 0.17917-0.24317 0.37115-0.21757 0.17917-0.63991 0.17917-0.60151 0-0.75509-0.26876-0.14078-0.28156-0.14078-0.80628z" fill="#bfbfbf" stroke="#bfbfbf" stroke-width=".5" aria-label="T"/>
 </g>
</svg>
