/* XPM */
static char *tm_von[] = {
/* columns rows colors chars-per-pixel */
"20 20 79 1 ",
"  c gray25",
". c gray26",
"X c #e0e0e0",
"o c gray27",
"O c gray28",
"+ c #dadada",
"@ c gray29",
"# c #d8d8d8",
"$ c gray30",
"% c #d4d4d4",
"& c #d2d2d2",
"* c gray32",
"= c #cecece",
"- c #cccccc",
"; c #cacaca",
": c gray34",
"> c #c8c8c8",
", c gray35",
"< c #c4c4c4",
"1 c #c0c0c0",
"2 c #bebebe",
"3 c #bcbcbc",
"4 c #bababa",
"5 c #b8b8b8",
"6 c gray40",
"7 c #b6b6b6",
"8 c #b5b5b5",
"9 c DimGray",
"0 c gray42",
"q c #afafaf",
"w c #acacac",
"e c #aaaaaa",
"r c gray45",
"t c gray47",
"y c #a1a1a1",
"u c #9e9e9e",
"i c gray50",
"p c #959595",
"a c #939393",
"s c gray52",
"d c #919191",
"f c #8d8d8d",
"g c gray54",
"h c #8b8b8b",
"j c gray59",
"k c gray60",
"l c #797979",
"z c gray61",
"x c #757575",
"c c gray63",
"v c gray64",
"b c #6d6d6d",
"n c #6c6c6c",
"m c gray65",
"M c #676767",
"N c #666666",
"B c gray68",
"V c #606060",
"C c gray70",
"Z c #5a5a5a",
"A c gray71",
"S c #575757",
"D c #565656",
"F c #545454",
"G c #515151",
"H c #505050",
"J c gray74",
"K c gray75",
"L c #4b4b4b",
"P c gray76",
"I c #484848",
"U c #454545",
"Y c #424242",
"T c gray79",
"R c #3e3e3e",
"E c gray80",
"W c #3b3b3b",
"Q c gray81",
"! c None",
/* pixels */
"!!!!!!!!!!!!!!!!!!!!",
"!!!!!!!!!!!!!!!!!!!!",
"!!!!!!!!!!!!!!!!!!!!",
"!!!!!!!!!!!!!!!!!!!!",
"!!!!!!!!!!!!!!!!!!!!",
"!!!!!!!!!!!!!!!!!!!!",
"!!!!!!!!!!!!!!!!!!!!",
"9r!!f9v!z99z!!rrz2rR",
",+P!2 AM+  +M!,&&  i",
"9 jR&,Q2 ,, 9!, 29 2",
"f iz rR+&RJ++R, vP+,",
"J 2p pA ,!!, J,+JR&,",
"!,&9+Av 9!!9 M,+P!&&",
"!9 &,QP ,!R&+P2+P!&,",
"!f  9!Q& fp ,Q,+P!&&",
"!J+ f!!i    p!,&R!&,",
"!!&+A!!R2  2R!&+P!+&",
"!!JAQ!!!!MMQ!!JJQ!AJ",
"!!!!!!!!!!!!!!!!!!!!",
"!!!!!!!!!!!!!!!!!!!!"
};
