<?xml version="1.0" encoding="UTF-8"?>
<!-- Created with Inkscape (http://www.inkscape.org/) -->
<svg id="svg3039" width="20" height="20" version="1.1" xmlns="http://www.w3.org/2000/svg" xmlns:cc="http://creativecommons.org/ns#" xmlns:dc="http://purl.org/dc/elements/1.1/" xmlns:rdf="http://www.w3.org/1999/02/22-rdf-syntax-ns#">
 <metadata id="metadata3044">
  <rdf:RDF>
   <cc:Work rdf:about="">
    <dc:format>image/svg+xml</dc:format>
    <dc:type rdf:resource="http://purl.org/dc/dcmitype/StillImage"/>
    <dc:title/>
   </cc:Work>
  </rdf:RDF>
 </metadata>
 <g id="layer1" transform="translate(0,4)">
  <path id="text3030" d="m3.6676-1.2672q0-0.77195 1.063-0.77195h2.6449q1.063 0 1.063 0.77195 0 0.3923-0.21513 0.58213-0.20248 0.17717-0.44292 0.20248-0.22779 0.02531-0.79726 0.02531l2.5183 10.073q0.34168 1.3794 0.46823 2.3159h0.02531q0.15186-1.0124 0.99974-4.4672l1.9995-7.922q-0.56947 0-0.80992-0.02531-0.22779-0.02531-0.44292-0.20248-0.20248-0.18982-0.20248-0.58213 0-0.77195 1.063-0.77195h2.6449q1.063 0 1.063 0.77195 0 0.3923-0.20248 0.58213-0.20248 0.17717-0.45558 0.20248-0.24044 0.02531-0.80992 0.02531l-3.4295 13.503q-0.10124 0.46823-0.34168 0.67071-0.22779 0.20248-0.44292 0.24044-0.20248 0.03796-0.63275 0.03796-0.46823 0-0.68337-0.03796-0.20248-0.03796-0.41761-0.2531-0.20248-0.22779-0.32903-0.68337l-3.4168-13.478q-0.56947 0-0.82257-0.02531-0.24044-0.02531-0.45558-0.20248-0.20248-0.18982-0.20248-0.58213z" fill="#bfbfbf" stroke="#bfbfbf" stroke-opacity=".50196" stroke-width=".25" aria-label="V"/>
 </g>
</svg>
