/* XPM */
static char *edit_find___[] = {
/* columns rows colors chars-per-pixel */
"48 48 72 1 ",
"  c #1D2329",
". c #21262B",
"X c #272B2F",
"o c #282B2F",
"O c #242A31",
"+ c #2A2F33",
"@ c #2F353C",
"# c #32363A",
"$ c #393B3D",
"% c #383E44",
"& c #414244",
"* c #43494F",
"= c #494B4C",
"- c #454B50",
"; c #515253",
": c #51555B",
"> c #5A5B5D",
", c #5B5F64",
"< c #5E6063",
"1 c #646465",
"2 c #6C6C6C",
"3 c #6C7074",
"4 c #757575",
"5 c #7E7E7D",
"6 c #858585",
"7 c #888887",
"8 c #8B8B8B",
"9 c #949394",
"0 c #989797",
"q c #989897",
"w c #96979A",
"e c #969899",
"r c #9C9C9B",
"t c #A0A09F",
"y c #A4A4A3",
"u c #A8A7A7",
"i c #A8A8A7",
"p c #A6A6A8",
"a c #ABABAB",
"s c #AFAFB0",
"d c #B3B2B3",
"f c #B8B7B7",
"g c #BCBCBC",
"h c #C4C4C4",
"j c #C8C7C7",
"k c #C7C8C8",
"l c #CCCBCB",
"z c #D0CFCF",
"x c #CECED0",
"c c #D3D2D2",
"v c #D8D7D7",
"b c #D9D8D7",
"n c #D6D6DB",
"m c #D7D8DD",
"M c #DBDBDB",
"N c #E0DFDF",
"B c #DDDDE2",
"V c #DFE0E4",
"C c #E3E2E3",
"Z c #E8E7E7",
"A c #E8E8E7",
"S c #E6E6E9",
"D c #E7E8EA",
"F c #EBEBEC",
"G c #F0EFEF",
"H c #EEEEF1",
"J c #F3F3F4",
"K c #F8F7F7",
"L c #F7F7F8",
"P c #F7F8F9",
"I c #FBFBFB",
"U c None",
/* pixels */
"UUUUUUUUUUUUUUUUUUUUUUUUUUUUUUUUUUUUUUUUUUUUUUUU",
"UUUUUUUUUUUUUUUUUUUUUUUUUUUUUUUUUUUUUUUUUUUUUUUU",
"UUUUUUqFJJJJJJJJJJJJJJJJJJJJChsUUUUUUUUUUUUUUUUU",
"UUUUUUaIIIIIIIIIIIIIIIIIIIIIIFCkUUUUUUUUUUUUUUUU",
"UUUUUUaIIIIIIIIIIIIIIIIIIIIIIJNPlUUUUUUUUUUUUUUU",
"UUUUUUaIIIKIIIIIIIIIIIIIIIIIIKcJPhUUUUUUUUUUUUUU",
"UUUUUUaIKKPGFAFFFFFFFFFFFFFFFAkJPJhUUUUUUUUUUUUU",
"UUUUUUaIKPPCNVNNCCNNNNNNNNNNNFkFJJPhUUUUUUUUUUUU",
"UUUUUUaKKIJCBCNCNbvvNVCVNNNNAJcAJGJGfUUUUUUUUUUU",
"UUUUUUaJKKJCCCcd98888tgbVNNNAPxNJJGGFaUUUUUUUUUU",
"UUUUUUiJKJJCbp6qgvNNcf98gNNNNNhNJFFJJVtUUUUUUUUU",
"UUUUUUaJJKJb98cJPPPJJPJh8tNNNNhcAAAFFJN8UUUUUUUU",
"UUUUUUiJJKF9tFJIPPPPPPJJV9dGJJNhgdappgckUUUUUUUU",
"UUUUUUuJJJa9FJPIPPIKPPJJPN8hPJJFAcgpq0qguUUUUUUU",
"UUUUUUaJJb6bJLPLPPPPPPPJGGg8MNNNbchgdddgg5UUUUUU",
"UUUUUUuGJiuFFJJLJJPPJJJPJGA8dNMNbnckhhkcVuUUUUUU",
"UUUUUUuGF7xHHJJJJJJJPHPPHHHp9BnbbbbccbNZFuUUUUUU",
"UUUUUUuGB6BSSSJJGGJJHHHHPHPg6nbbbvCCCFFGGuUUUUUU",
"UUUUUUuZN6VHSSHJHHGGHHHHHHHk5bVVNNGGJGFFFuUUUUUU",
"UUUUUUuGN6VJHSSSHHHHHHHHFHHg8FGFGGAGFFFGFuUUUUUU",
"UUUUUUuFB6xHHSSSVAFFFFFDDSSu9ZCCZZAAFGFFFuUUUUUU",
"UUUUUUuZFruFSSSSVVVVVVSBBBB5abbbvNZZZAZZCuUUUUUU",
"UUUUUUyFFj5nVSVVSVVVVVVBVSg4kbvvvvvvvZZZCtUUUUUU",
"UUUUUUyCZS99BVVBBBBBBBBBBn5abcvccvvNZZZZZuUUUUUU",
"UUUUUUuCZZN50bBbnBnnBnBBcg9jcvcbCZCZCZZZCtUUUUUU",
"UUUUUUuCCCCz67xBBnBBnBBh996hCCCCCZZZCZZZCuUUUUUU",
"UUUUUUtCCZCCbr40fknnxfq9,&69cCCZCCCCNCCNCuUUUUUU",
"UUUUUUtNNCNvccg0666778yf< =78jcccccvNZNZNtUUUUUU",
"UUUUUUubNVNvzznzxhhhkcbzg: ;89kczcccvNCNNtUUUUUU",
"UUUUUUtCNNNzzzzzxxzxzzzzcf*.>8qzczzcbNNNNtUUUUUU",
"UUUUUUtbVNbnzzzzzzzzzzzzzcs%.17yvbvNNNNNNtUUUUUU",
"UUUUUUtNbNVzzzzxzxzxzzkzzzzp#o27avvvvbVbbtUUUUUU",
"UUUUUUtVbNbcxxxkzzzjzzzzzzjzw++47axzcbBbNrUUUUUU",
"UUUUUUqbbbbczzzzzzzzzzzzzzzzz8O#56sbbNNbNrUUUUUU",
"UUUUUUqbbbbbbbbNvvvvvvbbbbbbbb7O%58gbbbbbrUUUUUU",
"UUUUUUtvbbbbbcccvcvvzvvznbzbznx4 &79hbbvnrUUUUUU",
"UUUUUUtvbbbzjkzjjjkjjljljjzjjjjg, =79jbnvtUUUUUU",
"UUUUUUqbzbzjjkzjljzjjjljjjjjjzjzf: ;79zbvqUUUUUU",
"UUUUUUqcnzzzjjjjjjzkjllljjjjjjjjzg-O>70jcqUUUUUU",
"UUUUUUqcczzvzvzzvzzzzzzzccccczbzzbs%.19ycqUUUUUU",
"UUUUUUqzzzzzzzzzzzzzzzzzzzzzczzzzzzu#o26ftUUUUUU",
"UUUUUUqzzzzzzzzzzzzzzzzzzzzzzzzzzzzzq+o4g0UUUUUU",
"UUUUUU0zzzzzzzzzzzkzzzzlzzzzzzzkzkzzk9>uz0UUUUUU",
"UUUUUU0zzjzjjzjzllzzlllllllllllzzzzkzkjlz0UUUUUU",
"UUUUUU7kzzzzzzzjzzkzzzzzllllzzkzkzzzzzzzk8UUUUUU",
"UUUUUUU4555555555555555555555555555555554UUUUUUU",
"UUUUUUUUUUUUUUUUUUUUUUUUUUUUUUUUUUUUUUUUUUUUUUUU",
"UUUUUUUUUUUUUUUUUUUUUUUUUUUUUUUUUUUUUUUUUUUUUUUU"
};
