/* XPM */
static char *emblem_web[] = {
/* columns rows colors chars-per-pixel */
"48 48 256 2 ",
"   c #193A6B",
".  c #163561",
"X  c #1C3F73",
"o  c #1D4176",
"O  c #1F447B",
"+  c #21477D",
"@  c #577E7C",
"#  c #7D994E",
"$  c #74935A",
"%  c #7C995B",
"&  c #7A9751",
"*  c #5D8275",
"=  c #6C8D63",
"-  c #6C8D6A",
";  c #65886D",
":  c #6F906F",
">  c #759462",
",  c #7C9B64",
"<  c #74946B",
"1  c #799760",
"2  c #618673",
"3  c #688D7F",
"4  c #65897B",
"5  c #6F9172",
"6  c #729372",
"7  c #7C9C74",
"8  c #7B9B7D",
"9  c #9BAE2C",
"0  c #9EB129",
"q  c #9EB127",
"w  c #8DA53D",
"e  c #95AA34",
"r  c #98AD33",
"t  c #90A73A",
"y  c #93A93A",
"u  c #98AF3E",
"i  c #9EB339",
"p  c #9EB233",
"a  c #A2B52C",
"s  c #A6B92E",
"d  c #A9BC2F",
"f  c #A0B225",
"g  c #A2B633",
"h  c #A5B934",
"j  c #AABD32",
"k  c #A0B63D",
"l  c #A6B93B",
"z  c #AEC134",
"x  c #ADC13B",
"c  c #B1C436",
"v  c #B3C63A",
"b  c #B6C93A",
"n  c #BACD3C",
"m  c #BED13E",
"M  c #819D4C",
"N  c #819D55",
"B  c #829E59",
"V  c #87A044",
"C  c #8CA444",
"Z  c #87A04D",
"A  c #8AA34B",
"S  c #96AD42",
"D  c #95AD4B",
"F  c #98AF45",
"G  c #9EB441",
"H  c #8AA454",
"J  c #87A25C",
"K  c #8BA55B",
"L  c #85A055",
"P  c #93AB53",
"I  c #92AC5A",
"U  c #98AF52",
"Y  c #9CB454",
"T  c #9CB55A",
"R  c #A8BE40",
"E  c #A1B749",
"W  c #A4BA4D",
"Q  c #A5BA46",
"!  c #A5BD57",
"~  c #A7BF5C",
"^  c #819E68",
"/  c #8DA764",
"(  c #8AA66C",
")  c #84A061",
"_  c #90AA64",
"`  c #90AC6E",
"'  c #9AB463",
"]  c #88A575",
"[  c #89A67C",
"{  c #88A575",
"}  c #97B274",
"|  c #99B472",
" . c #93B07C",
".. c #A4BD68",
"X. c #A1BC79",
"o. c #ADC242",
"O. c #B0C544",
"+. c #BACE44",
"@. c #B1C648",
"#. c #B7CC4A",
"$. c #BACE4C",
"%. c #B4C846",
"&. c #BED141",
"*. c #ADC451",
"=. c #ACC35A",
"-. c #B8CE56",
";. c #BCD154",
":. c #AAC264",
">. c #ACC46B",
",. c #A7C061",
"<. c #A8C172",
"1. c #244B84",
"2. c #244D89",
"3. c #284F88",
"4. c #27518C",
"5. c #29528C",
"6. c #2E5690",
"7. c #2F5892",
"8. c #335B94",
"9. c #385F97",
"0. c #3F6D97",
"q. c #3C639A",
"w. c #3B6A9C",
"e. c #37679F",
"r. c #3465A4",
"t. c #3768A6",
"y. c #3A6AA6",
"u. c #3D6CA9",
"i. c #4D7687",
"p. c #49748D",
"a. c #4F7984",
"s. c #547D8C",
"d. c #41679C",
"f. c #44699E",
"g. c #447291",
"h. c #4F799C",
"j. c #49759C",
"k. c #456CA2",
"l. c #496EA1",
"z. c #406FAB",
"x. c #4472A5",
"c. c #4B72A5",
"v. c #4472AD",
"b. c #4B75AD",
"n. c #4E79AD",
"m. c #4F7BA6",
"M. c #5175A7",
"N. c #537DA4",
"B. c #5376A9",
"V. c #527AAC",
"C. c #5B7EAE",
"Z. c #4775B0",
"A. c #4977B1",
"S. c #4D7AB3",
"D. c #537DB3",
"F. c #5A7FB0",
"G. c #537FB8",
"H. c #5C8283",
"J. c #5D859B",
"K. c #61878A",
"L. c #6D918C",
"P. c #73968C",
"I. c #7D9D8C",
"U. c #618992",
"Y. c #6E9293",
"T. c #779A9A",
"R. c #799C9E",
"E. c #769996",
"W. c #5781AC",
"Q. c #5C85AB",
"!. c #5882A3",
"~. c #5681B4",
"^. c #5B82B4",
"/. c #5681B9",
"(. c #5A85BB",
"). c #5E88BE",
"_. c #688FAF",
"`. c #6B91A2",
"'. c #789CA4",
"]. c #7498AA",
"[. c #6385B4",
"{. c #668AB3",
"}. c #638ABC",
"|. c #6B8CB9",
" X c #6487B7",
".X c #6C91B4",
"XX c #6B92BB",
"oX c #7499B5",
"OX c #7290BC",
"+X c #7398BB",
"@X c #7A9EBC",
"#X c #779AB7",
"$X c #7EA1AD",
"%X c #7EA1B0",
"&X c #7FA3B9",
"*X c #648DC2",
"=X c #6B92C5",
"-X c #6E96C8",
";X c #7797C0",
":X c #7897C0",
">X c #7D9BC4",
",X c #7197C9",
"<X c #749ACB",
"1X c #799FCD",
"2X c #7399C3",
"3X c #7A9FD0",
"4X c #7CA1CE",
"5X c #7DA2D1",
"6X c #809E86",
"7X c #809E96",
"8X c #85A484",
"9X c #84A48C",
"0X c #8EAB8D",
"qX c #8BA886",
"wX c #91AE86",
"eX c #97B382",
"rX c #99B788",
"tX c #93B089",
"yX c #8BAA94",
"uX c #81A19C",
"iX c #8AAA9F",
"pX c #86A696",
"aX c #90AF95",
"sX c #94B39A",
"dX c #A0BC87",
"fX c #809EA6",
"gX c #809FB7",
"hX c #8DACA4",
"jX c #8CABAB",
"kX c #82A4A5",
"lX c #90AFA4",
"zX c #94B2AA",
"xX c #94B3A6",
"cX c #8BABB4",
"vX c #84A4BA",
"bX c #8CACB9",
"nX c #85A7B8",
"mX c #94B0B4",
"MX c #829FC4",
"NX c #82A2C5",
"BX c #8BABC3",
"VX c #85A2C9",
"CX c #8AA5CB",
"ZX c #8EA9CD",
"AX c #87A7C7",
"SX c #91ACCE",
"DX c #9AB5C7",
"FX c #81A5D3",
"GX c #85A9D5",
"HX c #8BABD2",
"JX c #89ACD9",
"KX c #87ABD8",
"LX c #95AFD3",
"PX c #96B2D5",
"IX c #99B3D5",
"UX c None",
/* pixels */
"UXUXUXUXUXUXUXUXUXUXUXUXUXUXUXUXUXUXUXUXUXUXUXUXUXUXUXUXUXUXUXUXUXUXUXUXUXUXUXUXUXUXUXUXUXUXUXUX",
"UXUXUXUXUXUXUXUXUXUXUXUXUXUXUXUXUXUXUXUXUXUXUXUXUXUXUXUXUXUXUXUXUXUXUXUXUXUXUXUXUXUXUXUXUXUXUXUX",
"UXUXUXUXUXUXUXUXUXUXUXUXUXUXUXUXUXUXUXUXUXUXUXUXUXUXUXUXUXUXUXUXUXUXUXUXUXUXUXUXUXUXUXUXUXUXUXUX",
"UXUXUXUXUXUXUXUXUXUXUXUXUXUXUXUXUXUX2.6.9.f.l.l.l.f.q.7.2.UXUXUXUXUXUXUXUXUXUXUXUXUXUXUXUXUXUXUX",
"UXUXUXUXUXUXUXUXUXUXUXUXUXUXUX1.8.l.[.MXCXLXIXIXPXPXHXMXOXB.9.2.UXUXUXUXUXUXUXUXUXUXUXUXUXUXUXUX",
"UXUXUXUXUXUXUXUXUXUXUXUXUXUX8.[.VXIXDXDXBXcXzXxXbXCXHXLXIXIXCX[.q.1.UXUXUXUXUXUXUXUXUXUXUXUXUXUX",
"UXUXUXUXUXUXUXUXUXUXUXUX6.B.BXIXmXyX_ P I E O.#.=.hX<X<X<X1XZXIXZX[.8.UXUXUXUXUXUXUXUXUXUXUXUXUX",
"UXUXUXUXUXUXUXUXUXUXUXq.OXIXBX[ P / [ S a j b m #.hX3X1X<X,X-X,XFXPXMXl.2.UXUXUXUXUXUXUXUXUXUXUX",
"UXUXUXUXUXUXUXUXUX1.f.MXSX&XE.H { / 8X9Xi z n $.:.kX5X4X<X<X$XR.'.@XHXZXM.2.UXUXUXUXUXUXUXUXUXUX",
"UXUXUXUXUXUXUXUXUXl.VXZX0X{ I.I.$X%X$XqXp G dXzXjXcXVX4X4XhX=.*.W [ R.bXSXB.2.UXUXUXUXUXUXUXUXUX",
"UXUXUXUXUXUXUXUXd.VXBX] Y 8X+X+X-X4X4X9XU lXHXJXKXGXcX4XlX=.,.| o.Y Y ( NXCXc.2.UXUXUXUXUXUXUXUX",
"UXUXUXUXUXUXUX8.:XBX] I T.XX9X} $X<X4X4XcXGXJXJXHXcX0XiXsX:. .wXo.z j h ] gXMXq.UXUXUXUXUXUXUXUX",
"UXUXUXUXUXUX5.[.ZX[ k U T.'.! v | &X4X5XGXGXJXJXHXcX0XqXjXrXeX=.v z z d p I.NXOX6.UXUXUXUXUXUXUX",
"UXUXUXUXUXUXf.CXR.S s j E Y v O.=.aX4X5X5XKXJXKXKXGXBXlX>.+.O.v c z j d a S T.VXV.2.UXUXUXUXUXUX",
"UXUXUXUXUX5.|.vXK a s j z z o.| kX$X4X4X5XGXKXJXGX5XBX>.m m n b c c j d s a J #X:X8.UXUXUXUXUXUX",
"UXUXUXUXUXf.CX6Xr a s j z z T yX2X-X<X4X5X5X5X5X5XBXdX-.:.<.*.O.c z z s s a r P.>XM.UXUXUXUXUXUX",
"UXUXUXUX2.[.vXH q s d d R ` ].=X-X,X<X4X4X4X5X5X5XjX;.<.&X&X0X} ' o.z h a 0 0 L +X|.6.UXUXUXUXUX",
"UXUXUXUX8.+X7Xy q 0 p d _ .X*X=X=X-X,X,X<X4X4X4X4X&XdXrXaXpXoXoX].I.I h j a 0 t Y.2Xq.UXUXUXUXUX",
"UXUXUXUXf.MX^ 0 q 0 z I `.).*X*X=X=X-X,X<X<X<X4X<X&X>.#.+.@. .I.I.T.( h a 0 0 0 6 :Xc.UXUXUXUXUX",
"UXUXUXUXM.gXA 9 S , % Y.(.).).*X*X=X-X-X-X-X-X,X&XX.&.m m n O.v x R G h a i C r % OXF.2.UXUXUXUX",
"UXUXUX2.^.$Xt N J.W.W.W./.(.).).}.*X=X=X=X-X-X-XtX#.m m b n c c z d P / a y < < < {. X5.UXUXUXUX",
"UXUXUX5. XI.e < W.!././././.).).}.*X*X*X=X*X*X+X,.n m b n v c c z j i 7 S 0 e % h.^. X6.UXUXUXUX",
"UXUXUX5.{.].C # % K.u.~././.(.(.).).*X*X*X*X*X].*.n n b b v c c z j s K , p r < x.D.{.8.UXUXUXUX",
"UXUXUX5.Q.(.H.% w & !./.W.~./.(.(.).).).).*X*XR.O.n b n v c c z z j s i < A : c.u.D. X8.UXUXUXUX",
"UXUXUX5.^.(.u.x.J.= 4 U.) 7 Y.W././.(./.(.).)._.T b v c c z z z j s s g C A H.v.u.S.[.6.UXUXUXUX",
"UXUXUX2.C.[.u.u.u.!.4 # g h i 8 ~././.~.(.(.(./.E.W x o.o.x z z j s a f 0 e H.u.u.S.^.4.UXUXUXUX",
"UXUXUX2.M. Xy.y.u.u.!.# 0 z s i 7 W./././././././.P.8 P.L.( g d s s a a 0 M j.u.y.D.C.2.UXUXUXUX",
"UXUXUXUXf.|.u.y.u.u.* y s 0 0 z k 7 !.~./././././.~./.~./.L.i d s g 0 f w H.u.u.y.^.l.2.UXUXUXUX",
"UXUXUXUX8. XA.t.t.t.; 0 0 0 0 d d h D 8 W./.~.Z./././.u.Z.J.F d a f 0 0 $ y.y.r.u.[.q.UXUXUXUXUX",
"UXUXUXUX4.W.F.t.r.t.; p q 0 s p d g d G U./.u./.u.u.~.~.u.W.H 0 g f 0 r 4 t.t.r.b.^.6.UXUXUXUXUX",
"UXUXUXUXUXk.}.u.r.r.H.# q q q s a s s % !.u./.u.u./.~.u.u.W., 0 f 0 q 9 * t.t.t.D.c.2.UXUXUXUXUX",
"UXUXUXUXUX5.^.D.r.r.r.* t 0 q q a a g < u.u.u./.u.u.Z.u.u.u.1 s 9 9 q 9 2 r.t.v.^.8.UXUXUXUXUXUX",
"UXUXUXUXUX1.k. Xu.r.r.r.* e q 9 9 f 0 4 z.u.z.z.z.u.u.u.u.k.N q 0 0 9 # p.r.t.F.c.2.UXUXUXUXUXUX",
"UXUXUXUXUXUX5.C.D.t.r.r.0.M q q q 9 M s.u.u.t.u.u.u.u.u.u.w.$ q 0 q w i.r.t.b.D.7.UXUXUXUXUXUXUX",
"UXUXUXUXUXUXUX9.[.A.t.r.0.& q 9 9 # g.r.t.t.t.t.t.t.t.t.r.r.@ e q q # g.r.z.^.q.1.UXUXUXUXUXUXUX",
"UXUXUXUXUXUXUX+ d. Xv.r.e.$ 9 q 9 = e.r.r.r.r.r.r.r.r.r.r.r.p.w q e ; r.u.^.c.1.UXUXUXUXUXUXUXUX",
"UXUXUXUXUXUXUXUX+ k. Xv.e.$ q q M @ r.r.r.r.r.r.r.r.r.r.r.r.0.& w $ 0.u.D.c.2.UXUXUXUXUXUXUXUXUX",
"UXUXUXUXUXUXUXUXUX1.k.^.B.- e V a.r.r.r.r.r.r.r.r.r.r.r.r.r.e.i.p.w.v.F.l.3.UXUXUXUXUXUXUXUXUXUX",
"UXUXUXUXUXUXUXUXUXUX+ d.F.!.4 @ r.r.r.r.r.r.r.r.r.r.r.r.r.r.r.r.t.b.D.f.1.UXUXUXUXUXUXUXUXUXUXUX",
"UXUXUXUXUXUXUXUXUXUXUXX 8.b.^.b.y.r.r.r.r.r.r.r.r.r.r.r.r.r.r.v.D.b.8.+ UXUXUXUXUXUXUXUXUXUXUXUX",
"UXUXUXUXUXUXUXUXUXUXUXUX. 1.q.B.^.D.v.u.y.t.t.t.t.t.t.u.z.S.D.B.q.3.  UXUXUXUXUXUXUXUXUXUXUXUXUX",
"UXUXUXUXUXUXUXUXUXUXUXUXUXUX  1.8.k.V.D.V.D.S.S.A.n.D.V.V.k.9.5.o UXUXUXUXUXUXUXUXUXUXUXUXUXUXUX",
"UXUXUXUXUXUXUXUXUXUXUXUXUXUXUXUXUXO 1.8.9.q.k.k.k.q.q.8.3.+   UXUXUXUXUXUXUXUXUXUXUXUXUXUXUXUXUX",
"UXUXUXUXUXUXUXUXUXUXUXUXUXUXUXUXUXUXUXUXUXX o o o X   UXUXUXUXUXUXUXUXUXUXUXUXUXUXUXUXUXUXUXUXUX",
"UXUXUXUXUXUXUXUXUXUXUXUXUXUXUXUXUXUXUXUXUXUXUXUXUXUXUXUXUXUXUXUXUXUXUXUXUXUXUXUXUXUXUXUXUXUXUXUX",
"UXUXUXUXUXUXUXUXUXUXUXUXUXUXUXUXUXUXUXUXUXUXUXUXUXUXUXUXUXUXUXUXUXUXUXUXUXUXUXUXUXUXUXUXUXUXUXUX",
"UXUXUXUXUXUXUXUXUXUXUXUXUXUXUXUXUXUXUXUXUXUXUXUXUXUXUXUXUXUXUXUXUXUXUXUXUXUXUXUXUXUXUXUXUXUXUXUX",
"UXUXUXUXUXUXUXUXUXUXUXUXUXUXUXUXUXUXUXUXUXUXUXUXUXUXUXUXUXUXUXUXUXUXUXUXUXUXUXUXUXUXUXUXUXUXUXUX"
};
