/* XPM */
static char *edit_redo[] = {
/* columns rows colors chars-per-pixel */
"48 48 82 1 ",
"  c #3E6E0C",
". c #42750D",
"X c #44780E",
"o c #467A11",
"O c #4A7C14",
"+ c #4E7E18",
"@ c #4E8019",
"# c #52831D",
"$ c #568621",
"% c #598722",
"& c #5A8925",
"* c #5E8C29",
"= c #618F2C",
"- c #63902E",
"; c #799F2E",
": c #669231",
"> c #6B9535",
", c #6C9738",
"< c #6F9A3C",
"1 c #709836",
"2 c #729B3D",
"3 c #799F3D",
"4 c #7DA333",
"5 c #759E41",
"6 c #7AA145",
"7 c #7DA44A",
"8 c #81A736",
"9 c #81A836",
"0 c #82A53B",
"q c #85AB3B",
"w c #89AF3E",
"e c #8AB03F",
"r c #80A443",
"t c #86A843",
"y c #8AAC45",
"u c #82A74C",
"i c #8AAB4C",
"p c #8DB343",
"a c #8FB348",
"s c #91B646",
"d c #92B847",
"f c #92B64B",
"g c #95BA4A",
"h c #99BE4E",
"j c #85AA52",
"k c #8BAD54",
"l c #8DAF59",
"z c #8EB15B",
"x c #93B453",
"c c #9ABD54",
"v c #91B45E",
"b c #9DBD5D",
"n c #95B661",
"m c #98B764",
"M c #97B964",
"N c #9CBB64",
"B c #9EBD6A",
"V c #A1BF65",
"C c #A0BE6B",
"Z c #9AC04F",
"A c #9DC252",
"S c #9DC059",
"D c #A0C556",
"F c #A2C55D",
"G c #A5C85D",
"H c #A3C363",
"J c #A7CB61",
"K c #A9CB63",
"L c #A4C26C",
"P c #ACCB6C",
"I c #AFD06C",
"U c #A7C571",
"Y c #A9C672",
"T c #ACCA74",
"R c #ADCB79",
"E c #B0CE73",
"W c #B1CE7B",
"Q c #B2D077",
"! c #B3D07A",
"~ c #B8D67C",
"^ c #B5D184",
"/ c None",
/* pixels */
"////////////////////////////////////////////////",
"////////////////////////////////////////////////",
"////////////////////////////////////////////////",
"////////////////////////////////////////////////",
"//////////////////////////X/////////////////////",
"//////////////////////////O#////////////////////",
"//////////////////////////*n>///////////////////",
"//////////////////////////:^Y<o/////////////////",
"//////////////////////////-W~R6O////////////////",
"//////////////////////////-RKIW7#///////////////",
"//////////////////////////-RKGK!j#//////////////",
"//////////////////////////=RJADK!z&/////////////",
"//////////////////////@@$$<!JDDAGQM*////////////",
"///////////////////@*6jnBCTIADADAGQB:///////////",
"/////////////////#<vUTIPKJGAAAAAAASPU,o/////////",
"///////////////O>nRIGSZAAAAAAAAAAAAcPU5O////////",
"//////////////$uYPSZZhZhZhhZZZZZZZhhAKY7+///////",
"/////////////&lEGAhhhZhhhhhhhhhhhhhhhhFYj#//////",
"////////////&vEcghhhghhhhhhhhhhhhhhhhhgKR2X/////",
"///////////@zYcgghgghgggggghggggggghggAYz&//////",
"//////////o6YcgggggggggggggggggddggggcYj$///////",
"//////////-LFdgsdgdgpgddsgpgdggdgdddSUj#////////",
"/////////@jLsssssdddgsghhhggdgpgdssSU7#/////////",
"/////////=LcsssspssgbHLLLBUbgpspssbL6O//////////",
"/////////5LssssssgNLmj5>**5CgpppsbC2o///////////",
"////////+lHpeyesgLv2$o////*LxpppbB<o////////////",
"////////#NceewefCj$///////*BfesNN:o/////////////",
"////////*NfeessVu#////////*BfpVn-///////////////",
"////////=Nsewwxm*/////////*BxVv*////////////////",
"////////*Nyqqqbuo/////////*CLl&/////////////////",
"////////#vf0qwb2//////////*Bk$//////////////////",
"////////@jx0qqb2//////////$5#///////////////////",
"////////X5xq0qx7o/////////oo////////////////////",
"/////////*ky99yx%/////////X/////////////////////",
"/////////O6x889x3o//////////////////////////////",
"//////////%ky84yl=X/////////////////////////////",
"//////////X:kt48tk=.////////////////////////////",
"///////////o1i0;8ti-O///////////////////////////",
"////////////o1iq8;ti1o//////////////////////////",
"/////////////o-ut;;0i&//////////////////////////",
"//////////////.%3t00u=//////////////////////////",
"////////////////O=3r1o//////////////////////////",
"/////////////////.O+.///////////////////////////",
"////////////////////////////////////////////////",
"////////////////////////////////////////////////",
"////////////////////////////////////////////////",
"////////////////////////////////////////////////",
"////////////////////////////////////////////////"
};
