/* XPM */
static char *view_refresh[] = {
/* columns rows colors chars-per-pixel */
"48 48 83 1 ",
"  c #17345F",
". c #173662",
"X c #183765",
"o c #183867",
"O c #1A3B6C",
"+ c #1C3E71",
"@ c #1C4074",
"# c #1E447A",
"$ c #20467D",
"% c #1E4886",
"& c #224A84",
"* c #244D89",
"= c #27508C",
"- c #29538E",
"; c #2C5691",
": c #2F5893",
"> c #2F5C9A",
", c #335C95",
"< c #325E9A",
"1 c #386097",
"2 c #33619E",
"3 c #3A639B",
"4 c #3465A4",
"5 c #3967A1",
"6 c #3768A6",
"7 c #3A69A6",
"8 c #3C6CA9",
"9 c #3F70AC",
"0 c #40679D",
"q c #42699F",
"w c #426CA4",
"e c #486EA2",
"r c #416FA9",
"t c #4A71A5",
"y c #4372AC",
"u c #4A74AB",
"i c #4F78AD",
"p c #5177A9",
"a c #547AAD",
"s c #597EAE",
"d c #4676B1",
"f c #4977B1",
"g c #4C7CB5",
"h c #507EB5",
"j c #507FB8",
"k c #5380B7",
"l c #5C83B4",
"z c #5483BA",
"x c #5986BB",
"c c #5B89BE",
"v c #6086B6",
"b c #6589B7",
"n c #6087B8",
"m c #638ABB",
"M c #6A8EBC",
"N c #6C91BE",
"B c #5E8CC1",
"V c #618EC2",
"C c #6492C5",
"Z c #6B95C5",
"A c #6795C8",
"S c #6996C8",
"D c #6C99CA",
"F c #7196C2",
"G c #769AC4",
"H c #799CC5",
"J c #729CCA",
"K c #7B9EC8",
"L c #7FA0C7",
"P c #76A0CF",
"I c #7DA2CD",
"U c #7BA4D1",
"Y c #7FA8D3",
"T c #83A5CC",
"R c #88A8CE",
"E c #81A7D1",
"W c #82A9D3",
"Q c #8AADD4",
"! c #8EB1D6",
"~ c #8DB1D8",
"^ c #91B1D6",
"/ c #92B3D8",
"( c None",
/* pixels */
"((((((((((((((((((((((((((((((((((((((((((((((((",
"((((((((((((((((((((((((((((((((((((((((((((((((",
"((((((((((((((((((((((((((((((((((((((((((((((((",
"((((((((((((((((((((=,,331,:=(((((((((((((((((((",
"(((((((((((((((((:qsNTTRRTTGbp3-((((((((((((((((",
"(((((((((((((((,pHQ//QWWWEEQ/^RMe-((((((((&(((((",
"(((((((((((((;pT^~YPJDDDSDSSSJIQRNq*((((*,=(((((",
"((((((((((((3N/~IJDDSSDSSSACACCZJWTp-((*eM,(((((",
"(((((((((((wL!YDDDDSSSSSAACCCVVVBCURl;-pTT,(((((",
"((((((((((eT~PSDDSSSSSCCCCCCCCVVBBBJTbvTTT,(((((",
"(((((((((qTQJSSSSSAAACCCCCCCVBBBBBzBSRTZZG,(((((",
"((((((((,HWJSSSAAACCCCCVVBcBBBBBzBBBcCVxZN,(((((",
"(((((((-bQJAAAAACCCCCCSDDZZCBcccBxxBzzzzMG,(((((",
"(((((((tRPSAACCCCCVCHIIHHHHIJScxxxzzzzzzVN,(((((",
"((((((,NESACCCCCVCJIGlq311qubLJmzzzzzzzjmN,(((((",
"((((((eTDCCCCVBBVJHs,*((((((-3bPVzzzjjjhcM,(((((",
"(((((=bIABCBVVBBDHt=(((((((((%<FJzzjjhggcM,(((((",
"(((((3HJVCBBBBBSGt*((((((((((*tFmhggggggxM,(((((",
"(((((tICBBBBBBVGs-((((((((((*wNmhggggfffkm;(((((",
"((((*lPCBBBcccCN,(((((((((((3MFcxxxzxzxkmv,(((((",
"((((-mDcBBxcccSs-((((((((((-pMmmmmvvvmllva;(((((",
"((((:NZcccBzxcZq((((((((((**;:,;;,;,;;,,;;*(((((",
"((((,NCzzBzzzcN3((((((((((((((((((((((((((((((((",
"((((,CBBzzzzzcm,((((((((((((((((((((((((((((((((",
"((((,mVzzzkzkzm,((((((((((((((((((((((((((((((((",
"((((:mmzzkkkjzm3((((((((((((((((((((((((((((((((",
"((((-lBzkjjjjjce*(((((((((((((((((((((((((((((((",
"((((*imhkgggdjzh-(((((((((((((((((((((((((((((((",
"(((((wmkggggffhx3&((((((((((((((((((((((((((((((",
"(((((<xzggfdfffkh,(((((((((((((3u(((((((((((((((",
"(((((-izgdddddddhu;&(((((((((=3y824(((((((((((((",
"(((((*3kgdddydyyyhu<*#(((((&,5u742224(((((((((((",
"((((((;ugdyd9d899ddfw3:==;<5yy64422<222(((((((((",
"((((((&3hdyy99998889ydyrwwrr84444<242222<(((((((",
"(((((((=wfyy9988888888886644444444423253=(((((((",
"((((((((;yyy888886664444444444444444467-((((((((",
"((((((((@:ry8868666444444444444444447w,$((((((((",
"(((((((((@,7r8664664444444444444446rr<$(((((((((",
"((((((((((@;6864444444444444444444yu,$((((((((((",
"(((((((((((o*<6644444444444444468r5-+(((((((((((",
"(((((((((((((#;2464444444444488r7,& ((((((((((((",
"((((((((((((((X&->4444444466663:&O((((((((((((((",
"((((((((((((((((.#&-:>><2<<>;*#o((((((((((((((((",
"((((((((((((((((((( +@%&&%#@X(((((((((((((((((((",
"((((((((((((((((((((((((((((((((((((((((((((((((",
"((((((((((((((((((((((((((((((((((((((((((((((((",
"((((((((((((((((((((((((((((((((((((((((((((((((",
"(((((((((((((((((((((((((((((((((((((((((((((((("
};
