/* XPM */
static char *edit_undo[] = {
/* columns rows colors chars-per-pixel */
"48 48 102 2 ",
"   c #B49302",
".  c #BA9904",
"X  c #C19E05",
"o  c #C5A204",
"O  c #C6A40A",
"+  c #C8A60D",
"@  c #C8A80F",
"#  c #CAAA15",
"$  c #CDAE1C",
"%  c #CFB01B",
"&  c #CEAF22",
"*  c #CFB023",
"=  c #D1B325",
"-  c #D6B925",
";  c #D2B52C",
":  c #D6BB2B",
">  c #D8BD2C",
",  c #D5BA35",
"<  c #D7BC3D",
"1  c #D8BE3D",
"2  c #EDD402",
"3  c #EFD70B",
"4  c #EFD80E",
"5  c #EFD711",
"6  c #EFD814",
"7  c #EFD91A",
"8  c #F1D914",
"9  c #F2DB1B",
"0  c #DBC231",
"q  c #DCC43E",
"w  c #EFDA21",
"e  c #F3DC23",
"r  c #F4DF2A",
"t  c #E0C730",
"y  c #E3CC36",
"u  c #EAD43A",
"i  c #EFDA3C",
"p  c #F1DE32",
"a  c #F2DE3C",
"s  c #F6E02F",
"d  c #F6E133",
"f  c #F6E23B",
"g  c #F9E43E",
"h  c #D8BF43",
"j  c #DBC244",
"k  c #DCC44C",
"l  c #DFC854",
"z  c #E0C841",
"x  c #E2CC4C",
"c  c #EAD541",
"v  c #EEDB44",
"b  c #EAD64D",
"n  c #ECD94C",
"m  c #F1DF45",
"M  c #F1DF49",
"N  c #E1CB54",
"B  c #E2CD5B",
"V  c #E5D053",
"C  c #EDDA54",
"Z  c #E4D15E",
"A  c #EAD85E",
"S  c #F4E143",
"D  c #F9E544",
"F  c #F4E24C",
"G  c #F9E74E",
"H  c #F3E254",
"J  c #F8E753",
"K  c #FAE856",
"L  c #F5E458",
"P  c #FAE95A",
"I  c #E3CF64",
"U  c #E6D263",
"Y  c #E8D562",
"T  c #EEDD65",
"R  c #E7D46B",
"E  c #E9D66C",
"W  c #EDDC6C",
"Q  c #E7D571",
"!  c #EDDC75",
"~  c #EEDF7C",
"^  c #F4E564",
"/  c #FAE962",
"(  c #F4E56B",
")  c #F9EA6B",
"_  c #EFE073",
"`  c #F2E374",
"'  c #F6E874",
"]  c #F9EA73",
"[  c #F5E779",
"{  c #F7E97E",
"}  c #FAEC7F",
"|  c #F3E582",
" . c #F6E882",
".. c #F9EB86",
"X. c #F5E78B",
"o. c #F6E98C",
"O. c #F8EB8B",
"+. c #FDF187",
"@. c #F3E693",
"#. c #F6EA90",
"$. c #F5E99A",
"%. c None",
/* pixels */
"%.%.%.%.%.%.%.%.%.%.%.%.%.%.%.%.%.%.%.%.%.%.%.%.%.%.%.%.%.%.%.%.%.%.%.%.%.%.%.%.%.%.%.%.%.%.%.%.",
"%.%.%.%.%.%.%.%.%.%.%.%.%.%.%.%.%.%.%.%.%.%.%.%.%.%.%.%.%.%.%.%.%.%.%.%.%.%.%.%.%.%.%.%.%.%.%.%.",
"%.%.%.%.%.%.%.%.%.%.%.%.%.%.%.%.%.%.%.%.%.%.%.%.%.%.%.%.%.%.%.%.%.%.%.%.%.%.%.%.%.%.%.%.%.%.%.%.",
"%.%.%.%.%.%.%.%.%.%.%.%.%.%.%.%.%.%.%.%.%.%.%.%.%.%.%.%.%.%.%.%.%.%.%.%.%.%.%.%.%.%.%.%.%.%.%.%.",
"%.%.%.%.%.%.%.%.%.%.%.%.%.%.%.%.%.%.%.X %.%.%.%.%.%.%.%.%.%.%.%.%.%.%.%.%.%.%.%.%.%.%.%.%.%.%.%.",
"%.%.%.%.%.%.%.%.%.%.%.%.%.%.%.%.%.%.$ + %.%.%.%.%.%.%.%.%.%.%.%.%.%.%.%.%.%.%.%.%.%.%.%.%.%.%.%.",
"%.%.%.%.%.%.%.%.%.%.%.%.%.%.%.%.O < Q ; %.%.%.%.%.%.%.%.%.%.%.%.%.%.%.%.%.%.%.%.%.%.%.%.%.%.%.%.",
"%.%.%.%.%.%.%.%.%.%.%.%.%.%.%.O h @.$.; %.%.%.%.%.%.%.%.%.%.%.%.%.%.%.%.%.%.%.%.%.%.%.%.%.%.%.%.",
"%.%.%.%.%.%.%.%.%.%.%.%.%.%.@ k o.+.@.; %.%.%.%.%.%.%.%.%.%.%.%.%.%.%.%.%.%.%.%.%.%.%.%.%.%.%.%.",
"%.%.%.%.%.%.%.%.%.%.%.%.%.# B #.) P X.; %.%.%.%.%.%.%.%.%.%.%.%.%.%.%.%.%.%.%.%.%.%.%.%.%.%.%.%.",
"%.%.%.%.%.%.%.%.%.%.%.%.$ U O./ D P X.; %.%.%.%.%.%.%.%.%.%.%.%.%.%.%.%.%.%.%.%.%.%.%.%.%.%.%.%.",
"%.%.%.%.%.%.%.%.%.%.%.& E ..K g D P | ; %.%.%.%.%.%.%.%.%.%.%.%.%.%.%.%.%.%.%.%.%.%.%.%.%.%.%.%.",
"%.%.%.%.%.%.%.%.%.%.; !  .G g g g G o.h & $ # O %.%.%.%.%.%.%.%.%.%.%.%.%.%.%.%.%.%.%.%.%.%.%.%.",
"%.%.%.%.%.%.%.%.o , ~ ] D f g g g g ] | ~ ! Q B j ; # %.%.%.%.%.%.%.%.%.%.%.%.%.%.%.%.%.%.%.%.%.",
"%.%.%.%.%.%.%.O h | ) g d g d g f d g J J P / ] { | E 1 # %.%.%.%.%.%.%.%.%.%.%.%.%.%.%.%.%.%.%.",
"%.%.%.%.%.%.+ k | / a d d d d d d d d d d d d d f G )  .E , + %.%.%.%.%.%.%.%.%.%.%.%.%.%.%.%.%.",
"%.%.%.%.%.# l  .G s s s s s s s s s s s s s s s s s s g / { l # %.%.%.%.%.%.%.%.%.%.%.%.%.%.%.%.",
"%.%.%.%.$ B { F s s s s s s e s s s s r s s s s e s s s d G { U $ %.%.%.%.%.%.%.%.%.%.%.%.%.%.%.",
"%.%.%.o j #.G e s e s 9 s s s s s s e s s 9 s s s s s 9 r e g ' U $ %.%.%.%.%.%.%.%.%.%.%.%.%.%.",
"%.%.%.%.& R ' f e e s e 9 9 e e 9 e e e s e 9 e 9 9 9 s e e e f ' Z # %.%.%.%.%.%.%.%.%.%.%.%.%.",
"%.%.%.%.%.$ U ' d e 9 e e e e e 9 9 e e e 9 e e e e 9 e e e e 9 d [ j O %.%.%.%.%.%.%.%.%.%.%.%.",
"%.%.%.%.%.%.# B ' g 9 9 9 9 9 9 9 9 9 9 9 9 9 9 9 9 9 9 9 9 e 9 9 F ` ; %.%.%.%.%.%.%.%.%.%.%.%.",
"%.%.%.%.%.%.%.# l ` S 9 9 9 9 9 9 9 9 r s r e 9 9 9 9 9 9 9 9 9 8 e ^ B + %.%.%.%.%.%.%.%.%.%.%.",
"%.%.%.%.%.%.%.%.# k ` g 8 8 8 8 9 9 J ` ` ` ` ( L g e 8 8 8 8 8 8 8 a ` = %.%.%.%.%.%.%.%.%.%.%.",
"%.%.%.%.%.%.%.%.%.+ j ` S 6 4 6 6 r ` h ; ; , j B E ( F 9 6 6 8 8 8 8 ( j %.%.%.%.%.%.%.%.%.%.%.",
"%.%.%.%.%.%.%.%.%.%.+ < ! S 6 3 3 e W * %.%.%.%.+ % j E ^ e 4 3 4 6 4 F Z + %.%.%.%.%.%.%.%.%.%.",
"%.%.%.%.%.%.%.%.%.%.%.O < ! F 6 3 w ( ; %.%.%.%.%.%.%.$ B ( 9 3 3 3 2 p E % %.%.%.%.%.%.%.%.%.%.",
"%.%.%.%.%.%.%.%.%.%.%.%.o : E G 6 7 W = %.%.%.%.%.%.%.%.# B L 3 2 2 3 w W = %.%.%.%.%.%.%.%.%.%.",
"%.%.%.%.%.%.%.%.%.%.%.%.%.%.; E H r W * %.%.%.%.%.%.%.%.%.= W r 2 2 2 7 T = %.%.%.%.%.%.%.%.%.%.",
"%.%.%.%.%.%.%.%.%.%.%.%.%.%.%.= Y ( _ = %.%.%.%.%.%.%.%.%.+ B v 2 2 2 7 T = %.%.%.%.%.%.%.%.%.%.",
"%.%.%.%.%.%.%.%.%.%.%.%.%.%.%.%.% U _ = %.%.%.%.%.%.%.%.%.%.j F 2 2 2 e A $ %.%.%.%.%.%.%.%.%.%.",
"%.%.%.%.%.%.%.%.%.%.%.%.%.%.%.%.%.$ j * %.%.%.%.%.%.%.%.%.%.j F 2 2 2 p V + %.%.%.%.%.%.%.%.%.%.",
"%.%.%.%.%.%.%.%.%.%.%.%.%.%.%.%.%.%.+ o %.%.%.%.%.%.%.%.%.+ x a 2 2 2 v q %.%.%.%.%.%.%.%.%.%.%.",
"%.%.%.%.%.%.%.%.%.%.%.%.%.%.%.%.%.%.%.o %.%.%.%.%.%.%.%.%.% C w 2 2 9 C = %.%.%.%.%.%.%.%.%.%.%.",
"%.%.%.%.%.%.%.%.%.%.%.%.%.%.%.%.%.%.%.%.%.%.%.%.%.%.%.%.+ q v 2 2 3 m j @ %.%.%.%.%.%.%.%.%.%.%.",
"%.%.%.%.%.%.%.%.%.%.%.%.%.%.%.%.%.%.%.%.%.%.%.%.%.%.%.X > C 7 2 2 e b % %.%.%.%.%.%.%.%.%.%.%.%.",
"%.%.%.%.%.%.%.%.%.%.%.%.%.%.%.%.%.%.%.%.%.%.%.%.%.%.. : n r 2 2 7 n > . %.%.%.%.%.%.%.%.%.%.%.%.",
"%.%.%.%.%.%.%.%.%.%.%.%.%.%.%.%.%.%.%.%.%.%.%.%.%.O > n r 2 2 7 v 0 o %.%.%.%.%.%.%.%.%.%.%.%.%.",
"%.%.%.%.%.%.%.%.%.%.%.%.%.%.%.%.%.%.%.%.%.%.%.%.o 0 v 7 2 2 7 v 0 + %.%.%.%.%.%.%.%.%.%.%.%.%.%.",
"%.%.%.%.%.%.%.%.%.%.%.%.%.%.%.%.%.%.%.%.%.%.%.%.= v 9 2 3 p c ; . %.%.%.%.%.%.%.%.%.%.%.%.%.%.%.",
"%.%.%.%.%.%.%.%.%.%.%.%.%.%.%.%.%.%.%.%.%.%.%.%.- i 7 w i y % . %.%.%.%.%.%.%.%.%.%.%.%.%.%.%.%.",
"%.%.%.%.%.%.%.%.%.%.%.%.%.%.%.%.%.%.%.%.%.%.%.%.+ t u y - + %.%.%.%.%.%.%.%.%.%.%.%.%.%.%.%.%.%.",
"%.%.%.%.%.%.%.%.%.%.%.%.%.%.%.%.%.%.%.%.%.%.%.%.%.o @ O   %.%.%.%.%.%.%.%.%.%.%.%.%.%.%.%.%.%.%.",
"%.%.%.%.%.%.%.%.%.%.%.%.%.%.%.%.%.%.%.%.%.%.%.%.%.%.%.%.%.%.%.%.%.%.%.%.%.%.%.%.%.%.%.%.%.%.%.%.",
"%.%.%.%.%.%.%.%.%.%.%.%.%.%.%.%.%.%.%.%.%.%.%.%.%.%.%.%.%.%.%.%.%.%.%.%.%.%.%.%.%.%.%.%.%.%.%.%.",
"%.%.%.%.%.%.%.%.%.%.%.%.%.%.%.%.%.%.%.%.%.%.%.%.%.%.%.%.%.%.%.%.%.%.%.%.%.%.%.%.%.%.%.%.%.%.%.%.",
"%.%.%.%.%.%.%.%.%.%.%.%.%.%.%.%.%.%.%.%.%.%.%.%.%.%.%.%.%.%.%.%.%.%.%.%.%.%.%.%.%.%.%.%.%.%.%.%.",
"%.%.%.%.%.%.%.%.%.%.%.%.%.%.%.%.%.%.%.%.%.%.%.%.%.%.%.%.%.%.%.%.%.%.%.%.%.%.%.%.%.%.%.%.%.%.%.%."
};
