/* XPM */
static char *tm_border_r[] = {
/* columns rows colors chars-per-pixel */
"32 32 4 1 ",
"  c #808080",
". c gray64",
"X c #CBCBCB",
"o c None",
/* pixels */
"oooooo    ooooooooooooo    ooooo",
"oooooo    ooooooooooooo    ooooo",
"oooooo    ooooooooooooo    ooooo",
"oooooo    ooooooooooooo    ooooo",
"oooooo    ooooooooooooo    ooooo",
"oooooo    ooooooooooooo    ooooo",
"          .............         ",
"       XXXXXXXXXXXXXXXX         ",
"       Xooooooooooooooo         ",
"       Xo..............         ",
"oooooo.Xo.ooooooooooooo    ooooo",
"oooooo.Xo.ooooooooooooo    ooooo",
"oooooo.Xo.ooooooooooooo    ooooo",
"oooooo.Xo.ooooooooooooo    ooooo",
"oooooo.Xo.ooooooooooooo    ooooo",
"oooooo.Xo.ooooooooooooo    ooooo",
"oooooo.Xo.ooooooooooooo    ooooo",
"oooooo.Xo.ooooooooooooo    ooooo",
"oooooo.Xo.ooooooooooooo    ooooo",
"oooooo.Xo.ooooooooooooo    ooooo",
"oooooo.Xo.ooooooooooooo    ooooo",
"oooooo.Xo.ooooooooooooo    ooooo",
"oooooo.Xo.ooooooooooooo    ooooo",
"       Xo..............         ",
"       XoXXXXXXXXXXXXXX         ",
"       Xooooooooooooooo         ",
"          .............         ",
"oooooo    ooooooooooooo    ooooo",
"oooooo    ooooooooooooo    ooooo",
"oooooo    ooooooooooooo    ooooo",
"oooooo    ooooooooooooo    ooooo",
"oooooo    ooooooooooooo    ooooo"
};
