<?xml version="1.0" encoding="UTF-8" standalone="no"?>
<!-- Created with Inkscape (http://www.inkscape.org/) -->

<svg
   xmlns:dc="http://purl.org/dc/elements/1.1/"
   xmlns:cc="http://creativecommons.org/ns#"
   xmlns:rdf="http://www.w3.org/1999/02/22-rdf-syntax-ns#"
   xmlns:svg="http://www.w3.org/2000/svg"
   xmlns="http://www.w3.org/2000/svg"
   xmlns:sodipodi="http://sodipodi.sourceforge.net/DTD/sodipodi-0.dtd"
   xmlns:inkscape="http://www.inkscape.org/namespaces/inkscape"
   width="20"
   height="20"
   id="svg3039"
   version="1.1"
   inkscape:version="0.48.0 r9654"
   sodipodi:docname="tm_animate.svg"
   inkscape:export-filename="/Users/vdhoeven/magix/texmacs/icons/20x20/mode/tm_animate.png"
   inkscape:export-xdpi="90"
   inkscape:export-ydpi="90">
  <defs
     id="defs3041" />
  <sodipodi:namedview
     id="base"
     pagecolor="#ffffff"
     bordercolor="#666666"
     borderopacity="1.0"
     inkscape:pageopacity="0.0"
     inkscape:pageshadow="2"
     inkscape:zoom="31.392433"
     inkscape:cx="11.387999"
     inkscape:cy="7.9295487"
     inkscape:current-layer="layer1"
     showgrid="true"
     inkscape:grid-bbox="true"
     inkscape:document-units="px"
     inkscape:snap-grids="true"
     inkscape:window-width="1466"
     inkscape:window-height="1118"
     inkscape:window-x="50"
     inkscape:window-y="17"
     inkscape:window-maximized="0"
     showguides="true"
     inkscape:snap-global="true">
    <inkscape:grid
       type="xygrid"
       id="grid3047"
       empspacing="4"
       visible="true"
       enabled="true"
       snapvisiblegridlinesonly="true"
       spacingx="0.5px"
       spacingy="0.5px" />
  </sodipodi:namedview>
  <metadata
     id="metadata3044">
    <rdf:RDF>
      <cc:Work
         rdf:about="">
        <dc:format>image/svg+xml</dc:format>
        <dc:type
           rdf:resource="http://purl.org/dc/dcmitype/StillImage" />
        <dc:title></dc:title>
      </cc:Work>
    </rdf:RDF>
  </metadata>
  <g
     id="layer1"
     inkscape:label="Layer 1"
     inkscape:groupmode="layer"
     transform="translate(0,4)">
    <text
       xml:space="preserve"
       style="font-size:16px;font-style:normal;font-variant:normal;font-weight:normal;font-stretch:normal;text-align:center;line-height:25%;letter-spacing:0px;word-spacing:0px;writing-mode:lr-tb;text-anchor:middle;fill:#000000;fill-opacity:1;stroke:none;font-family:Latin Modern Math;-inkscape-font-specification:Latin Modern Math"
       x="8.9761333"
       y="11.980143"
       id="text3091"
       sodipodi:linespacing="25%"><tspan
         sodipodi:role="line"
         id="tspan3093"
         x="8.9761333"
         y="11.980143" /></text>
    <text
       xml:space="preserve"
       style="font-size:16px;font-style:normal;font-variant:normal;font-weight:normal;font-stretch:normal;text-align:center;line-height:25%;letter-spacing:0px;word-spacing:0px;writing-mode:lr-tb;text-anchor:middle;fill:#000000;fill-opacity:1;stroke:none;font-family:Latin Modern Math;-inkscape-font-specification:Latin Modern Math"
       x="8.0731878"
       y="12.960697"
       id="text3122"
       sodipodi:linespacing="25%"><tspan
         sodipodi:role="line"
         id="tspan3124"
         x="8.0731878"
         y="12.960697" /></text>
    <text
       xml:space="preserve"
       style="font-size:16px;font-style:normal;font-variant:normal;font-weight:normal;font-stretch:normal;text-align:center;line-height:25%;letter-spacing:0px;word-spacing:0px;writing-mode:lr-tb;text-anchor:middle;fill:#000000;fill-opacity:1;stroke:none;font-family:Latin Modern Math;-inkscape-font-specification:Latin Modern Math"
       x="8.0281382"
       y="12.00614"
       id="text3126"
       sodipodi:linespacing="25%"><tspan
         sodipodi:role="line"
         id="tspan3128"
         x="8.0281382"
         y="12.00614" /></text>
    <text
       xml:space="preserve"
       style="font-size:16px;font-style:normal;font-variant:normal;font-weight:normal;font-stretch:normal;text-align:center;line-height:25%;letter-spacing:0px;word-spacing:0px;writing-mode:lr-tb;text-anchor:middle;fill:#000000;fill-opacity:1;stroke:none;font-family:Latin Modern Math;-inkscape-font-specification:Latin Modern Math"
       x="8.010541"
       y="13.015883"
       id="text3130"
       sodipodi:linespacing="25%"><tspan
         sodipodi:role="line"
         id="tspan3132"
         x="8.010541"
         y="13.015883" /></text>
    <text
       xml:space="preserve"
       style="font-size:16px;font-style:normal;font-variant:normal;font-weight:500;font-stretch:normal;text-align:center;line-height:25%;letter-spacing:0px;word-spacing:0px;writing-mode:lr-tb;text-anchor:middle;fill:#000000;fill-opacity:1;stroke:none;font-family:CMU Typewriter Text;-inkscape-font-specification:CMU Typewriter Text Medium"
       x="8.0571747"
       y="14.029191"
       id="text2999"
       sodipodi:linespacing="25%"><tspan
         sodipodi:role="line"
         id="tspan3001"
         x="8.0571747"
         y="14.029191" /></text>
    <text
       xml:space="preserve"
       style="font-size:16px;font-style:normal;font-variant:normal;font-weight:500;font-stretch:normal;text-align:center;line-height:25%;letter-spacing:0px;word-spacing:0px;writing-mode:lr-tb;text-anchor:middle;fill:#000000;fill-opacity:1;stroke:none;font-family:CMU Serif;-inkscape-font-specification:CMU Serif Medium"
       x="8.0004225"
       y="13.020233"
       id="text3030"
       sodipodi:linespacing="25%"><tspan
         sodipodi:role="line"
         id="tspan3032"
         x="8.0004225"
         y="13.020233" /></text>
    <text
       xml:space="preserve"
       style="font-size:16px;font-style:italic;font-variant:normal;font-weight:bold;font-stretch:normal;text-align:center;line-height:25%;letter-spacing:0px;word-spacing:0px;writing-mode:lr-tb;text-anchor:middle;fill:#000000;fill-opacity:1;stroke:none;font-family:CMU Classical Serif;-inkscape-font-specification:CMU Classical Serif Bold Italic"
       x="8.0466156"
       y="13.055862"
       id="text3072"
       sodipodi:linespacing="25%"><tspan
         sodipodi:role="line"
         id="tspan3074"
         x="8.0466156"
         y="13.055862" /></text>
    <text
       xml:space="preserve"
       style="font-size:16px;font-style:italic;font-variant:normal;font-weight:bold;font-stretch:normal;text-align:center;line-height:25%;letter-spacing:0px;word-spacing:0px;writing-mode:lr-tb;text-anchor:middle;fill:#000000;fill-opacity:1;stroke:none;font-family:CMU Classical Serif;-inkscape-font-specification:CMU Classical Serif Bold Italic"
       x="6.0259871"
       y="13.020233"
       id="text3076"
       sodipodi:linespacing="25%"><tspan
         sodipodi:role="line"
         id="tspan3078"
         x="6.0259871"
         y="13.020233" /></text>
    <path
       style="fill:#606060;fill-opacity:1;stroke:none"
       d="m 3,-4 14,0 0,20 -14,0 z"
       id="path5421"
       inkscape:connector-curvature="0" />
    <path
       style="fill:#ffffff;fill-opacity:1;stroke:none"
       d="m 4,-3 0,1 1,0 0,-1 z"
       id="path5423"
       inkscape:connector-curvature="0" />
    <path
       inkscape:connector-curvature="0"
       id="path5425"
       d="M 4,-1 4,0 5,0 5,-1 z"
       style="fill:#ffffff;fill-opacity:1;stroke:none" />
    <path
       style="fill:#ffffff;fill-opacity:1;stroke:none"
       d="M 4,1 4,2 5,2 5,1 z"
       id="path5427"
       inkscape:connector-curvature="0" />
    <path
       inkscape:connector-curvature="0"
       id="path5429"
       d="M 4,3 4,4 5,4 5,3 z"
       style="fill:#ffffff;fill-opacity:1;stroke:none" />
    <path
       style="fill:#ffffff;fill-opacity:1;stroke:none"
       d="M 4,5 4,6 5,6 5,5 z"
       id="path5431"
       inkscape:connector-curvature="0" />
    <path
       inkscape:connector-curvature="0"
       id="path5433"
       d="M 4,7 4,8 5,8 5,7 z"
       style="fill:#ffffff;fill-opacity:1;stroke:none" />
    <path
       style="fill:#ffffff;fill-opacity:1;stroke:none"
       d="m 4,9 0,1 1,0 0,-1 z"
       id="path5435"
       inkscape:connector-curvature="0" />
    <path
       inkscape:connector-curvature="0"
       id="path5437"
       d="m 4,11 0,1 1,0 0,-1 z"
       style="fill:#ffffff;fill-opacity:1;stroke:none" />
    <path
       style="fill:#ffffff;fill-opacity:1;stroke:none"
       d="m 4,13 0,1 1,0 0,-1 z"
       id="path5439"
       inkscape:connector-curvature="0" />
    <path
       inkscape:connector-curvature="0"
       id="path5441"
       d="m 4,15 0,1 1,0 0,-1 z"
       style="fill:#ffffff;fill-opacity:1;stroke:none" />
    <path
       style="fill:#ffffff;fill-opacity:1;stroke:none"
       d="m 15,-3 0,1 1,0 0,-1 z"
       id="path5443"
       inkscape:connector-curvature="0" />
    <path
       inkscape:connector-curvature="0"
       id="path5445"
       d="m 15,-1 0,1 1,0 0,-1 z"
       style="fill:#ffffff;fill-opacity:1;stroke:none" />
    <path
       style="fill:#ffffff;fill-opacity:1;stroke:none"
       d="m 15,1 0,1 1,0 0,-1 z"
       id="path5447"
       inkscape:connector-curvature="0" />
    <path
       inkscape:connector-curvature="0"
       id="path5449"
       d="m 15,3 0,1 1,0 0,-1 z"
       style="fill:#ffffff;fill-opacity:1;stroke:none" />
    <path
       style="fill:#ffffff;fill-opacity:1;stroke:none"
       d="m 15,5 0,1 1,0 0,-1 z"
       id="path5451"
       inkscape:connector-curvature="0" />
    <path
       inkscape:connector-curvature="0"
       id="path5453"
       d="m 15,7 0,1 1,0 0,-1 z"
       style="fill:#ffffff;fill-opacity:1;stroke:none" />
    <path
       style="fill:#ffffff;fill-opacity:1;stroke:none"
       d="m 15,9 0,1 1,0 0,-1 z"
       id="path5455"
       inkscape:connector-curvature="0" />
    <path
       inkscape:connector-curvature="0"
       id="path5457"
       d="m 15,11 0,1 1,0 0,-1 z"
       style="fill:#ffffff;fill-opacity:1;stroke:none" />
    <path
       style="fill:#ffffff;fill-opacity:1;stroke:none"
       d="m 15,13 0,1 1,0 0,-1 z"
       id="path5459"
       inkscape:connector-curvature="0" />
    <path
       inkscape:connector-curvature="0"
       id="path5461"
       d="m 15,15 0,1 1,0 0,-1 z"
       style="fill:#ffffff;fill-opacity:1;stroke:none" />
    <path
       style="fill:#c0c0a0;stroke:none;stroke-width:1px;stroke-linecap:butt;stroke-linejoin:miter;stroke-opacity:1;fill-opacity:1"
       d="m 6,3 8,0 0,6 -8,0 z"
       id="path5465"
       inkscape:connector-curvature="0"
       transform="translate(0,-4)" />
    <path
       style="fill:#f0f0e0;fill-opacity:1;stroke:none"
       d="M 6,9 9.5,7.5 14,9 12.5,6.5 14,4 11.5,5 10.5,3 9.5,5 6,3 7.5,6 z"
       id="path6069"
       inkscape:connector-curvature="0"
       transform="translate(0,-4)"
       sodipodi:nodetypes="ccccccccccc" />
    <path
       style="fill:#c0c0a0;fill-opacity:1;stroke:none"
       d="m 6,6 8,0 0,6 -8,0 z"
       id="path6075"
       inkscape:connector-curvature="0" />
    <path
       style="fill:#f0f0e0;fill-opacity:1;stroke:none"
       d="M 6,12 9.5,10.5 14,12 12.5,9.5 14,7 11.5,8 10.5,6 9.5,8 6,6 7.5,9 z"
       id="path6077"
       inkscape:connector-curvature="0"
       sodipodi:nodetypes="ccccccccccc" />
    <path
       style="fill:#c0c0a0;fill-opacity:1;stroke:none"
       d="m 6,-4 0,2 8,0 0,-2 -8,0 z"
       id="path6093"
       inkscape:connector-curvature="0" />
    <path
       style="fill:#f0f0e0;fill-opacity:1;stroke:none"
       d="M 7,-4 6,-2 9.5,-3.5 14,-2 12.8125,-4 7,-4 z"
       id="path6095"
       inkscape:connector-curvature="0" />
    <path
       style="fill:#c0c0a0;fill-opacity:1;stroke:none"
       d="m 6,13 0,3 8,0 0,-3 -8,0 z"
       id="path6099"
       inkscape:connector-curvature="0" />
    <path
       style="fill:#f0f0e0;fill-opacity:1;stroke:none"
       d="m 6,13 1.5,3 5.3125,0 1.1875,-2 -2.5,1 -1,-2 -1,2 L 6,13 z"
       id="path6101"
       inkscape:connector-curvature="0" />
  </g>
</svg>
