/* XPM */
static char *tm_and[] = {
/* columns rows colors chars-per-pixel */
"20 20 67 1 ",
"  c gray25",
". c #414141",
"X c gray26",
"o c gray27",
"O c #464646",
"+ c gray28",
"@ c #484848",
"# c #494949",
"$ c #4B4B4B",
"% c #4C4C4C",
"& c gray30",
"* c #4E4E4E",
"= c gray31",
"- c #505050",
"; c gray32",
": c gray33",
"> c #565656",
", c gray35",
"< c #5B5B5B",
"1 c gray36",
"2 c #5D5D5D",
"3 c gray37",
"4 c #5F5F5F",
"5 c #606060",
"6 c #626262",
"7 c #646464",
"8 c #656565",
"9 c gray40",
"0 c #676767",
"q c gray46",
"w c #767676",
"e c gray47",
"r c #818181",
"t c gray51",
"y c #838383",
"u c gray54",
"i c gray55",
"p c #8E8E8E",
"a c gray57",
"s c gray58",
"d c #989898",
"f c gray61",
"g c gray62",
"h c gray63",
"j c gray64",
"k c #A9A9A9",
"l c #AAAAAA",
"z c gray68",
"x c #AFAFAF",
"c c gray69",
"v c gray70",
"b c #B6B6B6",
"n c #B9B9B9",
"m c gray73",
"M c #BBBBBB",
"N c gray",
"B c #C0C0C0",
"V c gray76",
"C c gray77",
"Z c #C6C6C6",
"A c gray78",
"S c #CACACA",
"D c #CBCBCB",
"F c gray80",
"G c #CDCDCD",
"H c gray81",
"J c None",
/* pixels */
"JJJJJJJJJJJJJJJJJJJJ",
"JJJJJJJJJJJJJJJJJJJJ",
"JJJJJJJVitlJJJJJJJJJ",
"JJJJJJv;   tJJJJJJJJ",
"JJJJJJq ;7 ,HJJJJJJJ",
"JJJJJJ, qH; hJJJJJJJ",
"JJJJJJ7 ,i #vJJJJJJJ",
"JJJJJJi  # 7JJJJJJJJ",
"JJJJJJv#  7HJJJJJJJJ",
"JJJJJl;   ,ViMJJJJJJ",
"JJJJJ7 ;0  7 #MJJJJJ",
"JJJJV# tH,   ,JJJJJJ",
"JJJJh  fJl#  eJJJJJJ",
"JJJJM# 7Ms;  ,MJJJJJ",
"JJJJJ7        ,HJJJJ",
"JJJJJV7   ;s0 fJJJJJ",
"JJJJJJHvihVJHsJJJJJJ",
"JJJJJJJJJJJJJJJJJJJJ",
"JJJJJJJJJJJJJJJJJJJJ",
"JJJJJJJJJJJJJJJJJJJJ"
};
