/* XPM */
static char *tm_and[] = {
/* columns rows colors chars-per-pixel */
"20 20 73 1 ",
"  c #406040",
". c #406140",
"X c #416041",
"o c #426142",
"O c #426242",
"+ c #426342",
"@ c #456345",
"# c #456445",
"$ c #466546",
"% c #476447",
"& c #466646",
"* c #486748",
"= c #496849",
"- c #4B684B",
"; c #4C694C",
": c #4D6A4D",
"> c #4E6B4E",
", c #4F6D4F",
"< c #506B50",
"1 c #526E52",
"2 c #546F54",
"3 c #567156",
"4 c #597459",
"5 c #5B755B",
"6 c #5C765C",
"7 c #5D765D",
"8 c #5E785E",
"9 c #5F7A5F",
"0 c #607860",
"q c #627B62",
"w c #647C64",
"e c #657C65",
"r c #657D65",
"t c #667D66",
"y c #677F67",
"u c #758975",
"i c #768A76",
"p c #788B78",
"a c #819381",
"s c #829382",
"d c #839383",
"f c #8A9A8A",
"g c #8C9A8C",
"h c #8E9D8E",
"j c #919F91",
"k c #94A194",
"l c #98A498",
"z c #9CA89C",
"x c #9EA99E",
"c c #A1AAA1",
"v c #A3ADA3",
"b c #A9B1A9",
"n c #AAB2AA",
"m c #ADB5AD",
"M c #AFB6AF",
"N c #B0B7B0",
"B c #B3BAB3",
"V c #B6BCB6",
"C c #B9BEB9",
"Z c #BABEBA",
"A c #BBBFBB",
"S c #BEC2BE",
"D c #C0C4C0",
"F c #C2C5C2",
"G c #C4C7C4",
"H c #C6C8C6",
"J c #C7C9C7",
"K c #CACBCA",
"L c #CBCCCB",
"P c #CCCDCC",
"I c #CDCECD",
"U c gray81",
"Y c None",
/* pixels */
"YYYYYYYYYYYYYYYYYYYY",
"YYYYYYYYYYYYYYYYYYYY",
"YYYYYYYFgsnYYYYYYYYY",
"YYYYYYB1. .sYYYYYYYY",
"YYYYYYu >0.4UYYYYYYY",
"YYYYYY4 uU4.cYYYYYYY",
"YYYYYYw.4j.*BYYYYYYY",
"YYYYYYg. *.wYYYYYYYY",
"YYYYYYN<  4UYYYYYYYY",
"YYYYYN1   4UgSYYYYYY",
"YYYYYw.1w  0 >AYYYYY",
"YYYYF>.sU4   4YYYYYY",
"YYYYc..lYn*. uYYYYYY",
"YYYYA..yAj1. 4SYYYYY",
"YYYYYw  * ....4UYYYY",
"YYYYYFw.  1ky.lYYYYY",
"YYYYYYUngcJYUkYYYYYY",
"YYYYYYYYYYYYYYYYYYYY",
"YYYYYYYYYYYYYYYYYYYY",
"YYYYYYYYYYYYYYYYYYYY"
};
