/* XPM */
static char *tm_edit_props[] = {
/* columns rows colors chars-per-pixel */
"20 20 66 1 ",
"  c #646464",
". c #808080",
"X c #838383",
"o c gray53",
"O c gray54",
"+ c #899C89",
"@ c #929292",
"# c #959595",
"$ c gray60",
"% c #9A9A9A",
"& c #94A494",
"* c gray65",
"= c gray66",
"- c #AEAEAE",
"; c #B1B1B1",
": c #B2B2B2",
"> c gray72",
", c #BBBBBB",
"< c #BCBCBC",
"1 c gray74",
"2 c #80C080",
"3 c #82C082",
"4 c #8BC28B",
"5 c #8CC28C",
"6 c #8DC38D",
"7 c #91C391",
"8 c #93C493",
"9 c #94C494",
"0 c #96C496",
"q c #9BC59B",
"w c #9CC69C",
"e c #A7C8A7",
"r c #A8C8A8",
"t c #A9C8A9",
"y c #AAC8AA",
"u c #ABC9AB",
"i c #ADC9AD",
"p c #B0CAB0",
"a c #B1CAB1",
"s c #B3CAB3",
"d c #B7CBB7",
"f c #B8CBB8",
"g c #BACCBA",
"h c #BBCCBB",
"j c #BCCCBC",
"k c #BDCCBD",
"l c #BECCBE",
"z c #C5C5C5",
"x c #C6C6C6",
"c c gray78",
"v c #C0CDC0",
"b c #C2CDC2",
"n c #C3CDC3",
"m c #C5CEC5",
"M c #C6CEC6",
"N c #C8CEC8",
"B c #C9CFC9",
"V c #CACFCA",
"C c #CBCFCB",
"Z c #CCCFCC",
"A c #CDCFCD",
"S c #CECECE",
"D c gray81",
"F c #CED0CE",
"G c #CFD0CF",
"H c None",
/* pixels */
"....................",
".22222222&=HHHHHHHH.",
".22222222&= %H %H %.",
".22222222&= %H %H %.",
".22222222&=HHHHHHHH.",
"....................",
"HHHHHHHHHHHHHHHHHHHH",
"x=xHHHHHHHHBhBv4hhNH",
"x.>HHHHHHyhv2dBwh2yH",
">.>HHHHHH4wGhDHHHhCH",
">.>HHHHHHCBHHHHHHNdH",
"B.>HHHHHCyBHHHHHHy2N",
"D.*HHHHHh2hHHHHHHCNH",
"H#OHH%cHHBGHHHHHHHdd",
"H>.#>..=ddHHHHHHHH00",
"HH>.....+4HHHHHHHHNC",
"HHHHx #>DBHHHHHHHHCy",
"HHHHH%cByvHHHHHHHHN2",
"HHHHHHHv24dHwyH0dH0e",
"HHHHHHHHBwyH0dH0yH0d"
};
