/* XPM */
static char *tm_help[] = {
/* columns rows colors chars-per-pixel */
"20 20 201 2 ",
"   c #808060",
".  c #828262",
"X  c #828263",
"o  c #838363",
"O  c #838364",
"+  c #858564",
"@  c #848465",
"#  c #858565",
"$  c #868667",
"%  c #888867",
"&  c #878768",
"*  c #878769",
"=  c #87876A",
"-  c #87876B",
";  c #888869",
":  c #898969",
">  c #88886A",
",  c #88886B",
"<  c #89896B",
"1  c #8A8A6A",
"2  c #8A8A6B",
"3  c #8B8B6B",
"4  c #88886C",
"5  c #89896C",
"6  c #8A8A6C",
"7  c #8A8A6D",
"8  c #8B8B6D",
"9  c #8A8A6E",
"0  c #8B8B6F",
"q  c #8C8C6C",
"w  c #8D8D6D",
"e  c #8C8C6E",
"r  c #8C8C6F",
"t  c #8D8D6F",
"y  c #8E8E6F",
"u  c #8D8D70",
"i  c #8C8C71",
"p  c #8E8E70",
"a  c #8F8F70",
"s  c #8C8C72",
"d  c #8E8E73",
"f  c #909070",
"g  c #919170",
"h  c #909071",
"j  c #919171",
"k  c #929271",
"l  c #919172",
"z  c #949474",
"x  c #979776",
"c  c #939378",
"v  c #93937A",
"b  c #95957D",
"n  c #999978",
"m  c #999979",
"M  c #9B9B7A",
"N  c #9B9B7B",
"B  c #9C9C7D",
"V  c #9E9E7D",
"C  c #9E9E7F",
"Z  c #9F9F7F",
"A  c #A0A07F",
"S  c #979780",
"D  c #989881",
"F  c #999981",
"G  c #999982",
"H  c #9F9F80",
"J  c #9E9E81",
"K  c #9F9F81",
"L  c #9E9E82",
"P  c #9A9A84",
"I  c #9A9A85",
"U  c #9B9B86",
"Y  c #9C9C86",
"T  c #9D9D87",
"R  c #9E9E89",
"E  c #9F9F89",
"W  c #9F9F8A",
"Q  c #A0A080",
"!  c #A0A081",
"~  c #A0A082",
"^  c #A0A083",
"/  c #A1A183",
"(  c #A0A084",
")  c #A1A184",
"_  c #A0A085",
"`  c #A0A086",
"'  c #A1A186",
"]  c #A2A287",
"[  c #A0A088",
"{  c #A0A08A",
"}  c #A1A18A",
"|  c #A1A18B",
" . c #A3A38A",
".. c #A4A488",
"X. c #A1A18C",
"o. c #A2A28D",
"O. c #A2A28F",
"+. c #A4A48E",
"@. c #A7A78E",
"#. c #A2A290",
"$. c #A3A391",
"%. c #A5A591",
"&. c #A6A691",
"*. c #A4A493",
"=. c #A5A593",
"-. c #A6A693",
";. c #A5A594",
":. c #A7A794",
">. c #A7A795",
",. c #A6A696",
"<. c #A9A990",
"1. c #A8A891",
"2. c #A8A892",
"3. c #A9A994",
"4. c #A9A995",
"5. c #ABAB95",
"6. c #ACAC96",
"7. c #ACAC97",
"8. c #A6A69A",
"9. c #A8A898",
"0. c #A9A999",
"q. c #A9A99A",
"w. c #ABAB9B",
"e. c #ADAD98",
"r. c #ADAD9A",
"t. c #ACAC9B",
"y. c #AEAE9B",
"u. c #ABAB9C",
"i. c #ACAC9D",
"p. c #AFAF9C",
"a. c #ADAD9F",
"s. c #B0B09F",
"d. c #AFAFA1",
"f. c #AFAFA2",
"g. c #B0B0A0",
"h. c #B1B1A1",
"j. c #B0B0A3",
"k. c #B3B3A4",
"l. c #B3B3A7",
"z. c #B4B4A5",
"x. c #B5B5A7",
"c. c #B3B3A8",
"v. c #B3B3A9",
"b. c #B4B4A8",
"n. c #B5B5A9",
"m. c #B6B6A8",
"M. c #B7B7A9",
"N. c #B5B5AA",
"B. c #B6B6AB",
"V. c #B6B6AC",
"C. c #B8B8AA",
"Z. c #B9B9AC",
"A. c #BABAAD",
"S. c #B9B9AF",
"D. c #B9B9B0",
"F. c #BBBBB2",
"G. c #BBBBB3",
"H. c #BCBCB0",
"J. c #BDBDB2",
"K. c #BEBEB2",
"L. c #BEBEB4",
"P. c #BEBEB6",
"I. c #BEBEB8",
"U. c #C0C0B7",
"Y. c #C0C0B8",
"T. c #C3C3B8",
"R. c #C0C0BA",
"E. c #C4C4BA",
"W. c #C2C2BC",
"Q. c #C3C3BE",
"!. c #C5C5BC",
"~. c #C6C6BE",
"^. c #C7C7BE",
"/. c #C8C8BF",
"(. c #C5C5C1",
"). c #C6C6C2",
"_. c #C9C9C0",
"`. c #C8C8C5",
"'. c #CBCBC6",
"]. c #CDCDC7",
"[. c #CBCBC8",
"{. c #CCCCCA",
"}. c #CCCCCB",
"|. c #CDCDCB",
" X c gray81",
".X c #D0D0C9",
"XX c #D2D2CB",
"oX c #D4D4D0",
"OX c #D5D5D1",
"+X c #D6D6D2",
"@X c #D6D6D3",
"#X c #D7D7D4",
"$X c #D8D8D3",
"%X c #DBDBD7",
"&X c #DCDCD8",
"*X c #DFDFDC",
"=X c gray88",
"-X c #E2E2E0",
";X c #E5E5E4",
":X c #E6E6E4",
">X c None",
/* pixels */
">X>X>X>Xq.#.*.u.a.j.b.B.c.j.u.9.$.Y ;.>X",
">X>X>X}.o k j a a f y t e u h f l + 0 >X",
">X>X>XF.6 Q Q Q Q ^ [ X.| ' ! Z Q < $ >X",
">X>X>X9.f Q Q Q %.U.OX*X&XY.} ! Q *   [.",
">X>X>Xv x Q Q ..M.'.].#X;X%Xs.~ Z . d R.",
">X>X X@ V Q B ` >.4.3.J.-X$Xp.K n 0 T B.",
">X>XW.; Q Q Z C _ J @.~.:X!.( Q g { v P.",
">X>Xd.p Q Q Q Z ) 5.T.oX/.e./ Q q x.@ {.",
">X>XP z Q Q Q K 7._.+XE.6.) Z Q > Z.i >X",
">X>X- N Q Q H  .L.OXE.1.K Q Q A X Z.U >X",
">X`.O Z Q Q J %.v.n.2.! Q Q Q M 7 0.w.>X",
">XN.r Q Q Q L 9.a.o.H Q Q Q Q z T S D.>X",
">XO.k Q Q ~ r..XXXy.~ Q Q Q Q a z.* `.>X",
">Xs m Q Q ] A.@X^.<.H Q Q Q Q 8 H.4 >X>X",
"|.o Z Q Q K 8.c.,.Q Q Q Q Q Q O H.D >X>X",
"V.# < 1 2 & 3 w q q 2 : % , = = g.;.>X>X",
"Q.5 !.K.C.k.t.:.+.W &.w.h.m.A.O b N.>X>X",
"}.@ =X=X=X=X=X=X=X=X=X=X=X=X=Xd   (.>X>X",
">X* c F I E O.=.w.:.-.O.R W G 9 o  X>X>X",
">X).R.G.S.B.l.j.i.f.j.l.B.B.F.G.I.>X>X>X"
};
