<?xml version="1.0" encoding="UTF-8" standalone="no"?>
<!-- Created with Inkscape (http://www.inkscape.org/) -->

<svg
   xmlns:dc="http://purl.org/dc/elements/1.1/"
   xmlns:cc="http://creativecommons.org/ns#"
   xmlns:rdf="http://www.w3.org/1999/02/22-rdf-syntax-ns#"
   xmlns:svg="http://www.w3.org/2000/svg"
   xmlns="http://www.w3.org/2000/svg"
   xmlns:sodipodi="http://sodipodi.sourceforge.net/DTD/sodipodi-0.dtd"
   xmlns:inkscape="http://www.inkscape.org/namespaces/inkscape"
   width="20"
   height="20"
   id="svg3039"
   version="1.1"
   inkscape:version="0.48.2 r9819"
   sodipodi:docname="tm_ink_mode.svg"
   inkscape:export-filename="/Users/vdhoeven/magix/texmacs/icons/20x20/mode/tm_ink_mode.png"
   inkscape:export-xdpi="90"
   inkscape:export-ydpi="90">
  <defs
     id="defs3041" />
  <sodipodi:namedview
     id="base"
     pagecolor="#ffffff"
     bordercolor="#666666"
     borderopacity="1.0"
     inkscape:pageopacity="0.0"
     inkscape:pageshadow="2"
     inkscape:zoom="22.197802"
     inkscape:cx="15.23889"
     inkscape:cy="8.3972758"
     inkscape:current-layer="layer1"
     showgrid="true"
     inkscape:grid-bbox="true"
     inkscape:document-units="px"
     inkscape:snap-grids="true"
     inkscape:window-width="1633"
     inkscape:window-height="977"
     inkscape:window-x="13"
     inkscape:window-y="0"
     inkscape:window-maximized="0"
     showguides="true"
     inkscape:snap-global="true">
    <inkscape:grid
       type="xygrid"
       id="grid3047"
       empspacing="4"
       visible="true"
       enabled="true"
       snapvisiblegridlinesonly="true"
       spacingx="0.5px"
       spacingy="0.5px" />
  </sodipodi:namedview>
  <metadata
     id="metadata3044">
    <rdf:RDF>
      <cc:Work
         rdf:about="">
        <dc:format>image/svg+xml</dc:format>
        <dc:type
           rdf:resource="http://purl.org/dc/dcmitype/StillImage" />
        <dc:title></dc:title>
      </cc:Work>
    </rdf:RDF>
  </metadata>
  <g
     id="layer1"
     inkscape:label="Layer 1"
     inkscape:groupmode="layer"
     transform="translate(0,4)">
    <text
       xml:space="preserve"
       style="font-size:16px;font-style:normal;font-variant:normal;font-weight:normal;font-stretch:normal;text-align:center;line-height:25%;letter-spacing:0px;word-spacing:0px;writing-mode:lr-tb;text-anchor:middle;fill:#000000;fill-opacity:1;stroke:none;font-family:Latin Modern Math;-inkscape-font-specification:Latin Modern Math"
       x="8.9761333"
       y="11.980143"
       id="text3091"
       sodipodi:linespacing="25%"><tspan
         sodipodi:role="line"
         id="tspan3093"
         x="8.9761333"
         y="11.980143" /></text>
    <text
       xml:space="preserve"
       style="font-size:16px;font-style:normal;font-variant:normal;font-weight:normal;font-stretch:normal;text-align:center;line-height:25%;letter-spacing:0px;word-spacing:0px;writing-mode:lr-tb;text-anchor:middle;fill:#000000;fill-opacity:1;stroke:none;font-family:Latin Modern Math;-inkscape-font-specification:Latin Modern Math"
       x="8.0731878"
       y="12.960697"
       id="text3122"
       sodipodi:linespacing="25%"><tspan
         sodipodi:role="line"
         id="tspan3124"
         x="8.0731878"
         y="12.960697" /></text>
    <text
       xml:space="preserve"
       style="font-size:16px;font-style:normal;font-variant:normal;font-weight:normal;font-stretch:normal;text-align:center;line-height:25%;letter-spacing:0px;word-spacing:0px;writing-mode:lr-tb;text-anchor:middle;fill:#000000;fill-opacity:1;stroke:none;font-family:Latin Modern Math;-inkscape-font-specification:Latin Modern Math"
       x="8.0281382"
       y="12.00614"
       id="text3126"
       sodipodi:linespacing="25%"><tspan
         sodipodi:role="line"
         id="tspan3128"
         x="8.0281382"
         y="12.00614" /></text>
    <text
       xml:space="preserve"
       style="font-size:16px;font-style:normal;font-variant:normal;font-weight:normal;font-stretch:normal;text-align:center;line-height:25%;letter-spacing:0px;word-spacing:0px;writing-mode:lr-tb;text-anchor:middle;fill:#000000;fill-opacity:1;stroke:none;font-family:Latin Modern Math;-inkscape-font-specification:Latin Modern Math"
       x="8.010541"
       y="13.015883"
       id="text3130"
       sodipodi:linespacing="25%"><tspan
         sodipodi:role="line"
         id="tspan3132"
         x="8.010541"
         y="13.015883" /></text>
    <text
       xml:space="preserve"
       style="font-size:16px;font-style:normal;font-variant:normal;font-weight:normal;font-stretch:normal;text-align:center;line-height:25%;letter-spacing:0px;word-spacing:0px;writing-mode:lr-tb;text-anchor:middle;fill:#000000;fill-opacity:1;stroke:none;font-family:Latin Modern Math;-inkscape-font-specification:Latin Modern Math"
       x="8.0884094"
       y="13.564587"
       id="text3134"
       sodipodi:linespacing="25%"><tspan
         sodipodi:role="line"
         id="tspan3136"
         x="8.0884094"
         y="13.564587" /></text>
    <text
       xml:space="preserve"
       style="font-size:16px;font-style:normal;font-variant:normal;font-weight:normal;font-stretch:normal;text-align:center;line-height:25%;letter-spacing:0px;word-spacing:0px;writing-mode:lr-tb;text-anchor:middle;fill:#000000;fill-opacity:1;stroke:none;font-family:Latin Modern Math;-inkscape-font-specification:Latin Modern Math"
       x="7.9910078"
       y="12.555939"
       id="text3176"
       sodipodi:linespacing="25%"><tspan
         sodipodi:role="line"
         id="tspan3178"
         x="7.9910078"
         y="12.555939" /></text>
    <text
       xml:space="preserve"
       style="font-size:12px;font-style:normal;font-variant:normal;font-weight:normal;font-stretch:normal;text-align:center;line-height:25%;letter-spacing:0px;word-spacing:0px;writing-mode:lr-tb;text-anchor:middle;fill:#000000;fill-opacity:1;stroke:none;font-family:Latin Modern Math;-inkscape-font-specification:Latin Modern Math"
       x="8.0837469"
       y="11.997508"
       id="text3241"
       sodipodi:linespacing="25%"><tspan
         sodipodi:role="line"
         id="tspan3243"
         x="8.0837469"
         y="11.997508" /></text>
    <text
       xml:space="preserve"
       style="font-size:12px;font-style:italic;font-variant:normal;font-weight:500;font-stretch:normal;line-height:125%;letter-spacing:0px;word-spacing:0px;fill:#000000;fill-opacity:1;stroke:none;font-family:CMU Serif;-inkscape-font-specification:Sans Italic"
       x="14.010396"
       y="18.017822"
       id="text5433"
       sodipodi:linespacing="125%"
       transform="translate(0,-4)"><tspan
         sodipodi:role="line"
         id="tspan5435" /></text>
    <text
       xml:space="preserve"
       style="font-size:12px;font-style:italic;font-variant:normal;font-weight:500;font-stretch:normal;line-height:125%;letter-spacing:0px;word-spacing:0px;fill:#000000;fill-opacity:1;stroke:none;font-family:CMU Serif;-inkscape-font-specification:Sans Italic"
       x="14.010396"
       y="18.017822"
       id="text5437"
       sodipodi:linespacing="125%"
       transform="translate(0,-4)"><tspan
         sodipodi:role="line"
         id="tspan5439" /></text>
    <path
       style="fill:#404040;fill-opacity:1;stroke:#404040;stroke-width:0.2;stroke-linecap:round;stroke-linejoin:round;stroke-miterlimit:4;stroke-opacity:1;stroke-dasharray:none"
       id="path12266"
       d="m 18.5,-1 c -0.137651,0.14509874 -0.254207,0.31046231 -0.365368,0.47662831 -0.06972,0.0907409 -0.12058,0.1951986 -0.188086,0.28724874 -0.01214,0.0165689 -0.02751,0.0304991 -0.04129,0.0457498 -0.01247,0.0180779 -0.02493,0.0361558 -0.03741,0.0542337 -0.04786,0.09455415 -0.127389,0.1670269 -0.181495,0.25705426 C 17.53868,0.36662393 17.745051,0.0453505 17.597561,0.2717436 17.457584,0.51561896 17.315894,0.75837883 17.167047,0.99702009 16.935956,1.3863914 16.726742,1.7878775 16.524628,2.1929559 16.286424,2.661245 15.971337,3.0809965 15.65004,3.4937848 15.381334,3.8329007 15.094294,4.1569846 14.830223,4.4998898 14.678929,4.6963541 14.534421,4.8979869 14.3866,5.097095 13.97324,5.6723998 13.564741,6.2510162 13.139109,6.8172941 12.830989,7.2343503 12.476356,7.6088048 12.093495,7.9564995 11.603489,8.3740117 11.105936,8.7826169 10.618093,9.2026924 10.324751,9.464358 10.049536,9.7470393 9.7366689,9.9859796 9.6723002,10.035142 9.6091927,10.086711 9.5395487,10.127995 8.7422878,10.600639 7.937753,11.060827 7.1368549,11.527243 c -0.074644,0.03664 -0.1472652,0.07775 -0.2239321,0.109908 -0.110275,0.04626 -0.3837639,0.13115 -0.4956824,0.165129 -0.2626317,0.07974 -0.527566,0.143936 -0.7946668,0.206451 C 5.1768894,12.11626 4.7217586,12.166998 4.2649498,12.191383 3.9597147,12.202575 3.6591874,12.115706 3.3973237,11.958086 3.3404867,11.923867 3.2887189,11.881819 3.2344168,11.843698 2.9268298,11.62842 2.6850981,11.327659 2.5036209,11 2.4602612,10.921713 2.42367,10.839843 2.3836947,10.759764 2.1460183,10.292057 2.0185261,9.8106271 1.8956888,9.3048911 1.7757093,8.8169022 1.7270629,8.315664 1.6781781,7.816583 1.6248799,7.3977842 1.6086437,6.9777829 1.6614943,6.5587227 1.7249885,6.1956518 1.7997872,5.8554109 1.9395109,5.5138482 2.1372033,5.0956611 2.3973235,4.7096996 2.6680225,4.3361233 2.9887432,3.8901667 3.4062955,3.5298667 3.8280525,3.1840863 4.1129118,2.9607094 4.4114441,2.7537332 4.7252762,2.57321 7.1382264,1.1852292 6.2735207,1.5516471 7.3068469,1.1248884 7.6198672,1.010121 7.9566229,1.0151722 8.2852699,1.0086521 c 0.1826907,0.00773 0.3665949,-0.0125525 0.5491935,-0.00266 0.1030924,0.00558 0.1489275,0.018055 0.2497023,0.037613 0.1073423,0.043174 0.2249684,0.052439 0.3348851,0.084839 0.1171882,0.034543 0.2318598,0.091077 0.3440527,0.1388341 0.2608995,0.1149899 0.4832435,0.3041398 0.7115125,0.4730133 0.32729,0.252391 0.663699,0.4921456 1.000026,0.7321067 0.305691,0.2010648 0.599435,0.4198834 0.873171,0.6628982 0.235206,0.2254977 0.453392,0.4712677 0.654418,0.7280415 0.204378,0.3017147 0.34938,0.6370408 0.513185,0.9614312 0.212214,0.3899944 0.410928,0.7872492 0.634404,1.1710658 0.218977,0.359374 0.439546,0.7173521 0.652007,1.0806999 0.209209,0.3211816 0.38389,0.6623707 0.566674,0.9989027 0.188234,0.338756 0.372094,0.6805555 0.595242,0.9978508 0.180543,0.2738508 0.43947,0.4640633 0.713403,0.6337867 0.253836,0.1395318 0.50903,0.2755764 0.76493,0.411205 0.194433,0.08894 0.396933,0.159728 0.609166,0.188189 0.207195,0.01829 0.415297,0.01757 0.623084,0.01633 0.03696,-2.44e-4 0.07422,0.004 0.110884,-7.34e-4 0.03429,-0.0044 0.06672,-0.0182 0.100332,-0.02631 0.08341,-0.02011 0.13245,-0.026 0.214975,-0.05224 0.0708,-0.02252 0.139524,-0.05122 0.209727,-0.07557 0.07419,-0.04148 0.14941,-0.07684 0.220376,-0.123613 0,0 -2.092563,1.679943 -2.092563,1.679943 l 0,0 c -0.07554,0.0275 -0.149846,0.05926 -0.229197,0.07449 -0.222958,0.06148 -0.449731,0.103957 -0.682074,0.08702 -0.222419,-0.0045 -0.448462,-8.5e-4 -0.665936,-0.05357 -0.217251,-0.06398 -0.425654,-0.155562 -0.623088,-0.266759 -0.258901,-0.138783 -0.515343,-0.282619 -0.765595,-0.436571 -0.29408,-0.195803 -0.562192,-0.434709 -0.753452,-0.735393 C 13.507712,10.060127 13.304208,9.7223291 13.119392,9.3734769 12.930724,9.0409698 12.749763,8.7041594 12.55494,8.3752091 12.354119,8.0050019 12.124906,7.6520737 11.914403,7.2874782 11.702267,6.8960354 11.488598,6.5055458 11.272129,6.1165431 11.096465,5.8140628 10.943879,5.4972069 10.744188,5.2093555 10.561125,4.9576775 10.34717,4.7316037 10.115117,4.5246668 9.8566438,4.2888786 9.5917287,4.0604045 9.3034585,3.8613676 8.9565406,3.6259143 8.6177755,3.3785671 8.2659755,3.1504485 8.0437038,2.9995886 7.8188746,2.8425308 7.567125,2.7456173 7.3563825,2.6700944 7.1390118,2.6121196 6.9180612,2.5758124 6.6681719,2.5546529 6.4159508,2.5623063 6.1654267,2.5633914 5.8573092,2.5757996 5.5506083,2.6089639 5.2686356,2.7447803 4.4051777,3.1591926 5.1177886,2.8224486 7.1154133,1.6524243 7.1889266,1.609367 6.966059,1.73443 6.892183,1.7768578 6.7365143,1.86626 6.5646773,1.9691212 6.4159271,2.0693486 6.3354271,2.1235894 6.2576521,2.1817936 6.1785146,2.2380164 5.763459,2.5631466 5.3524017,2.8995089 5.0246316,3.3169066 4.756954,3.6658313 4.510015,4.0314041 4.3049964,4.4213129 4.1679931,4.7400786 4.0631243,5.0695239 3.9976853,5.411004 c -0.079725,0.4067094 -0.080638,0.8071726 -0.049688,1.2199744 0.038086,0.4882588 0.096539,0.9761504 0.2071719,1.4538 0.1033175,0.4812998 0.2216948,0.9607635 0.4454617,1.402673 0.085045,0.1541978 0.1405693,0.2673066 0.2444635,0.4086552 0.157334,0.2140554 0.3578855,0.3884274 0.5792604,0.5327674 0.3119732,0.172509 0.5744708,0.243804 0.9330745,0.218442 0.4353793,-0.02834 0.8686859,-0.08244 1.2924454,-0.190187 0.5108711,-0.124948 1.0215582,-0.275109 1.47742,-0.5451954 -0.657124,0.3840994 -1.3127282,0.7708274 -1.9713719,1.1522984 -0.07366,0.04266 0.1452925,-0.08883 0.2162946,-0.135799 C 7.4481569,10.878193 7.524158,10.827798 7.59663,10.772644 7.8472614,10.581892 8.0737828,10.36022 8.3049009,10.147047 8.3887059,10.070721 8.4705651,9.9921928 8.5563168,9.9180768 8.7233622,9.7736992 8.8982878,9.6386712 9.0653766,9.4943436 9.3437458,9.2538943 9.2504407,9.3247406 9.5236463,9.0935303 9.5927704,9.0350298 9.6633317,8.9782681 9.7331744,8.9206333 10.124693,8.5803295 10.491664,8.2147429 10.82166,7.8133508 11.276082,7.2520885 11.710227,6.676558 12.120067,6.0814656 c 0.380806,-0.5432645 0.763982,-1.0846512 1.20205,-1.5838562 0.302178,-0.4054612 0.618823,-0.8036609 0.86487,-1.2471702 0.206893,-0.3908842 0.3861,-0.795971 0.594825,-1.1860056 0.119986,-0.2366233 0.269213,-0.4576392 0.377816,-0.69965 0.137302,-0.2883904 -0.05542,0.1028677 0.08748,-0.1477263 0.05747,-0.1007898 0.01382,-0.065759 0.07691,-0.1626269 0.01312,-0.020133 0.03199,-0.035869 0.04688,-0.0547079 0.01375,-0.0173739 0.02598,-0.0358932 0.03897,-0.0538397 0.02508,-0.0409893 0.04207,-0.0870772 0.07065,-0.12567926 0.01415,-0.019103 0.03617,-0.0311387 0.05145,-0.0493454 0.05948,-0.0708634 0.11366,-0.14930201 0.163157,-0.2273699 0.111477,-0.15952386 0.224018,-0.31971103 0.324188,-0.486146 0,0 2.480677,-1.05734264 2.480677,-1.05734264 z"
       inkscape:connector-curvature="0" />
  </g>
</svg>
