/* XPM */
static char *tm_junior[] = {
/* columns rows colors chars-per-pixel */
"20 20 53 1 ",
"  c gray25",
". c gray26",
"X c gray27",
"o c #494949",
"O c gray30",
"+ c #4E4E4E",
"@ c #505050",
"# c #535353",
"$ c gray33",
"% c #555555",
"& c #565656",
"* c gray34",
"= c #626262",
"- c #646464",
"; c gray42",
": c #6D6D6D",
"> c #6F6F6F",
", c gray44",
"< c #717171",
"1 c gray45",
"2 c #767676",
"3 c #777777",
"4 c gray47",
"5 c gray48",
"6 c #7B7B7B",
"7 c #7C7C7C",
"8 c gray49",
"9 c #7E7E7E",
"0 c gray51",
"q c gray53",
"w c #888888",
"e c gray54",
"r c #8D8D8D",
"t c gray57",
"y c #959595",
"u c #979797",
"i c gray60",
"p c #9D9D9D",
"a c gray64",
"s c #A4A4A4",
"d c #AAAAAA",
"f c #ACACAC",
"g c #AFAFAF",
"h c gray69",
"j c gray70",
"k c gray71",
"l c #B6B6B6",
"z c gray75",
"x c gray76",
"c c #CACACA",
"v c #CBCBCB",
"b c gray80",
"n c None",
/* pixels */
"nnnnnnnnnnnnnnnnnnnn",
"nnnnnnnnnnnnnnnnnnnn",
"nnnnnnhphnnnnnnnnnnn",
"nnnnnn> 5nnnnnnnnnnn",
"nnnnnn> 5nnnnnnnnnnn",
"nnnnnn> ,nnnnnnnnnnn",
"nnnnnn> 5n,>w-unnnnn",
"nnnnnn> 5n$OO 5nnnnn",
"nnnnnn> 5n* $$pnnnnn",
"nnnnnn> 5n* 5bbnnnnn",
"nnnnnn> ,n* unnnnnnn",
"nnhwan> 5n* annnnnnn",
"nn, 5n- 0n* gnnnnnnn",
"nn5 $wO wn* hnw,unnn",
"nng    $bn* zn, 0nnn",
"nnn,  $unn$ hn, 5nnn",
"nnnnhubnnnhzbnzhxnnn",
"nnnnnnnnnnnnnnnnnnnn",
"nnnnnnnnnnnnnnnnnnnn",
"nnnnnnnnnnnnnnnnnnnn"
};
