/* XPM */
static char *tm_point_mode[] = {
/* columns rows colors chars-per-pixel */
"20 20 12 1 ",
"  c gray25",
". c gray26",
"X c gray29",
"o c #555555",
"O c #686868",
"+ c #6F6F6F",
"@ c #8E8E8E",
"# c #929292",
"$ c #AFAFAF",
"% c #B6B6B6",
"& c #C8C8C8",
"* c None",
/* pixels */
"********************",
"****&@oo@&**********",
"****O    O**********",
"***%      %*********",
"***#      #*********",
"***%      %*********",
"****O    O**********",
"****&@oo@&**********",
"*************%OX+%**",
"************$     %*",
"************+     O*",
"************X     X*",
"**$OX+%*****+     +*",
"*$     %****%     %*",
"*+     O*****%OX+%**",
"*X     X************",
"*+     +************",
"*%     %************",
"**%OXO%*************",
"********************"
};
