/* XPM */
static char *tm_sansserif[] = {
/* columns rows colors chars-per-pixel */
"20 20 65 1 ",
"  c gray25",
". c #414141",
"X c gray26",
"o c #444444",
"O c gray27",
"+ c gray28",
"@ c #494949",
"# c #4C4C4C",
"$ c #4E4E4E",
"% c gray31",
"& c #505050",
"* c gray32",
"= c gray33",
"- c #555555",
"; c #565656",
": c gray34",
"> c gray35",
", c #5B5B5B",
"< c #5D5D5D",
"1 c gray37",
"2 c #606060",
"3 c gray38",
"4 c gray40",
"5 c #686868",
"6 c DimGray",
"7 c gray42",
"8 c #6D6D6D",
"9 c gray43",
"0 c #717171",
"q c #727272",
"w c gray45",
"e c #767676",
"r c #797979",
"t c gray49",
"y c #838383",
"u c #848484",
"i c gray53",
"p c #888888",
"a c gray57",
"s c #939393",
"d c #9D9D9D",
"f c gray62",
"g c #A0A0A0",
"h c gray63",
"j c gray65",
"k c gray66",
"l c #AEAEAE",
"z c #AFAFAF",
"x c #B4B4B4",
"c c #B6B6B6",
"v c #B7B7B7",
"b c #B9B9B9",
"n c gray73",
"m c gray74",
"M c gray75",
"N c #C0C0C0",
"B c gray77",
"V c #C5C5C5",
"C c #C6C6C6",
"Z c gray78",
"A c #C8C8C8",
"S c gray79",
"D c #CECECE",
"F c gray81",
"G c None",
/* pixels */
"GGGGGGGGGGGGGGGGGGGG",
"GGGGGGGGFnzFGGGGGGGG",
"GGGGGGV0:%X%>tVGGGGG",
"GGGGGV> X:>:XXgGGGGG",
"GGGGG9X:gFGFs:nGGGGG",
"GGGGF:XpGGGGGVFGGGGG",
"GGGGV%XfGGGGGGGGGGGG",
"GGGGG>X>VGGGGGGGGGGG",
"GGGGGyX :0fVGGGGGGGG",
"GGGGGF0: X :tFGGGGGG",
"GGGGGGGz4:X X4VGGGGG",
"GGGGGGGGGFl4XX0GGGGG",
"GGGGGGGGGGGF4X>GGGGG",
"GGGGGGGGGGGGgX:VGGGG",
"GGGGFlGGGGGGy :FGGGG",
"GGGGn%0VGGGV> 4GGGGG",
"GGGGgXX:>99:X:VGGGGG",
"GGGGGg>%XX X4zGGGGGG",
"GGGGGGGVlyszFGGGGGGG",
"GGGGGGGGGGGGGGGGGGGG"
};
