/* XPM */
static char *tm_von[] = {
/* columns rows colors chars-per-pixel */
"20 20 80 1 ",
"  c gray25",
". c #414141",
"X c gray26",
"o c #444444",
"O c gray27",
"+ c gray28",
"@ c #484848",
"# c #494949",
"$ c #4B4B4B",
"% c gray30",
"& c #4E4E4E",
"* c #505050",
"= c gray32",
"- c #535353",
"; c gray33",
": c #555555",
"> c gray34",
", c #585858",
"< c gray35",
"1 c #5B5B5B",
"2 c #5D5D5D",
"3 c #5F5F5F",
"4 c #606060",
"5 c #626262",
"6 c #646464",
"7 c #656565",
"8 c gray40",
"9 c DimGray",
"0 c #6A6A6A",
"q c gray42",
"w c #6D6D6D",
"e c gray43",
"r c #6F6F6F",
"t c #717171",
"y c gray45",
"u c #747474",
"i c gray47",
"p c gray48",
"a c #7B7B7B",
"s c gray49",
"d c #808080",
"f c gray52",
"g c gray53",
"h c #888888",
"j c #8D8D8D",
"k c gray57",
"l c #929292",
"z c #959595",
"x c gray59",
"c c #989898",
"v c gray60",
"b c gray61",
"n c #9D9D9D",
"m c #9F9F9F",
"M c gray63",
"N c #A2A2A2",
"B c gray64",
"V c #A9A9A9",
"C c gray69",
"Z c gray70",
"A c gray71",
"S c #B7B7B7",
"D c gray72",
"F c #B9B9B9",
"G c #BBBBBB",
"H c #BCBCBC",
"J c gray74",
"K c #C0C0C0",
"L c gray76",
"P c #C5C5C5",
"I c #C6C6C6",
"U c #C8C8C8",
"Y c gray79",
"T c #CACACA",
"R c #CBCBCB",
"E c gray80",
"W c #CDCDCD",
"Q c #CECECE",
"! c gray81",
"~ c None",
/* pixels */
"~~~~~~~~~~~~~~~~~~~~",
"~~~~~~~~~~~~~~~~~~~~",
"~~~~~~~~~~~~~~~~~~~~",
"~~~~~~~~~~~~~~~~~~~~",
"~~~~~~~~~~~~~~~~~~~~",
"~~~~~~~~~~~~~~~~~~~~",
"00!~l0l~B05l~~s0b50I",
"3oA~0oBA%o %b~5%: o0",
"y j!::R0o:3 5~5o3y 3",
"l yAo5~:oHI:oH5 lR%%",
"I%3d sIo3~~5oB5 V~:%",
"~3o0obAo3~~0 l5 A~3%",
"~yo%:RR%:R~:oV5oA~3%",
"~b  5~~3odjo:I5oH~:%",
"~R% s~~d  o y~5oA~:%",
"~~3oB~~R0oo3I~3oH~:%",
"~~IAR~~~~AbR~~HAR~HA",
"~~~~~~~~~~~~~~~~~~~~",
"~~~~~~~~~~~~~~~~~~~~",
"~~~~~~~~~~~~~~~~~~~~"
};
