/* XPM */
static char *tm_answer[] = {
/* columns rows colors chars-per-pixel */
"20 20 42 1 ",
"  c #3F3F3F",
". c #414141",
"X c #444444",
"o c #484848",
"O c #4B4B4B",
"+ c #4E4E4E",
"@ c gray31",
"# c #535353",
"$ c gray33",
"% c #555555",
"& c gray34",
"* c #5A5A5A",
"= c #5D5D5D",
"- c gray37",
"; c #5F5F5F",
": c #606060",
"> c gray38",
", c #646464",
"< c #656565",
"1 c gray40",
"2 c DimGray",
"3 c #6A6A6A",
"4 c #6C6C6C",
"5 c gray44",
"6 c gray45",
"7 c #7C7C7C",
"8 c gray49",
"9 c gray51",
"0 c #9F9F9F",
"q c #AAAAAA",
"w c #AEAEAE",
"e c #B4B4B4",
"r c #B9B9B9",
"t c gray73",
"y c #BCBCBC",
"u c #C5C5C5",
"i c #C8C8C8",
"p c gray79",
"a c #CACACA",
"s c gray80",
"d c #CECECE",
"f c None",
/* pixels */
"ffffffffffffffffffff",
"ffffffffffffffffffff",
"ffffffffq<<effffffff",
"fffffffp%  -ffffffff",
"fffffffr.  +pfffffff",
"fffffffu+  %pfffffff",
"ffffffff- .<ffffffff",
"ffffffff6 .8ffffffff",
"ffffffff0..effffffff",
"ffffffffu+%pffffffff",
"fffffffff%-fffffffff",
"fffffffff<<fffffffff",
"fffffffff46fffffffff",
"ffffffffffffffffffff",
"ffffffffe44rffffffff",
"fffffffu%  -ffffffff",
"fffffffr+  +pfffffff",
"fffffffp-  -ffffffff",
"ffffffffp89pffffffff",
"ffffffffffffffffffff"
};
