<?xml version="1.0" encoding="UTF-8"?>
<!-- Created with Inkscape (http://www.inkscape.org/) -->
<svg id="svg3039" width="20" height="20" version="1.1" xmlns="http://www.w3.org/2000/svg" xmlns:cc="http://creativecommons.org/ns#" xmlns:dc="http://purl.org/dc/elements/1.1/" xmlns:rdf="http://www.w3.org/1999/02/22-rdf-syntax-ns#">
 <metadata id="metadata3044">
  <rdf:RDF>
   <cc:Work rdf:about="">
    <dc:format>image/svg+xml</dc:format>
    <dc:type rdf:resource="http://purl.org/dc/dcmitype/StillImage"/>
    <dc:title/>
   </cc:Work>
  </rdf:RDF>
 </metadata>
 <g id="layer1" transform="translate(0,4)" fill="#404040">
  <path id="path4381" d="m6.1183 2.75a0.75065 0.75065 0 1 0 0.0625 1.5h13a0.75008 0.75008 0 1 0 0-1.5h-13a0.75008 0.75008 0 0 0-0.0625 0z" color="#000000" filter="url(#filter5047)" style="block-progression:tb;text-indent:0;text-transform:none"/>
  <path id="path4891" d="m6.1808 7.7812a0.75008 0.75008 0 1 0 0 1.5h13a0.75008 0.75008 0 1 0 0-1.5h-13z" color="#000000" filter="url(#filter5043)" style="block-progression:tb;text-indent:0;text-transform:none"/>
  <path id="path4895" transform="translate(-.76452 -4.4141)" d="m4.0774 7.5607a1.545 1.5131 0 1 1-3.0899 0 1.545 1.5131 0 1 1 3.0899 0z" filter="url(#filter5039)"/>
  <path id="path4897" transform="translate(-.79637 1.4472)" d="m4.0774 7.5607a1.545 1.5131 0 1 1-3.0899 0 1.545 1.5131 0 1 1 3.0899 0z" filter="url(#filter5035)"/>
 </g>
</svg>
