<?xml version="1.0" encoding="UTF-8"?>
<!-- Created with Inkscape (http://www.inkscape.org/) -->
<svg id="svg3039" width="20" height="20" version="1.1" xmlns="http://www.w3.org/2000/svg" xmlns:cc="http://creativecommons.org/ns#" xmlns:dc="http://purl.org/dc/elements/1.1/" xmlns:rdf="http://www.w3.org/1999/02/22-rdf-syntax-ns#">
 <metadata id="metadata3044">
  <rdf:RDF>
   <cc:Work rdf:about="">
    <dc:format>image/svg+xml</dc:format>
    <dc:type rdf:resource="http://purl.org/dc/dcmitype/StillImage"/>
    <dc:title/>
   </cc:Work>
  </rdf:RDF>
 </metadata>
 <g id="layer1" transform="translate(0,4)">
  <path id="path5421" d="m3-4h14v20h-14z" fill="#606060"/>
  <path id="path5423" d="m4-3v1h1v-1z" fill="#fff"/>
  <path id="path5425" d="m4-1v1h1v-1z" fill="#fff"/>
  <path id="path5427" d="m4 1v1h1v-1z" fill="#fff"/>
  <path id="path5429" d="m4 3v1h1v-1z" fill="#fff"/>
  <path id="path5431" d="m4 5v1h1v-1z" fill="#fff"/>
  <path id="path5433" d="m4 7v1h1v-1z" fill="#fff"/>
  <path id="path5435" d="m4 9v1h1v-1z" fill="#fff"/>
  <path id="path5437" d="m4 11v1h1v-1z" fill="#fff"/>
  <path id="path5439" d="m4 13v1h1v-1z" fill="#fff"/>
  <path id="path5441" d="m4 15v1h1v-1z" fill="#fff"/>
  <path id="path5443" d="m15-3v1h1v-1z" fill="#fff"/>
  <path id="path5445" d="m15-1v1h1v-1z" fill="#fff"/>
  <path id="path5447" d="m15 1v1h1v-1z" fill="#fff"/>
  <path id="path5449" d="m15 3v1h1v-1z" fill="#fff"/>
  <path id="path5451" d="m15 5v1h1v-1z" fill="#fff"/>
  <path id="path5453" d="m15 7v1h1v-1z" fill="#fff"/>
  <path id="path5455" d="m15 9v1h1v-1z" fill="#fff"/>
  <path id="path5457" d="m15 11v1h1v-1z" fill="#fff"/>
  <path id="path5459" d="m15 13v1h1v-1z" fill="#fff"/>
  <path id="path5461" d="m15 15v1h1v-1z" fill="#fff"/>
  <path id="path5465" transform="translate(0,-4)" d="m6 3h8v6h-8z" fill="#c0c0a0"/>
  <path id="path6069" transform="translate(0,-4)" d="m6 9 3.5-1.5 4.5 1.5-1.5-2.5 1.5-2.5-2.5 1-1-2-1 2-3.5-2 1.5 3z" fill="#f0f0e0"/>
  <path id="path6075" d="m6 6h8v6h-8z" fill="#c0c0a0"/>
  <path id="path6077" d="m6 12 3.5-1.5 4.5 1.5-1.5-2.5 1.5-2.5-2.5 1-1-2-1 2-3.5-2 1.5 3z" fill="#f0f0e0"/>
  <path id="path6093" d="m6-4v2h8v-2h-8z" fill="#c0c0a0"/>
  <path id="path6095" d="m7-4-1 2 3.5-1.5 4.5 1.5-1.1875-2h-5.8125z" fill="#f0f0e0"/>
  <path id="path6099" d="m6 13v3h8v-3h-8z" fill="#c0c0a0"/>
  <path id="path6101" d="m6 13 1.5 3h5.3125l1.1875-2-2.5 1-1-2-1 2-3.5-2z" fill="#f0f0e0"/>
 </g>
</svg>
