/* XPM */
static char *tm_block[] = {
/* columns rows colors chars-per-pixel */
"20 20 53 1 ",
"  c gray25",
". c #414141",
"X c gray26",
"o c #434343",
"O c #404049",
"+ c gray33",
"@ c gray40",
"# c gray50",
"$ c #28288E",
"% c #2A2A8E",
"& c #34348F",
"* c #272793",
"= c #252596",
"- c #282895",
"; c #282896",
": c #22229B",
"> c #20209C",
", c #21219C",
"< c #20209D",
"1 c #20209E",
"2 c #21219F",
"3 c #373790",
"4 c #383891",
"5 c #2020A0",
"6 c #2525A0",
"7 c #2525A1",
"8 c #5555A4",
"9 c #5757A5",
"0 c #5858A6",
"q c #5A5AA7",
"w c #6060AA",
"e c #6262AD",
"r c #6666AE",
"t c gray51",
"y c gray56",
"u c gray59",
"i c #979797",
"p c #989898",
"a c #8787A8",
"s c #8F8FAD",
"d c #A0A0A0",
"f c gray64",
"g c #A9A9A9",
"h c gray67",
"j c #ACACAC",
"k c #AAAAB3",
"l c #ACACB4",
"z c #ACACB5",
"x c #B4B4B4",
"c c gray71",
"v c #B6B6B6",
"b c #E0E0FF",
"n c None",
/* pixels */
"nnnnnnnnnnnnnnnnnnnn",
"ns*::::::::::::::*an",
"n*$qwwwwq&&&&&&&3$*n",
"n:9bbbbbbq444444335n",
"n:3wrrrrq3334334335n",
"n:77777775757557577n",
"nOkzkkzkzvccccccccon",
"nochppppppuppppphc n",
"n x@    o       @con",
"n xd#####r#####tfc n",
"nox@            @con",
"noxd###########tfc n",
"nov@            @con",
"novf###########tfc n",
"n.v@            @con",
"n.vd#########typhc n",
"n.c@......... @vvv.n",
"nochuiuuiuuuuuhcccon",
"n+iccccccccccccccu+n",
"nh+o............o+gn"
};
