/* XPM */
static char *tm_bold[] = {
/* columns rows colors chars-per-pixel */
"20 20 62 1 ",
"  c gray25",
". c #414141",
"X c gray26",
"o c #434343",
"O c #444444",
"+ c gray27",
"@ c #464646",
"# c #484848",
"$ c #494949",
"% c gray29",
"& c #4C4C4C",
"* c #4E4E4E",
"= c gray31",
"- c #505050",
"; c gray32",
": c gray33",
"> c #555555",
", c #565656",
"< c #5B5B5B",
"1 c gray36",
"2 c #606060",
"3 c gray38",
"4 c #626262",
"5 c #676767",
"6 c #686868",
"7 c DimGray",
"8 c #6F6F6F",
"9 c #717171",
"0 c gray45",
"q c gray46",
"w c gray47",
"e c #7E7E7E",
"r c #808080",
"t c #818181",
"y c gray51",
"u c #848484",
"i c gray53",
"p c #888888",
"a c #8E8E8E",
"s c gray57",
"d c #929292",
"f c gray58",
"g c #959595",
"h c #9B9B9B",
"j c gray62",
"k c gray63",
"l c #ACACAC",
"z c gray69",
"x c #B1B1B1",
"c c #B2B2B2",
"v c gray70",
"b c #B6B6B6",
"n c #B9B9B9",
"m c gray74",
"M c #C0C0C0",
"N c gray76",
"B c gray77",
"V c #C5C5C5",
"C c #C6C6C6",
"Z c #CBCBCB",
"A c gray81",
"S c None",
/* pixels */
"SSSSSSSSSSSSSSSSSSSS",
"SblblbbllbbbBSSSSSSS",
"S>..... ....$>8lSSSS",
"Sha8...eaaay5. $fSSS",
"SSSf. .bSSSSA5  $mSS",
"SSSf  .bSSSSSy   aSS",
"SSSf  .bSSSSSe  .ySS",
"SSSf  .bSSSSS<  $mSS",
"SSSf...bSSSmq..>fSSS",
"SSSf ..$>$>$.$5BSSSS",
"SSSf  .eaaaaq$ >ySSS",
"SSSf  .bSSSSSh. .ySS",
"SSSf  .bSSSSSS<..>ZS",
"SSSf  .bSSSSSS5...lS",
"SSSf  .bSSSSSS<  $BS",
"SSSf ..bSSSSSh$  5SS",
"Skfq  .yfffy8$  >mSS",
"S> .  .......>>eBSSS",
"SbllllllllllbBSSSSSS",
"SSSSSSSSSSSSSSSSSSSS"
};
