/* XPM */
static char *tm_binrel[] = {
/* columns rows colors chars-per-pixel */
"20 20 49 1 ",
"  c gray27",
". c #464646",
"X c gray28",
"o c #494949",
"O c #4B4B4B",
"+ c gray30",
"@ c #4E4E4E",
"# c gray32",
"$ c #535353",
"% c gray33",
"& c #5B5B5B",
"* c #5D5D5D",
"= c gray37",
"- c #5F5F5F",
"; c #606060",
": c gray38",
"> c #626262",
", c #646464",
"< c gray40",
"1 c gray42",
"2 c #6D6D6D",
"3 c #6F6F6F",
"4 c #727272",
"5 c #767676",
"6 c #7C7C7C",
"7 c gray51",
"8 c gray52",
"9 c #989898",
"0 c #9B9B9B",
"q c #9D9D9D",
"w c gray62",
"e c #9F9F9F",
"r c #A9A9A9",
"t c gray67",
"y c gray68",
"u c #AEAEAE",
"i c #AFAFAF",
"p c gray70",
"a c #BBBBBB",
"s c gray74",
"d c gray76",
"f c #C8C8C8",
"g c gray79",
"h c #CBCBCB",
"j c gray80",
"k c #CDCDCD",
"l c #CECECE",
"z c gray81",
"x c None",
/* pixels */
"xxxxxxxxxxxxxxxxxxxx",
"xxxxxxxxxxxxxxxxxxxx",
"xxxxxxxxxxxxxxxxxxxx",
"xxxxxxxxxxxxxxxfzxxx",
"xxxxxxxxxxxxxxx:8xxx",
"xxxxxxxxxxxxxxp.exxx",
"xxxxxxxxxxxxxx2%fxxx",
"xxxxxxxxxxxxf4+ixxxx",
"xxxxxxxxzdi2+%9xxxxx",
"xxxi42:-%++29fxxxxxx",
"xxx9::--%.%4pxxxxxxx",
"xxxxxxxxfi8-+:dxxxxx",
"xxxxxxxxxxxxa:%dxxxx",
"xxxxxxxxxxxxxf--fxxx",
"xxxxxxxxxxxxxx9+ixxx",
"xxxxxxxxxxxxxxf-6xxx",
"xxxxxxxxxxxxxxxafxxx",
"xxxxxxxxxxxxxxxxxxxx",
"xxxxxxxxxxxxxxxxxxxx",
"xxxxxxxxxxxxxxxxxxxx"
};
