/* XPM */
static char *tm_bigop[] = {
/* columns rows colors chars-per-pixel */
"20 20 64 1 ",
"  c gray25",
". c #414141",
"X c gray26",
"o c #434343",
"O c gray27",
"+ c gray28",
"@ c #484848",
"# c #494949",
"$ c gray29",
"% c #4B4B4B",
"& c #4C4C4C",
"* c gray30",
"= c #4E4E4E",
"- c #505050",
"; c gray32",
": c #555555",
"> c gray34",
", c gray35",
"< c gray36",
"1 c #606060",
"2 c gray38",
"3 c #656565",
"4 c gray40",
"5 c gray42",
"6 c #6D6D6D",
"7 c #6F6F6F",
"8 c gray44",
"9 c gray45",
"0 c #767676",
"q c #777777",
"w c gray47",
"e c gray49",
"r c gray50",
"t c #818181",
"y c #838383",
"u c gray55",
"i c #8E8E8E",
"p c #939393",
"a c #989898",
"s c #9A9A9A",
"d c #9B9B9B",
"f c gray62",
"g c #A0A0A0",
"h c #A5A5A5",
"j c #AAAAAA",
"k c gray68",
"l c #AEAEAE",
"z c gray69",
"x c gray70",
"c c #B4B4B4",
"v c gray71",
"b c #B9B9B9",
"n c #BCBCBC",
"m c gray74",
"M c gray",
"N c gray75",
"B c gray76",
"V c #C5C5C5",
"C c #C6C6C6",
"Z c #C8C8C8",
"A c gray79",
"S c #CDCDCD",
"D c gray81",
"F c None",
/* pixels */
"FvffffffffhffffffCFF",
"F>.....   ... .. eFF",
"Fh$.8MMMMMMjft2$.>SF",
"FFe.$jFFFFFFFFFC,$jF",
"FFS, $CFFFFFFFFFS.5F",
"FFFM$.2FFFFFFFFFFjeF",
"FFFFf$$uFFFFFFFFFFFF",
"FFFFF5.$vFFFFFFFFFFF",
"FFFFFS$ >CFFFFFFFFFF",
"FFFFFFv>.5FFFFFFFFFF",
"FFFFFFF8.8FFFFFFFFFF",
"FFFFFFM.>SFFFFFFFFFF",
"FFFFFS$.CFFFFFFFFFFF",
"FFFFS2.vFFFFFFFFFFFF",
"FFFFt.pFFFFFFFFFFp2F",
"FFFh.8FFFFFFFFFFC.8F",
"FFv.,SFFFFFFFFFh>.vF",
"FS$ uffffffe5,$. >FF",
"F2. ..  ..  ...  eFF",
"FMfffpfppfpffpffpCFF"
};
