<?xml version="1.0" encoding="UTF-8"?>
<!-- Created with Inkscape (http://www.inkscape.org/) -->
<svg id="svg3039" width="20" height="20" version="1.1" xmlns="http://www.w3.org/2000/svg" xmlns:cc="http://creativecommons.org/ns#" xmlns:dc="http://purl.org/dc/elements/1.1/" xmlns:rdf="http://www.w3.org/1999/02/22-rdf-syntax-ns#">
 <metadata id="metadata3044">
  <rdf:RDF>
   <cc:Work rdf:about="">
    <dc:format>image/svg+xml</dc:format>
    <dc:type rdf:resource="http://purl.org/dc/dcmitype/StillImage"/>
    <dc:title/>
   </cc:Work>
  </rdf:RDF>
 </metadata>
 <g id="layer1" transform="translate(0,4)">
  <path id="text3245" d="m18.49 10.476h-0.44866c-0.44866 1.346-1.6511 2.4407-3.1765 2.9612-0.28714 0.08973-1.5255 0.52045-4.1636 0.52045h-7.6273l6.2274-7.699c0.12563-0.16152 0.16152-0.21536 0.16152-0.28714s-0.017946-0.089733-0.12563-0.25125l-5.8326-8.0041h7.1068c2.0459 0 6.1736 0.12563 7.4299 3.4816h0.44866l-1.5434-4.1995h-14.878c-0.48456 0-0.5025 0.017946-0.5025 0.57429l6.5505 9.0091-6.371 7.8785c-0.14357 0.17946-0.16152 0.21536-0.16152 0.28714 0 0.19741 0.16152 0.19741 0.48456 0.19741h14.878z" fill="#404040" stroke="#404040" stroke-width=".75" aria-label="∑"/>
 </g>
</svg>
