/* XPM */
static char *tm_cloud[] = {
/* columns rows colors chars-per-pixel */
"24 24 63 1 ",
"  c None",
". c #717171",
"X c #727272",
"o c gray45",
"O c #767676",
"+ c #777777",
"@ c #797979",
"# c gray48",
"$ c #7C7C7C",
"% c #7E7E7E",
"& c gray50",
"* c #808080",
"= c #818181",
"- c gray51",
"; c #838383",
": c gray53",
"> c #888888",
", c gray54",
"< c #8B8B8B",
"1 c gray55",
"2 c #8E8E8E",
"3 c gray56",
"4 c gray57",
"5 c gray58",
"6 c #989898",
"7 c gray60",
"8 c gray61",
"9 c #9F9F9F",
"0 c #A2A2A2",
"q c #A7A7A7",
"w c #AAAAAA",
"e c gray67",
"r c #ACACAC",
"t c #AFAFAF",
"y c #B1B1B1",
"u c #B2B2B2",
"i c #B4B4B4",
"p c #B7B7B7",
"a c gray72",
"s c gray73",
"d c #C3C3C3",
"f c #C5C5C5",
"g c #C6C6C6",
"h c gray78",
"j c #C8C8C8",
"k c gray79",
"l c #CACACA",
"z c #CECECE",
"x c gray81",
"c c gray84",
"v c #D7D7D7",
"b c gray86",
"n c gray88",
"m c #E2E2E2",
"M c #E4E4E4",
"N c gray90",
"B c gray92",
"V c gray93",
"C c #F1F1F1",
"Z c gray95",
"A c gray96",
"S c #F8F8F8",
"D c #F9F9F9",
/* pixels */
"                        ",
"                        ",
"                        ",
"                        ",
"                        ",
"         keqax          ",
"        r#0w,;sxfx      ",
"       0>MDDDx$$*@r     ",
"  z9-=1=BDDDDDc DM&pf   ",
"  47mMhbDDDDDDDDDDy#%-f ",
" t1ADDDDDDDDDDDDDDZSDs3 ",
" 2zDDDDDDDDDDDDDDDDDDC+ ",
" <vDDDDDDDDDDDDDDDDDDSox",
" 5dDDDDDDDDDDDDDDDDDDn* ",
" i2SDDDDDDDDDDDDDDDDDt8 ",
" x:eVDDDDDDDDDDDDDSNu$j ",
"  l5@.......XXXOXXo%6g  ",
"              xz        ",
"                        ",
"                        ",
"                        ",
"                        ",
"                        ",
"                        "
};
