/* XPM */
static char *tm_compact[] = {
/* columns rows colors chars-per-pixel */
"20 20 106 2 ",
"   c gray25",
".  c gray45",
"X  c #7D7777",
"o  c #847D7D",
"O  c #867D7D",
"+  c #C04040",
"@  c #C14444",
"#  c #C54E4E",
"$  c #2020C0",
"%  c #2121C0",
"&  c #2222C0",
"*  c #2424C0",
"=  c #3434C2",
"-  c #3636C2",
";  c #3A3AC2",
":  c #5D5DC6",
">  c #6161C6",
",  c #6363C6",
"<  c #6464C6",
"1  c #6767C6",
"2  c #6A6AC4",
"3  c #6868C7",
"4  c #6A6AC6",
"5  c #6D6DC6",
"6  c #7070C7",
"7  c #7171C7",
"8  c #8D8282",
"9  c #8E8E8E",
"0  c #838390",
"q  c #909090",
"w  c gray57",
"e  c #989898",
"r  c #8C8CB2",
"t  c #9797BD",
"y  c #A3A1A1",
"u  c #A4A3A3",
"i  c #ACACAC",
"p  c gray68",
"a  c #AEAEAE",
"s  c #AFAFAF",
"d  c #B2ACAC",
"f  c #B6AEAE",
"g  c gray69",
"h  c gray70",
"j  c #B4B4B4",
"k  c #B7B7B7",
"l  c gray74",
"z  c #CE9090",
"x  c #CF9F9F",
"c  c #D09898",
"v  c #D09999",
"b  c #D69898",
"n  c #D89A9A",
"m  c #C0A0A0",
"M  c #CDA3A3",
"N  c #C3ABAB",
"B  c #D8A2A2",
"V  c #DBA3A3",
"C  c #DCA2A2",
"Z  c #D7AEAE",
"A  c #D6AFAF",
"S  c #D9A9A9",
"D  c #D5B1B1",
"F  c #DDB9B9",
"G  c #DDBBBB",
"H  c #DBBCBC",
"J  c #DFBEBE",
"K  c #E0B6B6",
"L  c #E1B9B9",
"P  c #E0BDBD",
"I  c #9E9ECB",
"U  c #A5A5C9",
"Y  c #A7A7C9",
"T  c #A2A2CC",
"R  c #A7A7CC",
"E  c #BDBDC7",
"W  c #C0C0C0",
"Q  c #C1C1C1",
"!  c #C6C0C0",
"~  c #C5C5C5",
"^  c #C6C6C6",
"/  c #C9C2C2",
"(  c #C3C3CD",
")  c #C2C2CF",
"_  c #C5C5CF",
"`  c #C6C6CF",
"'  c #C7C7CF",
"]  c gray79",
"[  c gray80",
"{  c #CDCDCD",
"}  c #CECECE",
"|  c gray81",
" . c #D7C0C0",
".. c #D3CBCB",
"X. c #C7C7D0",
"o. c #C9C9D0",
"O. c #D7D0D0",
"+. c #DDD6D6",
"@. c #E0C0C0",
"#. c #E0C6C6",
"$. c #E0C7C7",
"%. c #E0CFCF",
"&. c #E0D1D1",
"*. c #EDE1E1",
"=. c #EEE0E0",
"-. c None",
/* pixels */
"-.-.X._ -.-.-.-.-.+.=.-.-.-.-.-.-.-.-.-.",
"-.o.; > k g h d / n H s p p p p p p p ~ ",
"-.4 % r       O z + m                 X ",
"R % 4 p q 9 f c + + S A Z D  .u w w w k ",
"> % 0     O z + + + + + + + + v 8     . ",
"R % 4 p e d B + + + + + + + + + x u w W ",
"-.6 & t     X c + + x m m M # + + N   . ",
"-.o.; : h p p ! V + H h h k @.+ + H h ~ ",
"-.-._ _ -.-.-.~ ..V H ~ k ~ #.+ + K ! ~ ",
"-.-.-.-.-.-.-.[ ~ +.=.[ [ ~ #.+ + L ~ [ ",
"-.-.-.-.-.-.-.~ W W [ k ~ k +.H H %.~ ~ ",
"-.-.-.-.-.-.-.[ / [ ^ [ [ [ / [ [ [ [ | ",
"-.-.-.-.-.-.-.~ ~ k ~ k W ~ k ~ _ _ -.-.",
"-.-.-.-.-.-.-.[ [ [ [ [ [ ~ ~ [ > = _ -.",
"-.-.-.-.-.-.-.~ k ~ k ~ ~ k ~ k R & > -.",
"-.-.-.-.-.-.-.[ [ [ [ ~ [ [ [ [ [ 6 % T ",
"-.-.-.-.-.-.-.~ ~ k ~ k ~ ~ k ~ ~ E % : ",
"-.-.-.-.-.-.-.[ [ [ [ ] [ ~ ] ] [ 4 % T ",
"-.-.-.-.-.-.-.~ ~ k k ~ k ~ k ~ Y & > -.",
"-.-.-.-.-.-.-.| [ [ | [ | [ | | 4 = [ -."
};
