<?xml version="1.0" encoding="UTF-8"?>
<!-- Created with Inkscape (http://www.inkscape.org/) -->
<svg id="svg3039" width="20" height="20" version="1.1" xmlns="http://www.w3.org/2000/svg" xmlns:cc="http://creativecommons.org/ns#" xmlns:dc="http://purl.org/dc/elements/1.1/" xmlns:rdf="http://www.w3.org/1999/02/22-rdf-syntax-ns#">
 <metadata id="metadata3044">
  <rdf:RDF>
   <cc:Work rdf:about="">
    <dc:format>image/svg+xml</dc:format>
    <dc:type rdf:resource="http://purl.org/dc/dcmitype/StillImage"/>
    <dc:title/>
   </cc:Work>
  </rdf:RDF>
 </metadata>
 <g id="layer1" transform="translate(0,4)">
  <path id="path5198" d="M 4.3919348,-1.468145 19,-1.5" fill="none" stroke="#404040" stroke-linecap="round" stroke-width="1.5"/>
  <path id="path5202" d="m3.1593 0.5h15.841" fill="none" stroke="#404040" stroke-linecap="round" stroke-width="1.5"/>
  <path id="path5204" d="m4.5 2.5h14.5" fill="none" stroke="#404040" stroke-linecap="round" stroke-width="1.5"/>
  <path id="path5206" d="m8 14.5h7.5956" fill="none" stroke="#c0c0c0" stroke-linecap="round" stroke-width="1.5"/>
  <path id="path5208" d="m8 12.5h8.8504" fill="none" stroke="#c0c0c0" stroke-linecap="round" stroke-width="1.5"/>
  <path id="path5210" d="m8 10.5h7.6496" fill="none" stroke="#c0c0c0" stroke-linecap="round" stroke-width="1.5"/>
  <path id="path5419" d="m3-2.5-2 3 2 3" fill="none" stroke="#2020c0" stroke-linecap="round" stroke-linejoin="round" stroke-width="1.5"/>
  <path id="path5952" d="m8 4.5h11" fill="none" stroke="#c0c0c0" stroke-linecap="round" stroke-width="1.5"/>
  <path id="path5954" d="m8 4.5h11" fill="none" stroke="#c0c0c0" stroke-linecap="round" stroke-width="1.5"/>
  <path id="path5956" d="m8 6.5h11" fill="none" stroke="#c0c0c0" stroke-linecap="round" stroke-width="1.5"/>
  <path id="path5958" d="m8 8.5h7.5097" fill="none" stroke="#c0c0c0" stroke-linecap="round" stroke-width="1.5"/>
  <path id="path5931" d="m14.5 3.5c-0.3777-0.70575-0.81364-0.79219-1.5-1s-2.5 0-2.5 0l0.02741 3.4351-4.9375-4.9694 4.9056-4.8738 0.0045 3.4081s2.7308-0.52572 4 0 2.4743 1.7308 3 3 0 4 0 4h-3s0.3777-2.2943 0-3z" fill="#c04040" stroke="#fff" stroke-width=".5"/>
  <path id="path5929" d="m17.032 9.4778 2 3-2 3" fill="none" stroke="#2020c0" stroke-linecap="round" stroke-linejoin="round" stroke-width="1.5"/>
 </g>
</svg>
