/* XPM */
static char *tm_cell_special[] = {
/* columns rows colors chars-per-pixel */
"16 16 64 1 ",
"  c #BD8347",
". c #BE8346",
"X c #BB844B",
"o c #BB854C",
"O c #A7835C",
"+ c #B18454",
"@ c #9B8165",
"# c #81807F",
"$ c #C18242",
"% c #C08343",
"& c #C18446",
"* c #C18648",
"= c #C28748",
"- c #C28649",
"; c #C0884B",
": c #C38C4D",
"> c #C28E51",
", c #C59252",
"< c #C69054",
"1 c #C4975A",
"2 c #C5935F",
"3 c #C8995B",
"4 c #C99C5B",
"5 c #C59360",
"6 c #C59662",
"7 c #C59663",
"8 c #C69968",
"9 c #C6996A",
"0 c #C79D6E",
"q c #CFAD6E",
"w c #CFAE6E",
"e c #C7A37E",
"r c #C7A47F",
"t c #D2B777",
"y c #808080",
"u c #C8A582",
"i c #C8A888",
"p c #C8A98A",
"a c #CAAC8D",
"s c #C9AD8F",
"d c #CAB199",
"f c #CBB39C",
"g c #CAB59D",
"h c #CBBBAA",
"j c #D6C082",
"k c #D6C383",
"l c #D7C686",
"z c #DBD090",
"x c #DBD292",
"c c #DCD494",
"v c #DCD595",
"b c #DED999",
"n c #DEDA9A",
"m c #CDC0B3",
"M c #CDC2B6",
"N c #CEC5BB",
"B c #E0E0A0",
"V c #CEC8C2",
"C c #CFCAC5",
"Z c #CFCCC9",
"A c #CFCDCA",
"S c #D0CFCD",
"D c #D0CFCF",
"F c None",
/* pixels */
"FA#FFFh1SFFFFyFF",
"F9XdSd*&SFFFFyFF",
"y@:1.*lXyyyyyyyy",
"FA.czBl7FFFFFyFF",
"FF+tBBc>9NFFFyFF",
"Fi>nBBBc4&dFFyFF",
"i&wwjB3&6rMFFyFF",
"s0Oi:c&SFFFFFyFF",
"FFyFr,6FFFFFFyFF",
"FFyFV&uFFFFFFyFF",
"FFyFFMVFFFFFFyFF",
"FFyFFFFFFFFFFyFF",
"FFyFFFFFFFFFFyFF",
"yyyyyyyyyyyyyyyy",
"FFyFFFFFFFFFFyFF",
"FFyFFFFFFFFFFyFF"
};
