/* XPM */
static char *tm_cell_border[] = {
/* columns rows colors chars-per-pixel */
"16 16 10 1 ",
"  c gray25",
". c #6060A0",
"X c #808080",
"o c gray57",
"O c gray62",
"+ c #8585B0",
"@ c #ACACAC",
"# c gray71",
"$ c #BCBCBC",
"% c None",
/* pixels */
"%%%X%%%%%%%%%%%%",
"%%%X%%%%%%%%%%%%",
"%%+.............",
"XX..............",
"%%..............",
"%%...%%%%%%%%%%%",
"%%...%%%%%%%%%%%",
"%%...%%%#@@@@@@@",
"%%...%%$        ",
"%%...%%%Oooooooo",
"%%...%%$        ",
"%%...%%%Oooooooo",
"%%...%%$        ",
"%%...%%%Oooooooo",
"%%...%%$        ",
"%%...%%%Oooooooo"
};
