/* XPM */
static char * tm_cell_hmax_xpm[] = {
"17 17 6 1",
" 	c None",
"=	c #00000000FFFF",
".	c #0000FFFFFFFF",
"o	c #000000000000",
"O	c #999999999999",
"r      c #FFFF00000000",
"   r O     O  r  ",
"   r          r  ",
"   r O     O  r  ",
"   r          r  ",
"   r O     O  r  ",
"   oooooooooooo  ",
"   rOOOOOOOOOOr  ",
"   rOOOOOOOOOOr  ",
"   rOOOOOOOOOOr  ",
"   rOOOOOOOOOOr  ",
"   oooooooooooo  ",
"   r          r  ",
"   r O     O  r  ",
"   r          r  ",
"   r O     O  r  ",
"   r          r  ",
"   r O     O  r  "};
