/* XPM */
static char *tm_ctrl_flow[] = {
/* columns rows colors chars-per-pixel */
"20 20 25 1 ",
"  c gray23",
". c gray29",
"X c #4B4B4B",
"o c #565656",
"O c gray37",
"+ c #646464",
"@ c #6A6A6A",
"# c #6C6C6C",
"$ c gray46",
"% c #797979",
"& c #808080",
"* c #848484",
"= c gray55",
"- c #909090",
"; c #939393",
": c #959595",
"> c gray60",
", c gray61",
"< c #A2A2A2",
"1 c #A9A9A9",
"2 c gray70",
"3 c #B9B9B9",
"4 c gray73",
"5 c #C0C0C0",
"6 c None",
/* pixels */
"-5-,6666666666666666",
"-5-,6666666666666666",
"-5-,6666666666666666",
"-5-$,,,,,,,,,,,,,,,,",
"-54-----------------",
"-5555555555555555555",
"-54----------=------",
"-5-$,,,,,,,,,,,,-,,,",
"-5-,66666666666, 466",
"-5-,66666666666,=O16",
"-5<o+++++++++++o<5#,",
"-555555555555555554X",
"-54-------------45%%",
"-5-$,,,,,,,,,,,$-$*6",
"-5-,66666666666,X*66",
"-5-,666666666662*666",
"-5-$,,,,,,,,,,,,,,,,",
"-54-----------------",
"-5555555555555555555",
"#-------------------"
};
