/* XPM */
static char *tm_delete_left[] = {
/* columns rows colors chars-per-pixel */
"16 16 37 1 ",
"  c #808080",
". c #818181",
"X c gray51",
"o c #838383",
"O c #848383",
"+ c #848484",
"@ c #868686",
"# c #888888",
"$ c #898888",
"% c #8A8989",
"& c gray54",
"* c #8B8B8B",
"= c gray55",
"- c #909090",
"; c gray57",
": c #9A9A9A",
"> c gray61",
", c gray62",
"< c gray67",
"1 c #B3ACAC",
"2 c #B2B2B2",
"3 c #B9B9B9",
"4 c gray",
"5 c gray78",
"6 c #C8C8C8",
"7 c gray79",
"8 c #CACACA",
"9 c #CBCBCB",
"0 c gray80",
"q c #CECECE",
"w c gray81",
"e c #DDCFCF",
"r c #DED1D1",
"t c #DFD1D1",
"y c #E0D2D2",
"u c #F0E0E0",
"i c None",
/* pixels */
"iiiiiiiiiiiiiiii",
"iiiiww5w5w55w5wi",
"iiiiw3;*..***:wi",
"iiiw4;........wi",
"iii5:...  ...*5i",
"iww<..1t$*y1.*wi",
"iw3*..yuyyue..5i",
"iw:...*yuuy*.*5i",
"i5:. .*yuuy* $5i",
"iw4*..euytut.$wi",
"iww<..1t*$e1..5i",
"iiiw:...  . .*5i",
"iiiw4*.......*wi",
"iiii53;***..*:wi",
"iiiiww5w55w55wwi",
"iiiiiiiiiiiiiiii"
};
