/* XPM */
static char *magick[] = {
/* columns rows colors chars-per-pixel */
"15 17 13 1",
"  c None",
"Y c Gray0",
". c #000000",
"X c #282c28",
"o c #383c38",
"O c #686c68",
"+ c #787c78",
"@ c #0000f8",
"# c #383cf8",
"$ c #787cb8",
"% c #787cf8",
"& c #888c88",
"* c #b8bcb8",
/* pixels */
"               ",
"               ",
"               ",
"    +.+  +.+   ",
"    ...  ...   ",
"    +.+  +.+   ",
"               ",
"               ",
"               ",
"      *#       ",
"     #$#%%     ",
"     $#@#*     ",
"     #@@@%     ",
"     %*#*$     ",
"      *%       ",
"               ",
"               "
};
