/* XPM */
static char *tm_delete_right[] = {
/* columns rows colors chars-per-pixel */
"16 16 37 1 ",
"  c #808080",
". c #818181",
"X c gray51",
"o c #838383",
"O c #848383",
"+ c #848484",
"@ c #868686",
"# c #888888",
"$ c #898888",
"% c #8A8989",
"& c gray54",
"* c #8B8B8B",
"= c gray55",
"- c #909090",
"; c gray57",
": c #9A9A9A",
"> c gray61",
", c gray62",
"< c gray67",
"1 c #B3ACAC",
"2 c #B2B2B2",
"3 c #B9B9B9",
"4 c gray",
"5 c gray78",
"6 c #C8C8C8",
"7 c gray79",
"8 c #CACACA",
"9 c #CBCBCB",
"0 c gray80",
"q c #CECECE",
"w c gray81",
"e c #DDCFCF",
"r c #DED1D1",
"t c #DFD1D1",
"y c #E0D2D2",
"u c #F0E0E0",
"i c None",
/* pixels */
"iiiiiiiiiiiiiiii",
"iw5w5ww55wwwiiii",
"i5>& &$$ ;2wiiii",
"iw&       ;5wiii",
"iw&       &>5iii",
"i5& 1y&$y1  <wwi",
"i5  euytut$ &2wi",
"iw& &tuuy&   >wi",
"i5& &yuuy&   >wi",
"i5& yuyyue  ;3wi",
"iw& 1e&&t1 &<wwi",
"i5&        >5iii",
"i5&       ;3wiii",
"iw>&& & &;2wiiii",
"iww5w55ww5wwiiii",
"iiiiiiiiiiiiiiii"
};
