/* XPM */
static char *tm_exit_left[] = {
/* columns rows colors chars-per-pixel */
"16 16 30 1 ",
"  c #7F8281",
". c #808483",
"X c #838685",
"o c #848786",
"O c #868988",
"+ c #898989",
"@ c #888B8A",
"# c #898C8B",
"$ c #919493",
"% c #979797",
"& c #989898",
"* c gray60",
"= c #9A9A9A",
"- c #A5A6A6",
"; c #B2B3B3",
": c gray70",
"> c #B4B4B4",
", c gray72",
"< c gray74",
"1 c gray77",
"2 c #C6C6C6",
"3 c gray78",
"4 c #C8C8C8",
"5 c #CACACA",
"6 c #CACBCB",
"7 c gray80",
"8 c #CDCDCD",
"9 c #CECECE",
"0 c gray81",
"q c None",
/* pixels */
"qqqqqqqqqqqqqqqq",
"qqqqqq0999999999",
"qqqqq0,=$&&&&&=;",
"qqqqq9&+&&&&&&#=",
"qqq999==299992$=",
"q92-99;;9qqqq9&=",
"9<$O29299299q9&&",
";O.........O99&&",
";#......OO.#99$&",
"9<$.44994929q9&&",
"q02-00;;9qqqq9&&",
"qqq909==299994&&",
"qqqqq9=#$&&=$&+&",
"qqqqq9;==&&$=&=,",
"qqqqqq9999999999",
"qqqqqqqqqqqqqqqq"
};
