/* XPM */
static char *tm_emphasize[] = {
/* columns rows colors chars-per-pixel */
"20 20 68 1 ",
"  c gray25",
". c gray26",
"X c gray27",
"o c #464646",
"O c gray28",
"+ c #494949",
"@ c gray29",
"# c #4B4B4B",
"$ c #4E4E4E",
"% c gray31",
"& c #505050",
"* c gray32",
"= c gray33",
"- c #555555",
"; c #565656",
": c gray34",
"> c gray35",
", c #5B5B5B",
"< c #5D5D5D",
"1 c gray37",
"2 c #5F5F5F",
"3 c #606060",
"4 c gray38",
"5 c #626262",
"6 c #646464",
"7 c #656565",
"8 c gray40",
"9 c #686868",
"0 c DimGray",
"q c gray42",
"w c gray43",
"e c #717171",
"r c gray45",
"t c #767676",
"y c #777777",
"u c #7B7B7B",
"i c #7C7C7C",
"p c gray49",
"a c #7E7E7E",
"s c gray50",
"d c #868686",
"f c #888888",
"g c #8B8B8B",
"h c #8D8D8D",
"j c #8E8E8E",
"k c gray59",
"l c #989898",
"z c gray63",
"x c #A5A5A5",
"c c gray65",
"v c #AAAAAA",
"b c gray67",
"n c #AEAEAE",
"m c #AFAFAF",
"M c gray69",
"N c gray70",
"B c gray74",
"V c gray76",
"C c #C3C3C3",
"Z c #C6C6C6",
"A c gray78",
"S c #C8C8C8",
"D c gray79",
"F c #CBCBCB",
"G c #CDCDCD",
"H c #CECECE",
"J c gray81",
"K c None",
/* pixels */
"KKKKKKKKKKKKKKKKKKKK",
"KKKKKKKKKKKKKKKKKKKK",
"KKKKKz$$:: $$$$:::BK",
"KKKKKAb8 $zMbbhe$$BK",
"KKKKKKK8 8KKKKKKq:JK",
"KKKKKKJ: aKKKKKKd:KK",
"KKKKKKM  MKKKbKKa8KK",
"KKKKKKa ,JKKh:KKzhKK",
"KKKKKK8 qKKA:qKKKKKK",
"KKKKKJ: :q8: kKKKKKK",
"KKKKKb $qeq::AKKKKKK",
"KKKKKa :JKKa,KKKJKKK",
"KKKKK8 8KKKqaKKz,KKK",
"KKKKJ: aKKKJAKK,eKKK",
"KKKKb  bKKKKKKz$BKKK",
"KKKKa :JKKKKKA,8KKKK",
"KKKK8 8KKKKKb, lKKKK",
"KA8,  :8888:$ :JKKKK",
"KJdeaeeaeaaeeazKKKKK",
"KKKKKKKKKKKKKKKKKKKK"
};
