<?xml version="1.0" encoding="UTF-8"?>
<!-- Created with Inkscape (http://www.inkscape.org/) -->
<svg id="svg3039" width="16" height="16" version="1.1" xmlns="http://www.w3.org/2000/svg" xmlns:cc="http://creativecommons.org/ns#" xmlns:dc="http://purl.org/dc/elements/1.1/" xmlns:rdf="http://www.w3.org/1999/02/22-rdf-syntax-ns#">
 <metadata id="metadata3044">
  <rdf:RDF>
   <cc:Work rdf:about="">
    <dc:format>image/svg+xml</dc:format>
    <dc:type rdf:resource="http://purl.org/dc/dcmitype/StillImage"/>
    <dc:title/>
   </cc:Work>
  </rdf:RDF>
 </metadata>
 <g id="layer1" fill="#808080" stroke-width="0">
  <path id="path9010" d="M 0,13.5 2.5,16 10,8.5 7.5,6 z" filter="url(#filter9063)"/>
  <path id="path9012" d="m11 0c-2.7614 0-5 2.2386-5 5s2.2386 5 5 5c2.7614 0 5-2.2386 5-5 0-0.86798-0.23594-1.6636-0.625-2.375l-3.0938 3.1562c-0.26308 0.43297-0.7376 0.71875-1.2812 0.71875-0.82843 0-1.5-0.67157-1.5-1.5 0-0.43005 0.1788-0.82024 0.46875-1.0938l3.2812-3.3438c-0.68117-0.34766-1.4328-0.5625-2.25-0.5625z" filter="url(#filter9043)"/>
 </g>
</svg>
