<?xml version="1.0" encoding="UTF-8"?>
<!-- Created with Inkscape (http://www.inkscape.org/) -->
<svg id="svg3039" width="16" height="16" version="1.1" xmlns="http://www.w3.org/2000/svg" xmlns:cc="http://creativecommons.org/ns#" xmlns:dc="http://purl.org/dc/elements/1.1/" xmlns:rdf="http://www.w3.org/1999/02/22-rdf-syntax-ns#">
 <metadata id="metadata3044">
  <rdf:RDF>
   <cc:Work rdf:about="">
    <dc:format>image/svg+xml</dc:format>
    <dc:type rdf:resource="http://purl.org/dc/dcmitype/StillImage"/>
    <dc:title/>
   </cc:Work>
  </rdf:RDF>
 </metadata>
 <g id="layer1" stroke-width="0">
  <circle id="path8023" cx="10.5" cy="5.5" r="4.5" fill="#fff" fill-opacity=".25263" filter="url(#filter8069)"/>
  <path id="path9010" d="m0 13.978 2.0222 2.0859 6.0028-6.0665-2.0222-2.0222z" fill="#808080" filter="url(#filter8065)"/>
  <path id="path8009" d="m10.513 0.031855a5.4778 5.4619 0 0 0-5.4778 5.4619 5.4778 5.4619 0 0 0 5.4778 5.4619 5.4778 5.4619 0 0 0 5.4778-5.4619 5.4778 5.4619 0 0 0-5.4778-5.4619zm0 1.0924a4.3823 4.3695 0 0 1 4.3823 4.3695 4.3823 4.3695 0 0 1-4.3823 4.3695 4.3823 4.3695 0 0 1-4.3823-4.3695 4.3823 4.3695 0 0 1 4.3823-4.3695z" fill="#808080" filter="url(#filter8061)"/>
 </g>
</svg>
