/* XPM */
static char *tm_fraction[] = {
/* columns rows colors chars-per-pixel */
"20 20 11 1 ",
"  c #646464",
". c gray43",
"X c gray45",
"o c #767676",
"O c #7373D4",
"+ c #8181CE",
"@ c #8080FF",
"# c #C8C8C8",
"$ c #CBCBCB",
"% c gray80",
"& c None",
/* pixels */
"&&&&&&&&&&&&&&&&&&&&",
"&&&&&&&&+OO+&&&&&&&&",
"&&&&&&&&O@@O&&&&&&&&",
"&&&&&&&&O@@O&&&&&&&&",
"&&&&&&&&O@@O&&&&&&&&",
"&&&&&&&&O@@O&&&&&&&&",
"&&&&&&&&+OO+&&&&&&&&",
"&&&&&&&&&&&&&&&&&&&&",
"&&&&&&&&&&&&&&&&&&&&",
"&&&&$.        o$&&&&",
"&&&&$o        o$&&&&",
"&&&&&&&&&&&&&&&&&&&&",
"&&&&&&&&&&&&&&&&&&&&",
"&&&&&&&&+OO+&&&&&&&&",
"&&&&&&&&O@@O&&&&&&&&",
"&&&&&&&&O@@O&&&&&&&&",
"&&&&&&&&O@@O&&&&&&&&",
"&&&&&&&&O@@O&&&&&&&&",
"&&&&&&&&+OO+&&&&&&&&",
"&&&&&&&&&&&&&&&&&&&&"
};
