<?xml version="1.0" encoding="UTF-8"?>
<!-- Created with Inkscape (http://www.inkscape.org/) -->
<svg id="svg3039" width="20" height="20" version="1.1" xmlns="http://www.w3.org/2000/svg" xmlns:cc="http://creativecommons.org/ns#" xmlns:dc="http://purl.org/dc/elements/1.1/" xmlns:rdf="http://www.w3.org/1999/02/22-rdf-syntax-ns#">
 <metadata id="metadata3044">
  <rdf:RDF>
   <cc:Work rdf:about="">
    <dc:format>image/svg+xml</dc:format>
    <dc:type rdf:resource="http://purl.org/dc/dcmitype/StillImage"/>
    <dc:title/>
   </cc:Work>
  </rdf:RDF>
 </metadata>
 <g id="layer1" transform="translate(0,4)">
  <path id="text3176" d="m16.33-1.3274-0.18112-0.28174c-0.48299 0.52324-1.2075 1.2678-1.6905 1.2678-0.46287 0-0.90561-0.20125-1.288-0.42262-0.80498-0.48299-1.61-0.92573-2.4753-1.288-0.54336-0.22137-1.1069-0.42262-1.7106-0.42262-1.0062 0-1.9722 0.36224-2.6766 1.0666-0.84523 0.84523-1.1672 2.0326-1.288 3.1998l0.32199 0.22137c0.18112-0.88548 0.42262-1.8112 1.0666-2.4552 0.38237-0.38237 0.86536-0.64399 1.3886-0.64399 0.54336 0 1.0666 0.18112 1.5697 0.38237 0.76473 0.30187 1.4892 0.68424 2.1936 1.1069-0.82511 0.50311-1.5898 1.0867-2.2137 1.8313-0.40249 0.48299-0.78486 1.0465-0.78486 1.7106 0 0.42262 0.20125 0.82511 0.40249 1.2075 0.34212 0.66411 0.76473 1.288 1.2075 1.8917 0.48299 0.70436 0.90561 1.4288 1.3483 2.1533 0.26162 0.44274 0.46287 0.90561 0.46287 1.3886 0 0.82511-0.26162 1.7911-0.86536 2.3948-0.48299 0.48299-1.1069 0.76473-1.8112 0.76473-0.50312 0-0.94586-0.34212-1.288-0.70436-0.2415-0.2415-0.58361-0.72448-0.58361-1.8112 0-0.44274 0.060374-0.86536 0.161-1.288 0.12075-0.52324 0.12075-0.78486 0.12075-1.3081s-0.161-1.127-0.44274-1.4691c-0.161-0.18112-0.36224-0.2415-0.58361-0.2415-0.52324 0-1.4691 0.30187-2.6363 1.0867l0.10062 0.42262c0.22137-0.12075 0.70436-0.36224 1.1874-0.36224 0.161 0 0.32199 0.040249 0.42262 0.161 0.161 0.161 0.28174 0.40249 0.28174 1.2477 0 0.30187-0.020125 0.60374-0.060374 0.88548-0.040249 0.38237-0.080498 0.74461-0.080498 1.127 0 0.60374 0.080498 1.6905 0.62386 2.1936 0.44274 0.46287 1.0465 0.76474 1.7106 0.76474 1.5697 0 3.0589-0.72448 4.1658-1.8313 0.74461-0.74461 1.1874-1.7307 1.1874-2.7772 0-0.58361-0.10062-1.3081-0.42262-1.771l-1.7508-2.254c0.44274-0.36224 1.0867-0.80498 1.4288-0.80498 0.50312 0 0.82511 0.44274 1.0666 0.86536l0.86536-1.1874c-0.22137-0.62386-0.62386-1.127-1.0867-1.61l-2.4552 2.3546c-0.32199-0.44274-0.62386-0.94586-0.88548-1.4288-0.161-0.30187-0.30187-0.66411-0.30187-1.0264 0-0.50312 0.22137-0.96598 0.50312-1.2678 0.32199-0.36224 1.0062-0.76473 1.5697-0.94586 0.46287 0.28174 1.0062 0.50311 1.4691 0.50311 0.42262 0 0.76474-0.32199 1.0666-0.60374 0.56349-0.54336 1.2075-1.3685 1.6703-1.9923z" fill="#404040" stroke="#404040" stroke-width=".5" aria-label="ð”‰"/>
 </g>
</svg>
