/* XPM */
static char *tm_group_move[] = {
/* columns rows colors chars-per-pixel */
"20 20 75 1 ",
"  c gray25",
". c #424141",
"X c gray26",
"o c #454644",
"O c #464645",
"+ c #484644",
"@ c #474847",
"# c #4C4F49",
"$ c #4F4E4B",
"% c gray31",
"& c #4E5249",
"* c #52584D",
"= c #545A4E",
"- c #555350",
"; c #565554",
": c #565656",
"> c #575756",
", c gray36",
"< c #605850",
"1 c #625E5A",
"2 c #586050",
"3 c #5D6754",
"4 c #646464",
"5 c #6F6964",
"6 c #6D6D6D",
"7 c #6F6F6F",
"8 c #747373",
"9 c #768865",
"0 c #82986D",
"q c #95B17A",
"w c #868686",
"e c #888888",
"r c #898888",
"t c #898989",
"y c #8A8B8A",
"u c #8C8B8A",
"i c gray55",
"p c #8D8F8C",
"a c gray56",
"s c #8F918C",
"d c #92958F",
"f c #909090",
"g c #939393",
"h c gray58",
"j c gray59",
"k c #989490",
"l c #949890",
"z c #969B92",
"x c #9A9A9A",
"c c gray62",
"v c #9FBE81",
"b c #A3AD9A",
"n c #AAB59E",
"m c gray63",
"M c #A2A2A2",
"N c #A7A7A7",
"B c gray69",
"V c #B1B1B1",
"C c #B2B2B2",
"Z c gray70",
"A c #B9B9B9",
"S c #BCBCBC",
"D c gray75",
"F c #C0A082",
"G c #C1B2A4",
"H c #C9B9AA",
"J c #A0C082",
"K c #B3C1A5",
"L c #B8C8A9",
"P c #B9C9AA",
"I c #C1C1C1",
"U c #C8C8C8",
"Y c gray80",
"T c gray81",
"R c None",
/* pixels */
"RRRRRBBRRRRRRRRRRRRR",
"RRRRDppDRRRRRRRRRRRR",
"RRRTjppjTRRRRRRRRRRR",
"RRRBenneBRRRRjjRRRRR",
"RRUpzLLjpTRRBXXBRRRR",
"RRxpKLLLpxRT,&&,TRRR",
"RAebLPPPbwDp 00XjRRR",
"TpdLLPPPLseX3JJ3+IRR",
"mrddddjkjs:XqJJq+6RR",
"jrrrpppup8 9JJJJ9XMR",
"xkHHHHHHG#&JJJJJJ&$U",
"xkHHHHHH5 &222232& 6",
"xkHHHHHH& ++++++++.>",
"xkHHHHHH1<FFFFFFFF<4",
"xkHHHHHH1<FFFFFFFF<4",
"xrkkkkkk><FFFFFFFF<4",
"Sxxxxxxx><FFFFFFFF<4",
"RRRRRRRR4<FFFFFFFF<4",
"RRRRRRRR4+<><<<<<<+4",
"RRRRRRRRN4454444444N"
};
