/* XPM */
static char *tm_graphics_geometry[] = {
/* columns rows colors chars-per-pixel */
"20 20 156 2 ",
"   c #746458",
".  c #76655B",
"X  c #7A695C",
"o  c #78685E",
"O  c #7A6B5E",
"+  c #7B6B5E",
"@  c #7B6B5F",
"#  c #7D6C5D",
"$  c #7D6D5D",
"%  c #7E6E5E",
"&  c #7F6F5F",
"*  c #7B6C60",
"=  c #7C6C62",
"-  c #8B7157",
";  c #807060",
":  c #827369",
">  c #867869",
",  c #867B6A",
"<  c #87796F",
"1  c #B88148",
"2  c #B68754",
"3  c #92856F",
"4  c #8B8170",
"5  c #8C8171",
"6  c #C08040",
"7  c #C08041",
"8  c #C08243",
"9  c #C28444",
"0  c #C08446",
"q  c #C28547",
"w  c #C28748",
"e  c #C28649",
"r  c #C2874A",
"t  c #C38849",
"y  c #C3884C",
"u  c #C38A4C",
"i  c #C28A4D",
"p  c #C48C4E",
"a  c #C48D4F",
"s  c #C08B53",
"d  c #C28F52",
"f  c #C58F51",
"g  c #C69252",
"h  c #C39059",
"j  c #C69158",
"k  c #C6955A",
"l  c #C7945B",
"z  c #C5925D",
"x  c #C89559",
"c  c #C79E60",
"v  c #CA9B68",
"b  c #C69D71",
"n  c #C79F73",
"m  c #CAA060",
"M  c #CAA263",
"N  c #CAA164",
"B  c #CBA672",
"V  c #C7A27A",
"C  c #CDA97A",
"Z  c #CCAC7C",
"A  c #D1B373",
"S  c #D2B373",
"D  c #D1B474",
"F  c #D5BF7F",
"G  c #A09791",
"H  c #A19993",
"J  c #A69E99",
"K  c #A2A09E",
"L  c #A9A19D",
"P  c #B8A795",
"I  c #ACA6A2",
"U  c #AAA8A8",
"Y  c #AAAAAA",
"T  c gray67",
"R  c #ACACAC",
"E  c gray68",
"W  c #AEACAC",
"Q  c #B0AAA6",
"!  c #B4AFAB",
"~  c #B1B1B1",
"^  c #B7B3B0",
"/  c #B6B4B2",
"(  c #B4B4B4",
")  c gray71",
"_  c #BAB6B3",
"`  c #BEBAB8",
"'  c #C7AF87",
"]  c #CFA981",
"[  c #C8A988",
"{  c #CAAB8B",
"}  c #C9AB8D",
"|  c #C9AA8E",
" . c #C8B590",
".. c #D6BB9B",
"X. c #CAB6A1",
"o. c #D8BEA3",
"O. c #D8C888",
"+. c #D9CC8C",
"@. c #DACD8D",
"#. c #DDD797",
"$. c #DEDA9A",
"%. c #E0DF9F",
"&. c #D4C7A2",
"*. c #C3C0BF",
"=. c #CEC7BF",
"-. c #DCD5BF",
";. c #E0E0A0",
":. c #C7C6C5",
">. c #CFC9C4",
",. c gray80",
"<. c #CDCDCD",
"1. c #CFCECC",
"2. c gray81",
"3. c #DECFC1",
"4. c #CCD5C4",
"5. c #CCD5C5",
"6. c #CDDBCE",
"7. c #D0D0CF",
"8. c #DCDBD9",
"9. c #E0D8CA",
"0. c #E3D9CB",
"q. c #E3DDD0",
"w. c #D9E3C7",
"e. c #DCE5CA",
"r. c #D9E4CD",
"t. c #DBE5CC",
"y. c #DAE5CD",
"u. c #DDE7CD",
"i. c #DFE5CE",
"p. c #DEE8CD",
"a. c #DEE9CD",
"s. c #DEE9CE",
"d. c #E4E0D6",
"f. c #E6EED8",
"g. c #E7EFD9",
"h. c #E8F0D9",
"j. c #E6E5E5",
"k. c #E4EBE1",
"l. c #E4ECE2",
"z. c #E6ECE3",
"x. c #E3E9E5",
"c. c #E4E9E5",
"v. c #E5EAE6",
"b. c #EBEFE6",
"n. c gray91",
"m. c #EAEAEA",
"M. c #EDF0E8",
"N. c #EAF2F2",
"B. c #EBF2F2",
"V. c #EAF3F2",
"C. c #EBF3F2",
"Z. c #EBF3F3",
"A. c #EDF0F0",
"S. c #EFF0F0",
"D. c #EEF1F1",
"F. c None",
/* pixels */
"F.F.F.,.E ~ ~ ~ ~ ~ ~ ~ ~ ~ ~ ~ ~ ~ ~ R ",
"F.F.F.F.^ n.n.n.3.] m.m.m.m.v.x.m.m.m.R ",
"F.7.z { ^ N.N.q.r v D.D.N.N.D.N.N.N.D.R ",
"F.F.V 7 s q.q.r s ..D.D.Z.N.D.N.N.N.D.R ",
"F.F.>.r D i i O.k q.D.D.N.N.Z.N.N.N.D.E ",
"F.F.F.[ N $.@.$.1 5.6.6.6.6.6.6.6.6.x.E ",
"F.F.F.X.7 ;.;.;.M t ' 5.6.6.6.6.6.6.m.E ",
"F.F.{ i @.;.;.$.O.D i 1  .6.6.6.6.5.x.E ",
",.n 7 N l i #.c 1 2 B Z &.e.e.e.e.e.k.E ",
"=.z b | P C D g - $ 4 e.a.a.s.e.a.a.k.E ",
"F.F.F.F._ -.s i 3 $ $ , w.a.s.s.a.a.k.E ",
"F.F.F.F.^ b.l 7 h.4 $ $ > i.h.h.h.h.m.E ",
"F.F.F.7.^ m.o.h n.x.< $ * : 8.m.m.m.m.E ",
"F.F.F.,.E E E E E E U $ & & . K E E E E ",
"F.F.F.F.F.F.F.F.F.F.F.:.* & & * _ F.F.F.",
"F.F.F.F.F.F.F.F.F.F.F.F.:.* ; ; $ ! F.F.",
"F.F.F.F.F.F.F.F.F.F.F.F.F.` * & & * I F.",
"F.F.F.F.F.F.F.F.F.F.F.F.F.F.^ $ ; ; $ J ",
"F.F.F.F.F.F.F.F.F.F.F.F.F.F.F.Q $ $ $ H ",
"F.F.F.F.F.F.F.F.F.F.F.F.F.F.F.F.L . G F."
};
