<?xml version="1.0" encoding="UTF-8"?>
<!-- Created with Inkscape (http://www.inkscape.org/) -->
<svg id="svg3039" width="16" height="16" version="1.1" xmlns="http://www.w3.org/2000/svg" xmlns:cc="http://creativecommons.org/ns#" xmlns:dc="http://purl.org/dc/elements/1.1/" xmlns:rdf="http://www.w3.org/1999/02/22-rdf-syntax-ns#">
 <metadata id="metadata3044">
  <rdf:RDF>
   <cc:Work rdf:about="">
    <dc:format>image/svg+xml</dc:format>
    <dc:type rdf:resource="http://purl.org/dc/dcmitype/StillImage"/>
    <dc:title/>
   </cc:Work>
  </rdf:RDF>
 </metadata>
 <g id="layer1">
  <circle id="path6844" cx="8" cy="8" r="6.5" fill="#fff" fill-rule="evenodd" opacity=".667" stroke="#409040" stroke-linecap="round" stroke-linejoin="round" stroke-width="2"/>
  <path id="text6846" d="m7.4836 10.28q-0.29663 0.27466-0.67017 0.41748-0.36987 0.13916-0.802 0.13916-1.04 0-1.6187-0.74341-0.57861-0.74707-0.57861-2.0911 0-1.3403 0.58594-2.0874 0.58594-0.75073 1.6296-0.75073 0.34424 0 0.65918 0.098877 0.31494 0.095215 0.60791 0.29297v0.75806q-0.29663-0.28198-0.60791-0.41382-0.31128-0.1355-0.65918-0.1355-0.72144 0-1.084 0.5603-0.35889 0.55664-0.35889 1.6772 0 1.1389 0.3479 1.6882 0.35156 0.54565 1.0767 0.54565 0.24536 0 0.42847-0.05493 0.18677-0.05859 0.33691-0.17944v-1.4685h-0.79468v-0.60791h1.5015zm3.7866-2.2778q0-1.2048-0.24902-1.7212-0.24536-0.51636-0.80933-0.51636-0.5603 0-0.80933 0.51636-0.24536 0.51636-0.24536 1.7212 0 1.2012 0.24536 1.7175 0.24902 0.51636 0.80933 0.51636 0.56396 0 0.80933-0.5127 0.24902-0.51636 0.24902-1.7212zm0.7727 0q0 1.4282-0.4541 2.1313-0.45044 0.70312-1.377 0.70312-0.92651 0-1.377-0.69946-0.45044-0.69946-0.45044-2.135 0-1.4319 0.45044-2.135 0.4541-0.70312 1.377-0.70312 0.92651 0 1.377 0.70312 0.4541 0.70312 0.4541 2.135z" fill="#30502f" stroke-width="1px" aria-label="GO"/>
 </g>
</svg>
