<?xml version="1.0" encoding="UTF-8"?>
<!-- Created with Inkscape (http://www.inkscape.org/) -->
<svg id="svg3039" width="20" height="20" version="1.1" xmlns="http://www.w3.org/2000/svg" xmlns:cc="http://creativecommons.org/ns#" xmlns:dc="http://purl.org/dc/elements/1.1/" xmlns:rdf="http://www.w3.org/1999/02/22-rdf-syntax-ns#">
 <metadata id="metadata3044">
  <rdf:RDF>
   <cc:Work rdf:about="">
    <dc:format>image/svg+xml</dc:format>
    <dc:type rdf:resource="http://purl.org/dc/dcmitype/StillImage"/>
    <dc:title/>
   </cc:Work>
  </rdf:RDF>
 </metadata>
 <g id="layer1" transform="translate(0,4)">
  <path id="path5338" d="m6.5-1.5s3.9931 0.5 6 0.5 6-0.5 6-0.5l-3 12s-4.5776 0.49426-7 0.5-7.5-0.5-7.5-0.5z" fill="#c0c0a0" stroke="#808060" stroke-linejoin="round" stroke-width="1px"/>
  <path id="path5340" d="m1 10.5-0.5 3h16l-1-3s-4.5776 0.49426-7 0.5-7.5-0.5-7.5-0.5z" fill="#a0a080" stroke="#808060" stroke-linejoin="round" stroke-width="1px"/>
  <path id="path5342" d="m16.5 13.5 3-12.5-1-2.5-3 12z" fill="#a0a080" stroke="#808060" stroke-linejoin="round" stroke-width="1px"/>
  <path id="text3792" transform="matrix(.94108 0 -.39628 1.0626 0 0)" d="m16.136 8.4697h-7.1241v-1.4546l4.1819-5.686h-3.9339v-1.8843h6.7274v1.6033l-4.0662 5.5373h4.2149z" fill="#404030" aria-label="z"/>
 </g>
</svg>
