/* XPM */
static char *tm_insert_left[] = {
/* columns rows colors chars-per-pixel */
"16 16 30 1 ",
"  c #808080",
". c #818181",
"X c gray51",
"o c #838383",
"O c #848484",
"+ c #868686",
"@ c #888888",
"# c gray54",
"$ c #8B8B8B",
"% c gray55",
"& c #909090",
"* c gray57",
"= c #9A9A9A",
"- c gray61",
"; c gray62",
": c gray67",
"> c #B2B2B2",
", c #B0B8B0",
"< c #B9B9B9",
"1 c gray",
"2 c gray78",
"3 c #C8C8C8",
"4 c gray79",
"5 c #CACACA",
"6 c #CBCBCB",
"7 c gray80",
"8 c #CECECE",
"9 c gray81",
"0 c #E0F0E0",
"q c None",
/* pixels */
"qqqqqqqqqqqqqqqq",
"qqqq99292922929q",
"qqqq9<&$..$$$=9q",
"qqq91&. ......9q",
"qqq2=.. ,, ..$2q",
"q99:....00 ..$9q",
"q9<$....00....2q",
"q9=..,000000,$2q",
"q2=. ,000000,$9q",
"q91$.   00   .2q",
"q99:... 00  ..9q",
"qqq9=...,,  .$2q",
"qqq91$.......$9q",
"qqqq2<&$$$..$=9q",
"qqqq99292292299q",
"qqqqqqqqqqqqqqqq"
};
