<?xml version="1.0" encoding="UTF-8"?>
<!-- Created with Inkscape (http://www.inkscape.org/) -->
<svg id="svg3039" width="20" height="20" version="1.1" xmlns="http://www.w3.org/2000/svg" xmlns:cc="http://creativecommons.org/ns#" xmlns:dc="http://purl.org/dc/elements/1.1/" xmlns:rdf="http://www.w3.org/1999/02/22-rdf-syntax-ns#">
 <metadata id="metadata3044">
  <rdf:RDF>
   <cc:Work rdf:about="">
    <dc:format>image/svg+xml</dc:format>
    <dc:type rdf:resource="http://purl.org/dc/dcmitype/StillImage"/>
    <dc:title/>
   </cc:Work>
  </rdf:RDF>
 </metadata>
 <g id="layer1" transform="translate(0,4)">
  <path id="text3080" d="m4.8546 13.674q0-0.16389 0.046827-0.25755 0.07024-0.09365 0.21072-0.11707 0.16389-0.04683 0.30437-0.04683 0.16389 0 0.44485 0 0.30437-0.02341 0.53851-0.04683 0.23413-0.02341 0.37461-0.04683 0.16389-0.04683 0.28096-0.14048 0.14048-0.09365 0.18731-0.14048 0.07024-0.04683 0.14048-0.21072 0.07024-0.18731 0.093653-0.25755t0.07024-0.30437q0.07024-0.25755 0.093653-0.37461l2.8096-11.262q0.28096-1.1238 0.28096-1.3111 0-0.28096-0.25755-0.3512-0.25755-0.07024-1.1238-0.093653-0.46827 0-0.56192-0.093653-0.11707-0.07024-0.11707-0.23413 0-0.16389 0.11707-0.28096 0.14048-0.11707 0.3512-0.11707 0.046827 0 0.14048 0.023413 0.11707 0 0.16389 0 1.0302 0.046827 2.5755 0.046827 0.72581 0 1.3346-0.023413t0.95994-0.023413q0.3512-0.023413 0.42144-0.023413 0.44485 0 0.44485 0.32779 0 0.16389-0.07024 0.25755-0.04683 0.093653-0.21072 0.11707-0.14048 0.023413-0.30437 0.046827-0.16389 0-0.44485 0t-0.49168 0.023413q-0.25755 0.023413-0.44485 0.093653t-0.30437 0.14048q-0.09365 0.046827-0.18731 0.23413-0.09365 0.16389-0.11707 0.23413-0.02341 0.07024-0.09365 0.37461-0.07024 0.28096-0.09365 0.39803l-2.8096 11.238q-0.28096 1.1707-0.28096 1.3346 0 0.28096 0.25755 0.3512t1.1238 0.09365q0.46827 0 0.56192 0.09365 0.11707 0.11707 0.11707 0.21072 0 0.14048-0.14048 0.28096t-0.32779 0.14048q-0.04683 0-0.14048 0-0.09365-0.02341-0.16389-0.02341-1.4985-0.04683-2.5052-0.04683-0.74923 0-1.3814 0.02341-0.60875 0-0.98336 0.02341-0.3512 0.02341-0.42144 0.02341-0.46827 0-0.46827-0.30437z" fill="#404040" stroke="#404040" stroke-width=".5" aria-label="I"/>
 </g>
</svg>
