<?xml version="1.0" encoding="UTF-8"?>
<!-- Created with Inkscape (http://www.inkscape.org/) -->
<svg id="svg3039" width="20" height="20" version="1.1" xmlns="http://www.w3.org/2000/svg" xmlns:cc="http://creativecommons.org/ns#" xmlns:dc="http://purl.org/dc/elements/1.1/" xmlns:rdf="http://www.w3.org/1999/02/22-rdf-syntax-ns#">
 <metadata id="metadata3044">
  <rdf:RDF>
   <cc:Work rdf:about="">
    <dc:format>image/svg+xml</dc:format>
    <dc:type rdf:resource="http://purl.org/dc/dcmitype/StillImage"/>
    <dc:title/>
   </cc:Work>
  </rdf:RDF>
 </metadata>
 <g id="layer1" transform="translate(0,4)">
  <path id="path12266" d="m18.5-1c-0.13765 0.1451-0.25421 0.31046-0.36537 0.47663-0.06972 0.090741-0.12058 0.1952-0.18809 0.28725-0.01214 0.016569-0.02751 0.030499-0.04129 0.04575-0.01247 0.018078-0.02493 0.036156-0.03741 0.054234-0.04786 0.094554-0.12739 0.16703-0.1815 0.25705-0.14767 0.24571 0.0587-0.075564-0.08879 0.15083-0.13998 0.24388-0.28167 0.48664-0.43051 0.72528-0.23109 0.38937-0.4403 0.79086-0.64242 1.1959-0.2382 0.46829-0.55329 0.88804-0.87459 1.3008-0.26871 0.33912-0.55575 0.6632-0.81982 1.0061-0.15129 0.19646-0.2958 0.3981-0.44362 0.59721-0.41336 0.5753-0.82186 1.1539-1.2475 1.7202-0.30812 0.41706-0.66275 0.79151-1.0456 1.1392-0.49001 0.41751-0.98756 0.82612-1.4754 1.2462-0.29334 0.26167-0.56856 0.54435-0.88142 0.78329-0.064369 0.049162-0.12748 0.10073-0.19712 0.14202-0.79726 0.47264-1.6018 0.93283-2.4027 1.3992-0.074644 0.03664-0.14727 0.07775-0.22393 0.10991-0.11028 0.04626-0.38376 0.13115-0.49568 0.16513-0.26263 0.07974-0.52757 0.14394-0.79467 0.20645-0.44568 0.10753-0.90082 0.15827-1.3576 0.18265-0.30524 0.011192-0.60576-0.075677-0.86763-0.2333-0.056837-0.034219-0.1086-0.076267-0.16291-0.11439-0.30759-0.21528-0.54932-0.51604-0.7308-0.8437-0.04336-0.078287-0.079951-0.16016-0.11993-0.24024-0.23768-0.46771-0.36517-0.94914-0.48801-1.4549-0.11998-0.48799-0.16863-0.98923-0.21751-1.4883-0.053298-0.4188-0.069534-0.8388-0.016684-1.2579 0.063494-0.36307 0.13829-0.70331 0.27802-1.0449 0.19769-0.41819 0.45781-0.80415 0.72851-1.1777 0.32072-0.44596 0.73827-0.80626 1.16-1.152 0.28486-0.22338 0.58339-0.43035 0.89722-0.61088 2.413-1.388 1.5482-1.0216 2.5816-1.4483 0.31302-0.11477 0.64978-0.10972 0.97842-0.11624 0.18269 0.00773 0.36659-0.012552 0.54919-0.00266 0.10309 0.00558 0.14893 0.018055 0.2497 0.037613 0.10734 0.043174 0.22497 0.052439 0.33489 0.084839 0.11719 0.034543 0.23186 0.091077 0.34405 0.13883 0.2609 0.11499 0.48324 0.30414 0.71151 0.47301 0.32729 0.25239 0.6637 0.49215 1 0.73211 0.30569 0.20106 0.59944 0.41988 0.87317 0.6629 0.23521 0.2255 0.45339 0.47127 0.65442 0.72804 0.20438 0.30171 0.34938 0.63704 0.51318 0.96143 0.21221 0.38999 0.41093 0.78725 0.6344 1.1711 0.21898 0.35937 0.43955 0.71735 0.65201 1.0807 0.20921 0.32118 0.38389 0.66237 0.56667 0.9989 0.18823 0.33876 0.37209 0.68056 0.59524 0.99785 0.18054 0.27385 0.43947 0.46406 0.7134 0.63379 0.25384 0.13953 0.50903 0.27558 0.76493 0.4112 0.19443 0.08894 0.39693 0.15973 0.60917 0.18819 0.2072 0.01829 0.4153 0.01757 0.62308 0.01633 0.03696-2.44e-4 0.07422 4e-3 0.11088-7.34e-4 0.03429-0.0044 0.06672-0.0182 0.10033-0.02631 0.08341-0.02011 0.13245-0.026 0.21498-0.05224 0.0708-0.02252 0.13952-0.05122 0.20973-0.07557 0.07419-0.04148 0.14941-0.07684 0.22038-0.12361l-2.0926 1.6799v0c-0.07554 0.0275-0.14985 0.05926-0.2292 0.07449-0.22296 0.06148-0.44973 0.10396-0.68207 0.08702-0.22242-0.0045-0.44846-8.5e-4 -0.66594-0.05357-0.21725-0.06398-0.42565-0.15556-0.62309-0.26676-0.2589-0.13878-0.51534-0.28262-0.7656-0.43657-0.29408-0.1958-0.56219-0.43471-0.75345-0.73539-0.211-0.33336-0.41451-0.67116-0.59932-1.02-0.18867-0.33251-0.36963-0.66932-0.56445-0.99827-0.20082-0.37021-0.43003-0.72314-0.64054-1.0877-0.21214-0.39144-0.4258-0.78193-0.64227-1.1709-0.17566-0.30248-0.32825-0.61934-0.52794-0.90719-0.18306-0.25168-0.39702-0.47775-0.62907-0.68469-0.25847-0.23579-0.52339-0.46426-0.81166-0.6633-0.34692-0.23545-0.68568-0.4828-1.0375-0.71092-0.22227-0.15086-0.4471-0.30792-0.69885-0.40483-0.21074-0.075523-0.42811-0.1335-0.64906-0.1698-0.24989-0.02116-0.50211-0.013506-0.75263-0.012421-0.30812 0.012408-0.61482 0.045572-0.89679 0.18139-0.86346 0.41441-0.15085 0.077668 1.8468-1.0924 0.073513-0.043057-0.14935 0.082006-0.22323 0.12443-0.15567 0.089402-0.32751 0.19226-0.47626 0.29249-0.0805 0.054241-0.15828 0.11244-0.23741 0.16867-0.41506 0.32513-0.82611 0.66149-1.1539 1.0789-0.26768 0.34892-0.51462 0.7145-0.71964 1.1044-0.137 0.31877-0.24187 0.64821-0.30731 0.98969-0.079725 0.40671-0.080638 0.80717-0.049688 1.22 0.038086 0.48826 0.096539 0.97615 0.20717 1.4538 0.10332 0.4813 0.22169 0.96076 0.44546 1.4027 0.085045 0.1542 0.14057 0.26731 0.24446 0.40866 0.15733 0.21406 0.35789 0.38843 0.57926 0.53277 0.31197 0.17251 0.57447 0.2438 0.93307 0.21844 0.43538-0.02834 0.86869-0.08244 1.2924-0.19019 0.51087-0.12495 1.0216-0.27511 1.4774-0.5452-0.65712 0.3841-1.3127 0.77083-1.9714 1.1523-0.07366 0.04266 0.14529-0.08883 0.21629-0.1358 0.07594-0.05024 0.15194-0.10064 0.22441-0.15579 0.25063-0.19075 0.47715-0.41242 0.70827-0.6256 0.083805-0.076326 0.16566-0.15485 0.25142-0.22897 0.16705-0.14438 0.34197-0.27941 0.50906-0.42373 0.27837-0.24045 0.18506-0.1696 0.45827-0.40081 0.069124-0.0585 0.13969-0.11526 0.20953-0.1729 0.39152-0.3403 0.75849-0.70589 1.0885-1.1073 0.45442-0.56126 0.88857-1.1368 1.2984-1.7319 0.38081-0.54326 0.76398-1.0847 1.202-1.5839 0.30218-0.40546 0.61882-0.80366 0.86487-1.2472 0.20689-0.39088 0.3861-0.79597 0.59482-1.186 0.11999-0.23662 0.26921-0.45764 0.37782-0.69965 0.1373-0.28839-0.05542 0.10287 0.08748-0.14773 0.05747-0.10079 0.01382-0.065759 0.07691-0.16263 0.01312-0.020133 0.03199-0.035869 0.04688-0.054708 0.01375-0.017374 0.02598-0.035893 0.03897-0.05384 0.02508-0.040989 0.04207-0.087077 0.07065-0.12568 0.01415-0.019103 0.03617-0.031139 0.05145-0.049345 0.05948-0.070863 0.11366-0.1493 0.16316-0.22737 0.11148-0.15952 0.22402-0.31971 0.32419-0.48615l2.4807-1.0573z" fill="#404040" stroke="#404040" stroke-linecap="round" stroke-linejoin="round" stroke-width=".2"/>
 </g>
</svg>
