<?xml version="1.0" encoding="UTF-8"?>
<!-- Created with Inkscape (http://www.inkscape.org/) -->
<svg id="svg3039" width="20" height="20" version="1.1" xmlns="http://www.w3.org/2000/svg" xmlns:cc="http://creativecommons.org/ns#" xmlns:dc="http://purl.org/dc/elements/1.1/" xmlns:rdf="http://www.w3.org/1999/02/22-rdf-syntax-ns#">
 <metadata id="metadata3044">
  <rdf:RDF>
   <cc:Work rdf:about="">
    <dc:format>image/svg+xml</dc:format>
    <dc:type rdf:resource="http://purl.org/dc/dcmitype/StillImage"/>
    <dc:title/>
   </cc:Work>
  </rdf:RDF>
 </metadata>
 <g id="layer1" transform="translate(0,4)" fill="#c0c0c0" stroke="#404040" stroke-width=".7">
  <path id="path3867" d="m10.515-0.75983c-1.3541-1.3071-2.9347-2.1542-4.5074-2.4399-1.5727-0.28577-3.236 0.022637-4.355 1.1819-1.119 1.1592-1.3686 2.8324-1.0275 4.394 0.34108 1.5616 1.2434 3.1114 2.5974 4.4185 1.3541 1.3071 2.9347 2.1542 4.5074 2.4399 1.5727 0.28577 3.236-0.022637 4.355-1.1819 0.62623-0.64873 0.97782-1.457 1.1083-2.318-0.4954-0.24643-0.97866-0.42449-1.4234-0.5053-0.38729-0.070376-0.72653-0.066891-1.0171-0.026254-0.037509 0.48061-0.20703 0.8444-0.46657 1.1133-0.41526 0.43018-1.0963 0.63766-2.0915 0.45682-0.9952-0.18084-2.2059-0.78292-3.2359-1.7772-1.03-0.99433-1.6745-2.183-1.8903-3.1712-0.21584-0.9882-0.032516-1.6761 0.38274-2.1063 0.41526-0.43018 1.0963-0.63766 2.0915-0.45682 0.9952 0.18084 2.2059 0.78292 3.2359 1.7772 0.55478 0.53554 0.98828 1.1583 1.3126 1.7449 0.69083-0.14621 1.4261-0.14607 2.1435-0.015722 0.22716 0.041278 0.43914 0.10066 0.66593 0.16505-0.43434-1.3063-1.246-2.5927-2.3857-3.6929z" color="#000000" filter="url(#filter3928)" style="block-progression:tb;text-indent:0;text-transform:none"/>
  <path id="path3879" d="m9.4766 12.769c1.3541 1.3071 2.9347 2.1542 4.5074 2.4399 1.5727 0.28577 3.236-0.02264 4.355-1.1819 1.119-1.1592 1.3686-2.8324 1.0275-4.394-0.34108-1.5616-1.2434-3.1114-2.5974-4.4185-1.3541-1.3071-2.9347-2.1542-4.5074-2.4399-1.5727-0.28577-3.236 0.022637-4.355 1.1819-0.62623 0.64873-0.97782 1.457-1.1083 2.318 0.4954 0.24643 0.97866 0.42449 1.4233 0.5053 0.38729 0.070376 0.72653 0.066891 1.0171 0.026254 0.03751-0.48061 0.20703-0.8444 0.46657-1.1133 0.41526-0.43018 1.0963-0.63766 2.0915-0.45682s2.2059 0.78292 3.2359 1.7772c1.03 0.99433 1.6745 2.183 1.8903 3.1712 0.21584 0.9882 0.03252 1.6761-0.38274 2.1063-0.41526 0.43018-1.0963 0.63766-2.0915 0.45682-0.9952-0.18084-2.2059-0.78292-3.2359-1.7772-0.55478-0.53554-0.98828-1.1583-1.3126-1.7449-0.69083 0.14621-1.4261 0.14607-2.1435 0.015722-0.22716-0.041278-0.43914-0.10066-0.66593-0.16505 0.43434 1.3063 1.246 2.5927 2.3857 3.6929z" color="#000000" filter="url(#filter3944)" style="block-progression:tb;text-indent:0;text-transform:none"/>
 </g>
</svg>
