<?xml version="1.0" encoding="UTF-8"?>
<!-- Created with Inkscape (http://www.inkscape.org/) -->
<svg id="svg3039" width="16" height="16" version="1.1" xmlns="http://www.w3.org/2000/svg" xmlns:cc="http://creativecommons.org/ns#" xmlns:dc="http://purl.org/dc/elements/1.1/" xmlns:rdf="http://www.w3.org/1999/02/22-rdf-syntax-ns#">
 <metadata id="metadata3044">
  <rdf:RDF>
   <cc:Work rdf:about="">
    <dc:format>image/svg+xml</dc:format>
    <dc:type rdf:resource="http://purl.org/dc/dcmitype/StillImage"/>
    <dc:title/>
   </cc:Work>
  </rdf:RDF>
 </metadata>
 <g id="layer1" fill="none" stroke="#606060">
  <path id="path4629" d="m11.468 8.4823s-0.59195-0.088682-0.82822-0.25484c-0.52114-0.36648-0.83636-0.97267-1.1468-1.529-0.31127-0.5579-0.33607-1.2594-0.70081-1.7839-0.30911-0.44452-0.92714-0.6217-1.2105-1.0831-0.34506-0.56186-0.36731-1.2675-0.50968-1.9113-0.079157-0.35795 0.10647-0.86898-0.19113-1.0831-0.34864-0.25081-0.9291-0.06454-1.2742 0.19113-0.39689 0.29405-0.55505 0.85081-0.6371 1.3379-0.09583 0.5689 0.013733 1.1712 0.19113 1.7202 0.17252 0.53388 0.68549 0.92272 0.82823 1.4653 0.054025 0.20538 0.13914 0.47666 0 0.6371-0.39355 0.45377-1.186 0.19731-1.7839 0.25484-0.42331 0.040732-0.85055 0.026692-1.2742 0.06371-0.34113 0.029807-0.73243-0.059485-1.0194 0.12742-0.31127 0.20276-0.45651 0.60302-0.57339 0.95564-0.067145 0.20259-0.09358 0.42577-0.06371 0.6371 0.032012 0.22647 0.25235 0.40839 0.25484 0.6371 0.00394 0.36287-0.42075 0.65851-0.38226 1.0194 0.037495 0.35145 0.49808 0.5466 0.57339 0.89193 0.063993 0.29343-0.064783 0.59821-0.12742 0.89194-0.032244 0.1512-0.15786 0.29439-0.12742 0.44597 0.080334 0.39995 0.60429 0.58049 0.76452 0.95564 0.12622 0.29554-0.024465 0.67243 0.12742 0.95564 0.21338 0.39789 0.60198 0.71974 1.0194 0.89193 0.92456 0.38144 1.995 0.2302 2.9944 0.19113 0.75025-0.02933 1.4878-0.20373 2.2298-0.31855 0.63829-0.09877 1.2768-0.19776 1.9113-0.31855 0.2987-0.05686 0.89193-0.19113 0.89193-0.19113z" stroke-width="1px"/>
  <rect id="rect4631" x="11.404" y="8.1" width="2.9306" height="6.6895" ry="6.8652e-6" stroke-linecap="round" stroke-linejoin="round"/>
 </g>
</svg>
