/* XPM */
static char *tm_large_around[] = {
/* columns rows colors chars-per-pixel */
"16 16 56 1 ",
"  c gray25",
". c #414141",
"X c #434343",
"o c gray30",
"O c #505050",
"+ c #535353",
"@ c gray33",
"# c #555555",
"$ c gray34",
"% c gray36",
"& c #5D5D5D",
"* c #646464",
"= c DimGray",
"- c #6D6D6D",
"; c gray45",
": c gray48",
"> c #6060A0",
", c #7979AB",
"< c #7C7CAC",
"1 c #7D7DAC",
"2 c #7D7DAD",
"3 c #7E7EAD",
"4 c #7F7FAD",
"5 c gray53",
"6 c gray55",
"7 c gray56",
"8 c #909090",
"9 c gray62",
"0 c #9F9F9F",
"q c #9898B7",
"w c #9898B9",
"e c gray64",
"r c #A4A4A4",
"t c #A5A5A5",
"y c #A9A9A9",
"u c #AAAAAA",
"i c gray67",
"p c gray68",
"a c #AFAFAF",
"s c gray69",
"d c gray70",
"f c #B4B4B4",
"g c #B7B7B7",
"h c #B9B9B9",
"j c #BBBBBB",
"k c #BCBCBC",
"l c gray74",
"z c gray79",
"x c #CBCBCB",
"c c gray80",
"v c #CDCDCD",
"b c #CDCDCE",
"n c #CECECE",
"m c gray81",
"M c #CFCFD0",
"N c None",
/* pixels */
"NNp:eNNNNNNe:pNN",
"NN*.gNNqqNNg.&NN",
"Ng.+NNw>>qNN+ gN",
"N:.5Nw>>>>wN6 ;N",
"N+ eNNc22MNNp oN",
"M. gNNN22cNNl .c",
"l  cNNN2,cNNc  g",
"l  cNNN22cNNc  g",
"c  lNNN,,MNNl  c",
"N+ pNNN,2cNNp oN",
"N; 6NNNq,MNN6 -N",
"Np &NNm2,cMN& pN",
"NN&.gw>>>>ql.+cN",
"NNe-9Nq>>qNe-9NN",
"NNNcNNNqqNNNMNNN",
"NNNNNNNNNNNNNNNN"
};
