/* XPM */
static char *tm_line_style[] = {
/* columns rows colors chars-per-pixel */
"15 17 255 2 ",
"   c None",
".  c None",
"X  c None",
"o  c None",
"O  c None",
"+  c None",
"@  c None",
"#  c None",
"$  c None",
"%  c None",
"&  c None",
"*  c None",
"=  c None",
"-  c None",
";  c None",
":  c #CECECE",
">  c #C5C5C5",
",  c #C2C2C2",
"<  c #C2C2C2",
"1  c #C2C2C2",
"2  c #C2C2C2",
"3  c #C2C2C2",
"4  c #C2C2C2",
"5  c #C2C2C2",
"6  c #C2C2C2",
"7  c #C2C2C2",
"8  c #C2C2C2",
"9  c #C2C2C2",
"0  c #C2C2C2",
"q  c #CBCBCB",
"w  c #C0C0C0",
"e  c #6E6E6E",
"r  c #4C4C4C",
"t  c #4C4C4C",
"y  c #4C4C4C",
"u  c #4C4C4C",
"i  c #4C4C4C",
"p  c #4C4C4C",
"a  c #4C4C4C",
"s  c #4C4C4C",
"d  c #4C4C4C",
"f  c #4C4C4C",
"g  c #4C4C4C",
"h  c #4C4C4C",
"j  c #A3A3A3",
"k  c #CACACA",
"l  c #AAAAAA",
"z  c #9D9D9D",
"x  c #9D9D9D",
"c  c #9D9D9D",
"v  c #9D9D9D",
"b  c #9D9D9D",
"n  c #9D9D9D",
"m  c #9D9D9D",
"M  c #9D9D9D",
"N  c #9D9D9D",
"B  c #9D9D9D",
"V  c #9D9D9D",
"C  c #9D9D9D",
"Z  c #BFBFBF",
"A  c None",
"S  c None",
"D  c None",
"F  c None",
"G  c None",
"H  c None",
"J  c None",
"K  c None",
"L  c None",
"P  c None",
"I  c None",
"U  c None",
"Y  c None",
"T  c None",
"R  c None",
"E  c #CCCCCC",
"W  c #BCBCBC",
"Q  c #C8C8C8",
"!  c #C3C3C3",
"~  c #BBBBBB",
"^  c #C9C9C9",
"/  c #B9B9B9",
"(  c #CECECE",
")  c #C0C0C0",
"_  c #C1C1C1",
"`  c #C6C6C6",
"'  c #B6B6B6",
"]  c #CDCDCD",
"[  c #BDBDBD",
"{  c #C7C7C7",
"}  c #C1C1C1",
"|  c #6F6F6F",
" . c #ABABAB",
".. c #919191",
"X. c #696969",
"o. c #B2B2B2",
"O. c #616161",
"+. c #C8C8C8",
"@. c #828282",
"#. c #868686",
"$. c #A3A3A3",
"%. c #525252",
"&. c #C4C4C4",
"*. c #737373",
"=. c #A3A3A3",
"-. c #CBCBCB",
";. c #B3B3B3",
":. c #C5C5C5",
">. c #BDBDBD",
",. c #B1B1B1",
"<. c #C7C7C7",
"1. c #AFAFAF",
"2. c #CDCDCD",
"3. c #B8B8B8",
"4. c #BABABA",
"5. c #C2C2C2",
"6. c #AAAAAA",
"7. c #CCCCCC",
"8. c #B4B4B4",
"9. c #C2C2C2",
"0. c None",
"q. c None",
"w. c None",
"e. c None",
"r. c None",
"t. c None",
"y. c None",
"u. c None",
"i. c None",
"p. c None",
"a. c None",
"s. c None",
"d. c None",
"f. c None",
"g. c None",
"h. c #CBCBCB",
"j. c #B3B3B3",
"k. c #A9A9A9",
"l. c #A9A9A9",
"z. c #C8C8C8",
"x. c #CBCBCB",
"c. c #B1B1B1",
"v. c #A9A9A9",
"b. c #ABABAB",
"n. c #BFBFBF",
"m. c None",
"M. c #B5B5B5",
"N. c #A9A9A9",
"B. c #A9A9A9",
"V. c #C2C2C2",
"C. c #C1C1C1",
"Z. c #6F6F6F",
"A. c #4D4D4D",
"S. c #4D4D4D",
"D. c #B6B6B6",
"F. c #C1C1C1",
"G. c #6B6B6B",
"H. c #4D4D4D",
"J. c #545454",
"K. c #989898",
"L. c None",
"P. c #757575",
"I. c #4D4D4D",
"U. c #4D4D4D",
"Y. c #A3A3A3",
"T. c #CCCCCC",
"R. c #BCBCBC",
"E. c #B5B5B5",
"W. c #B5B5B5",
"Q. c #CACACA",
"!. c #CCCCCC",
"~. c #BBBBBB",
"^. c #B5B5B5",
"/. c #B6B6B6",
"(. c #C4C4C4",
"). c None",
"_. c #BDBDBD",
"`. c #B5B5B5",
"'. c #B5B5B5",
"]. c #C7C7C7",
"[. c None",
"{. c None",
"}. c None",
"|. c None",
" X c None",
".X c None",
"XX c None",
"oX c None",
"OX c None",
"+X c None",
"@X c None",
"#X c None",
"$X c None",
"%X c None",
"&X c None",
"*X c #CACACA",
"=X c #AAAAAA",
"-X c #9D9D9D",
";X c #9D9D9D",
":X c #BBBBBB",
">X c #B4B4B4",
",X c #ACACAC",
"<X c #9D9D9D",
"1X c #A2A2A2",
"2X c #B6B6B6",
"3X c #B6B6B6",
"4X c #ABABAB",
"5X c #9D9D9D",
"6X c #9D9D9D",
"7X c #BFBFBF",
"8X c #C0C0C0",
"9X c #6E6E6E",
"0X c #4C4C4C",
"qX c #4C4C4C",
"wX c #9A9A9A",
"eX c #888888",
"rX c #737373",
"tX c #4C4C4C",
"yX c #585858",
"uX c #8E8E8E",
"iX c #8E8E8E",
"pX c #6F6F6F",
"aX c #4C4C4C",
"sX c #4C4C4C",
"dX c #A3A3A3",
"fX c #CECECE",
"gX c #C5C5C5",
"hX c #C2C2C2",
"jX c #C2C2C2",
"kX c #CACACA",
"lX c #C8C8C8",
"zX c #C6C6C6",
"xX c #C2C2C2",
"cX c #C3C3C3",
"vX c #C9C9C9",
"bX c #C9C9C9",
"nX c #C6C6C6",
"mX c #C2C2C2",
"MX c #C2C2C2",
"NX c #CBCBCB",
"BX c None",
"VX c None",
"CX c None",
"ZX c None",
"AX c None",
"SX c None",
"DX c None",
"FX c None",
"GX c None",
"HX c None",
"JX c None",
"KX c None",
"LX c None",
"PX c None",
"IX c None",
/* pixels */
"  . X o O + @ # $ % & * = - ; ",
": > , < 1 2 3 4 5 6 7 8 9 0 q ",
"w e r t y u i p a s d f g h j ",
"k l z x c v b n m M N B V C Z ",
"A S D F G H J K L P I U Y T R ",
"E W Q ! ~ ^ / ( ) _ ` ' ] [ { ",
"} |  ...X.o.O.+.@.#.$.%.&.*.=.",
"-.;.:.>.,.<.1.2.3.4.5.6.7.8.9.",
"0.q.w.e.r.t.y.u.i.p.a.s.d.f.g.",
"h.j.k.l.z.x.c.v.b.n.m.M.N.B.V.",
"C.Z.A.S.D.F.G.H.J.K.L.P.I.U.Y.",
"T.R.E.W.Q.!.~.^./.(.)._.`.'.].",
"[.{.}.|. X.XXXoXOX+X@X#X$X%X&X",
"*X=X-X;X:X>X,X<X1X2X3X4X5X6X7X",
"8X9X0XqXwXeXrXtXyXuXiXpXaXsXdX",
"fXgXhXjXkXlXzXxXcXvXbXnXmXMXNX",
"BXVXCXZXAXSXDXFXGXHXJXKXLXPXIX"
};
