<?xml version="1.0" encoding="UTF-8"?>
<!-- Created with Inkscape (http://www.inkscape.org/) -->
<svg id="svg3039" width="20" height="20" version="1.1" xmlns="http://www.w3.org/2000/svg" xmlns:cc="http://creativecommons.org/ns#" xmlns:dc="http://purl.org/dc/elements/1.1/" xmlns:rdf="http://www.w3.org/1999/02/22-rdf-syntax-ns#">
 <metadata id="metadata3044">
  <rdf:RDF>
   <cc:Work rdf:about="">
    <dc:format>image/svg+xml</dc:format>
    <dc:type rdf:resource="http://purl.org/dc/dcmitype/StillImage"/>
    <dc:title/>
   </cc:Work>
  </rdf:RDF>
 </metadata>
 <g id="layer1" transform="translate(0,4)">
  <path id="text3315" d="m4.7787-1.6808q0-0.92914 1.266-0.91753 2.0673 0 3.403 3.4494 0.31359 0.813 0.99883 3.1591 1.2079 4.1347 2.1022 6.0394 0.8943 1.9047 1.8467 2.3112 0.02323 0 0.13937 0.04646 0.11614 0.04646 0.19744 0.0813 0.09291 0.03484 0.20906 0.10453 0.11614 0.06969 0.17421 0.1626 0.05807 0.0813 0.11614 0.22067 0.06969 0.13937 0.06969 0.31359 0 0.36004-0.2439 0.62717-0.23229 0.26713-0.61556 0.26713-0.92914 0-1.8351-1.9628-0.90592-1.9744-2.3345-6.6434-0.813 2.137-1.6841 4.1231-0.85946 1.986-1.3473 2.9733-0.4878 0.98722-0.60394 1.115-0.13937 0.1626-0.54587 0.1626h-0.76654q-0.52264 0-0.52264-0.26713 0-0.1626 0.52264-1.1382 0.53426-0.9756 1.6725-3.5191 1.1382-2.5435 2.3345-5.8072 0.069686-0.26713 0.069686-0.39489 0-0.20906-0.31359-1.0221-0.31359-0.813-1.0917-1.7189-0.76654-0.90592-1.7189-0.90592-0.069686 0-0.27874 0.023229-0.19744 0.023229-0.31359 0.023229-0.47619 0-0.69686-0.30197-0.20906-0.31359-0.20906-0.60394z" fill="#404040" stroke="#404040" stroke-width=".5" aria-label="λ"/>
 </g>
</svg>
