<?xml version="1.0" encoding="UTF-8"?>
<!-- Created with Inkscape (http://www.inkscape.org/) -->
<svg id="svg3039" width="20" height="20" version="1.1" xmlns="http://www.w3.org/2000/svg" xmlns:cc="http://creativecommons.org/ns#" xmlns:dc="http://purl.org/dc/elements/1.1/" xmlns:rdf="http://www.w3.org/1999/02/22-rdf-syntax-ns#">
 <metadata id="metadata3044">
  <rdf:RDF>
   <cc:Work rdf:about="">
    <dc:format>image/svg+xml</dc:format>
    <dc:type rdf:resource="http://purl.org/dc/dcmitype/StillImage"/>
    <dc:title/>
   </cc:Work>
  </rdf:RDF>
 </metadata>
 <g id="layer1" transform="translate(0,4)" stroke="#404040" stroke-linecap="round">
  <path id="path3802" d="m5-0.5h14" fill="#404040" stroke-width="1.5"/>
  <path id="path3810" d="m5-2.5h14" fill="#404040" stroke-dashoffset=".5" stroke-linejoin="round" stroke-width="1.5"/>
  <path id="path4534" d="m5 4.5h14" fill="none" stroke-dashoffset=".5" stroke-linejoin="round" stroke-width="1.5"/>
  <path id="path4536" d="m5 6.5h14" fill="none" stroke-dashoffset=".5" stroke-linejoin="round" stroke-width="1.5"/>
  <path id="path4538" d="m5 11.5h14" fill="none" stroke-dashoffset=".5" stroke-linejoin="round" stroke-width="1.5"/>
  <path id="path4569" transform="translate(0,-4)" d="m2 1.5a0.5 0.5 0 1 1-1 0 0.5 0.5 0 1 1 1 0z" fill="none" stroke-dashoffset=".5" stroke-linejoin="round" stroke-width="1.9"/>
  <path id="path4573" d="m5 13.5h14" fill="none" stroke-dashoffset=".5" stroke-linejoin="round" stroke-width="1.5"/>
  <path id="path4577" transform="translate(0,3)" d="m2 1.5a0.5 0.5 0 1 1-1 0 0.5 0.5 0 1 1 1 0z" fill="none" stroke-dashoffset=".5" stroke-linejoin="round" stroke-width="1.9"/>
  <path id="path4579" transform="translate(0,10)" d="m2 1.5a0.5 0.5 0 1 1-1 0 0.5 0.5 0 1 1 1 0z" fill="none" stroke-dashoffset=".5" stroke-linejoin="round" stroke-width="1.9"/>
 </g>
</svg>
