<?xml version="1.0" encoding="UTF-8"?>
<!-- Created with Inkscape (http://www.inkscape.org/) -->
<svg id="svg3039" width="20" height="20" version="1.1" xmlns="http://www.w3.org/2000/svg" xmlns:cc="http://creativecommons.org/ns#" xmlns:dc="http://purl.org/dc/elements/1.1/" xmlns:rdf="http://www.w3.org/1999/02/22-rdf-syntax-ns#">
 <metadata id="metadata3044">
  <rdf:RDF>
   <cc:Work rdf:about="">
    <dc:format>image/svg+xml</dc:format>
    <dc:type rdf:resource="http://purl.org/dc/dcmitype/StillImage"/>
    <dc:title/>
   </cc:Work>
  </rdf:RDF>
 </metadata>
 <g id="layer1" transform="translate(0,4)">
  <path id="text11324" d="m1.0189 13.508q0-0.65104 0.6743-0.65104h0.46503q1.1393 0 1.5346-0.09301l3.3947-13.579q-0.41853-0.046503-1.2788-0.046503h-0.46503q-0.60454 0-0.60454-0.48828 0-0.62779 0.69755-0.62779h8.4403q1.6974 0 2.6972 0.32552 2.2322 0.7208 2.2322 2.8134 0 1.2788-0.95332 2.4647-0.93006 1.1626-2.5577 1.6974-0.39528 0.13951-1.2323 0.32552 1.6044 0.13951 2.5577 0.95332 0.97657 0.79055 0.97657 2.1391 0 1.7439-1.5579 3.3482-1.5346 1.6044-4.2318 1.8369-0.39528 0.0465-1.2091 0.0465h-8.9519q-0.62779 0-0.62779-0.46503zm5.5804-0.6743q0.25577 0.02325 0.81381 0.02325h2.8367q1.4649 0 2.3717-0.6743 0.86031-0.62779 1.3253-1.7206 0.48828-1.1161 0.48828-2.2089 0-0.74405-0.23252-1.2323-0.23252-0.48828-0.65104-0.65104-0.41853-0.18601-0.6743-0.23252-0.23252-0.046503-0.60454-0.046503h-3.976zm1.9066-7.58h3.0692q1.1626 0 2.0229-0.46503 0.88356-0.48828 1.3021-1.2091t0.60454-1.3718q0.20926-0.65104 0.20926-1.1858 0-1.8834-1.9996-1.8834h-2.6507q-0.86031 0-1.0463 0.023252z" fill="#404040" stroke="#404040" stroke-width=".5" aria-label="B"/>
  <flowRoot id="flowRoot11328" fill="#000000" font-family="'CMU Sans Serif'" font-style="italic" font-weight="bold" letter-spacing="0px" stroke-width="1px" text-align="center" text-anchor="middle" word-spacing="0px" style="line-height:0.01%" xml:space="preserve"><flowRegion id="flowRegion11330"><rect id="rect11332" x="4.6851" y="4.9084" width="12.163" height="12.208"/></flowRegion><flowPara id="flowPara11334" font-size="12px" style="line-height:0.25"> </flowPara></flowRoot>
 </g>
</svg>
