<?xml version="1.0" encoding="UTF-8"?>
<!-- Created with Inkscape (http://www.inkscape.org/) -->
<svg id="svg3039" width="20" height="20" version="1.1" xmlns="http://www.w3.org/2000/svg" xmlns:cc="http://creativecommons.org/ns#" xmlns:dc="http://purl.org/dc/elements/1.1/" xmlns:rdf="http://www.w3.org/1999/02/22-rdf-syntax-ns#">
 <metadata id="metadata3044">
  <rdf:RDF>
   <cc:Work rdf:about="">
    <dc:format>image/svg+xml</dc:format>
    <dc:type rdf:resource="http://purl.org/dc/dcmitype/StillImage"/>
    <dc:title/>
   </cc:Work>
  </rdf:RDF>
 </metadata>
 <g id="layer1" transform="translate(0,4)" fill="#404040" stroke="#404040" stroke-width=".5">
  <path id="text3338" d="m9.9775-0.096842c0-0.49043-0.82996-0.50929-1.5656-0.50929-0.24522 0-0.69792 0-1.1884 0.094314-0.056588-0.16976-0.094314-0.3018-0.094314-0.62247 0-0.26408 0.094314-0.69792 0.094314-0.69792 0-0.1509-0.094314-0.24522-0.22635-0.24522-0.33953 0-0.33953 0.86768-0.33953 0.92427 0 0.37725 0.11318 0.66019 0.13204 0.73565-2.0183 0.56588-3.301 2.0749-3.301 3.5273 0 0.69792 0.33953 1.4902 1.2261 1.9994l-0.24522 0.18863c-2.056 1.3581-2.471 3.1312-2.471 3.8103 0 0.90541 0.50929 1.4336 0.54702 1.4902 0.60361 0.62247 0.77337 0.69792 2.1881 1.2261 1.1318 0.4527 1.1695 0.4527 2.2824 0.88655 0.28294 0.13204 0.66019 0.26408 0.66019 0.8111 0 0.43384-0.33953 0.99972-0.92427 0.99972-0.82996 0-1.4524-0.4527-1.6599-0.60361-0.11318-0.07545-0.13204-0.09431-0.20749-0.09431-0.1509 0-0.18863 0.13204-0.18863 0.20749 0 0.22635 0.99972 0.90541 2.056 0.90541 1.1695 0 1.9617-1.094 1.9617-2.0183 0-0.90541-0.69792-1.2449-0.90541-1.3393l-1.1506-0.43384c-0.37725-0.1509-0.75451-0.3018-1.1506-0.43384l-1.1318-0.4527c-0.84882-0.33953-1.4147-0.88655-1.4147-1.6788 0-0.77337 0.73565-2.4144 2.3201-3.2067 0.69792 0.24522 1.2638 0.24522 1.6599 0.24522 0.56588 0 1.7542 0 1.7542-0.58474 0-0.47157-0.8111-0.50929-1.5467-0.50929-0.33953 0-0.88655 0-1.5845 0.22635-0.49043-0.49043-0.56588-1.1129-0.56588-1.4713 0-1.0563 0.67906-2.5087 2.0938-3.2067 0.33953 0.41498 0.77337 0.41498 1.2072 0.41498 0.47157 0 1.6788 0 1.6788-0.58474zm-0.49043 0.018863c-0.1509 0.056588-0.33953 0.1509-1.1695 0.1509-0.35839 0-0.58474 0-0.79223-0.16976 0.3018-0.094314 0.69792-0.094314 0.90541-0.094314 0.64133 0 0.71678 0.018863 1.0563 0.11318zm-1.2827 5.1307c-0.1509 0.075451-0.33953 0.1509-1.2072 0.1509-0.43384 0-0.60361 0-0.94314-0.1509 0.43384-0.11318 0.84882-0.11318 1.0752-0.11318 0.66019 0 0.73565 0.018863 1.0752 0.11318z" aria-label="ðœ‰"/>
  <path id="text3342" d="m17.048 12.945c0-0.13232-0.11909-0.13232-0.15878-0.13232-0.13232 0-0.13232 0.0397-0.19848 0.23817-0.26463 0.89976-0.70128 1.6407-1.3496 1.6407-0.22494 0-0.31756-0.13232-0.31756-0.43665 0-0.33079 0.11908-0.64835 0.23817-0.93945 0.2514-0.70128 0.80713-2.1568 0.80713-2.911 0-0.88652-0.56896-1.4158-1.5216-1.4158-1.1909 0-1.8392 0.84683-2.0641 1.1512-0.06616-0.74097-0.60866-1.1512-1.2173-1.1512s-0.86006 0.51604-0.99238 0.75421c-0.21171 0.44988-0.39695 1.2305-0.39695 1.2835 0 0.13232 0.15878 0.13232 0.15878 0.13232 0.13232 0 0.14555-0.01323 0.22494-0.30433 0.22494-0.93945 0.48957-1.5746 0.96591-1.5746 0.26463 0 0.41018 0.17201 0.41018 0.60866 0 0.27787-0.0397 0.42341-0.21171 1.1115l-0.76744 3.0565c-0.0397 0.19848-0.11909 0.5028-0.11909 0.56896 0 0.23817 0.18524 0.35726 0.38372 0.35726 0.15878 0 0.39695-0.10585 0.48957-0.37049 0.01323-0.02646 0.17201-0.64835 0.2514-0.97915l0.2911-1.1909c0.07939-0.2911 0.15878-0.5822 0.22494-0.88652l0.17201-0.66158c0.19848-0.41018 0.89976-1.6143 2.1568-1.6143 0.59543 0 0.71451 0.48957 0.71451 0.92622 0 0.82036-0.64835 2.514-0.86006 3.083-0.11909 0.30433-0.13232 0.46311-0.13232 0.60866 0 0.62189 0.46311 1.085 1.085 1.085 1.2438 0 1.7334-1.9318 1.7334-2.0377z" aria-label="ð‘›"/>
  <path id="text3346" d="m16.934 3.6093h-0.33968c-0.06794 0.40761-0.16304 1.0054-0.29892 1.2093-0.09511 0.1087-0.99186 0.1087-1.2908 0.1087h-2.4457l1.4402-1.3995c2.1196-1.875 2.9348-2.6087 2.9348-3.9674 0-1.5489-1.2228-2.6359-2.8805-2.6359-1.5353 0-2.5408 1.25-2.5408 2.4593 0 0.76088 0.67936 0.76088 0.72012 0.76088 0.23098 0 0.70653-0.16305 0.70653-0.72012 0-0.35326-0.24457-0.70653-0.72012-0.70653-0.1087 0-0.13587 0-0.17663 0.013587 0.3125-0.88316 1.0462-1.3859 1.8343-1.3859 1.2364 0 1.8207 1.1006 1.8207 2.2147 0 1.087-0.67936 2.1603-1.4266 3.0027l-2.6087 2.9076c-0.14946 0.14946-0.14946 0.17663-0.14946 0.50272h5.0408z" aria-label="2"/>
 </g>
</svg>
