<?xml version="1.0" encoding="UTF-8"?>
<!-- Created with Inkscape (http://www.inkscape.org/) -->
<svg id="svg3039" width="20" height="20" version="1.1" xmlns="http://www.w3.org/2000/svg" xmlns:cc="http://creativecommons.org/ns#" xmlns:dc="http://purl.org/dc/elements/1.1/" xmlns:rdf="http://www.w3.org/1999/02/22-rdf-syntax-ns#">
 <metadata id="metadata3044">
  <rdf:RDF>
   <cc:Work rdf:about="">
    <dc:format>image/svg+xml</dc:format>
    <dc:type rdf:resource="http://purl.org/dc/dcmitype/StillImage"/>
    <dc:title/>
   </cc:Work>
  </rdf:RDF>
 </metadata>
 <g id="layer1" transform="translate(0,4)" stroke-width=".5">
  <g id="text5441" fill="#404040" filter="url(#filter5491)" stroke="#404040">
   <path id="path5453" d="m18.887 9.8137h-0.44346c-0.31929 2.9623-1.5255 3.4412-4.3104 3.4412h-4.8958l4.4523-5.0377c0.15964-0.17738 0.15964-0.28381 0.15964-0.28381 0-0.088692-0.07095-0.17738-0.12417-0.24834l-3.6364-5.2506h4.0976c2.9978 0 3.8847 0.63858 4.2572 3.4412h0.44346l-0.49667-3.9911h-9.8448c-0.42572 0-0.4612 4e-7 -0.4612 0.40798l4.4169 6.4213-4.2217 4.8071c-0.17738 0.19512-0.17738 0.2306-0.17738 0.28381 0 0.19512 0.17738 0.19512 0.44346 0.19512h9.8448l0.49667-4.1863" stroke="#404040" stroke-width=".5"/>
  </g>
  <g id="text5445" fill="#a0a1a1" filter="url(#filter5487)" stroke="#a0a0a0">
   <path id="path5450" d="m8.0896 3.2104h-0.29551c-0.21277 1.974-1.0166 2.2932-2.8724 2.2932h-3.2625l2.967-3.357c0.10638-0.11821 0.10638-0.18913 0.10638-0.18913 0-0.059103-0.047282-0.11821-0.082744-0.16549l-2.4232-3.4989h2.7305c1.9977 0 2.5887 0.42554 2.8369 2.2932h0.29551l-0.33098-2.6596h-6.5604c-0.28369 0-0.30733 3e-7 -0.30733 0.27187l2.9433 4.279-2.8133 3.2034c-0.11821 0.13003-0.11821 0.15367-0.11821 0.18913 0 0.13003 0.11821 0.13003 0.29551 0.13003h6.5604l0.33098-2.7896" stroke="#a0a0a0" stroke-width=".5"/>
  </g>
 </g>
</svg>
