<?xml version="1.0" encoding="UTF-8"?>
<!-- Created with Inkscape (http://www.inkscape.org/) -->
<svg id="svg3039" width="20" height="20" version="1.1" xmlns="http://www.w3.org/2000/svg" xmlns:cc="http://creativecommons.org/ns#" xmlns:dc="http://purl.org/dc/elements/1.1/" xmlns:rdf="http://www.w3.org/1999/02/22-rdf-syntax-ns#">
 <metadata id="metadata3044">
  <rdf:RDF>
   <cc:Work rdf:about="">
    <dc:format>image/svg+xml</dc:format>
    <dc:type rdf:resource="http://purl.org/dc/dcmitype/StillImage"/>
    <dc:title/>
   </cc:Work>
  </rdf:RDF>
 </metadata>
 <g id="layer1" transform="translate(0,4)">
  <path id="text3352" d="m17.43 10.616v-9.1219c0-0.17375-0.13031-0.26063-0.26063-0.26063-0.13031 0-0.26063 0.086876-0.26063 0.26063-0.49954 2.78-3.475 4.1266-6.4722 4.1266 0-2.9972 1.3466-5.9727 4.1266-6.4722 0.17375 0 0.26063-0.13031 0.26063-0.26063 0-0.13031-0.08687-0.26063-0.26063-0.26063h-9.1219c-0.17375 0-0.26063 0.13031-0.26063 0.26063 0 0.13031 0.086876 0.26063 0.26063 0.26063 2.78 0.49953 4.1266 3.475 4.1266 6.4722-2.9972 0-5.9727-1.3466-6.4722-4.1266 0-0.17375-0.13031-0.26063-0.26063-0.26063s-0.26063 0.086876-0.26063 0.26063v9.1219c0 0.17375 0.13031 0.26063 0.26063 0.26063s0.26063-0.08688 0.26063-0.26063c0.49953-2.78 3.475-4.1266 6.4722-4.1266 0 2.9972-1.3466 5.9727-4.1266 6.4722-0.17375 0-0.26063 0.13031-0.26063 0.26063 0 0.13031 0.086876 0.26063 0.26063 0.26063h9.1219c0.17375 0 0.26063-0.13031 0.26063-0.26063 0-0.13031-0.08687-0.26063-0.26063-0.26063-2.78-0.49954-4.1266-3.475-4.1266-6.4722 2.9972 0 5.9727 1.3466 6.4722 4.1266 0 0.17375 0.13031 0.26063 0.26063 0.26063 0.13031 0 0.26063-0.08688 0.26063-0.26063z" fill="#404040" stroke="#404040" stroke-width=".5" aria-label="✠"/>
 </g>
</svg>
