/* XPM */
static char *tm_mathbold[] = {
/* columns rows colors chars-per-pixel */
"20 20 81 1 ",
"  c gray25",
". c #414141",
"X c gray26",
"o c #434343",
"O c #444444",
"+ c gray27",
"@ c #464646",
"# c gray28",
"$ c #494949",
"% c #4B4B4B",
"& c #4C4C4C",
"* c #4E4E4E",
"= c gray31",
"- c #505050",
"; c gray32",
": c #535353",
"> c gray33",
", c #555555",
"< c #565656",
"1 c gray34",
"2 c #5B5B5B",
"3 c gray36",
"4 c #5D5D5D",
"5 c gray37",
"6 c #606060",
"7 c gray38",
"8 c #626262",
"9 c #646464",
"0 c #656565",
"q c gray40",
"w c #676767",
"e c #686868",
"r c DimGray",
"t c #6D6D6D",
"y c gray43",
"u c #717171",
"i c #767676",
"p c #777777",
"a c gray47",
"s c gray48",
"d c #7B7B7B",
"f c #7C7C7C",
"g c #7E7E7E",
"h c #818181",
"j c gray51",
"k c #838383",
"l c #848484",
"z c gray52",
"x c #868686",
"c c gray53",
"v c #888888",
"b c #898989",
"n c gray54",
"m c #8B8B8B",
"M c gray55",
"N c #8E8E8E",
"B c gray56",
"V c #959595",
"C c gray62",
"Z c gray66",
"A c gray67",
"S c #ACACAC",
"D c gray68",
"F c gray69",
"G c #B1B1B1",
"H c gray70",
"J c #B4B4B4",
"K c gray71",
"L c #B6B6B6",
"P c #B9B9B9",
"I c #BBBBBB",
"U c gray",
"Y c #C0C0C0",
"T c gray77",
"R c #CACACA",
"E c #CBCBCB",
"W c gray80",
"Q c #CDCDCD",
"! c #CECECE",
"~ c gray81",
"^ c None",
/* pixels */
"^^^^^^^^^^^^^^^^^^^^",
"^^^^QILLLLLLLLYQ^^^^",
"^^^^cOOOOO$OOO$>4V^^",
"^^^^QNtOOOfcNct$ ON^",
"^^^^^^fO >Q^^^^9  4^",
"^^^^^^9  t^^^^^9  >Q",
"^^^^^Q>  c^^^^Q>  p^",
"^^^^^SOOOL^^^^c  $L^",
"^^^^^f  >Q^QLp$O4S^^",
"^^^^^9  $$>$OO$pQ^^^",
"^^^^Q>  tNNNc9O$9Q^^",
"^^^^SOOOL^^^^Q>OOf^^",
"^^^^p  >Q^^^^^4O 9^^",
"^^^^9  9^^^^^Y$  9^^",
"^^^Q>  c^^^^^NO ON^^",
"^^^ZO OL^^^^L$  9Q^^",
"^CN4  $NNNf9> O9I^^^",
"I$OO   O OOO>4cQ^^^^",
"^ISSSSSSSSSLQ^^^^^^^",
"^^^^^^^^^^^^^^^^^^^^"
};
