<?xml version="1.0" encoding="UTF-8" standalone="no"?>
<svg
   id="svg3039"
   viewBox="0 0 20 20.000001"
   version="1.1"
   width="20"
   height="20"
   xmlns="http://www.w3.org/2000/svg"
   xmlns:svg="http://www.w3.org/2000/svg">
  <defs
     id="defs1">
    <style
       id="style1">
      .cls-1 {
        fill: #404040;
        stroke: #404040;
        stroke-width: .5px;
      }
    </style>
  </defs>
  <g
     id="layer1">
    <path
       id="text11324"
       class="cls-1"
       d="m 2.2306532,17.316441 c 0,-0.422824 0.1963534,-0.634232 0.5890515,-0.634232 h 0.4062384 c 0.6635063,0 1.1103747,-0.0302 1.3405878,-0.09061 L 7.5320552,3.3631818 C 7.2883104,3.3329822 6.9159316,3.3178824 6.4149278,3.3178824 H 6.0086894 c -0.3520769,0 -0.528111,-0.1585579 -0.528111,-0.4756736 0,-0.4077245 0.2031236,-0.6115818 0.6093621,-0.6115818 h 7.3732325 c 0.988537,0 1.773942,0.1057085 2.356207,0.3171157 1.299992,0.4681237 1.949993,1.3817118 1.949993,2.7407639 0,0.8305195 -0.277596,1.6308783 -0.832797,2.4010667 -0.54165,0.7550593 -1.286434,1.3062515 -2.234342,1.6535767 -0.230204,0.090608 -0.589042,0.1963074 -1.076505,0.3171157 0.934375,0.090608 1.679158,0.4001753 2.234342,0.9287073 0.568741,0.513423 0.853107,1.208054 0.853107,2.083873 0,1.132584 -0.453648,2.21984 -1.360943,3.261756 -0.893728,1.041985 -2.125992,1.638477 -3.696793,1.789476 -0.230205,0.0302 -0.582282,0.0453 -1.056239,0.0453 H 2.7790485 c -0.3656172,0 -0.5484215,-0.151008 -0.5484215,-0.453024 z M 7.1055498,16.65955 c 0.1489532,0.0151 0.3859279,0.02265 0.7109239,0.02265 h 2.4780693 c 0.853133,0 1.543755,-0.218967 2.071858,-0.65689 0.50103,-0.407725 0.886949,-0.966448 1.157748,-1.676178 0.284366,-0.72486 0.426549,-1.442151 0.426549,-2.151871 0,-0.483223 -0.06771,-0.883388 -0.203124,-1.200485 -0.135412,-0.317115 -0.324996,-0.528523 -0.568732,-0.634231 -0.243744,-0.120809 -0.440098,-0.196307 -0.589051,-0.226517 -0.135413,-0.0302 -0.311456,-0.04529 -0.52811,-0.04529 H 8.5883468 Z M 8.7711075,9.2752495 h 2.6811755 c 0.677082,0 1.266133,-0.151008 1.767155,-0.453024 0.514569,-0.3171157 0.893728,-0.7097403 1.137481,-1.1778836 0.243754,-0.4681431 0.419788,-0.9135976 0.528111,-1.3363829 0.121873,-0.4228243 0.182804,-0.8078795 0.182804,-1.1551851 0,-1.223183 -0.582264,-1.8347746 -1.7468,-1.8347746 h -2.315585 c -0.50103,0 -0.805706,0.00755 -0.914021,0.02265 z" />
  </g>
</svg>
