/* XPM */
static char *tm_macro[] = {
/* columns rows colors chars-per-pixel */
"20 20 42 1 ",
"  c gray25",
". c gray26",
"X c gray27",
"o c #484848",
"O c #494949",
"+ c #4E4E4E",
"@ c gray32",
"# c gray33",
"$ c #626262",
"% c #656565",
"& c DimGray",
"* c gray42",
"= c #767676",
"- c gray47",
"; c gray48",
": c #7E7E7E",
"> c #838383",
", c #848484",
"< c #888888",
"1 c gray56",
"2 c #929292",
"3 c gray60",
"4 c #9A9A9A",
"5 c #9D9D9D",
"6 c #A0A0A0",
"7 c #A4A4A4",
"8 c gray65",
"9 c #A7A7A7",
"0 c #A9A9A9",
"q c #AAAAAA",
"w c gray71",
"e c #BCBCBC",
"r c gray74",
"t c gray",
"y c #C1C1C1",
"u c #C8C8C8",
"i c gray79",
"p c #CBCBCB",
"a c #CDCDCD",
"s c #CECECE",
"d c gray81",
"f c None",
/* pixels */
"ffffffffffffffffffff",
"ffffffffffffffffffff",
"fffft>ffffffff<tffff",
"ffff4 >ffffff< 4ffff",
"ffff=  >ffff<  =ffff",
"ffff@   >ff<   @ffff",
"ffft     <<     tfff",
"fff4  ;X    *+  4fff",
"fff=  91   Xr&  =fff",
"fff@  es%  <f,  @fff",
"fft  .afyO@pf6   tff",
"ff4  #fff57ffe   4ff",
"ff=  &fffffffdo  =ff",
"ff@  :ffffffff$  @ff",
"ft   2ffffffff:   tf",
"f4   9ffffffff3   4f",
"f=   effffffffw   =f",
"f;qi8affffffffa8u0-f",
"ffffffffffffffffffff",
"ffffffffffffffffffff"
};
