<?xml version="1.0" encoding="UTF-8" standalone="no"?>
<!-- Created with Inkscape (http://www.inkscape.org/) -->

<svg
   id="svg3039"
   width="20"
   height="20"
   version="1.1"
   xmlns="http://www.w3.org/2000/svg"
   xmlns:svg="http://www.w3.org/2000/svg"
   xmlns:rdf="http://www.w3.org/1999/02/22-rdf-syntax-ns#"
   xmlns:cc="http://creativecommons.org/ns#"
   xmlns:dc="http://purl.org/dc/elements/1.1/">
  <defs
     id="defs1" />
  <metadata
     id="metadata3044">
    <rdf:RDF>
      <cc:Work
         rdf:about="">
        <dc:format>image/svg+xml</dc:format>
        <dc:type
           rdf:resource="http://purl.org/dc/dcmitype/StillImage" />
        <dc:title />
      </cc:Work>
    </rdf:RDF>
  </metadata>
  <g
     id="layer1"
     transform="translate(-0.03217214,4)"
     fill="#404040"
     stroke="#404040"
     stroke-width="0.5">
    <path
       id="text3398"
       d="m 9.539702,4.7758212 q 0,2.4546814 -1.2550011,3.8019985 -1.2365897,1.3473177 -3.3590881,1.3473177 -1.3104082,0 -2.3439538,-0.5906081 Q 1.5665246,8.7254656 0.97597688,7.5812099 0.38536828,6.4184386 0.38536828,4.7758472 q 0,-2.4546815 1.23658982,-3.78358771 1.2365897,-1.32890636 3.359088,-1.32890636 1.3473176,0 2.3624519,0.60906323 1.0335455,0.59060861 1.6056822,1.73490804 0.5906085,1.1258619 0.5906085,2.7684533 z m -7.4748592,0 q 0,1.7533191 0.6828904,2.7869515 0.7013451,1.0151346 2.2148149,1.0151346 1.4949544,0 2.1963168,-1.0151346 0.701345,-1.0335455 0.701345,-2.7869515 0,-1.753406 -0.701345,-2.7500424 -0.701345,-0.9966362 -2.2148148,-0.9966362 -1.5134699,0 -2.1963169,0.9966362 -0.6828469,0.9966364 -0.6828904,2.7500424 z"
       aria-label="o"
       style="stroke-width:0.434226" />
    <path
       id="text3404"
       d="m 15.62391,-0.41808075 q 1.824793,0 2.930681,1.2718489 1.124385,1.27184895 1.124385,3.83387115 0,2.5252 -1.124385,3.8338713 -1.105888,1.308671 -2.949091,1.308671 -1.142798,0 -1.898525,-0.4239348 -0.737282,-0.4423725 -1.161208,-1.0137446 h -0.110589 q 0.03686,0.313346 0.07374,0.7925759 0.03686,0.479229 0.03686,0.8294409 v 4.055066 H 10.923767 V -0.23382985 h 1.327081 l 0.221187,1.34558055 h 0.07374 q 0.44237,-0.64512141 1.161205,-1.08747643 0.718836,-0.44235502 1.916935,-0.44237246 z m -0.294908,1.36399172 q -1.511456,0 -2.138131,0.84787033 -0.608256,0.8478703 -0.645122,2.5805204 v 0.3133464 q 0,1.8247926 0.589828,2.8201264 0.608255,0.9769223 2.230273,0.9769223 0.903191,0 1.474545,-0.4976665 0.589828,-0.4976671 0.866308,-1.3455808 0.294909,-0.8663077 0.294909,-1.972256 0,-1.6957407 -0.663549,-2.7094856 -0.645122,-1.01374479 -2.00908,-1.01374479 z"
       aria-label="p"
       style="stroke-width:0.434226" />
  </g>
</svg>
