<?xml version="1.0" encoding="UTF-8"?>
<!-- Created with Inkscape (http://www.inkscape.org/) -->
<svg id="svg5375" width="32" height="32" version="1.1" xmlns="http://www.w3.org/2000/svg" xmlns:cc="http://creativecommons.org/ns#" xmlns:dc="http://purl.org/dc/elements/1.1/" xmlns:rdf="http://www.w3.org/1999/02/22-rdf-syntax-ns#">
 <metadata id="metadata5380">
  <rdf:RDF>
   <cc:Work rdf:about="">
    <dc:format>image/svg+xml</dc:format>
    <dc:type rdf:resource="http://purl.org/dc/dcmitype/StillImage"/>
    <dc:title/>
   </cc:Work>
  </rdf:RDF>
 </metadata>
 <g id="layer1" transform="translate(0,8)">
  <path id="path4094" d="m18.5-6c-3.3137 0-6 2.6863-6 6 0 3.3137 2.6863 6 6 6s6-2.6863 6-6c0-3.3137-2.6863-6-6-6zm0 3c1.6569 0 3 1.3431 3 3s-1.3431 3-3 3-3-1.3431-3-3 1.3431-3 3-3z" fill="#b8b8a0" stroke="#909070" stroke-linecap="square" stroke-linejoin="round" stroke-width=".75"/>
  <path id="path4123" transform="translate(0,-8)" d="m14.5 13-7 14 7 3.5 2.5-5-5-2.5 4.5-9z" fill="#b8b8a0" stroke="#909070" stroke-width=".75"/>
  <path id="path4125" d="m15.375 20.75-5-2.5v0 0" fill="none" stroke="#909070" stroke-linecap="square" stroke-width=".75"/>
  <path id="path4127" d="m16.125 19.25-5-2.5" fill="none" stroke="#909070" stroke-linecap="square" stroke-width=".75"/>
  <path id="path4131" transform="translate(0,-8)" d="m15.6 14.95-1.2-0.9 0.85-1.75 1.55 0.25z" fill="#b8b8a0" stroke-width="0"/>
 </g>
</svg>
