/* XPM */
static char *tm_portrait_2col[] = {
/* columns rows colors chars-per-pixel */
"16 16 5 1 ",
"  c #808080",
". c #C0C0C0",
"X c gainsboro",
"o c #F8F8F8",
"O c None",
/* pixels */
"OO            OO",
"OO oooooooooo OO",
"OO o...XX...o OO",
"OO o...XX...o OO",
"OO o...XX...o OO",
"OO o...XX...o OO",
"OO o...XX...o OO",
"OO o...XX...o OO",
"OO o...XX...o OO",
"OO o...XX...o OO",
"OO o...XX...o OO",
"OO o...XX...o OO",
"OO o...XX...o OO",
"OO o...XX...o OO",
"OO oooooooooo OO",
"OO            OO"
};
