<?xml version="1.0" encoding="UTF-8"?>
<!-- Created with Inkscape (http://www.inkscape.org/) -->
<svg id="svg5078" width="32px" height="32px" version="1.1" xmlns="http://www.w3.org/2000/svg" xmlns:cc="http://creativecommons.org/ns#" xmlns:dc="http://purl.org/dc/elements/1.1/" xmlns:rdf="http://www.w3.org/1999/02/22-rdf-syntax-ns#">
 <metadata id="metadata5083">
  <rdf:RDF>
   <cc:Work rdf:about="">
    <dc:format>image/svg+xml</dc:format>
    <dc:type rdf:resource="http://purl.org/dc/dcmitype/StillImage"/>
    <dc:title/>
   </cc:Work>
  </rdf:RDF>
 </metadata>
 <g id="layer1">
  <path id="path6977" d="m16 4c-6.6274 0-12 5.3726-12 12s5.3726 12 12 12 12-5.3726 12-12-5.3726-12-12-12zm0 6c3.3137 0 6 2.6863 6 6s-2.6863 6-6 6-6-2.6863-6-6 2.6863-6 6-6z" fill="#c0c0c0" stroke="#808080" stroke-linecap="square" stroke-linejoin="round"/>
  <path id="path6989" d="m13.5 1h5v4.5h-5z" fill="#c0c0c0" stroke-width="0"/>
  <path id="path6991" d="m14 4.7679v-3.2679h4v3.3126" fill="none" stroke="#808080" stroke-width="1px"/>
  <path id="path6993" d="m21.387 1.749 4.332 2.4967-2.2471 3.8988-4.332-2.4967z" fill="#c0c0c0" stroke-width="0"/>
  <path id="path6995" d="m19.939 5.2632 1.6318-2.8313 3.4656 1.9974-1.6541 2.87" fill="none" stroke="#808080" stroke-width="1px"/>
  <path id="path6997" d="m27.778 6.3909 2.4928 4.3343-3.9008 2.2435-2.4928-4.3343z" fill="#c0c0c0" stroke-width="0"/>
  <path id="path6999" d="m24.761 8.7029 2.8328-1.6293 1.9942 3.4674-2.8715 1.6515" fill="none" stroke="#808080" stroke-width="1px"/>
  <path id="path7013" d="m30.998 13.515-0.0016 5-4.5-0.0015 0.0016-5z" fill="#c0c0c0" stroke-width="0"/>
  <path id="path7015" d="m27.23 14.014 3.2679 0.0011-0.0013 4-3.3126-0.0011" fill="none" stroke="#808080" stroke-width="1px"/>
  <path id="path7017" d="m30.246 21.402-2.4981 4.3312-3.8981-2.2483 2.4981-4.3312z" fill="#c0c0c0" stroke-width="0"/>
  <path id="path7019" d="m26.733 19.952 2.8308 1.6327-1.9985 3.465-2.8695-1.6551" fill="none" stroke="#808080" stroke-width="1px"/>
  <path id="path7021" d="m25.602 27.791-4.3351 2.4914-2.2423-3.9016 4.3351-2.4914z" fill="#c0c0c0" stroke-width="0"/>
  <path id="path7023" d="m23.291 24.773 1.6283 2.8333-3.4681 1.9931-1.6506-2.872" fill="none" stroke="#808080" stroke-width="1px"/>
  <path id="path7049" d="m18.678 30.975-4.9996 0.06248-0.05624-4.4996 4.9996-0.06248z" fill="#c0c0c0" stroke-width="0"/>
  <path id="path7051" d="m18.131 27.214 0.04084 3.2677-3.9997 0.04999-0.0414-3.3123" fill="none" stroke="#808080" stroke-width="1px"/>
  <path id="path7053" d="m10.782 30.325-4.3629-2.4424 2.1982-3.9266 4.3629 2.4424z" fill="#c0c0c0" stroke-width="0"/>
  <path id="path7055" d="m12.186 26.793-1.5963 2.8515-3.4903-1.9539 1.6181-2.8905" fill="none" stroke="#808080" stroke-width="1px"/>
  <path id="path7057" d="m4.3339 25.763-2.5468-4.3028 3.8725-2.2921 2.5468 4.3028z" fill="#c0c0c0" stroke-width="0"/>
  <path id="path7059" d="m7.3217 23.414-2.8122 1.6645-2.0374-3.4422 2.8506-1.6873" fill="none" stroke="#808080" stroke-width="1px"/>
  <path id="path7061" d="m1.0248 18.68-0.06088-4.9996 4.4997-0.05473 0.06088 4.9996z" fill="#c0c0c0" stroke-width="0"/>
  <path id="path7063" d="m4.7863 18.134-3.2677 0.03974-0.04869-3.9997 3.3123-0.0403" fill="none" stroke="#808080" stroke-width="1px"/>
  <path id="path7065" d="m1.6777 10.784 2.4438-4.3621 3.9259 2.1994-2.4438 4.3621z" fill="#c0c0c0" stroke-width="0"/>
  <path id="path7067" d="m5.2093 12.19-2.851-1.5972 1.9551-3.4897 2.8899 1.6191" fill="none" stroke="#808080" stroke-width="1px"/>
  <path id="path7069" d="m6.2415 4.338 4.3036-2.5454 2.2908 3.8732-4.3036 2.5454z" fill="#c0c0c0" stroke-width="0"/>
  <path id="path7071" d="m8.59 7.3266-1.6636-2.8128 3.4429-2.0363 1.6864 2.8512" fill="none" stroke="#808080" stroke-width="1px"/>
 </g>
</svg>
