<?xml version="1.0" encoding="UTF-8"?>
<!-- Created with Inkscape (http://www.inkscape.org/) -->
<svg id="svg3039" width="20" height="20" version="1.1" xmlns="http://www.w3.org/2000/svg" xmlns:cc="http://creativecommons.org/ns#" xmlns:dc="http://purl.org/dc/elements/1.1/" xmlns:rdf="http://www.w3.org/1999/02/22-rdf-syntax-ns#">
 <metadata id="metadata3044">
  <rdf:RDF>
   <cc:Work rdf:about="">
    <dc:format>image/svg+xml</dc:format>
    <dc:type rdf:resource="http://purl.org/dc/dcmitype/StillImage"/>
    <dc:title/>
   </cc:Work>
  </rdf:RDF>
 </metadata>
 <g id="layer1" transform="translate(0,4)">
  <path id="text3271" d="m9.7322 9.1376h-0.45044q-0.021973-1.2195 0.10986-1.8237 0.14282-0.60425 0.71411-1.6589 0.58228-1.0657 0.75806-1.7029 0.18677-0.64819 0.18677-1.593 0-1.4612-0.57129-2.1533-0.57129-0.69214-1.3513-0.69214-0.59326 0-0.99976 0.3186-0.30762 0.2417-0.30762 0.50537 0 0.17578 0.20874 0.54932 0.47241 0.84595 0.47241 1.4392 0 0.53833-0.37354 0.90088-0.36255 0.36255-0.91187 0.36255-0.61523 0-1.0327-0.42847-0.41748-0.43945-0.41748-1.1536 0-1.2964 1.1206-2.2742 1.1206-0.97778 3.1311-0.97778 2.1313 0 3.241 1.0217 1.1206 1.0107 1.1206 2.45 0 1.0437-0.57129 1.9336-0.57129 0.87891-2.2083 1.9556-1.0986 0.7251-1.4502 1.2964-0.34058 0.5603-0.41748 1.7249zm-0.12085 1.604q0.73608 0 1.2524 0.51636 0.51636 0.51636 0.51636 1.2524t-0.51636 1.2634q-0.51636 0.51636-1.2524 0.51636-0.73608 0-1.2524-0.51636-0.51636-0.52734-0.51636-1.2634t0.51636-1.2524q0.51636-0.51636 1.2524-0.51636z" fill="#404040" stroke="#404040" stroke-width=".5" aria-label="?"/>
 </g>
</svg>
