/* XPM */
static char *tm_replace_all[] = {
/* columns rows colors chars-per-pixel */
"16 16 83 1 ",
"  c #A06060",
". c #A26161",
"X c #A36161",
"o c #A16262",
"O c #A16363",
"+ c #A26262",
"@ c #A26363",
"# c #A36363",
"$ c #A26464",
"% c #A46666",
"& c #A56868",
"* c #A66D6D",
"= c #A86B6B",
"- c #AB6B6B",
"; c #A96C6C",
": c #AB6F6F",
"> c #A97373",
", c #AC7070",
"< c #AD7070",
"1 c #AC7171",
"2 c #A97676",
"3 c #AA7676",
"4 c #AC7575",
"5 c #AA7878",
"6 c #AB7878",
"7 c #AA7A7A",
"8 c #AE7979",
"9 c #AF7A7A",
"0 c #AB7C7C",
"q c #AC7C7C",
"w c #AC7D7D",
"e c #AD7D7D",
"r c #AE7C7C",
"t c #B08484",
"y c #B08585",
"u c #B18686",
"i c #B28989",
"p c #B18A8A",
"a c #B18C8C",
"s c #B69696",
"d c #B79696",
"f c #B69797",
"g c #B79797",
"h c #B89595",
"j c #B89797",
"k c #B79898",
"l c #B89898",
"z c #B99898",
"x c #B99A9A",
"c c #BBA1A1",
"v c #BBA2A2",
"b c #BCA2A2",
"n c #BDA5A5",
"m c #BDA6A6",
"M c #BEA7A7",
"N c #C2B0B0",
"B c #C3B2B2",
"V c #C4B6B6",
"C c #C5B7B7",
"Z c #C5B8B8",
"A c #C7BEBE",
"S c #C9BDBD",
"D c #C8BEBE",
"F c #C9C1C1",
"G c #CAC1C1",
"H c #CAC2C2",
"J c #CCC4C4",
"K c #CDC9C9",
"L c #CDCACA",
"P c #CDCBCB",
"I c #CECACA",
"U c #CECBCB",
"Y c #CDCDCD",
"T c #CECCCC",
"R c #CFCCCC",
"E c #CECDCD",
"W c #CFCDCD",
"Q c #CFCECE",
"! c gray81",
"~ c #D0CECE",
"^ c #D0CFCF",
"/ c #CFD0D0",
"( c None",
/* pixels */
"((((((((((((((((",
"((((((((((((((((",
"((((((((((((^EEE",
"(((((((^E^(^GccN",
"((((((Et9G^^c99p",
"^EEEEE^OO>GGl->9",
"BlkgkjgOOO>Zg*>9",
"*OOOOOO  OOtj->9",
">OOOOOOO  Oyg->9",
"GlljljjO O9Zg-*9",
"/E^^^^EOO>ZGk->9",
"((((((Ep9G/Ec>9a",
"(((((((EE^(^ZcNB",
"((((((((((((/EE^",
"((((((((((((((((",
"(((((((((((((((("
};
