/* XPM */
static char *tm_right_up[] = {
/* columns rows colors chars-per-pixel */
"16 16 49 1 ",
"  c #808080",
". c gray52",
"X c #868686",
"o c #888888",
"O c #898989",
"+ c gray54",
"@ c #8E8E8E",
"# c gray56",
"$ c #909090",
"% c gray57",
"& c #939393",
"* c gray58",
"= c #959595",
"- c #979797",
"; c #989898",
": c gray60",
"> c #9A9A9A",
", c #9B9B9B",
"< c gray61",
"1 c #9D9D9D",
"2 c gray64",
"3 c #A9A9A9",
"4 c #AAAAAA",
"5 c gray67",
"6 c #ACACAC",
"7 c #AEAEAE",
"8 c #AFAFAF",
"9 c #B1B1B1",
"0 c gray70",
"q c #B4B4B4",
"w c #B6B6B6",
"e c gray72",
"r c #B9B9B9",
"t c gray73",
"y c #BBBBBB",
"u c gray74",
"i c gray76",
"p c #C3C3C3",
"a c gray77",
"s c #C5C5C5",
"d c #C8C8C8",
"f c gray79",
"g c #CACACA",
"h c #CBCBCB",
"j c gray80",
"k c #CDCDCD",
"l c #CECECE",
"z c gray81",
"x c None",
/* pixels */
"xxxxxxxxxxxxxxxx",
"xxxxxxzlfggdjkxx",
"xxxxxxzu73547skx",
"xxxxxxg9%&o.$9jx",
"xxxxxxziq<O O6gx",
"xxxxxxxk0@X+o5fx",
"xxxxxxky;o-2%4gx",
"xxxxxke=+1we,8hx",
"xxxxlt*o<uja0pkx",
"xxxjt;+>ejzzjkxx",
"xxly$o<ujxxxxxxx",
"xku>o:ehzxxxxxxx",
"xd2#<rjxxxxxxxxx",
"xje3uhxxxxxxxxxx",
"xxkdkzxxxxxxxxxx",
"xxxxxxxxxxxxxxxx"
};
