<?xml version="1.0" encoding="UTF-8"?>
<!-- Created with Inkscape (http://www.inkscape.org/) -->
<svg id="svg3039" width="20" height="20" version="1.1" xmlns="http://www.w3.org/2000/svg" xmlns:cc="http://creativecommons.org/ns#" xmlns:dc="http://purl.org/dc/elements/1.1/" xmlns:rdf="http://www.w3.org/1999/02/22-rdf-syntax-ns#">
 <metadata id="metadata3044">
  <rdf:RDF>
   <cc:Work rdf:about="">
    <dc:format>image/svg+xml</dc:format>
    <dc:type rdf:resource="http://purl.org/dc/dcmitype/StillImage"/>
    <dc:title/>
   </cc:Work>
  </rdf:RDF>
 </metadata>
 <g id="layer1" transform="translate(0,4)">
  <g id="text3442" filter="url(#filter4008)">
   <path id="path3968" d="m20.019-1.5478c0.03379-0.22435-0.19808-0.42839-0.48624-0.43087-0.85125-0.00733-1.9165-0.00613-2.9639-0.00988-2.0947-0.00751-5.7845-0.015484-5.8809-0.015484-0.19265 0-0.37596 0.067332-0.47229 0.25999l-4.7413 14.109-2.8577-6.2933c-0.064218-0.12844-0.096327-0.22476-0.20871-0.22476-0.048163 0-0.080272 1e-7 -0.22476 0.12844l-1.5894 1.2041c-0.1766 0.14449-0.19265 0.16054-0.19265 0.22476 0 0.11238 0.064218 0.1766 0.16054 0.1766 0.048163 0 0.080272-1e-7 0.22476-0.12844l0.83483-0.62612 3.1563 6.8711c0.096327 0.22476 0.26358 0.35344 0.44018 0.35344 0.25687 0 0.37908-0.15432 0.49146-0.39513l4.9332-14.66s4.118-0.020005 5.9722-0.019075c0.92711 4.65e-4 1.9471 0.00158 2.9212-3.091e-4 0.43348-8.421e-4 0.50567-0.25037 0.46062-0.52384"/>
  </g>
  <path id="path3976" d="m12.5 3.5h5v8h-5z" fill="#8080ff" stroke="#4040c0" stroke-linejoin="round" stroke-width=".5"/>
  <path id="path3978" d="m1.5-1.5h3v5h-3z" fill="#8080ff" stroke="#4040c0" stroke-linejoin="round" stroke-width=".5"/>
 </g>
</svg>
