<?xml version="1.0" encoding="UTF-8"?>
<svg id="svg2404" xmlns="http://www.w3.org/2000/svg" viewBox="0 0 16 17.41357">
  <defs>
    <style>
      .cls-1, .cls-2, .cls-3 {
        isolation: isolate;
      }

      .cls-1, .cls-3 {
        opacity: .75;
      }

      .cls-4 {
        fill: none;
        stroke: #ffc0c0;
        stroke-width: .00977px;
      }

      .cls-3 {
        fill: silver;
      }

      .cls-5 {
        fill: #c44040;
      }
    </style>
  </defs>
  <rect id="black_stripe" class="cls-3" y="3.62256" width="16" height="3.4034"/>
  <rect id="gold_stripe" class="cls-3" y="10.28923" width="16" height="3.33333"/>
  <g id="text3786" class="cls-1">
    <g class="cls-2">
      <path class="cls-5" d="M6.16797,3.3999c.30469-.09229.73389-.13867,1.2876-.13867.56738,0,.98291.04639,1.24609.13867.16602.05762.43896.22461.81982.50146s.61328.479.69531.60547c.06934.104.19434.64014.37402,1.60938v.12109c0,.21924-.05566.50781-.16602.86523s-.23535.65137-.37402.88232c-.12402.20752-.35254.43555-.68555.68311-.33203.24854-.60156.38965-.80908.42432-.37402.05762-.56055.25342-.56055.58789,0,.08105.00684.13867.02051.17285.01367.05859.021.12109.021.19043,0,.10449-.05225.17871-.15576.22559-.104.0459-.33594.12109-.6958.22461-.20752.06836-.38086.10352-.51904.10352-.18018,0-.36035-.12695-.54004-.38086-.13818-.19531-.20752-.39746-.20752-.60498,0-.02295.00342-.06934.01025-.13867s.01074-.12695.01074-.17285c.02734-.27686.06543-.47021.11377-.57959.04834-.10986.1626-.25098.34277-.42383.29102-.28857.62988-.51318,1.01758-.6748.44287-.19629.72314-.36621.84082-.51074.11768-.14404.19043-.41797.21826-.82178v-.24219c0-.35742-.05225-.61426-.15576-.77002-.104-.15576-.2876-.25098-.55029-.28516-.05566-.01172-.15234-.01758-.29053-.01758-.40186,0-.76855.0752-1.10059.2251-.08301.03467-.26318.05176-.54004.05176-.70605,0-1.09375-.05176-1.1626-.15576-.04199-.0459-.0625-.1958-.0625-.44971.01367-.1499.04834-.26807.104-.35498.05518-.08643.19336-.20996.41504-.37158.35986-.25391.70605-.42676,1.03809-.51904ZM6.43799,11.1167c.20752-.17383.4707-.26562.78906-.27734h.18701c.22119,0,.44971.10938.68506.3291.27686.26465.41553.55371.41553.86426,0,.12793-.00732.22559-.021.29492-.02783.0918-.14209.22852-.34229.40625-.20117.17969-.3501.26855-.44678.26855h-.02051c-.09717-.03418-.16602-.02246-.20752.03418-.04199.05859-.11133.08691-.20801.08691-.19385,0-.44287-.09473-.74756-.28613-.30469-.18945-.4707-.3418-.49805-.45801,0-.10352-.01416-.23633-.0415-.39746v-.10352c0-.24316.15186-.49609.45654-.76172Z"/>
    </g>
    <g class="cls-2">
      <path class="cls-4" d="M6.16797,3.3999c.30469-.09229.73389-.13867,1.2876-.13867.56738,0,.98291.04639,1.24609.13867.16602.05762.43896.22461.81982.50146s.61328.479.69531.60547c.06934.104.19434.64014.37402,1.60938v.12109c0,.21924-.05566.50781-.16602.86523s-.23535.65137-.37402.88232c-.12402.20752-.35254.43555-.68555.68311-.33203.24854-.60156.38965-.80908.42432-.37402.05762-.56055.25342-.56055.58789,0,.08105.00684.13867.02051.17285.01367.05859.021.12109.021.19043,0,.10449-.05225.17871-.15576.22559-.104.0459-.33594.12109-.6958.22461-.20752.06836-.38086.10352-.51904.10352-.18018,0-.36035-.12695-.54004-.38086-.13818-.19531-.20752-.39746-.20752-.60498,0-.02295.00342-.06934.01025-.13867s.01074-.12695.01074-.17285c.02734-.27686.06543-.47021.11377-.57959.04834-.10986.1626-.25098.34277-.42383.29102-.28857.62988-.51318,1.01758-.6748.44287-.19629.72314-.36621.84082-.51074.11768-.14404.19043-.41797.21826-.82178v-.24219c0-.35742-.05225-.61426-.15576-.77002-.104-.15576-.2876-.25098-.55029-.28516-.05566-.01172-.15234-.01758-.29053-.01758-.40186,0-.76855.0752-1.10059.2251-.08301.03467-.26318.05176-.54004.05176-.70605,0-1.09375-.05176-1.1626-.15576-.04199-.0459-.0625-.1958-.0625-.44971.01367-.1499.04834-.26807.104-.35498.05518-.08643.19336-.20996.41504-.37158.35986-.25391.70605-.42676,1.03809-.51904ZM6.43799,11.1167c.20752-.17383.4707-.26562.78906-.27734h.18701c.22119,0,.44971.10938.68506.3291.27686.26465.41553.55371.41553.86426,0,.12793-.00732.22559-.021.29492-.02783.0918-.14209.22852-.34229.40625-.20117.17969-.3501.26855-.44678.26855h-.02051c-.09717-.03418-.16602-.02246-.20752.03418-.04199.05859-.11133.08691-.20801.08691-.19385,0-.44287-.09473-.74756-.28613-.30469-.18945-.4707-.3418-.49805-.45801,0-.10352-.01416-.23633-.0415-.39746v-.10352c0-.24316.15186-.49609.45654-.76172Z"/>
    </g>
  </g>
</svg>