/* XPM */
static char *tm_similar_next[] = {
/* columns rows colors chars-per-pixel */
"16 16 22 1 ",
"  c #808080",
". c #818181",
"X c #838383",
"o c #848484",
"O c gray52",
"+ c #898989",
"@ c gray58",
"# c #979797",
"$ c #989898",
"% c gray60",
"& c #9B9B9B",
"* c #9D9D9D",
"= c #A4A4A4",
"- c gray69",
"; c gray73",
": c #C1C1C1",
"> c #C8C8C8",
", c gray80",
"< c #CDCDCD",
"1 c #CECECE",
"2 c gray81",
"3 c None",
/* pixels */
"3333333333333333",
"3333333333333333",
"3333333333333333",
"33<<<<<<<<<<<233",
"3<*..........*<3",
"3<@...  .....*<3",
"33:+... ....+:33",
"332;+.  ....;<33",
"3332-......-2333",
"3333<=....=<3333",
"33333<*..@<33333",
"333332:**<<33333",
"33333322<2333333",
"3333333333333333",
"3333333333333333",
"3333333333333333"
};
