<?xml version="1.0" encoding="UTF-8"?>
<!-- Created with Inkscape (http://www.inkscape.org/) -->
<svg id="svg3039" width="20" height="20" version="1.1" xmlns="http://www.w3.org/2000/svg" xmlns:cc="http://creativecommons.org/ns#" xmlns:dc="http://purl.org/dc/elements/1.1/" xmlns:rdf="http://www.w3.org/1999/02/22-rdf-syntax-ns#">
 <metadata id="metadata3044">
  <rdf:RDF>
   <cc:Work rdf:about="">
    <dc:format>image/svg+xml</dc:format>
    <dc:type rdf:resource="http://purl.org/dc/dcmitype/StillImage"/>
    <dc:title/>
   </cc:Work>
  </rdf:RDF>
 </metadata>
 <g id="layer1" transform="translate(0,4)">
  <path id="text3160" d="m15.01 9.4269q0 2.0898-1.5178 3.2556-1.5178 1.1659-4.0915 1.1659-1.3198 0-2.4417-0.19798-1.1219-0.19798-1.8698-0.54994v-1.8918q0.79191 0.35196 1.9578 0.63792 1.1879 0.28597 2.4417 0.28597 1.7598 0 2.6397-0.68192 0.90189-0.68192 0.90189-1.8478 0-0.76991-0.32996-1.2978t-1.1439-0.96789q-0.79191-0.46195-2.2217-0.96789-2.0018-0.72591-3.0356-1.7818-1.0119-1.0559-1.0119-2.8817 0-1.2539 0.63792-2.1337 0.63792-0.90189 1.7598-1.3858 1.1439-0.48394 2.6177-0.48394 1.2978 0 2.3757 0.24197 1.0779 0.24197 1.9578 0.63792l-0.61593 1.6938q-0.8139-0.35196-1.7818-0.59393-0.94589-0.24197-1.9798-0.24197-1.4738 0-2.2217 0.63792-0.74791 0.61593-0.74791 1.6498 0 0.79191 0.32996 1.3198t1.0779 0.94589 2.0238 0.90189q1.3858 0.50594 2.3317 1.0999 0.96789 0.57193 1.4518 1.3858 0.50594 0.8139 0.50594 2.0458z" fill="#404040" stroke="#404040" stroke-width=".5" aria-label="S"/>
 </g>
</svg>
