<?xml version="1.0" encoding="UTF-8"?>
<!-- Created with Inkscape (http://www.inkscape.org/) -->
<svg id="svg3039" width="16" height="16" version="1.1" xmlns="http://www.w3.org/2000/svg" xmlns:cc="http://creativecommons.org/ns#" xmlns:dc="http://purl.org/dc/elements/1.1/" xmlns:rdf="http://www.w3.org/1999/02/22-rdf-syntax-ns#">
 <metadata id="metadata3044">
  <rdf:RDF>
   <cc:Work rdf:about="">
    <dc:format>image/svg+xml</dc:format>
    <dc:type rdf:resource="http://purl.org/dc/dcmitype/StillImage"/>
    <dc:title/>
   </cc:Work>
  </rdf:RDF>
 </metadata>
 <g id="layer1">
  <path id="path6899" d="m1 5 4-4h6l4 4v6l-4 4h-6l-4-4z" fill="#fff" fill-rule="evenodd" opacity=".667" stroke="#c00000" stroke-width="2"/>
  <g id="g6901" transform="matrix(.70832 0 0 1 2.1996 0)" fill="#503030" stroke-width="1px">
   <path id="text6846" d="m3.6577 5.453v0.75073q-0.33691-0.21606-0.67749-0.32593-0.33691-0.10986-0.68115-0.10986-0.52368 0-0.82764 0.24536-0.30396 0.2417-0.30396 0.65552 0 0.36255 0.19775 0.55298 0.20142 0.19043 0.74707 0.3186l0.38818 0.087891q0.76904 0.17944 1.1206 0.56396 0.35156 0.38452 0.35156 1.0474 0 0.78003-0.4834 1.1902-0.4834 0.41016-1.4062 0.41016-0.38452 0-0.77271-0.08423-0.38818-0.08057-0.78003-0.24536v-0.78735q0.42114 0.26733 0.79468 0.39185 0.3772 0.12451 0.75806 0.12451 0.5603 0 0.87158-0.24902 0.31128-0.25269 0.31128-0.70312 0-0.41016-0.21606-0.62622-0.2124-0.21606-0.74341-0.33325l-0.39551-0.091553q-0.76172-0.17212-1.106-0.52002-0.34424-0.3479-0.34424-0.93384 0-0.73242 0.49072-1.1719 0.49438-0.44312 1.311-0.44312 0.31494 0 0.66284 0.073242 0.3479 0.06958 0.73242 0.2124z" aria-label="S"/>
   <path id="text6879" d="m3.9144 5.2662h4.1711v0.62256h-1.7102v4.845h-0.74341v-4.845h-1.7175z" aria-label="T"/>
   <path id="text6887" d="m11.068 8.0092q0-1.2048-0.24902-1.7212-0.24536-0.51636-0.80933-0.51636-0.5603 0-0.80933 0.51636-0.24536 0.51636-0.24536 1.7212 0 1.2012 0.24536 1.7175 0.24902 0.51636 0.80933 0.51636 0.56396 0 0.80933-0.5127 0.24902-0.51636 0.24902-1.7212zm0.7727 0q0 1.4282-0.4541 2.1313-0.45044 0.70312-1.377 0.70312-0.92651 0-1.377-0.69946-0.45044-0.69946-0.45044-2.135 0-1.4319 0.45044-2.135 0.4541-0.70312 1.377-0.70312 0.92651 0 1.377 0.70312 0.4541 0.70312 0.4541 2.135z" aria-label="O"/>
   <path id="text6893" d="m13.214 5.8741v2.0544h0.85693q0.5127 0 0.79834-0.271 0.28931-0.271 0.28931-0.75806 0-0.48706-0.28564-0.75439-0.28564-0.271-0.802-0.271zm-0.73975-0.60791h1.5967q0.91553 0 1.3879 0.41748 0.47241 0.41382 0.47241 1.2158 0 0.80933-0.47241 1.2231-0.46875 0.41382-1.3879 0.41382h-0.85693v2.1973h-0.73975z" aria-label="P"/>
  </g>
 </g>
</svg>
