<?xml version="1.0" encoding="UTF-8" standalone="no"?>
<!-- Created with Inkscape (http://www.inkscape.org/) -->

<svg
   xmlns:dc="http://purl.org/dc/elements/1.1/"
   xmlns:cc="http://creativecommons.org/ns#"
   xmlns:rdf="http://www.w3.org/1999/02/22-rdf-syntax-ns#"
   xmlns:svg="http://www.w3.org/2000/svg"
   xmlns="http://www.w3.org/2000/svg"
   xmlns:sodipodi="http://sodipodi.sourceforge.net/DTD/sodipodi-0.dtd"
   xmlns:inkscape="http://www.inkscape.org/namespaces/inkscape"
   height="16"
   id="Layer_1"
   inkscape:output_extension="org.inkscape.output.svg.inkscape"
   inkscape:version="0.48.0 r9654"
   sodipodi:docname="tm_slovene.svg"
   sodipodi:version="0.32"
   space="preserve"
   version="1.0"
   width="16">
  <metadata
     id="metadata32010">
    <rdf:RDF>
      <cc:Work
         rdf:about="">
        <dc:title></dc:title>
        <dc:description />
        <dc:subject>
          <rdf:Bag>
            <rdf:li>unsorted</rdf:li>
          </rdf:Bag>
        </dc:subject>
        <dc:publisher>
          <cc:Agent
             rdf:about="http://www.openclipart.org/">
            <dc:title>Open Clip Art Library, Source: Wikimedia Commons, Source: Wikimedia Commons, Source: Wikimedia Commons, Source: Wikimedia Commons</dc:title>
          </cc:Agent>
        </dc:publisher>
        <dc:creator>
          <cc:Agent>
            <dc:title />
          </cc:Agent>
        </dc:creator>
        <dc:rights>
          <cc:Agent>
            <dc:title />
          </cc:Agent>
        </dc:rights>
        <dc:date />
        <dc:format>image/svg+xml</dc:format>
        <dc:type
           rdf:resource="http://purl.org/dc/dcmitype/StillImage" />
        <cc:license
           rdf:resource="http://en.wikipedia.org/wiki/Public_domain" />
        <dc:language>en</dc:language>
      </cc:Work>
    </rdf:RDF>
  </metadata>
  <sodipodi:namedview
     bordercolor="#666666"
     borderopacity="1.0"
     gridtolerance="10.0"
     guidetolerance="10.0"
     id="base"
     inkscape:current-layer="Layer_1"
     inkscape:cx="12.634023"
     inkscape:cy="7.5134148"
     inkscape:pageopacity="0.0"
     inkscape:pageshadow="2"
     inkscape:window-height="1152"
     inkscape:window-width="1920"
     inkscape:window-x="0"
     inkscape:window-y="0"
     inkscape:zoom="42.16242"
     objecttolerance="10.0"
     pagecolor="#ffffff"
     showgrid="true"
     inkscape:window-maximized="0">
    <inkscape:grid
       type="xygrid"
       id="grid32058"
       empspacing="5"
       visible="true"
       enabled="true"
       snapvisiblegridlinesonly="true" />
  </sodipodi:namedview>
  <defs
     id="defs3">
    <inkscape:perspective
       id="perspective5854"
       inkscape:persp3d-origin="600 : 200 : 1"
       inkscape:vp_x="0 : 300 : 1"
       inkscape:vp_y="0 : 1000 : 0"
       inkscape:vp_z="1200 : 300 : 1"
       sodipodi:type="inkscape:persp3d" />
  </defs>
  <g
     id="g32045"
     transform="matrix(0.0625,0,0,0.078125,-0.00286613,-2)"
     style="opacity:0.75">
    <rect
       y="64"
       x="0"
       width="256"
       style="fill:#ffffff"
       id="rect3212"
       height="128" />
    <rect
       y="149.33331"
       x="0"
       width="256"
       style="fill:#ed1c24;fill-opacity:1;stroke:none"
       id="rect6123"
       height="42.666668" />
    <rect
       y="106.66669"
       x="0"
       width="256"
       style="fill:#005da4;fill-opacity:1"
       id="rect4183"
       height="42.666668" />
    <path
       style="fill:#ed1c24;fill-opacity:1"
       id="path13"
       d="m 48.515132,88.60516 c -0.394247,0.17385 -0.785545,0.35432 -1.173899,0.54128 l 1.223401,19.35842 c 0.333252,5.27753 2.577625,10.27205 6.338873,14.03315 2.572028,2.57188 5.720691,4.43483 9.142351,5.46199 l 2.95e-4,0 c 3.421661,-1.02731 6.570472,-2.89011 9.142353,-5.46199 3.7611,-3.7611 6.005621,-8.75562 6.338726,-14.03315 L 80.75078,89.14644 c -0.388502,-0.18696 -0.779505,-0.36743 -1.174046,-0.54128 l 2.94e-4,1.5e-4 -1.252275,19.81675 c -0.313365,4.98804 -2.433984,9.70882 -5.988531,13.26337 -2.342494,2.34279 -5.191791,4.06238 -8.289922,5.05257 l -4.42e-4,0 c -3.098278,-0.99019 -5.947279,-2.70978 -8.289773,-5.05257 -3.554694,-3.55455 -5.675313,-8.27533 -5.988531,-13.26337 l -1.252422,-19.8169 2.94e-4,0"
       inkscape:connector-curvature="0" />
    <path
       style="fill:#005da4;fill-opacity:1"
       id="path15"
       d="M 79.577028,88.60531 C 74.72954,86.46804 69.446263,85.33333 64.046005,85.33333 c -5.400403,0 -10.683682,1.13471 -15.531168,3.27198 l 1.25257,19.81675 c 0.313216,4.98804 2.433837,9.70882 5.988531,13.26337 2.342641,2.34279 5.191642,4.06238 8.289773,5.05257 l 4.42e-4,0 c 3.098131,-0.99019 5.947428,-2.70978 8.289625,-5.05257 3.554844,-3.55455 5.675463,-8.27533 5.988531,-13.26337"
       inkscape:connector-curvature="0" />
    <polyline
       transform="matrix(0.1473266,0,0,0.1473266,47.341233,85.33333)"
       style="fill:#ffdd00;fill-opacity:1"
       points="119.764,62.917 124.434,56.539 116.574,57.394 113.386,50.161 110.197,57.394 102.338,56.539    107.008,62.917 102.338,69.295 110.197,68.44 113.386,75.673 116.574,68.44 124.434,69.295  "
       id="polyline17" />
    <polyline
       transform="matrix(0.1473266,0,0,0.1473266,47.341233,85.33333)"
       style="fill:#ffdd00;fill-opacity:1"
       points="90,23.232 94.669,16.854 86.811,17.709 83.622,10.476 80.433,17.709 72.575,16.854 77.244,23.232    72.575,29.61 80.433,28.755 83.622,35.988 86.811,28.755 94.669,29.61  "
       id="polyline19" />
    <polyline
       transform="matrix(0.1473266,0,0,0.1473266,47.341233,85.33333)"
       style="fill:#ffdd00;fill-opacity:1"
       points="149.527,23.232 154.195,16.854 146.338,17.709 143.148,10.476 139.959,17.709 132.102,16.854    136.771,23.232 132.102,29.61 139.959,28.755 143.148,35.988 146.338,28.755 154.195,29.61  "
       id="polyline21" />
    <path
       style="fill:#ffffff"
       id="path23"
       d="m 76.57466,111.3076 -6.264475,-8.35253 -2.505731,3.34107 -3.758596,-7.51719 -3.758596,7.51719 -2.50573,-3.34107 -6.264327,8.35253 c 0,1.1076 0.440064,2.16968 1.223254,2.95287 0.783187,0.78289 1.845265,1.22325 2.953013,1.22325 0.73958,0 1.458976,-0.19624 2.088354,-0.55969 0.0041,-0.003 -0.005,0.003 -0.001,5.9e-4 0.313657,-0.18121 0.652068,-0.32236 1.007861,-0.41753 1.069886,-0.28655 2.209752,-0.13672 3.168994,0.41694 0.640429,0.36979 1.361594,0.55969 2.088502,0.55969 0.0031,0 -0.0038,0 -7.36e-4,0 0.727057,0 1.448072,-0.1899 2.088648,-0.55969 0.959098,-0.55366 2.09911,-0.70378 3.168996,-0.41694 0.355646,0.0952 0.694055,0.23632 1.007714,0.41753 0.0043,0.002 -0.0049,-0.003 -8.85e-4,-5.9e-4 0.629528,0.36345 1.348627,0.55969 2.088207,0.55969 1.107898,0 2.169973,-0.44021 2.953163,-1.22325 0.783187,-0.78319 1.223253,-1.84527 1.223253,-2.95287"
       inkscape:connector-curvature="0" />
    <path
       style="fill:#ffffff"
       id="path25"
       d="m 53.001227,115.84246 c 0.287434,0.57119 0.603449,1.12852 0.946867,1.6698 0,0 -1.47e-4,2.9e-4 0,5.9e-4 0.881602,0.40544 1.881214,0.49295 2.826315,0.2397 0.35594,-0.0952 0.694201,-0.23646 1.007859,-0.41752 0.0041,-0.002 -0.005,0.003 -8.83e-4,5.9e-4 0.62938,-0.36375 1.348774,-0.5597 2.088354,-0.5597 0.0015,0 -0.0019,0 -4.42e-4,0 0.72691,-2.9e-4 1.448073,0.18961 2.088501,0.5597 0.959245,0.55365 2.099111,0.70348 3.169144,0.41693 0.355646,-0.0952 0.694054,-0.23646 1.007714,-0.41752 0.0043,-0.002 -0.0049,0.003 -8.85e-4,5.9e-4 0.629233,-0.36375 1.348629,-0.5597 2.088503,-0.5597 0.0015,0 -0.0021,0 -5.91e-4,0 0.72691,-2.9e-4 1.448222,0.18961 2.088502,0.5597 0.959392,0.55365 2.09911,0.70348 3.168996,0.41693 0.229681,-0.0613 0.451703,-0.14217 0.664738,-0.24 l 0,0 c 0.343565,-0.54157 0.65958,-1.0989 0.947014,-1.66979 0,-3e-4 0,0 0,0 -0.208614,0.0794 -0.410895,0.17546 -0.604776,0.28743 -0.004,0.002 0.0052,-0.003 0.0012,-5.9e-4 -0.313658,0.18107 -0.652069,0.32206 -1.008009,0.41753 -1.069886,0.28654 -2.209604,0.13671 -3.168996,-0.41723 -0.64028,-0.3698 -1.361592,-0.5594 -2.088502,-0.5594 -0.0015,0 0.0021,0 5.91e-4,0 -0.739729,0 -1.459123,0.19623 -2.088503,0.55969 -0.004,0.002 0.0052,-0.003 8.85e-4,-5.9e-4 -0.31366,0.18121 -0.652068,0.32235 -1.007714,0.41753 -1.070033,0.28684 -2.209899,0.13701 -3.169143,-0.41694 -0.640429,-0.36979 -1.361592,-0.55969 -2.088502,-0.55969 -0.0016,0 0.0019,0 4.42e-4,0 -0.73958,0 -1.458974,0.19623 -2.088354,0.55999 -0.0041,0.002 0.005,-0.003 8.83e-4,-5.9e-4 -0.313658,0.18106 -0.651919,0.32205 -1.007859,0.41752 -1.069886,0.28655 -2.209752,0.13672 -3.168997,-0.41723 -0.194617,-0.11226 -0.39675,-0.20802 -0.604185,-0.28685 -1.47e-4,0 0,-2.9e-4 0,0"
       inkscape:connector-curvature="0" />
    <path
       style="fill:#ffffff"
       id="path27"
       d="m 73.062099,119.0474 c -0.48662,0.62349 -1.013459,1.22031 -1.578899,1.78545 -2.112663,2.11267 -4.662592,3.68715 -7.437342,4.63563 l -1.47e-4,0 c -2.774748,-0.94848 -5.324826,-2.52267 -7.437487,-4.63563 -0.565293,-0.56514 -1.092132,-1.16196 -1.578752,-1.78545 0,0 -1.47e-4,0 0,0 0.5759,0.0927 1.170509,0.0645 1.744789,-0.0891 0.355941,-0.0955 0.694202,-0.23646 1.00786,-0.41752 0.0041,-0.002 -0.005,0.003 -8.84e-4,5.9e-4 0.629378,-0.36375 1.348775,-0.5597 2.088354,-0.5597 0.0015,0 -0.0019,0 -4.41e-4,0 0.72691,-2.9e-4 1.448072,0.18961 2.088501,0.5594 0.959245,0.55395 2.099111,0.70378 3.168996,0.41723 0.355941,-0.0955 0.694349,-0.23646 1.008009,-0.41752 0.004,-0.002 -0.0052,0.003 -8.85e-4,5.9e-4 0.629233,-0.36375 1.348629,-0.5597 2.088207,-0.5597 0.0015,0 -0.0018,0 -2.95e-4,0 0.72691,-2.9e-4 1.447926,0.18961 2.088502,0.5594 0.835342,0.4825 1.80814,0.65841 2.752061,0.50622 2.95e-4,0 0,0 -2.94e-4,2.9e-4"
       inkscape:connector-curvature="0" />
  </g>
</svg>
