/* XPM */
static char *tm_spell[] = {
/* columns rows colors chars-per-pixel */
"24 24 79 1 ",
"  c #654D35",
". c #664F36",
"X c #654E39",
"o c #664F3A",
"O c #695037",
"+ c #66503A",
"@ c #67513C",
"# c #6B5138",
"$ c #6E543B",
"% c #6A543F",
"& c #7F5F3F",
"* c #6C5642",
"= c #6B5948",
"- c #705B47",
"; c #725C47",
": c #745F4C",
"> c #7F6040",
", c #74604E",
"< c #7C6856",
"1 c #72675C",
"2 c #7C6858",
"3 c #7C6A59",
"4 c #7E6D63",
"5 c gray50",
"6 c #800000",
"7 c #860E0F",
"8 c #8C1C1F",
"9 c #99393F",
"0 c #816D5B",
"q c #816F5D",
"w c #81705F",
"e c #847261",
"r c #847266",
"t c #857266",
"y c #877665",
"u c #88796A",
"i c #8D7D6A",
"p c #8C7A70",
"a c #AC646E",
"s c #B2727E",
"d c #918171",
"f c #958777",
"g c #95857E",
"h c #808080",
"j c #9A8E82",
"k c #9E9388",
"l c #9D9397",
"z c #A79C9D",
"x c #A89D9E",
"c c #B0A599",
"v c #B1A79B",
"b c #B9AEA4",
"n c #B0A6AA",
"m c #ADA6B1",
"M c #BAB5B0",
"N c #CCADBE",
"B c #CCC4BE",
"V c #B6B2C1",
"C c #BEB7C0",
"Z c #BFBDD0",
"A c #C3BCC7",
"S c #CDBAC9",
"D c #C6C0CC",
"F c #CECECD",
"G c #D6D0CA",
"H c #CFCBDA",
"J c #DAC9DE",
"K c #DBD5D1",
"L c #E5E1DE",
"P c #D7D5E5",
"I c #D8D5E6",
"U c #DAD8EB",
"Y c #E6E6FE",
"T c #F4F4F3",
"R c #F6F6F5",
"E c #F7F7F6",
"W c #F9F9F8",
"Q c gray98",
"! c None",
/* pixels */
"hhhhhhhhhhhhhhhhhhh!!!!!",
"hQQQQQQQQQQQQQQQQQh!!!!!",
"hQQQQQQQQQQQQQQQQQh!!!!!",
"hQQQQQQQQQQQQQQQQQh!!!!!",
"hQQQQQQQQQQQQQQQQQh!!!!!",
"hQQQQQQQQQQQQQQQQQh!!!!!",
"hQQQQQQQQQQQQQQQQQh!!!!!",
"hQQQQQQQQQQTGbbGRQh!!!!!",
"5QQQQQQQQQB;2gg2=Dd!!!!!",
"pQQQQQQQQv,DYYYYD,1!!!!!",
"hQQQQQQQK*S9JYYssI+M!!!!",
"hQQQQQQQfnJ88Js6sYli!!!!",
"hQQQQQQQ:HYJ876sYYV=!!!!",
"hQQQQQQQ+UYYa67JYYDX!!!!",
"hQQQQQQQeAYs6a88JYm2!!!!",
"hQQQQQQQvpN6sYJ89Y4j!!!!",
"hQQQQQQQR1xNYYYJJx.qF!!!",
"hQQQQQQQQL3yCIICe*O%wF!!",
"hQQQQQQQQQQby*%ef.>&$wF!",
"hQQQQQQQQQQQQQQQTi%&&%wF",
"hQQQQQQQQQQQQQQQQT*%&&$w",
"hQQQQQQQQQQQQQQQQQhe$&$w",
"hQQQQQQQQQQQQQQQQQhFq.wG",
"hhhhhhhhhhhhhhhhhhh!FkF!"
};
