/* XPM */
static char *tm_snap_text_border[] = {
/* columns rows colors chars-per-pixel */
"16 16 30 1 ",
"  c #606060",
". c #646464",
"X c #686868",
"o c #C04040",
"O c #C35B5B",
"+ c #C35F5F",
"@ c #C46464",
"# c #838383",
"$ c #848484",
"% c #868686",
"& c #8B8B8B",
"* c #8E8E8E",
"= c #9F9F9F",
"- c #A2A2A2",
"; c #AFAFAF",
": c #B4B4B4",
"> c #B6B6B6",
", c gray72",
"< c #CCACAC",
"1 c #CDB9B9",
"2 c #C0C0C0",
"3 c #C3C3C3",
"4 c #C8C8C8",
"5 c gray79",
"6 c #CACACA",
"7 c #CBCBCB",
"8 c #CDCDCD",
"9 c #CECECE",
"0 c gray81",
"q c None",
/* pixels */
"qqqqqqqqqqqqqqqq",
"q7qqqq70qqqq7qqq",
"727qqq22qqq727qq",
"q7qqqq07qqqq7qqq",
"qqq&#######1O1qq",
"qqqX>7  7;.<o<qq",
"qqq-q7  0q=<o<qq",
"720qq7  1@@@oO@@",
"027qq7  1O@Oo@@O",
"qqqqq7  0qq<o<qq",
"qqqqq7  0qq<o<qq",
"qqqq2&..*7q1O1qq",
"q7qq7>>,>7qq7qqq",
"727qqq22qqq727qq",
"q7qqqq77qqqq7qqq",
"qqqqqqqqqqqqqqqq"
};
