/* XPM */
static char *tm_show_hidden[] = {
/* columns rows colors chars-per-pixel */
"16 16 51 1 ",
"  c gray25",
". c #414141",
"X c gray26",
"o c #434343",
"O c #484848",
"+ c #4C4C4C",
"@ c #4E4E4E",
"# c #515151",
"$ c gray37",
"% c #606060",
"& c #626262",
"* c #717171",
"= c #767676",
"- c gray48",
"; c gray50",
": c #808080",
"> c #818181",
", c gray51",
"< c #838383",
"1 c #868686",
"2 c #888888",
"3 c #898989",
"4 c gray54",
"5 c gray55",
"6 c #959595",
"7 c #979797",
"8 c #9A9A9A",
"9 c #9B9B9B",
"0 c #A5A5A5",
"q c gray65",
"w c #AAAAAA",
"e c gray67",
"r c gray68",
"t c #AEAEAE",
"y c gray70",
"u c #B4B4B4",
"i c gray71",
"p c #BCBCBC",
"a c gray75",
"s c #C0C0C0",
"d c #C5C5C5",
"f c #C6C6C6",
"g c #C8C8C8",
"h c #CBCBCB",
"j c gray80",
"k c #E7E7E7",
"l c gray96",
"z c gray98",
"x c #FBFBFB",
"c c white",
"v c None",
/* pixels */
"vvvvvvvvvvvvvvvv",
"vvh            v",
"vvh            v",
"vvh            v",
"vvh         #%@v",
"vvh     @%=;:2 v",
"vvh #%=::9r6:l v",
"fr6:29rpffr;kc v",
"f;rpfppfpu:hcl v",
"v09pppfpp:0ccc v",
"vh:pfpfp22cccc v",
"vvr2fpp9:ccccc v",
"vvh;rpr;kccccl v",
"vvh@:u:hcccccc v",
"vvh *;0ccccccc v",
"vvh @%         v"
};
