/* XPM */
static char *tm_spanish[] = {
/* columns rows colors chars-per-pixel */
"16 16 22 1 ",
"  c #705753",
". c #776043",
"X c #C93C4A",
"o c #876D4C",
"O c #926D44",
"+ c #BA823B",
"@ c #DE823F",
"# c #DBA53B",
"$ c #E8B437",
"% c #EEBE35",
"& c #F3C734",
"* c #F1C637",
"= c #B79359",
"- c #AF8C69",
"; c #B48861",
": c #D0B158",
"> c #E8B842",
", c #DBAB61",
"< c #DDC056",
"1 c #E7C041",
"2 c #E9C441",
"3 c None",
/* pixels */
"3333333333333333",
"3333333333333333",
"3333333333333333",
"XXXXXXXXXXXXXXXX",
"XXXXXXXXXXXXXXXX",
"@@@@@@@@@@@@@@@@",
"&&&&$#%&&&&&&&&&",
"&&&1+;:&&&&&&&&&",
"&&&,O ->&&&&&&&&",
"&&&<.o=2&&&&&&&&",
"@@@@@@@@@@@@@@@@",
"XXXXXXXXXXXXXXXX",
"XXXXXXXXXXXXXXXX",
"3333333333333333",
"3333333333333333",
"3333333333333333"
};
