<?xml version="1.0" encoding="UTF-8"?>
<!-- Created with Inkscape (http://www.inkscape.org/) -->
<svg id="svg3039" width="20" height="20" version="1.1" xmlns="http://www.w3.org/2000/svg" xmlns:cc="http://creativecommons.org/ns#" xmlns:dc="http://purl.org/dc/elements/1.1/" xmlns:rdf="http://www.w3.org/1999/02/22-rdf-syntax-ns#">
 <metadata id="metadata3044">
  <rdf:RDF>
   <cc:Work rdf:about="">
    <dc:format>image/svg+xml</dc:format>
    <dc:type rdf:resource="http://purl.org/dc/dcmitype/StillImage"/>
    <dc:title/>
   </cc:Work>
  </rdf:RDF>
 </metadata>
 <g id="layer1" transform="translate(0,4)">
  <path id="text3315" transform="matrix(.76133 0 0 .76133 2.6459 .17561)" d="m2.8388 7.7352q0-4.0186 1.4982-7.2589 0.63879-1.3589 1.5331-2.4971 0.8943-1.1382 1.4866-1.6376 0.59233-0.49942 0.75493-0.49942 0.23229 0 0.2439 0.23229 0 0.11614-0.31359 0.4065-3.8327 3.9024-3.8211 11.254 0 7.3751 3.7282 11.127 0.4065 0.4065 0.4065 0.53426 0 0.23229-0.2439 0.23229-0.1626 0-0.7317-0.47619-0.5691-0.47619-1.4518-1.5679-0.88269-1.0917-1.5215-2.4274-1.5679-3.2404-1.5679-7.4215zm8.2229 11.661q0-0.11614 0.30197-0.4065 3.8327-3.9024 3.8327-11.254 0-7.3751-3.6817-11.103-0.45296-0.42973-0.45296-0.55749 0-0.23229 0.23229-0.23229 0.1626 0 0.7317 0.47619 0.58072 0.47619 1.4518 1.5679 0.88269 1.0917 1.5331 2.4274 1.5679 3.2404 1.5679 7.4215 0 4.0185-1.4982 7.2589-0.63879 1.3589-1.5331 2.4971-0.8943 1.1382-1.4866 1.6376t-0.76654 0.49942q-0.23229 0-0.23229-0.23229z" fill="#404040" stroke="#404040" stroke-width=".5" aria-label="()"/>
 </g>
</svg>
