/* XPM */
static char * tm_table_bright_xpm[] = {
"17 17 6 1",
" 	c None",
"=	c #00000000FFFF",
".	c #0000FFFFFFFF",
"o	c #000000000000",
"O	c #999999999999",
"r      c #FFFF00000000",
"          =      ",
" ooooooooo=ooooo ",
" OOOOOOOOO=OOOOO ",
"          =      ",
"    oo oo =o     ",
"    OO OO =O     ",
"          =      ",
" oooooooo =o ooo ",
" OOOOOOOO =O OOO ",
"          =      ",
"    oo oo =o     ",
"    OO OO =O     ",
"          =      ",
" ooooooooo=ooooo ",
" OOOOOOOOO=OOOOO ",
" ooooooooo=ooooo ",
"          =      "};
