<?xml version="1.0" encoding="UTF-8"?>
<!-- Created with Inkscape (http://www.inkscape.org/) -->
<svg id="svg3039" width="20" height="20" version="1.1" xmlns="http://www.w3.org/2000/svg" xmlns:cc="http://creativecommons.org/ns#" xmlns:dc="http://purl.org/dc/elements/1.1/" xmlns:rdf="http://www.w3.org/1999/02/22-rdf-syntax-ns#">
 <metadata id="metadata3044">
  <rdf:RDF>
   <cc:Work rdf:about="">
    <dc:format>image/svg+xml</dc:format>
    <dc:type rdf:resource="http://purl.org/dc/dcmitype/StillImage"/>
    <dc:title/>
   </cc:Work>
  </rdf:RDF>
 </metadata>
 <g id="layer1" transform="translate(0,4)">
  <path id="path4488" d="m4.0137 15.013-2.0069-4.0456 2.0387-4.0137" fill="none" stroke="#404040" stroke-linecap="round" stroke-width="2"/>
  <path id="path4490" transform="translate(0,-4)" d="m8.9831 10.985 2.0069 4.0137-2.0069 3.9819" fill="none" stroke="#404040" stroke-linecap="round" stroke-width="2"/>
  <path id="path6142" d="m6.7067 9.0438s1.628-1.2425 2.5538-2.3868c0.92585-1.1443 0.63846-1.7901 0.63846-1.7901s-3.1838-0.019285-4.4692-0.59669c-1.2855-0.57741-2.5538-1.7099-2.5538-2.9835 0-1.2736 0.40521-2.0183 2.5538-2.9835 2.1486-0.96513 8.0668-0.96513 10.215 0 2.1486 0.96513 2.5538 1.7099 2.5538 2.9835 0 1.2736-1.2684 2.4061-2.5538 2.9835-1.2855 0.57741-3.8308 0.59669-3.8308 0.59669s-0.233 1.1334-1.0987 1.9514c-0.86566 0.818-4.009 2.2255-4.009 2.2255z" fill="#f0f0e0" stroke="#808080"/>
 </g>
</svg>
