<?xml version="1.0" encoding="UTF-8"?>
<!-- Created with Inkscape (http://www.inkscape.org/) -->
<svg id="svg3039" width="20" height="20" version="1.1" xmlns="http://www.w3.org/2000/svg" xmlns:cc="http://creativecommons.org/ns#" xmlns:dc="http://purl.org/dc/elements/1.1/" xmlns:rdf="http://www.w3.org/1999/02/22-rdf-syntax-ns#">
 <metadata id="metadata3044">
  <rdf:RDF>
   <cc:Work rdf:about="">
    <dc:format>image/svg+xml</dc:format>
    <dc:type rdf:resource="http://purl.org/dc/dcmitype/StillImage"/>
    <dc:title/>
   </cc:Work>
  </rdf:RDF>
 </metadata>
 <g id="layer1" transform="translate(0,4)">
  <path id="text3329" d="m16.439 7.9066c0-0.21269-0.17402-0.3867-0.3867-0.3867h-6.1873l1.0828-2.9776h5.1045c0.21269 0 0.3867-0.17402 0.3867-0.3867s-0.17402-0.3867-0.3867-0.3867h-4.8145l2.3589-6.4966c0.01933-0.03867 0.03867-0.096676 0.03867-0.13535 0-0.21269-0.17402-0.3867-0.3867-0.3867-0.17402 0-0.3287 0.096676-0.36737 0.25136l-2.4749 6.7673h-6.458c-0.21269 0-0.3867 0.17402-0.3867 0.3867s0.17402 0.3867 0.3867 0.3867h6.1873l-1.0828 2.9776h-5.1045c-0.21269 0-0.3867 0.17402-0.3867 0.3867 0 0.21269 0.17402 0.3867 0.3867 0.3867h4.8145l-2.3589 6.4966c-0.019335 0.03867-0.019335 0.09668-0.019335 0.13535 0 0.21269 0.15468 0.3867 0.3867 0.3867 0.15468 0 0.30936-0.09668 0.34803-0.25136l2.4749-6.7673h6.458c0.21269 0 0.3867-0.17402 0.3867-0.3867z" fill="#404040" stroke="#404040" stroke-width=".5" aria-label="≠"/>
 </g>
</svg>
