<?xml version="1.0" encoding="UTF-8"?>
<!-- Created with Inkscape (http://www.inkscape.org/) -->
<svg id="svg3039" width="20" height="20" version="1.1" xmlns="http://www.w3.org/2000/svg" xmlns:cc="http://creativecommons.org/ns#" xmlns:dc="http://purl.org/dc/elements/1.1/" xmlns:rdf="http://www.w3.org/1999/02/22-rdf-syntax-ns#">
 <metadata id="metadata3044">
  <rdf:RDF>
   <cc:Work rdf:about="">
    <dc:format>image/svg+xml</dc:format>
    <dc:type rdf:resource="http://purl.org/dc/dcmitype/StillImage"/>
    <dc:title/>
   </cc:Work>
  </rdf:RDF>
 </metadata>
 <g id="layer1" transform="translate(0,4)" stroke-width="0">
  <path id="path7371" d="m2.1274 2.9613s5.1557-3.8794 7.9044-3.8794c2.7487 0 8.0956 3.8794 8.0956 3.8794s-5.4081-2.1468-8.0956-2.1468c-2.6874 0-7.9044 2.1468-7.9044 2.1468z" fill="#404040" fill-rule="evenodd"/>
  <circle id="path7383" cx="9.2819" cy="6.2375" r="2.75" fill="#404040"/>
  <circle id="path7385" cx="8.777" cy="5.3379" r="1" fill="#f0f0f0"/>
  <path id="path7375" d="m18.032 6.9875s-5.9424-3.9681-8.9238-3.9681-7.0762 3.9681-7.0762 3.9681 0.5 1.5415 2.4903 2.6177c0.69844 0.37766 1.5025 0.60377 2.7053 0.9903 1.2028 0.38653 2.8681 0.48752 2.8681 0.48752s-1.6098-0.66261-2.5659-1.1191c-0.99785-0.47646-1.7533-0.98661-2.3579-1.4224-0.76485-0.55127-1.1718-1.554-1.1718-1.554s2.6888-2.1775 4.8532-2.277c2.7909-0.12834 9.1786 2.277 9.1786 2.277z" fill="#404040" fill-rule="evenodd"/>
 </g>
</svg>
