<?xml version="1.0" encoding="UTF-8"?>
<!-- Created with Inkscape (http://www.inkscape.org/) -->
<svg id="svg3039" width="20" height="20" version="1.1" xmlns="http://www.w3.org/2000/svg" xmlns:cc="http://creativecommons.org/ns#" xmlns:dc="http://purl.org/dc/elements/1.1/" xmlns:rdf="http://www.w3.org/1999/02/22-rdf-syntax-ns#">
 <metadata id="metadata3044">
  <rdf:RDF>
   <cc:Work rdf:about="">
    <dc:format>image/svg+xml</dc:format>
    <dc:type rdf:resource="http://purl.org/dc/dcmitype/StillImage"/>
    <dc:title/>
   </cc:Work>
  </rdf:RDF>
 </metadata>
 <g id="layer1" transform="translate(0,4)">
  <path id="text3221" transform="matrix(.57407 0 0 .90853 6.2962 1.8446)" d="m-6.7014 12.044-4.211-10.449h2.9024l1.9677 5.3326 0.57064 1.7808q0.22629-0.67887 0.28532-0.89532 0.13774-0.44274 0.29516-0.88548l1.9874-5.3326h2.8434l-4.1519 10.449zm7.6938-5.3719q0-1.3774 0.67887-2.6663 0.67887-1.2889 1.9185-1.9677 1.2495-0.67887 2.7843-0.67887 2.3711 0 3.8863 1.5447 1.5152 1.5348 1.5152 3.8863 0 2.3711-1.5348 3.9355-1.525 1.5545-3.8469 1.5545-1.4364 0-2.745-0.64935-1.2987-0.64935-1.9776-1.8989-0.67887-1.2593-0.67887-3.0598zm2.8335 0.14758q0 1.5545 0.7379 2.381 0.7379 0.82645 1.8202 0.82645 1.0823 0 1.8103-0.82645 0.7379-0.82645 0.7379-2.4006 0-1.5348-0.7379-2.3613-0.72806-0.82645-1.8103-0.82645-1.0823 0-1.8202 0.82645-0.7379 0.82645-0.7379 2.381zm19.618 5.2243h-2.7647v-5.3326q0-1.6923-0.1771-2.1842-0.1771-0.50177-0.58048-0.77726-0.39355-0.27548-0.95435-0.27548-0.71822 0-1.2889 0.39355-0.57064 0.39355-0.78709 1.0429-0.20661 0.64935-0.20661 2.4006v4.7324h-2.7647v-10.449h2.5679v1.5348q1.3676-1.771 3.4435-1.771 0.915 0 1.6726 0.33451 0.75758 0.32468 1.1413 0.83629 0.39355 0.51161 0.54113 1.161 0.15742 0.64935 0.15742 1.8595z" fill="#404040" stroke="#404040" stroke-width=".5" aria-label="von"/>
 </g>
</svg>
