<?xml version="1.0" encoding="UTF-8"?>
<!-- Created with Inkscape (http://www.inkscape.org/) -->
<svg id="svg3039" width="20" height="20" version="1.1" xmlns="http://www.w3.org/2000/svg" xmlns:cc="http://creativecommons.org/ns#" xmlns:dc="http://purl.org/dc/elements/1.1/" xmlns:rdf="http://www.w3.org/1999/02/22-rdf-syntax-ns#">
 <metadata id="metadata3044">
  <rdf:RDF>
   <cc:Work rdf:about="">
    <dc:format>image/svg+xml</dc:format>
    <dc:type rdf:resource="http://purl.org/dc/dcmitype/StillImage"/>
    <dc:title/>
   </cc:Work>
  </rdf:RDF>
 </metadata>
 <g id="layer1" transform="translate(0,4)">
  <path id="text3375" transform="scale(1.2915 .7743)" d="m14.13-2.2184-0.32091-0.38968c-1.1232 0.93981-2.3381 1.6275-3.5071 1.6275-0.91688 0-1.5816-0.38968-2.3839-0.84812-0.66474-0.38968-1.3753-0.77935-2.2922-0.77935-0.57305 0-1.169 0.18338-1.6733 0.4126-0.45844 0.22922-0.91688 0.48136-1.3066 0.80227l-1.2378 1.0086 0.32091 0.38968c1.1232-0.93981 2.3381-1.6275 3.5071-1.6275 0.91688 0 1.5816 0.38968 2.3839 0.84812 0.66474 0.38968 1.3753 0.77935 2.2922 0.77935 0.57305 0 1.169-0.18338 1.6733-0.4126 0.45844-0.22922 0.91688-0.48136 1.3066-0.80227z" fill="#404040" stroke="#404040" stroke-width=".5" aria-label="~"/>
 </g>
</svg>
