<?xml version="1.0" encoding="UTF-8"?>
<!-- Created with Inkscape (http://www.inkscape.org/) -->
<svg id="svg3039" width="16" height="16" version="1.1" xmlns="http://www.w3.org/2000/svg" xmlns:cc="http://creativecommons.org/ns#" xmlns:dc="http://purl.org/dc/elements/1.1/" xmlns:rdf="http://www.w3.org/1999/02/22-rdf-syntax-ns#">
 <metadata id="metadata3044">
  <rdf:RDF>
   <cc:Work rdf:about="">
    <dc:format>image/svg+xml</dc:format>
    <dc:type rdf:resource="http://purl.org/dc/dcmitype/StillImage"/>
    <dc:title/>
   </cc:Work>
  </rdf:RDF>
 </metadata>
 <g id="layer1">
  <path id="path3978" d="m6.4871 5.5427h3v4.9903h-3z" fill="#8080ff" stroke="#4040c0" stroke-linejoin="round" stroke-width=".49952"/>
  <path id="text9914" transform="matrix(1.1658 0 0 .8578 .06371 .89193)" d="m6.6103 19.826q-0.5176-0.22383-0.88132-0.29377-0.34973-0.08393-0.67148-0.08393-0.3917 0-0.82536 0.23782-0.41968 0.23782-0.76941 0.58755v-1.5808q0.69946-0.74143 1.7486-0.74143 0.40569 0 0.81137 0.08394 0.41968 0.06995 1.0772 0.34973 0.5176 0.22383 0.88132 0.30776 0.36372 0.06995 0.67148 0.06995 0.40569 0 0.82536-0.23782 0.41968-0.23782 0.76941-0.58755v1.5808q-0.69946 0.74143-1.7487 0.74143-0.40569 0-0.82536-0.08394-0.40569-0.08394-1.0632-0.34973z" aria-label="~"/>
 </g>
</svg>
