<?xml version="1.0" encoding="UTF-8" standalone="no"?>
<svg
   xmlns:dc="http://purl.org/dc/elements/1.1/"
   xmlns:cc="http://creativecommons.org/ns#"
   xmlns:rdf="http://www.w3.org/1999/02/22-rdf-syntax-ns#"
   xmlns:svg="http://www.w3.org/2000/svg"
   xmlns="http://www.w3.org/2000/svg"
   xmlns:sodipodi="http://sodipodi.sourceforge.net/DTD/sodipodi-0.dtd"
   xmlns:inkscape="http://www.inkscape.org/namespaces/inkscape"
   height="16"
   id="svg2739"
   inkscape:output_extension="org.inkscape.output.svg.inkscape"
   inkscape:version="0.48.0 r9654"
   sodipodi:docname="tm_british.svg"
   sodipodi:version="0.32"
   version="1.0"
   viewBox="0 0 3.75 1.875"
   width="16">
  <metadata
     id="metadata4523">
    <rdf:RDF>
      <cc:Work
         rdf:about="">
        <dc:title />
        <dc:description />
        <dc:subject>
          <rdf:Bag>
            <rdf:li>unsorted</rdf:li>
          </rdf:Bag>
        </dc:subject>
        <dc:publisher>
          <cc:Agent
             rdf:about="http://www.openclipart.org/">
            <dc:title>Open Clip Art Library, Source: Wikimedia Commons, Source: Wikimedia Commons, Source: Wikimedia Commons, Source: Wikimedia Commons</dc:title>
          </cc:Agent>
        </dc:publisher>
        <dc:creator>
          <cc:Agent>
            <dc:title />
          </cc:Agent>
        </dc:creator>
        <dc:rights>
          <cc:Agent>
            <dc:title />
          </cc:Agent>
        </dc:rights>
        <dc:date />
        <dc:format>image/svg+xml</dc:format>
        <dc:type
           rdf:resource="http://purl.org/dc/dcmitype/StillImage" />
        <cc:license
           rdf:resource="http://en.wikipedia.org/wiki/Public_domain" />
        <dc:language>en</dc:language>
      </cc:Work>
    </rdf:RDF>
  </metadata>
  <defs
     id="defs2755">
    <inkscape:perspective
       id="perspective2759"
       inkscape:persp3d-origin="600 : 200 : 1"
       inkscape:vp_x="0 : 300 : 1"
       inkscape:vp_y="0 : 1000 : 0"
       inkscape:vp_z="1200 : 300 : 1"
       sodipodi:type="inkscape:persp3d" />
  </defs>
  <sodipodi:namedview
     bordercolor="#666666"
     borderopacity="1.0"
     gridtolerance="10.0"
     guidetolerance="10.0"
     id="base"
     inkscape:current-layer="svg2739"
     inkscape:cx="5.9380751"
     inkscape:cy="7.3376623"
     inkscape:pageopacity="0.0"
     inkscape:pageshadow="2"
     inkscape:window-height="902"
     inkscape:window-width="1042"
     inkscape:window-x="159"
     inkscape:window-y="56"
     inkscape:zoom="32"
     objecttolerance="10.0"
     pagecolor="#ffffff"
     showgrid="true"
     inkscape:window-maximized="0">
    <inkscape:grid
       type="xygrid"
       id="grid4538"
       empspacing="5"
       visible="true"
       enabled="true"
       snapvisiblegridlinesonly="true" />
  </sodipodi:namedview>
  <clipPath
     id="t">
    <path
       d="m 30,15 30,0 0,15 -30,-15 z m 0,0 0,15 L 0,30 30,15 z M 30,15 0,15 0,0 30,15 z m 0,0 0,-15 30,0 -30,15 z"
       id="path2742"
       inkscape:connector-curvature="0" />
  </clipPath>
  <g
     id="g5050"
     style="opacity:0.75"
     transform="matrix(1.0015719,0,0,0.98966363,-0.00655515,0.01992826)">
    <path
       inkscape:connector-curvature="0"
       style="fill:#00247d"
       id="path2744"
       d="m 0.00654486,-0.25698336 0,2.36825086 3.74411414,0 0,-2.36825086 -3.74411414,0 z" />
    <path
       inkscape:connector-curvature="0"
       style="fill:#ffffff;fill-opacity:1;fill-rule:evenodd;stroke:none"
       sodipodi:nodetypes="cccccccc"
       id="path3158"
       d="m 0.89456662,0.60100214 -0.0596645,-0.0667016 -0.8283576,-0.5248356 2.69e-5,-0.2666891 0.41865525,1.658e-4 1.14090593,0.7228983 0.030525,0.1246267 -0.70209189,0.0105327 z" />
    <path
       inkscape:connector-curvature="0"
       style="fill:#ffffff;fill-opacity:1;fill-rule:evenodd;stroke:none"
       sodipodi:nodetypes="cccccccc"
       id="path3160"
       d="m 2.8626363,0.60109924 0.059664,-0.0667016 0.828358,-0.524836 -2.73e-5,-0.2666889 -0.4186548,1.658e-4 -1.140906,0.7228982 -0.030525,0.1246266 0.7020922,0.0105327 z" />
    <path
       inkscape:connector-curvature="0"
       style="fill:#ffffff;fill-opacity:1;fill-rule:evenodd;stroke:none"
       sodipodi:nodetypes="cccccccc"
       id="path3162"
       d="M 2.8626977,1.2532394 2.9223619,1.3199414 3.7507197,1.8447771 3.7506925,2.111466 3.3320373,2.1112996 2.1911313,1.3884016 2.1606054,1.2637749 2.8626972,1.2532422 z" />
    <path
       inkscape:connector-curvature="0"
       style="fill:#ffffff;fill-opacity:1;fill-rule:evenodd;stroke:none"
       sodipodi:nodetypes="cccccccc"
       id="path3164"
       d="M 0.89475502,1.2531741 0.83509087,1.3198751 0.00673322,1.8447108 0.00676001,2.1114 0.42541538,2.1112347 1.5663214,1.3883324 1.5968472,1.2637058 0.89475533,1.253173 z" />
    <path
       transform="matrix(0.06240191,0,0,0.07894169,0.00654486,-0.25698336)"
       inkscape:connector-curvature="0"
       style="stroke:#cf142b;stroke-width:4"
       sodipodi:nodetypes="cssccc"
       id="path2748"
       d="m 0,0 c 7.691981,3.8369888 15.370146,7.6739775 23.042447,11.510966 0.0446,0.0223 0.0892,0.04461 0.133796,0.06691 C 35.454865,17.718586 47.718586,23.859293 60,30 M 60,0 0,30"
       clip-path="url(#t)" />
    <path
       inkscape:connector-curvature="0"
       style="stroke:#ffffff;stroke-width:0.70186263"
       sodipodi:nodetypes="cccccc"
       id="path2750"
       d="m 1.8786021,-0.25698336 0,0.7003124 0,0.026168 0,1.64177256 m -1.87205724,-1.18412596 3.74411414,0" />
    <path
       inkscape:connector-curvature="0"
       style="stroke:#cf142b;stroke-width:0.4211176"
       id="path2752"
       d="m 1.8786021,-0.25698336 0,2.36825086 m -1.87205724,-1.18412556 3.74411414,0" />
    <path
       transform="matrix(0.06240191,0,0,0.07894169,0.00654486,-0.25698336)"
       inkscape:connector-curvature="0"
       clip-path="url(#t)"
       d="m 0,0 c 7.691981,3.8369888 15.370146,7.6739775 23.042447,11.510966 0.0446,0.0223 0.0892,0.04461 0.133796,0.06691 C 35.454865,17.718586 47.718586,23.859293 60,30 M 60,0 0,30"
       id="path4540"
       sodipodi:nodetypes="cssccc"
       style="stroke:#cf142b;stroke-width:4" />
  </g>
</svg>
