/* XPM */
static char *tm_french[] = {
/* columns rows colors chars-per-pixel */
"16 16 6 1 ",
"  c #E6535F",
". c #344EA5",
"X c #B1BAD7",
"o c #EFBDC0",
"O c #F3F3F3",
"+ c None",
/* pixels */
"++++++++++++++++",
"++++++++++++++++",
"++++++++++++++++",
".....XOOOOo     ",
".....XOOOOo     ",
".....XOOOOo     ",
".....XOOOOo     ",
".....XOOOOo     ",
".....XOOOOo     ",
".....XOOOOo     ",
".....XOOOOo     ",
".....XOOOOo     ",
".....XOOOOo     ",
"++++++++++++++++",
"++++++++++++++++",
"++++++++++++++++"
};
