/* XPM */
static char *tm_italian[] = {
/* columns rows colors chars-per-pixel */
"16 16 6 1 ",
"  c #CF545D",
". c #34A268",
"X c #DFB5B8",
"o c #D5E2DB",
"O c #F3F3F3",
"+ c None",
/* pixels */
"++++++++++++++++",
"++++++++++++++++",
"++++++++++++++++",
".....oOOOOX     ",
".....oOOOOX     ",
".....oOOOOX     ",
".....oOOOOX     ",
".....oOOOOX     ",
".....oOOOOX     ",
".....oOOOOX     ",
".....oOOOOX     ",
".....oOOOOX     ",
".....oOOOOX     ",
"++++++++++++++++",
"++++++++++++++++",
"++++++++++++++++"
};
