/* XPM */
static char *tm_landscape_1col[] = {
/* columns rows colors chars-per-pixel */
"16 16 4 1 ",
"  c #808080",
". c #C0C0C0",
"X c #F8F8F8",
"o c None",
/* pixels */
"oooooooooooooooo",
"oooooooooooooooo",
"                ",
" XXXXXXXXXXXXXX ",
" X............X ",
" X............X ",
" X............X ",
" X............X ",
" X............X ",
" X............X ",
" X............X ",
" X............X ",
" XXXXXXXXXXXXXX ",
"                ",
"oooooooooooooooo",
"oooooooooooooooo"
};
