/* XPM */
static char *tm_left[] = {
/* columns rows colors chars-per-pixel */
"16 16 11 1 ",
"  c #808080",
". c #818181",
"X c gray51",
"o c #838383",
"O c #868686",
"+ c gray68",
"@ c #BBBBBB",
"# c #BCBCBC",
"$ c gray74",
"% c gray75",
"& c None",
/* pixels */
"&&&&&&&&&&&&&&&&",
"&&&&&&&&&&&&&&&&",
"&&&&&&&&&&&&&&&&",
"&&&&&&&&&&&&&&&&",
"&&&#O%&&&&&&&&&&",
"&&#oo%&&&&&&&&&&",
"&$Xo@&&&&&&&&&&&",
"%X             +",
"%X.            +",
"&$Xo@&&&&&&&&&&&",
"&&#Xo%&&&&&&&&&&",
"&&&#O%&&&&&&&&&&",
"&&&&&&&&&&&&&&&&",
"&&&&&&&&&&&&&&&&",
"&&&&&&&&&&&&&&&&",
"&&&&&&&&&&&&&&&&"
};
