/* XPM */
static char *tm_outwards[] = {
/* columns rows colors chars-per-pixel */
"16 16 71 1 ",
"  c gray50",
". c #808080",
"X c #818181",
"o c gray51",
"O c #838383",
"+ c #848484",
"@ c gray52",
"# c #868686",
"$ c gray53",
"% c #888888",
"& c #898989",
"* c gray54",
"= c #8B8B8B",
"- c gray55",
"; c #8D8D8D",
": c #8E8E8E",
"> c #909090",
", c gray57",
"< c #929292",
"1 c #939393",
"2 c gray58",
"3 c #959595",
"4 c #979797",
"5 c #989898",
"6 c gray60",
"7 c #9A9A9A",
"8 c gray61",
"9 c #9D9D9D",
"0 c gray62",
"q c #A0A0A0",
"w c gray63",
"e c #A2A2A2",
"r c gray64",
"t c #A4A4A4",
"y c #A5A5A5",
"u c gray65",
"i c gray66",
"p c #A9A9A9",
"a c #AAAAAA",
"s c gray67",
"d c #ACACAC",
"f c gray68",
"g c #AEAEAE",
"h c #AFAFAF",
"j c gray69",
"k c #B1B1B1",
"l c #B4B4B4",
"z c gray71",
"x c #B6B6B6",
"c c #B7B7B7",
"v c gray72",
"b c #B9B9B9",
"n c gray73",
"m c #BBBBBB",
"M c gray74",
"N c gray75",
"B c #C0C0C0",
"V c #C1C1C1",
"C c gray76",
"Z c #C3C3C3",
"A c #C5C5C5",
"S c #C6C6C6",
"D c gray78",
"F c gray79",
"G c #CACACA",
"H c #CBCBCB",
"J c gray80",
"K c #CDCDCD",
"L c #CECECE",
"P c gray81",
"I c None",
/* pixels */
"KncmvvSHJCgsaphA",
"M6-*<5rFHk7,$%>g",
"x$.@5yxGPCxr&.@a",
"b=#o<dSPPGg4@&%a",
"m23,%>pHFp=@>91s",
"b,ug:o&rr&.;hz,j",
"VtxGp#.#XX$aJZlN",
"PDHIHt+  OyGPPGP",
"PHPIGto  +uKPPJL",
"BlZJd%XOo.=iKHbC",
"k<xj-.&ew% ;kM8u",
"s10,@-pFGt@O7r@e",
"a&&#2fGPIHg3#;%q",
"d@.&rcCPPLNr-.#w",
"h,%$,7kGKn7;%+#t",
"AgapafVHLBt000ql"
};
