/* XPM */
static char *tm_plugin_output[] = {
/* columns rows colors chars-per-pixel */
"16 16 17 1 ",
"  c #6060FF",
". c #808080",
"X c #9A9A9A",
"o c #BBBBBB",
"O c #ACACDF",
"+ c #BEBED7",
"@ c #B3B3DC",
"# c #B3B3DD",
"$ c #BBBBD8",
"% c #9E9EE5",
"& c #9D9DE6",
"* c #8484F0",
"= c #C8C8C8",
"- c #CACACA",
"; c #C5C5D4",
": c #C7C7D4",
"> c None",
/* pixels */
"=oooooooooo->>>>",
"X..........X>>>>",
"=oooooooooo->>>>",
">>;###########@:",
">>*            *",
">>$&&&&&&&&&%O@:",
">>*          *>>",
">>;#########@:>>",
"=oooooooooo->>>>",
"X..........X>>>>",
"=oooooooooo->>>>",
">>;###########@:",
">>*            *",
">>$&&&&&&&&&&&%+",
">>*            *",
">>;###########@:"
};
