/* XPM */
static char *tm_root_index[] = {
/* columns rows colors chars-per-pixel */
"16 16 46 1 ",
"  c gray3",
". c #090909",
"X c #151515",
"o c #1D1D1D",
"O c gray13",
"+ c gray14",
"@ c gray15",
"# c gray26",
"$ c #434343",
"% c #494949",
"& c gray32",
"* c #535353",
"= c #565656",
"- c gray34",
"; c gray35",
": c #5B5B5B",
"> c gray36",
", c #5D5D5D",
"< c gray39",
"1 c #6A6A6A",
"2 c gray48",
"3 c #7373D4",
"4 c gray52",
"5 c #909090",
"6 c gray58",
"7 c gray62",
"8 c #A2A2A2",
"9 c gray64",
"0 c gray65",
"q c gray66",
"w c gray67",
"e c gray68",
"r c #B2B2B2",
"t c gray70",
"y c gray71",
"u c #B7B7B7",
"i c #B9B9B9",
"p c #8181CE",
"a c #8080FF",
"s c #C0C0C0",
"d c #C6C6C6",
"f c #C8C8C8",
"g c #CBCBCB",
"h c #CDCDCD",
"j c gray81",
"k c None",
/* pixels */
"kkkkkkkkkkkkkkkk",
"kp33pkkkk8++++$k",
"k3aa3kkkk;gkkkkk",
"k3aa3kkkg;kkkkkk",
"k3aa3kkk66kkkkkk",
"k3aa3kkk-gkkkkkk",
"kp33pkkd;kkkkkkk",
"kkgkkkk48kkkkkkk",
"k8oekkk-gkkkkkkk",
"ky;%kki<kkkkkkkk",
"kki ik28kkkkkkkk",
"kkk--k-kkkkkkkkk",
"kkky.81kkkkkkkkk",
"kkkk%Xykkkkkkkkk",
"kkkke$kkkkkkkkkk",
"kkkkkkkkkkkkkkkk"
};
