/* XPM */
static char *tm_set_properties[] = {
/* columns rows colors chars-per-pixel */
"16 16 96 2 ",
"   c #7F6E5D",
".  c #7D6D5F",
"X  c #7F6F5F",
"o  c #7E6F61",
"O  c #7E6F63",
"+  c #7F7065",
"@  c #806F63",
"#  c #807060",
"$  c #807062",
"%  c #807165",
"&  c #817266",
"*  c #817267",
"=  c #827267",
"-  c #827469",
";  c #837469",
":  c #83756A",
">  c #85786D",
",  c #BE8346",
"<  c #C18242",
"1  c #C08343",
"2  c #C08344",
"3  c #C18446",
"4  c #C18648",
"5  c #C28748",
"6  c #C28749",
"7  c #C2884C",
"8  c #C48B4E",
"9  c #C48D4E",
"0  c #C38D53",
"q  c #C38E54",
"w  c #C59252",
"e  c #C69054",
"r  c #C69254",
"t  c #C49456",
"y  c #C4935E",
"u  c #C5935F",
"i  c #C99C5B",
"p  c #C89B5D",
"a  c #C39460",
"s  c #C59663",
"d  c #C59869",
"f  c #C69968",
"g  c #C6996A",
"h  c #C79D6E",
"j  c #CFAD6E",
"k  c #CFAE6E",
"l  c #C7A37D",
"z  c #C7A37E",
"x  c #C7A47F",
"c  c #D2B777",
"v  c #A49B96",
"b  c #A69E99",
"n  c #ABA5A1",
"m  c #ADA6A2",
"M  c #AFA9A4",
"N  c #B4AFAB",
"B  c #B5AFAC",
"V  c #BBB6B3",
"C  c #BBB7B4",
"Z  c #BDB9B7",
"A  c #BEBAB8",
"S  c #BFBDBA",
"D  c #C8A582",
"F  c #C8A888",
"G  c #C8A98A",
"H  c #CAAC8D",
"J  c #C9AD8F",
"K  c #CAAF94",
"L  c #CAB199",
"P  c #CBB39C",
"I  c #CAB59D",
"U  c #CBBBAA",
"Y  c #C1BFBD",
"T  c #D6C082",
"R  c #D6C383",
"E  c #D7C686",
"W  c #DBD090",
"Q  c #DBD292",
"!  c #DCD494",
"~  c #DCD595",
"^  c #DED999",
"/  c #DEDA9A",
"(  c #CDC0B3",
")  c #CDC2B6",
"_  c #CEC5BB",
"`  c #E0E0A0",
"'  c #C5C3C2",
"]  c #C6C4C3",
"[  c #CEC8C2",
"{  c #CFCAC5",
"}  c #CAC8C8",
"|  c #CFCCC9",
" . c #CFCDCA",
".. c #D0CFCD",
"X. c #D0CFCF",
"o. c None",
/* pixels */
"o. .X.o.o.o.U t X.o.o.o.o.o.o.o.",
"o.g 0 L  .L 6 , X.o.o.o.o.o.o.o.",
"o.K 9 p 9 9 T 0 o.o.o.o.o.o.o.o.",
"o. .6 ! ! / E s o.o.o.o.o.o.o.o.",
"o.o.g c ` ` ! r g _ o.o.o.o.o.o.",
"o.F r / ` ` ` ! p < L o.o.o.o.o.",
"F < k k T / t , s l ) o.o.o.o.o.",
"K h l F 9 W < + - ' o.o.o.o.o.o.",
"o.o.o.o.l 0 t - X & S o.o.o.o.o.",
"o.o.o.o.{ 6 F  .- # + V o.o.o.o.",
"o.o.o.o.o.) { o.' + + + N o.o.o.",
"o.o.o.o.o.o.o.o.o._ + + + m o.o.",
"o.o.o.o.o.o.o.o.o.o.V & X + b o.",
"o.o.o.o.o.o.o.o.o.o.o.N & X . v ",
"o.o.o.o.o.o.o.o.o.o.o.o.m & & V ",
"o.o.o.o.o.o.o.o.o.o.o.o.o.n S o."
};
