/* XPM */
static char *tm_search_last[] = {
/* columns rows colors chars-per-pixel */
"16 16 38 1 ",
"  c #808080",
". c #818181",
"X c gray51",
"o c #838383",
"O c #848484",
"+ c #868686",
"@ c gray53",
"# c #888888",
"$ c #898989",
"% c gray54",
"& c #8B8B8B",
"* c #939393",
"= c gray58",
"- c #959595",
"; c gray59",
": c #979797",
"> c #9F9F9F",
", c gray63",
"< c #A2A2A2",
"1 c #AAAAAA",
"2 c gray67",
"3 c gray68",
"4 c #AEAEAE",
"5 c #B7B7B7",
"6 c #B9B9B9",
"7 c gray74",
"8 c #C0C0C0",
"9 c #C5C5C5",
"0 c #C6C6C6",
"q c #C8C8C8",
"w c gray79",
"e c #CACACA",
"r c #CBCBCB",
"t c gray80",
"y c #CDCDCD",
"u c #CECECE",
"i c gray81",
"p c None",
/* pixels */
"pppppppppppppppp",
"ppuuippppppuuupp",
"pu>*7uppppi3$>up",
"pu$XX5upppu$XXup",
"pu$XXX3uppu$XXup",
"puXXXXX,uuu$XX0p",
"puXXX  X*0uXXXup",
"puXX    X*uXXX0p",
"puXX  XXX*uXXXup",
"puXX   X>0u$XX0p",
"pu$X  X,0uuX  up",
"puXXXX3uppu$ Xup",
"pu$X$5upppuXXXup",
"pu,*0ippppp3$,up",
"ppuuippppppuuupp",
"pppppppppppppppp"
};
