/* XPM */
static char *magick[] = {
/* columns rows colors chars-per-pixel */
"14 17 10 1",
"a c #3a3a3a",
". c #585858",
"X c gray46",
"o c gray48",
"O c gray58",
"+ c #989898",
"@ c gray75",
"# c #c5c5c5",
"$ c #cbcbcb",
"  c None",
/* pixels */
"              ",
"              ",
"              ",
"              ",
"              ",
"              ",
"              ",
" #XXXXXXXXXXo ",
" #........... ",
"              ",
" $OOOOOOOOOO+ ",
" @aaaaaaaaaaa ",
"              ",
"              ",
"              ",
"              ",
"              "
};
