/* XPM */
static char * tm_floatpos_xpm[] = {
"17 17 7 1",
" 	c None",
"=	c #000000000000",
".	c #999999999999",
"o	c #000000007F7F",
"O	c #00000000FFFF",
"P	c #99999999FFFF",
"+	c #FFFF00000000",
"                 ",
" =======+======= ",
" ......+++...... ",
" =====+=+=+===== ",
" .......+....... ",
"        +        ",
"   OOOOO+OOOOO   ",
"   OPPPP+PPPPO   ",
"   OPPPP+PPPPO   ",
"   OPPPP+PPPPO   ",
"   OOOOO+OOOOO   ",
"        +        ",
" =======+======= ",
" .....+.+.+..... ",
" ======+++====== ",
" .......+....... ",
"                 "};
