/* XPM */
static char * tm_graphics_cursor_xpm[] = {
"15 15 2 1 7 7",
" 	c None",
".	c red",
"               ",
"               ",
"       .       ",
"       .       ",
"       .       ",
"       .       ",
"       .       ",
"  ...........  ",
"       .       ",
"       .       ",
"       .       ",
"       .       ",
"       .       ",
"               ",
"               "};
