/* XPM */
static char *tm_traverse[] = {
/* columns rows colors chars-per-pixel */
"17 17 75 1 ",
"  c #7A0101",
". c #790202",
"X c #7B0202",
"o c #7C0000",
"O c #7E0000",
"+ c #790909",
"@ c #7B0D0D",
"# c #7E1313",
"$ c #7F1313",
"% c #781616",
"& c #7F1515",
"* c #771818",
"= c #7E1919",
"- c #7B2424",
"; c #800000",
": c #811D1D",
"> c #822525",
", c #882D2D",
"< c #8C3838",
"1 c #8B3F3F",
"2 c #984F4F",
"3 c #985050",
"4 c #995050",
"5 c #995858",
"6 c #9F5E5E",
"7 c #8D6D6D",
"8 c #9B6868",
"9 c #A86F6F",
"0 c #A97070",
"q c #AC7575",
"w c #AE7979",
"e c #848484",
"r c gray52",
"t c #868686",
"y c #898989",
"u c gray54",
"i c #8B8B8B",
"p c gray55",
"a c #8D8D8D",
"s c #8E8E8E",
"d c gray56",
"f c #9E8E8E",
"g c #909090",
"h c #929292",
"j c #9B9B9B",
"k c gray62",
"l c #B48585",
"z c #A59797",
"x c #BD9494",
"c c gray64",
"v c #A5A2A2",
"b c #A5A5A5",
"n c #A9A9A9",
"m c gray69",
"M c gray71",
"N c #B9B8B8",
"B c #B9B9B9",
"V c #C5A2A2",
"C c #C7A7A7",
"Z c #C9AAAA",
"A c #CCAEAE",
"S c #D3BABA",
"D c gray78",
"F c #DBC8C8",
"G c #DBD3D3",
"H c #DADADA",
"J c #E6DADA",
"K c #E9DEDE",
"L c #E1E1E1",
"P c #E4E4E4",
"I c #EAE2E2",
"U c #EDE6E6",
"Y c gray93",
"T c #F8F8F8",
"R c None",
/* pixels */
"RRRRRtsstssiiRRRR",
"RRRRRtTTTTTYiRRRR",
"RRRRRsTTTTTUsRRRR",
"RRRsssTTx2FUsRRRR",
"RRRMHgTT<-IYsRRRR",
"RRRDTgTI:3TYsRRRR",
"RRRDTgTZ qTUsRRRR",
"RRRDTgTq STUscsRR",
"RRRDTgTq 6TUcTMRR",
"RRRDTsnf+*cckTmRR",
"RRRDTLKL< 8LGTmRR",
"RRRDTTTTK%:C-IMRR",
"RRRMHHHHG7:+ ZMRR",
"RRRgsdsskz>; 9MRR",
"RRRRRRRRN5,% 2mRR",
"RRRRRRRRNTTKClmRR",
"RRRRRRRRtssiiitRR"
};
