/* XPM */
static char * tm_table_xpm[] = {
"17 17 6 1",
" 	c None",
"=	c #00000000FFFF",
".	c #0000FFFFFFFF",
"o	c #000000000000",
"O	c #999999999999",
"r      c #FFFF00000000",
"                 ",
" ooooooooooooooo ",
" o   O    O    o ",
" o   O    O    o ",
" oOOOOOOOOOOOOOo ",
" o   O    O    o ",
" o   O    O    o ",
" o   O    O    o ",
" oOOOOOOOOOOOOOo ",
" o   O    O    o ",
" o   O    O    o ",
" o   O    O    o ",
" oOOOOOOOOOOOOOo ",
" o   O    O    o ",
" o   O    O    o ",
" ooooooooooooooo ",
"                 "};
