/* XPM */
static char *tm_unequal[] = {
/* width height num_colors chars_per_pixel */
"13 17 24 1",
/* colors */
"  c None",
". c #000400",
"# c #101010",
"a c #101410",
"b c #181818",
"c c #181c18",
"d c #202420",
"e c #383838",
"f c #505050",
"g c #585858",
"h c #606060",
"i c #686c68",
"j c #707470",
"k c #787c78",
"l c #808080",
"m c #909090",
"n c #a0a4a0",
"o c #a0a8a0",
"p c #b0b0b0",
"q c #b0b4b0",
"r c #b8b8b8",
"s c #b8bcb8",
"t c #c0c0c0",
"u c #c8c8c8",
/* pixels */
"             ",
"             ",
"        s    ",
"        cr   ",
"       od    ",
"       hi    ",
"       aq    ",
"  ncccb.ccg  ",
"      gj     ",
"  tmmmakmmo  ",
"  pggecgggk  ",
"     fj      ",
"    u#t      ",
"    me       ",
"    hl       ",
"             ",
"             "
};
