/* XPM */
static char *tm_prefs_convert[] = {
/* columns rows colors chars-per-pixel */
"32 32 58 1 ",
"  c #8D8D73",
". c #8E8E72",
"X c #8B8B75",
"o c #8C8C74",
"O c #81817F",
"+ c #82827E",
"@ c #84847C",
"# c #888878",
"$ c #909070",
"% c #919171",
"& c #919172",
"* c #929273",
"= c #939374",
"- c #949476",
"; c #959577",
": c #969678",
"> c #98987C",
", c #9A9A7D",
"< c #9C9C7F",
"1 c #808080",
"2 c #9C9C80",
"3 c #9D9D81",
"4 c #9D9D83",
"5 c #9E9E83",
"6 c #A5A58C",
"7 c #A4A490",
"8 c #AEAE97",
"9 c #B3B39D",
"0 c #B4B49F",
"q c #B7B7AA",
"w c #BBBBA9",
"e c #BEBEAC",
"r c #BDBDB3",
"t c #C4C4B4",
"y c #C6C6B6",
"u c #C6C6B7",
"i c #CBCBBD",
"p c #CCCCBE",
"a c #CFCFC2",
"s c #C9C9C4",
"d c #CBCBC9",
"f c #CCCCC8",
"g c #D5D5CB",
"h c #D9D9CF",
"j c #DEDED6",
"k c #E0E0D8",
"l c #E4E4DD",
"z c #E5E5DF",
"x c #EFEFEC",
"c c #F0F0EE",
"v c #F3F3F2",
"b c #F4F4F3",
"n c #F5F5F4",
"m c #F6F6F5",
"M c #F6F6F6",
"N c #F7F7F6",
"B c #F8F8F8",
"V c None",
/* pixels */
"V1111111OOO11111111VVVVVVVVVVVVV",
"V1BBBBBBBBbBBBBBBB1VVVVVVVVVVVVV",
"V1BBBBBBBBBBBBBBBB1VVVVVVVVVVVVV",
"V1BBBBBBBBBBBBBBBB1VVVVVVVVVVVVV",
"V1BBBBBBBBBBBBBBBB1VVVVVVVVVVVVV",
"V1BBBBBBBchyeyahcB1VVVVVVVVVVVVV",
"V1BBBBBBBj%%%%%%59OVVVVVVVVVVVVV",
"V1BBBBBBBj-,,,:-%%.fVVVVVVVVVVVV",
"V1BBBBBBBblcb11O.$$.11111111111V",
"V1BBBBBBBBBBB1BBb6$5bBBBBBBBBB1V",
"V1BBBBBBBBBBB1BBB0$-zBBBBBBBBB1V",
"V1BBBBBBBBBBB1Bbjq$-ilBBBBBBBB1V",
"V1BBBBBBBBBBBOBb5.%%$,bBBBBBBB1V",
"V1BBBBBBBBBBB1BBj,$$,lbBBBBBBB1V",
"V1BBBBBBBBBBB1BBby--ybBBBBBBBB1V",
"V1BBBBBbbBBBB1BBBb88BBBBBBBBBB1V",
"V1BBBBb88BBBB1BBBBbbBBBBBBBBBB1V",
"VOBBBBy--yBBB1BBBBBBBBBBBBBBBB1V",
"V1BBBk,$$,lbB1BBBBBBBBBBBBBBBB1V",
"V1BBb,$%$$,bB1BBBBBBBBBBBBBBBB1V",
"V1BBbji%$qkBBOBBBBBBBBBBBBBBBB1V",
"V1BBBBz>$9BBBOBBBBBBBBBBBBBBBB1V",
"V1BBBBb5%6bBBOBBBBBBBBBBBBBBBB1V",
"V11111O.%%.OOObclbBBBBBBBBBBBB1V",
"VVVVVVVf5$$--$,,-jBBBBBBBBBBBB1V",
"VVVVVVVVf7>$$$%-%kBBBBBBBBBBBB1V",
"VVVVVVVVVVfrq#qygbBBBBBBBBBBBB1V",
"VVVVVVVVVVVVV1BBBBBBBBBBBBBBBB1V",
"VVVVVVVVVVVVV1BBBBBBBBBBBBBBBB1V",
"VVVVVVVVVVVVV1BBBBBBBBBBBBBBBB1V",
"VVVVVVVVVVVVV1BBBbBBBBBBBBBBBB1V",
"VVVVVVVVVVVVV111111O11111111111V"
};
