/* XPM */
static char *tm_cloud_dir[] = {
/* columns rows colors chars-per-pixel */
"24 24 78 1 ",
"  c None",
". c #404030",
"X c #474735",
"o c #464638",
"O c #4A4A3B",
"+ c #505040",
"@ c #515140",
"# c #565640",
"$ c #5A5A45",
"% c #575749",
"& c #5F5F49",
"* c #66664D",
"= c #616154",
"- c #6F6F53",
"; c #6B6B5E",
": c #717156",
"> c #777759",
", c #7E7E60",
"< c #76766C",
"1 c #808060",
"2 c #828263",
"3 c #838364",
"4 c #838365",
"5 c #828266",
"6 c #868667",
"7 c #878768",
"8 c #878769",
"9 c #87876B",
"0 c #8B8B6B",
"q c #8C8C6F",
"w c #818170",
"e c #818179",
"r c #80807B",
"t c #80807F",
"y c #919172",
"u c #929279",
"i c #959578",
"p c #989879",
"a c #9A9A7A",
"s c #9C9C7E",
"d c #808080",
"f c #8B8B84",
"g c #9A9A81",
"h c #999982",
"j c #96968F",
"k c #A0A081",
"l c #A2A282",
"z c #A7A787",
"x c #A7A788",
"c c #A1A18E",
"v c #ACAC8C",
"b c #ADAD8D",
"n c #A0A09A",
"m c #AAAA99",
"M c #B2B292",
"N c #B3B392",
"B c #B8B897",
"V c #B1B19D",
"C c #B9B999",
"Z c #BEBE9E",
"A c #BFBF9F",
"S c #A9A9A5",
"D c #B1B1A4",
"F c #B8B8AD",
"G c #B3B3B0",
"H c #BFBFB8",
"J c #BDBDBA",
"K c #C0C0A0",
"L c #C9C9BD",
"P c #C7C7C3",
"I c #C6C6C4",
"U c #CBCBC9",
"Y c #CDCDCD",
"T c #CFCFCE",
"R c #DEDED7",
"E c #F0F0EE",
"W c gray97",
"Q c #F8F8F8",
/* pixels */
"                        ",
"     ddddddddddddddddd  ",
"     dQQQQQQQQQQQQQQQd  ",
"   dddddddddddddddddQd  ",
"   dQQQQQQQQQQQQQQQdQd  ",
"   dQQQQQQQQQQQQQQQdQd  ",
"   dQQQQQQQQQQQQQQQdQd  ",
"   dQQQQQQQQQQQQQQQdQd  ",
"   dQQQQQQQQQQQQQQQdQd.O",
"   dQQQQQQQQQQQQQQQdQd>+",
"   dQQQQQQQQQQQQQQQdQd-=",
"   dQQQQQQQQQQQQQQQdQd*<",
"911111111111111116EdQd&f",
"hxKKKKKKKKKKKKKKKpLdQd$n",
"FyKKKKKKKKKKKKKKKvgdQd@G",
"T6BKKKKKKKKKKKKKKA7rQdXI",
" clKKKKKKKKKKKKKKKswQdo ",
" H8AKKKKKKKKKKKKKKN5Wd% ",
"  qMKKKKKKKKKKKKKKK8Rd; ",
"  maKKKKKKKKKKKKKKKkVde ",
"  P3ZKKKKKKKKKKKKKKC2tj ",
"   ubKKKKKKKKKKKKKKK0#S ",
"   DiKKKKKKKKKKKKKKKz:J ",
"   U41111111111111111,Y "
};
