/* XPM */
static char *tm_open_bis[] = {
/* columns rows colors chars-per-pixel */
"24 24 92 1 ",
"  c #006000",
". c #046404",
"X c #076507",
"o c #076907",
"O c #096709",
"+ c #0B680B",
"@ c #0D690D",
"# c #0E6C0E",
"$ c #0E6D0E",
"% c #007700",
"& c #007900",
"* c #007B00",
"= c #176E17",
"- c #404030",
"; c #454534",
": c #454535",
"> c #474736",
", c #484838",
"< c #4A4A38",
"1 c #4B4B39",
"2 c #49493A",
"3 c #4B4B3B",
"4 c #4D4D3B",
"5 c #4B4B3C",
"6 c #4C4C3C",
"7 c #4E4E3E",
"8 c #4F4F3F",
"9 c #53543F",
"0 c #505041",
"q c #525243",
"w c #555543",
"e c #535344",
"r c #545444",
"t c #65664C",
"y c #606052",
"u c #626253",
"i c #656550",
"p c #646452",
"a c #646457",
"s c #67675A",
"d c #64645D",
"f c #6B6B58",
"g c #6D6D58",
"h c #6A6A5C",
"j c #727356",
"k c #757658",
"l c #78795B",
"z c #797A5B",
"x c #6C6C60",
"c c #777762",
"v c #787863",
"b c #78786E",
"n c #787876",
"m c #008000",
"M c #5D825D",
"N c #7F8060",
"B c #6D9B6D",
"V c #85856C",
"C c #86866D",
"Z c #86867F",
"A c #949479",
"S c #99997E",
"D c #9A9A7F",
"F c #808080",
"G c #9E9E83",
"H c #96968F",
"J c #959595",
"K c gray59",
"L c #9CB89C",
"P c #A7A78A",
"I c #A0A09A",
"U c #B0B092",
"Y c #B3B395",
"T c #BCBC9C",
"R c #BEBE9E",
"E c #AEAEAA",
"W c #BFBFA0",
"Q c #B2B2AB",
"! c #BCBCBA",
"~ c #BFD5BF",
"^ c #C0C0A0",
"/ c #C6C6C5",
"( c #CBCBCB",
") c gray81",
"_ c #C9DBC9",
"` c #CDDECD",
"' c gray87",
"] c #D9E5D9",
"[ c #DBE6DB",
"{ c #DFE9DF",
"} c #F8F8F8",
"| c None",
/* pixels */
"||||||||||||BB||||||||||",
"|||||JJJKJJMXXMJJJJKKJ||",
"|||||F''''LO&&+L''''[F||",
"|||||F}}}_X&mm&+~}}}}F||",
"|||||F}}`+%mmmm&+`}}}F||",
"|||||F}[=X+Xmm++X={}}F||",
"|||||F}{___XmmX___{}}F||",
"|||||F}}}}}Xm&X}}}}}}F||",
"||s0en}}}}} &mX}}}}}}Fep",
"||:jlZ}}}}} mm }}}}}}Fl-",
"||4lNF}}}}}X++ }}}}}}Fv-",
"||elNF}}}}}{{][}}}}}}FN-",
"xe:444eeeweeeeeeeeeeEZN-",
"hCUUUUUUUUUUUUUUUUUGpZN-",
"KpRW^^^^^^^^^^^^^^WW7nN-",
")4U^^^^^^^^^^^^^WWWWcsv-",
"|bC^^^^^^^^^^^^^^^^^Gez:",
"|Qe^^^^^^^^^^^^^^^^^R4l-",
"|)eP^^^^^^^^^^^^^^^^Rft-",
"||Zv^^^^^^^^^^^^^^^^^D9-",
"||!4R^^^^^^^^^^^^^^^^R:-",
"|||pD^^^^R^^^^^R^^^^^^t-",
"|||Hf^^^RRRR^^RR^^^^WRA:",
"|||/4-----:--:-:------:4"
};
