<?xml version="1.0" encoding="UTF-8" standalone="no"?>
<!-- Created with Inkscape (http://www.inkscape.org/) -->

<svg
   xmlns:dc="http://purl.org/dc/elements/1.1/"
   xmlns:cc="http://creativecommons.org/ns#"
   xmlns:rdf="http://www.w3.org/1999/02/22-rdf-syntax-ns#"
   xmlns:svg="http://www.w3.org/2000/svg"
   xmlns="http://www.w3.org/2000/svg"
   xmlns:sodipodi="http://sodipodi.sourceforge.net/DTD/sodipodi-0.dtd"
   xmlns:inkscape="http://www.inkscape.org/namespaces/inkscape"
   width="24"
   height="24"
   id="svg5375"
   version="1.1"
   inkscape:version="0.48.0 r9654"
   sodipodi:docname="tm_preferences.svg"
   inkscape:export-filename="/Users/vdhoeven/magix/texmacs/icons/24x24/main/tm_preferences.png"
   inkscape:export-xdpi="90"
   inkscape:export-ydpi="90">
  <defs
     id="defs5377" />
  <sodipodi:namedview
     id="base"
     pagecolor="#ffffff"
     bordercolor="#666666"
     borderopacity="1.0"
     inkscape:pageopacity="0.0"
     inkscape:pageshadow="2"
     inkscape:zoom="22.395604"
     inkscape:cx="11.473442"
     inkscape:cy="11.6908"
     inkscape:current-layer="layer1"
     showgrid="true"
     inkscape:grid-bbox="true"
     inkscape:document-units="px"
     inkscape:window-width="1435"
     inkscape:window-height="1136"
     inkscape:window-x="87"
     inkscape:window-y="15"
     inkscape:window-maximized="0"
     showguides="true"
     inkscape:guide-bbox="true">
    <inkscape:grid
       type="xygrid"
       id="grid5383"
       empspacing="8"
       visible="true"
       enabled="true"
       snapvisiblegridlinesonly="true"
       spacingx="0.5px"
       spacingy="0.5px" />
  </sodipodi:namedview>
  <metadata
     id="metadata5380">
    <rdf:RDF>
      <cc:Work
         rdf:about="">
        <dc:format>image/svg+xml</dc:format>
        <dc:type
           rdf:resource="http://purl.org/dc/dcmitype/StillImage" />
        <dc:title></dc:title>
      </cc:Work>
    </rdf:RDF>
  </metadata>
  <g
     id="layer1"
     inkscape:label="Layer 1"
     inkscape:groupmode="layer">
    <path
       style="fill:#e0e0e0;fill-opacity:1;stroke:#909090;stroke-width:1px;stroke-linecap:butt;stroke-linejoin:round;stroke-opacity:1"
       d="m 0.5,20.5 12,-12 c 0,0 -0.526372,-1.3133219 -0.5,-2 0.04045,-1.0533161 0.445831,-2.1033353 1,-3 0.495664,-0.8020013 1.168749,-1.5551281 2,-2 C 15.749279,1.0989979 16.650163,1 17.5,1 18.349837,1 20,1.5 20,1.5 c -1.5,1.5 -3,3 -4,4 0,0 -0.537362,0.9742797 -0.5,1.5 0.02642,0.3717404 0.236477,0.7364769 0.5,1 0.263523,0.2635231 0.62826,0.4735812 1,0.5 C 17.52572,8.537362 18.5,8 18.5,8 l 4,-4 c 0,0 0.520217,1.6504039 0.5,2.5 -0.06997,1.0865865 -0.528723,2.0693597 -1,3 -0.413453,0.573635 -1.5,1.5 -1.5,1.5 -0.924801,0.567434 -1.5,1 -3,1 -0.687184,0 -2,-0.5 -2,-0.5 l -12,12 z"
       id="path9704"
       inkscape:connector-curvature="0"
       sodipodi:nodetypes="ccssssccazsccccccccc" />
    <path
       style="fill:#c0c0c1;fill-opacity:1;stroke:#909090;stroke-width:0.75;stroke-linecap:butt;stroke-linejoin:round;stroke-miterlimit:4;stroke-opacity:1;stroke-dasharray:none"
       d="M 15.5,14 4,2.5 4,1.5 3,0.5 0.5,3 l 1,1 1,0 11.5,11.5 z"
       id="path3764"
       inkscape:connector-curvature="0"
       sodipodi:nodetypes="ccccccccc" />
    <path
       style="fill:#a0a080;fill-opacity:1;stroke:#606040;stroke-width:1;stroke-linecap:butt;stroke-linejoin:round;stroke-miterlimit:4;stroke-opacity:1;stroke-dasharray:none"
       d="m 20.5,23.5 1.5,0 1.5,-1.5 0,-1.5 -4,-4 -2.5,-1 -0.5,-2.5 -3.5,3.5 2.5,0.5 1,2.5 z"
       id="path2994"
       inkscape:connector-curvature="0"
       sodipodi:nodetypes="ccccccccccc" />
  </g>
</svg>
