/* XPM */
static char *tm_rarrow_double[] = {
/* columns rows colors chars-per-pixel */
"24 24 22 1 ",
"  c #808080",
". c #868686",
"X c #909090",
"o c gray58",
"O c gray59",
"+ c gray61",
"@ c #9D9D9D",
"# c #A2A2A2",
"$ c #AEAEAE",
"% c #B2B2B2",
"& c #B7B7B7",
"* c gray72",
"= c #B9B9B9",
"- c gray77",
"; c #C8C8C8",
": c gray79",
"> c gray80",
", c #CDCDCD",
"< c #CECECE",
"1 c gray83",
"2 c gray88",
"3 c None",
/* pixels */
"333333333333333333333333",
"333333333333333333333333",
"3333,,,,,,,,,,,,,,,,3333",
"33-$+XXXXXXXXXXXXXo+&-33",
"3-o                  #,3",
"3$                    $3",
",+   . .  .           +,",
",X   &*o  &*o         X,",
",X   &21*o&21*o.      X,",
",X   &2221,2221&o.    X,",
",X   &22222222221*o   X,",
"-X  .*2222222222221&o X,",
",X   &2222222222221&o X,",
",X   &22222222221*o.  X,",
",X   &2221,2221&o     X,",
",X  .*21*o*21*o       X,",
",X   &&o  &&o.        X,",
",+   .    .           +,",
"3$.                   $3",
"3,+.                 o-3",
"33-&+XXXXXXXXXXXXXo+$-33",
"3333,,,,,,,,,,,,,,,,3333",
"333333333333333333333333",
"333333333333333333333333"
};
