/* XPM */
static char *document_new__[] = {
/* columns rows colors chars-per-pixel */
"32 32 239 2 ",
"   c #5D6262",
".  c #5F6462",
"X  c #616768",
"o  c #636768",
"O  c #656B6A",
"+  c #666C6B",
"@  c #6C7271",
"#  c #008600",
"$  c #008700",
"%  c #008900",
"&  c #008A00",
"*  c #008B00",
"=  c #008D00",
"-  c #008E00",
";  c #008F00",
":  c #0D8C00",
">  c #108D00",
",  c #009100",
"<  c #009200",
"1  c #009500",
"2  c #019501",
"3  c #009700",
"4  c #009A00",
"5  c #009B00",
"6  c #009D00",
"7  c #009E00",
"8  c #0A9B0A",
"9  c #0E9A0E",
"0  c #129700",
"q  c #129707",
"w  c #179917",
"e  c #388C00",
"r  c #368B0D",
"t  c #3E8E0D",
"y  c #279D00",
"u  c #259D07",
"i  c #2C9F11",
"p  c #00A000",
"a  c #00A100",
"s  c #01A101",
"d  c #00A200",
"f  c #01A301",
"g  c #02A300",
"h  c #06A600",
"j  c #07A207",
"k  c #07A507",
"l  c #0DA400",
"z  c #00A800",
"x  c #00AB00",
"c  c #01AB00",
"v  c #00AC00",
"b  c #00AD00",
"n  c #00AE00",
"m  c #00AF00",
"M  c #04AF00",
"N  c #08AA00",
"B  c #16A700",
"V  c #18A400",
"C  c #1AA400",
"Z  c #00B100",
"A  c #01B001",
"S  c #00B200",
"D  c #00B300",
"F  c #00B400",
"G  c #06B600",
"H  c #04B204",
"J  c #0EB501",
"K  c #00B900",
"L  c #00BA00",
"P  c #00BB00",
"I  c #00BE00",
"U  c #04BB04",
"Y  c #08BB08",
"T  c #0DBE0D",
"R  c #0FBD0F",
"E  c #13B500",
"W  c #17B700",
"Q  c #18B300",
"!  c #13BB00",
"~  c #15A315",
"^  c #13BA13",
"/  c #1BB31B",
"(  c #1BBA1B",
")  c #2AAA00",
"_  c #3CA400",
"`  c #35AF00",
"'  c #3FAD00",
"]  c #20B400",
"[  c #20BA00",
"{  c #32BA00",
"}  c #3EA411",
"|  c #3FA412",
" . c #22AE22",
".. c #27BF26",
"X. c #33A533",
"o. c #36A636",
"O. c #31AA31",
"+. c #34A834",
"@. c #3EAA3E",
"#. c #3CAD3C",
"$. c #3EB83E",
"%. c #469000",
"&. c #4DAF00",
"*. c #53AA00",
"=. c #4BB300",
"-. c #5DB300",
";. c #4FA912",
":. c #56B32B",
">. c #5EB62B",
",. c #32C600",
"<. c #3BC300",
"1. c #26C526",
"2. c #52CA00",
"3. c #52CF00",
"4. c #6FD900",
"5. c #42CF3E",
"6. c #56D53E",
"7. c #6BDB3E",
"8. c #7CDF3E",
"9. c #52B352",
"0. c #57B257",
"q. c #61BD48",
"w. c #67BF48",
"e. c #799179",
"r. c #5ACA5A",
"t. c #5ACB5A",
"y. c #5ED65E",
"u. c #63D55E",
"i. c #65D85E",
"p. c #72DC5E",
"a. c #7EDF5E",
"s. c #73CA6B",
"d. c #77CC6B",
"f. c #76D176",
"g. c #76D676",
"h. c #7EDE7E",
"j. c #80DC7E",
"k. c #81DF7E",
"l. c #88E17E",
"z. c #839983",
"x. c #979797",
"c. c #9D9D9D",
"v. c #A2A2A2",
"b. c #A6A6A6",
"n. c #A7BAA7",
"m. c #B1B2B1",
"M. c #B8BBB8",
"N. c #BCBCBD",
"B. c #BEBEBE",
"V. c #BFBFBF",
"C. c #83D583",
"Z. c #92D992",
"A. c #92DA92",
"S. c #9BE29B",
"D. c #9EE19E",
"F. c #9EE49E",
"G. c #A6E2A6",
"H. c #A6E3A6",
"J. c #BDBFC0",
"K. c #BFBFC0",
"L. c #C2C2C2",
"P. c #C2C2C4",
"I. c #C6C6C7",
"U. c #CBCBCC",
"Y. c #CBCCCD",
"T. c #CDCDCE",
"R. c #D6D6D6",
"E. c #D6D6D7",
"W. c #D2D6D9",
"Q. c #D1D8DC",
"!. c #D9D9DA",
"~. c #D8DBDE",
"^. c #DCDDDD",
"/. c #DEDFDF",
"(. c #C7E0C8",
"). c #DFDFE0",
"_. c #DEE3E5",
"`. c #E0E0E0",
"'. c #E1E1E1",
"]. c #E3E3E3",
"[. c #E4E4E4",
"{. c #E5E5E5",
"}. c #E4E5E6",
"|. c #E6E7E7",
" X c #E7E8E8",
".X c #E7E8E9",
"XX c #E8E9E9",
"oX c #E9E9E9",
"OX c #E8E9EA",
"+X c #E9EAEA",
"@X c #E9EAEB",
"#X c #EAEBEB",
"$X c #EBEBEB",
"%X c #EBECEC",
"&X c #ECECEC",
"*X c #ECEDED",
"=X c #EDEDED",
"-X c #EDEEEE",
";X c #EEEEEE",
":X c #EEEFEF",
">X c #EFEFEF",
",X c #EFF0F0",
"<X c #F0F0F0",
"1X c #F0F1F1",
"2X c #F1F1F1",
"3X c #F1F1F2",
"4X c #F1F2F2",
"5X c #F2F2F2",
"6X c #F2F2F3",
"7X c #F2F3F3",
"8X c #F3F3F3",
"9X c #F3F4F3",
"0X c #F0F2F4",
"qX c #F3F3F4",
"wX c #F3F4F4",
"eX c #F4F4F4",
"rX c #F4F5F5",
"tX c #F5F5F5",
"yX c #F5F6F6",
"uX c #F6F6F6",
"iX c #F6F7F7",
"pX c #F7F7F7",
"aX c #F7F8F8",
"sX c #F8F8F8",
"dX c #F8F9F9",
"fX c #F9F9F9",
"gX c #FAFAF9",
"hX c #F8F9FA",
"jX c #F9FAFA",
"kX c #FAFAFA",
"lX c #FAFBFB",
"zX c #FBFBFB",
"xX c #FBFCFC",
"cX c #FCFCFC",
"vX c #FDFDFD",
"bX c #FDFEFE",
"nX c #FEFEFE",
"mX c #FFFFFF",
"MX c None",
/* pixels */
"MXMXMXMXMXMXMXMXMXMXMXMXMXMXMXMXMXMXMXMXMXg 4 1 4 7 1 MXMXMXMXMX",
"MXMXMXMXMXMXMXMXMXMXMXMXMXMXMXMXMXMXMX$ < $.C.G.G.C.$.1 = MXMXMX",
"MXMXMXMXhX<X4X4XwX0XrX0XrXrXrXrXrXrX#.j g.F.S.Z.Z.S.D.f.k 1 MXMX",
"MXMXMXMX4X|.|.XXXXXX$X*X*X*X*X>X*X9.g r.h.k.s.mXmXd.l.k.r.g < MX",
"MXMXMXMX4X|..XXX@X$X*X*X*X>X>X<X(.2 / y.i.p.q.mXmXw.a.p.u.( < MX",
"MXMXMXMX4X.XXX$X*X*X*X*X>X>X>X<X0.7 1.5.6.7.:.mXmX>.8.7.6...g < ",
"MXMXMXMX0X$X$X&X*X*X*X>X>X,X<X&Xw S M q i | r mXmXt ;.} u J g = ",
"MXMXMXMXrX$X$X*X>X>X>X4X,X0XeXXX8 M % mXmXmXmXmXmXmXmXmXmX: M = ",
"MXMXMXMXrX*X*X*X>X>X4X4X<XeXeX.X9 x % mXmXmXmXmXmXmXmXmXmX: S 4 ",
"MXMXMXMXpX*X*X<X4X,X4X4XeXeXeX$X~ S S 0 y _ e mXmX%.*._ y E x 7 ",
"MXMXMXMXrX*X*X>X4X4X4X8XeXpXiX&X@.M F ! ,.3.&.mXmX-.4.3.,.G S $ ",
"MXMXMXMXpX*X4X<X4X4XeXeXeXeXsX8Xn.H S M [ <.' mXmX=.2.<.W S S MX",
"MXMXMXMXiX,X4X4X4XrX8XrXpXpXsXsX].+.K M N ] ) mXmX` { Q x S = MX",
"MXMXMXMXrX4X4X4X4XeXeXpXpXpXsXgXwXM. .K S g l V V B h M K 7 MXMX",
"MXMXMXMXsX4X4X8XrXrXpXpXsXhXgXzXhX:Xm.O.P K z x M M K U = MXMXMX",
"MXMXMXMXsX4X4XeXrXpXpXpXgXgXgXgXzXhX:XB.e.o.R Y T ^ X.z.MXMXMXMX",
"MXMXMXMXsX0XeXeXsXsXsXgXgXhXzXzXzXmXzXtX{.L.v.x.c.b.V.XXMXMXMXMX",
"MXMXMXMXsXeXeXeXiXsXsXgXzXzXzXzXzXzXzXzXgXsXtX8XtXtXsXzXMXMXMXMX",
"MXMXMXMXsXeXeXsXsXsXhXgXhXzXzXzXmXzXmXmXzXmXmXmXmXmXmXmXMXMXMXMX",
"MXMXMXMXhXeXeXsXsXsXzXgXzXzXzXmXzXzXzXmXmXmXzXmXzXzXzXmXMXMXMXMX",
"MXMXMXMXsXiXiXsXsXgXzXzXzXzXzXzXmXzXmXmXzXmXhXgXhXpXrXhXMXMXMXMX",
"MXMXMXMXsXeXeXsXsXhXgXzXzXzXmXzXmXmXmXmXzXhXtX>X&XXXXX_.MXMXMXMX",
"MXMXMXMXsXiXsXsXsXzXzXzXzXmXzXmXmXmXmXzXsX<X{.R.U.U.~.. MXMXMXMX",
"MXMXMXMXzXeXsXsXzXsXzXzXzXgXmXgXzXmXhXsX>XR.V.I.^.`.O MXMXMXMXMX",
"MXMXMXMXhXrXsXhXzXhXzXhXzXmXmXmXmXmXhX4X`.B.mXhX'.+ MXMXMXMXMXMX",
"MXMXMXMXgXsXsXgXgXzXzXmXzXzXzXmXmXgXpX&XT.L.sX'.@ MXMXMXMXMXMXMX",
"MXMXMXMXhXpXsXhXgXgXhXmXmXzXmXmXmXhX4X'.B.!.'.@ MXMXMXMXMXMXMXMX",
"MXMXMXMXgXpXpXgXgXzXgXzXgXmXzXmXmXgX4X!.J.).O MXMXMXMXMXMXMXMXMX",
"MXMXMXMXgXsXsXhXhXzXzXgXgXmXmXmXmXhX4XR.W.o MXMXMXMXMXMXMXMXMXMX",
"MXMXMXMXmXhXzXgXhXmXmXmXmXgXmXmXmXhX4XQ.. MXMXMXMXMXMXMXMXMXMXMX",
"MXMXMXMXMXMXMXMXMXMXMXMXMXMXMXMXMXMXMXMXMXMXMXMXMXMXMXMXMXMXMXMX",
"MXMXMXMXMXMXMXMXMXMXMXMXMXMXMXMXMXMXMXMXMXMXMXMXMXMXMXMXMXMXMXMX"
};
