/* XPM */
static char *tools_check_spelling[] = {
/* columns rows colors chars-per-pixel */
"32 32 256 2 ",
"   c #000000",
".  c #010101",
"X  c #020202",
"o  c #050000",
"O  c #1B1B1B",
"+  c #232323",
"@  c #242424",
"#  c #282828",
"$  c #2A2A2A",
"%  c #313131",
"&  c #454545",
"*  c #464646",
"=  c #474747",
"-  c #BF2201",
";  c #BC250B",
":  c #BC260C",
">  c #BB280B",
",  c #BC2811",
"<  c #C12808",
"1  c #D32604",
"2  c #D92701",
"3  c #C13119",
"4  c #C2351C",
"5  c #C6371E",
"6  c #C1381B",
"7  c #D73310",
"8  c #D13417",
"9  c #F32E04",
"0  c #FC3005",
"q  c #F9350C",
"w  c #FF370D",
"e  c #EE3B17",
"r  c #F43B14",
"t  c #FE3C12",
"y  c #FF3D14",
"u  c #FF3E14",
"i  c #FE3E15",
"p  c #FD3F16",
"a  c #FC3F17",
"s  c #C63B22",
"d  c #C63C24",
"f  c #C73F27",
"g  c #C73F28",
"h  c #BA473B",
"j  c #FD4119",
"k  c #FF421A",
"l  c #FC431C",
"z  c #FF441C",
"x  c #FF441D",
"c  c #FC441E",
"v  c #FE461E",
"b  c #FF471F",
"n  c #CD4128",
"m  c #C1482F",
"M  c #D64425",
"N  c #D3482F",
"B  c #CB4434",
"V  c #CC4830",
"C  c #CB4B35",
"Z  c #D94E35",
"A  c #DF4F35",
"S  c #CB503B",
"D  c #C8503E",
"F  c #D05039",
"G  c #D45439",
"H  c #DB5238",
"J  c #DD583F",
"K  c #EA4728",
"L  c #E84C2F",
"P  c #FF4720",
"I  c #FB4923",
"U  c #FE4821",
"Y  c #FF4821",
"T  c #F44F2C",
"R  c #F55131",
"E  c #FB5331",
"W  c #FF5430",
"Q  c #FC5733",
"!  c #FF5632",
"~  c #FC5734",
"^  c #FF5834",
"/  c #FF5935",
"(  c #FF5936",
")  c #F75D3F",
"_  c #FF5B38",
"`  c #FF5C39",
"'  c #F95C3C",
"]  c #BD5044",
"[  c #C15740",
"{  c #C25447",
"}  c #C65444",
"|  c #D75B44",
" . c #D95840",
".. c #E05A40",
"X. c #E25E45",
"o. c #D2624E",
"O. c #D6654C",
"+. c #DB614A",
"@. c #DE654E",
"#. c #C16652",
"$. c #D4745F",
"%. c #E66147",
"&. c #E66349",
"*. c #EA664C",
"=. c #F36247",
"-. c #F46244",
";. c #FC6443",
":. c #F96344",
">. c #F76649",
",. c #F56B4F",
"<. c #FB694A",
"1. c #FC6A4B",
"2. c #FC6C4D",
"3. c #FF6C4C",
"4. c #FF6C4D",
"5. c #FF6D4D",
"6. c #FC6D4F",
"7. c #FF6E4F",
"8. c #EB6A51",
"9. c #EF6D53",
"0. c #E36F58",
"q. c #EA6F59",
"w. c #F46B51",
"e. c #F96D51",
"r. c #FF6F50",
"t. c #E1725D",
"y. c #E5745E",
"u. c #EF735A",
"i. c #EE745D",
"p. c #F17056",
"a. c #F57055",
"s. c #FD7153",
"d. c #F2725A",
"f. c #F4755A",
"g. c #F6755A",
"h. c #F1755C",
"j. c #F8795F",
"k. c #FC795D",
"l. c #C27363",
"z. c #E37460",
"x. c #E47864",
"c. c #E97861",
"v. c #EE7A63",
"b. c #F27A61",
"n. c #F07863",
"m. c #F37A62",
"M. c #F27A65",
"N. c #FC7C60",
"B. c #FD7C60",
"V. c #FF7E62",
"C. c #F97E64",
"Z. c #FF7F64",
"A. c #D58370",
"S. c #DB8373",
"D. c #DD8274",
"F. c #EF8069",
"G. c #ED806B",
"H. c #EA826F",
"J. c #ED846F",
"K. c #FF8064",
"L. c #F48068",
"P. c #F4866F",
"I. c #F9846C",
"U. c #F9866D",
"Y. c #FA866E",
"T. c #EC8773",
"R. c #ED8975",
"E. c #EF8A76",
"W. c #E0877D",
"Q. c #EE8978",
"!. c #EB8D7F",
"~. c #EE8E7C",
"^. c #F08370",
"/. c #F18670",
"(. c #F78973",
"). c #F28974",
"_. c #F98870",
"`. c #FC8E76",
"'. c #F18F7B",
"]. c #F78E79",
"[. c #F68F7A",
"{. c #F78F7B",
"}. c #EF937F",
"|. c #F7907B",
" X c #F7917B",
".X c #F5917C",
"XX c #F4937F",
"oX c #FB917B",
"OX c #FF9078",
"+X c #E08E80",
"@X c #E49283",
"#X c #E99185",
"$X c #EC9585",
"%X c #EE9685",
"&X c #E6958C",
"*X c #E89889",
"=X c #EF9C8B",
"-X c #EC9C8C",
";X c #F49380",
":X c #F59786",
">X c #F19886",
",X c #F49986",
"<X c #F59987",
"1X c #F49A87",
"2X c #F89A86",
"3X c #F89A87",
"4X c #F59C89",
"5X c #F39E8F",
"6X c #F89E8B",
"7X c #ED9F90",
"8X c #EFA091",
"9X c #EFA597",
"0X c #F1A190",
"qX c #F3A091",
"wX c #F2A191",
"eX c #F3A292",
"rX c #F6A391",
"tX c #F4A393",
"yX c #F7A493",
"uX c #F1A596",
"iX c #F4A595",
"pX c #F4A696",
"aX c #F6A696",
"sX c #F9A391",
"dX c #F9A593",
"fX c #FBA592",
"gX c #FBA593",
"hX c #F2A599",
"jX c #F1A79A",
"kX c #F1A89A",
"lX c #F2AA9D",
"zX c #F0A99F",
"xX c #F5AC9D",
"cX c #EFAEA2",
"vX c #EFAFA7",
"bX c #F2AEA0",
"nX c #F0ACA2",
"mX c #EFB1A8",
"MX c #EFB3A9",
"NX c #EFB6AC",
"BX c #EEB6AF",
"VX c #EEB8AF",
"CX c #F0B1A4",
"ZX c #F4B3A6",
"AX c #F2B5A9",
"SX c #F3B9AE",
"DX c #ECBAB1",
"FX c #EEBAB0",
"GX c #ECBCB4",
"HX c #F1BBB1",
"JX c #F2BDB3",
"KX c #F0C0B7",
"LX c #F1C1B8",
"PX c #F0C3BB",
"IX c #F0C5BE",
"UX c None",
/* pixels */
"UXUXUXUXUXUXUXUXUXUXUXUXUXUXUXUXUXUXUXUXUXUXUXUXUXUXUXUXUXUXUXUX",
"UXUXUXUXUXUXUXUXUXUXUXUXUXUXUXUXUXUXUXUXUXUXUXUXUXUXUXUXUXUXUXUX",
"UXUXUXUXUXUXUXUXUX= UXUXUXUXUXUXUXUXUXUXUXUXUXUXUXUXUXUXUXUXUXUX",
"UXUXUXUXUXUXUXUXUX= UXUXUXUXUXUXUXUXUXUXUXUXUXUXUXUXUXUXUXUXUXUX",
"UXUXUXUXUXUXUXUXUX= UXUXUXUXUXUXUXUXUXUXUXUXUXUXUXUXUXUXUXUXUXUX",
"UXUX= = = = UXUXUX= = = = = UXUXUXUX= = = = UXUXUXUXUXUXUXUXUXUX",
"UXUXUXUXUX= UXUXUX= = UXUX= = UXUX= = UXUXUXUXUXUXUXUXUXUXUXUXUX",
"UXUXUXUX= = = UXUX= UXUXUXUX= UXUX= UXUXUXUXUXUXUXUXUXUXUXUXUXUX",
"UXUXO $ % $ @ UXUX@ UXUXUXUX@ @ UX@ UXUXUXUXUXUXUXUXUXUXUXUXUXUX",
"UX    UXUX    UXUX  UXUXUXUXo   UX  UXUXUXUXUXUXUXUXUX3 UXUXUXUX",
"UX    UXUX    UXUX    UXUX    UXUX    UXUXUXUXUXUXUXg f : UXUXUX",
"UX            UXUX            UXUXUX        UXUXUX5 C o.s ; UXUX",
"UXUX    UXUXUXUXUXUXUXo   UXUXUXUXUXUX    UXUXUXn F +XGXS.f : UX",
"UXUXUXUXUXUXUXUXUXUXUXUXUXUXUXUXUXUXUXUXUXUX4 N | @XIXIXDXD.B UX",
"UXUXUXUXUXUXUXUXUXUX .+.UXUXUXUXUXUXUXUXUXUXH @.*XLXJXDXDXBXW.h ",
"UXUXUXUXUXUXUXUXUXZ t.x. .UXUXUXUXUXUXUXUX..0.-XJXHXBXMXCXvX&X] ",
"UXUXUXUXUXUXUXUXH z.7X9XH.X.UXUXUXUXUXUX&.x.8XSXAXCXcXnXnX#X{ UX",
"UXUXUXUXUXUXUXA y.$X%X=XiXR.%.UXUXUXUX8.M.0XAXbXlXkXjXhX!.} UXUX",
"UXUXUXUXUXUXUXq.~.T.J.R.>XiX'.*.UXUXh.).eXxXiXrX0XrX5XQ.D UXUXUX",
"UXUXUXUXUXUXUXM.M.i.v.L.T.;XaX;X9.b..XrXyX4X1X,X4X:X^.S UXUXUXUX",
"UXUXUXUXUXUXUXL =.,.w.h.b.L.[.yX6X2XsX2X.X{.[.[.(.d.V UXUXUXUXUX",
"UXUXUXUXUXUXUXUXK -.>.w.w.f.N._.gXgXoXY.Y.Y.C.e.R 8 UXUXUXUXUXUX",
"UXUXUXUXUXUXUXUX> e I E ' :.<.7.k.B.s.2.;.Q l q 1 UXUXUXUXUXUXUX",
"UXUXUXUXUXUXUXUXUX- 9 w a a k b U b b t t w 0 2 UXUXUXUXUXUXUXUX",
"UXUXUXUXUXUXUXUXUXUX< r b k t u k k b b U l 7 UXUXUXUXUXUXUXUXUX",
"UXUXUXUXUXUXUXUXUXUXUX6 T ( Q W Q ( ( ` ~ M UXUXUXUXUXUXUXUXUXUX",
"UXUXUXUXUXUXUXUXUXUXUXUXm -.7.7.3.7.r.1.G UXUXUXUXUXUXUXUXUXUXUX",
"UXUXUXUXUXUXUXUXUXUXUXUXUX[ f.B.B.K.B.O.UXUXUXUXUXUXUXUXUXUXUXUX",
"UXUXUXUXUXUXUXUXUXUXUXUXUXUX#.(.OX`.$.UXUXUXUXUXUXUXUXUXUXUXUXUX",
"UXUXUXUXUXUXUXUXUXUXUXUXUXUXUXl.;XA.UXUXUXUXUXUXUXUXUXUXUXUXUXUX",
"UXUXUXUXUXUXUXUXUXUXUXUXUXUXUXUXUXUXUXUXUXUXUXUXUXUXUXUXUXUXUXUX",
"UXUXUXUXUXUXUXUXUXUXUXUXUXUXUXUXUXUXUXUXUXUXUXUXUXUXUXUXUXUXUXUX"
};
