/* XPM */
static char * tm_activate_xpm[] = {
"17 17 6 1",
" 	c None",
"=	c #00000000FFFF",
".	c #0000FFFFFFFF",
"o	c #000000000000",
"O	c #999999999999",
"r	c #FFFF00000000",
"                 ",
"   = ooooooo =   ",
"  = OOOOOOOOO =  ",
" = ooooooooooo = ",
"  = OOOO OOOO =  ",
"   = oo r oo =   ",
"        r        ",
"        r        ",
"        r        ",
"      rrrrr      ",
" ooooo rrr ooooo ",
" OOOOOO r OOOOOO ",
" ooooooo ooooooo ",
" OOOOOOOOOOOOOOO ",
" ooooooooooooo   ",
" OOOOOOOOOOOOO   ",
"                 "};
