/* XPM */
static char *magick[] = {
/* columns rows colors chars-per-pixel */
"17 17 15 1",
"  c None",
"Y c Gray0",
". c #181c18",
"X c #282c28",
"o c #383c38",
"O c #484c48",
"+ c #686c68",
"@ c #787c78",
"# c #0000f8",
"$ c #383cf8",
"% c #787cb8",
"& c #787cf8",
"* c #989c98",
"= c #a8aca8",
"- c #b8bcb8",
/* pixels */
"                 ",
"                 ",
"                 ",
"                 ",
"                 ",
"    -*           ",
"    =X           ",
"  +*=o +*        ",
"  @.OXXo=        ",
"   -.Y+          ",
"  @.OXXo=   -$   ",
"  +*=o +*  $%$&& ",
"    =X     %$#$- ",
"    -*     $###& ",
"           &-$-% ",
"            -&   ",
"                 "
};
