/* XPM */
static char * tm_table_bhcenter_xpm[] = {
"17 17 6 1",
" 	c None",
"=	c #00000000FFFF",
".	c #0000FFFFFFFF",
"o	c #000000000000",
"O	c #999999999999",
"r      c #FFFF00000000",
"       =         ",
" oooooo=oooooooo ",
" OOOOOO=OOOOOOOO ",
"       =         ",
"    oo =o oo     ",
"    OO =O OO     ",
"       =         ",
" ooooo =o oo ooo ",
" OOOOO =O OO OOO ",
"       =         ",
"    oo =o oo     ",
"    OO =O OO     ",
"       =         ",
" oooooo=oooooooo ",
" OOOOOO=OOOOOOOO ",
" oooooo=oooooooo ",
"       =         "};
