/* XPM */
static char *edit_copy__[] = {
/* columns rows colors chars-per-pixel */
"24 24 103 2 ",
"   c #A5A5A5",
".  c #A7A9AA",
"X  c #B1B2B2",
"o  c #B7B7B7",
"O  c #B6B8B8",
"+  c #B8B9B8",
"@  c #B9B9B9",
"#  c #BABABB",
"$  c #BABBBB",
"%  c #BBBBBB",
"&  c #BBBCBC",
"*  c #BCBCBC",
"=  c #BCBDBD",
"-  c #BDBDBD",
";  c #BDBEBE",
":  c #BEBEBE",
">  c #BEBFBF",
",  c #BFBFBF",
"<  c #C0C0C0",
"1  c #C1C1C1",
"2  c #C1C2C2",
"3  c #C2C2C2",
"4  c #C2C3C3",
"5  c #C3C3C3",
"6  c #C3C5C5",
"7  c #C4C4C4",
"8  c #C4C5C5",
"9  c #C5C5C5",
"0  c #C6C6C6",
"q  c #C6C7C6",
"w  c #C6C7C7",
"e  c #C6C8C7",
"r  c #C7C8C7",
"t  c #C8C8C8",
"y  c #C9C9C9",
"u  c #CACACA",
"i  c #CBCBCB",
"p  c #CCCDCD",
"a  c #CECFCF",
"s  c #D0D1D0",
"d  c #D0D1D1",
"f  c #D1D1D1",
"g  c #D2D3D2",
"h  c #D2D3D3",
"j  c #D4D4D4",
"k  c #D4D5D4",
"l  c #D4D5D5",
"z  c #D5D5D5",
"x  c #D5D6D6",
"c  c #D6D6D6",
"v  c #D9D9D9",
"b  c #DBDBDB",
"n  c #DBDCDC",
"m  c #DDDDDD",
"M  c #DEDEDE",
"N  c #E1E1E1",
"B  c #E3E3E3",
"V  c #E4E4E4",
"C  c #E5E5E5",
"Z  c #E6E6E6",
"A  c #E9E9E9",
"S  c #EAEBEB",
"D  c #EBEBEB",
"F  c #EBECEC",
"G  c #EBECED",
"H  c #ECECEC",
"J  c #ECEDED",
"K  c #EDEDED",
"L  c #EDEDEE",
"P  c #EDEEEE",
"I  c #EEEEEE",
"U  c #EEEFEF",
"Y  c #EFEFEF",
"T  c #EEEFF0",
"R  c #EFF0F0",
"E  c #F0F0F0",
"W  c #F0F1F1",
"Q  c #F1F1F1",
"!  c #F1F2F2",
"~  c #F2F2F2",
"^  c #F2F3F3",
"/  c #F3F3F3",
"(  c #F3F4F4",
")  c #F4F4F4",
"_  c #F4F4F5",
"`  c #F4F5F5",
"'  c #F5F5F5",
"]  c #F5F6F6",
"[  c #F6F6F6",
"{  c #F6F7F7",
"}  c #F7F7F7",
"|  c #F7F8F8",
" . c #F8F8F8",
".. c #F8F9F9",
"X. c #F9F9F9",
"o. c #FAFAFA",
"O. c #FAFBFB",
"+. c #FBFBFB",
"@. c #FCFCFC",
"#. c #FDFDFD",
"$. c #FEFEFE",
"%. c #FFFFFF",
"&. c None",
/* pixels */
"&.&.&.&.&.&.&.&.&.&.&.&.&.&.&.&.&.&.&.&.&.&.&.&.",
"&.&.* # $ & * * > * > * > * * < < &.&.&.&.&.&.&.",
"&.* W L Y Y W W ( ) ) ` ` ) ` } X.&.&.&.&.&.&.&.",
"&.$ L S L L E W R W W ( ( ) ) ) ` &.&.&.&.&.&.&.",
"&.* R L L Y W W W ) ` ` ) ` } ` `   o < * , &.&.",
"&.* W R E W W ) ) ` } } } } X.} X.i L ` ` X.5 &.",
"&.* ( W W ( ( ` } } } } X.X.+.X.X.r D ) ` X., &.",
"&.* ` W ( ) ` } } X.+.X.+.X.+.+.X.i L } ` X.< &.",
"&.* ` W ` } } X.+.+.+.+.+.+.+.+.+.i Y X.} +.< &.",
"&., } ` ` ` X.+.X.+.+.#.+.+.+.#.#.i W X.X.#.5 &.",
"&.< } ` } X.X.X.+.+.#.+.#.#.#.#.#.i W #.+.#.5 &.",
"&., X.` X.X.X.#.+.+.#.#.#.#.#.#.#.i ` X.+.#.5 &.",
"&.< X.} X.X.#.X.#.#.#.#.#.#.#.#.@.p ( #.#.#.9 &.",
"&.< X.X.X.X.+.#.#.#.#.#.#.W L S F i ` #.#.#.9 &.",
"&.< X.} +.#.+.#.#.#.#.} S b z z 9 M #.#.#.#.< &.",
"&.< X.X.X.X.#.#.#.#.X.S g X.E e z #.#.#.#.#.9 &.",
"&.< X.X.X.+.#.#.#.#.` M i ) e z #.+.) E D Y + &.",
"&.5 +.X.+.+.#.#.#.#.` b 9 9 g #.+.L M z z < &.&.",
"&.5 #.#.#.#.#.#.#.#.` d # z #.#.W d ) ) a &.&.&.",
"&.&.5 5 9 < # c z z h 9 b #.#.X.V e ) s &.&.&.&.",
"&.&.&.&.&.&.&.V V V V L #.#.#.X.N 9 e &.&.&.&.&.",
"&.&.&.&.&.&.&.#.#.#.#.#.#.#.#.X.M X &.&.&.&.&.&.",
"&.&.&.&.&.&.&.< < 9 < 9 9 9 9 < . &.&.&.&.&.&.&.",
"&.&.&.&.&.&.&.&.&.&.&.&.&.&.&.&.&.&.&.&.&.&.&.&."
};
