/* XPM */
static char *go_next__[] = {
/* columns rows colors chars-per-pixel */
"24 24 83 1 ",
"  c #1F4884",
". c #1F4B86",
"X c #1F4B87",
"o c #204A87",
"O c #214A87",
"+ c #204B87",
"@ c #214C87",
"# c #204A88",
"$ c #204B88",
"% c #214B88",
"& c #214B89",
"* c #224B88",
"= c #224A8A",
"- c #214C88",
"; c #204C89",
": c #214C89",
"> c #224C88",
", c #234D8A",
"< c #244E89",
"1 c #264F8B",
"2 c #254F8C",
"3 c #29528E",
"4 c #2B548E",
"5 c #2F5D9B",
"6 c #365F97",
"7 c #32619F",
"8 c #3765A2",
"9 c #3666A3",
"0 c #3465A4",
"q c #3767A5",
"w c #3B6AA5",
"e c #3868A6",
"r c #3A69A6",
"t c #3B6BA7",
"y c #3C6AA5",
"u c #3C6BA7",
"i c #3F6CA6",
"p c #3F6CA7",
"a c #3D6CA8",
"s c #3F70AB",
"d c #3F70AC",
"f c #41689E",
"g c #466EA4",
"h c #416EA8",
"j c #446FA8",
"k c #4B72A7",
"l c #4371AB",
"z c #4471AB",
"x c #4772AA",
"c c #4070AC",
"v c #4071AC",
"b c #4171AC",
"n c #4070AD",
"m c #4071AD",
"M c #4171AD",
"N c #4272AD",
"B c #4872AA",
"V c #4E76AA",
"C c #4C76AD",
"Z c #4E76AD",
"A c #5178AD",
"S c #5079AE",
"D c #4979B3",
"F c #4A7AB3",
"G c #4B7AB3",
"H c #4D79B1",
"J c #4C7BB4",
"K c #4E7CB5",
"L c #4E7DB5",
"P c #507BB0",
"I c #537FB5",
"U c #5B83B5",
"Y c #5982B6",
"T c #5883B7",
"R c #5B84B8",
"E c #5A86BA",
"W c #5E87B9",
"Q c #628BBB",
"! c #638CBC",
"~ c #678EBD",
"^ c #6B8FBE",
"/ c #6990BF",
"( c None",
/* pixels */
"((((((((((((((((((((((((",
"((((((((((((((((((((((((",
"((((((((((((((((((((((((",
"(((((((((((+%(((((((((((",
"(((((((((((+6:((((((((((",
"(((((((((((+^f%(((((((((",
"(((((((((((+//g%((((((((",
"(((%+++++++:~L!k%(((((((",
"(((:TQQQQQQQEFFWV:((((((",
"(((:TKFFFFFFFFDDTA<(((((",
"(((:TKFDFFFFFFDDFIA1((((",
"(((%PMdjaMdddMMaMMHC+(((",
"(((:Be00000000000aC3=(((",
"(((Xj00000000000aB3%((((",
"(((:pjMjzzjza00ah2%(((((",
"(((XX%%%X%X%a0ea<(((((((",
"(((((((((((%rr0@((((((((",
"(((((((((((X00%(((((((((",
"(((((((((((X5+((((((((((",
"(((((((((((X+(((((((((((",
"(((((((((((X((((((((((((",
"((((((((((((((((((((((((",
"((((((((((((((((((((((((",
"(((((((((((((((((((((((("
};
