/* XPM */
static char *edit_undo[] = {
/* columns rows colors chars-per-pixel */
"24 24 116 2 ",
"   c #BF9D01",
".  c #C29F00",
"X  c #C4A000",
"o  c #C4A100",
"O  c #C5A200",
"+  c #C5A201",
"@  c #C6A200",
"#  c #C6A201",
"$  c #C6A301",
"%  c #C7A301",
"&  c #C4A102",
"*  c #C5A202",
"=  c #C6A202",
"-  c #C6A302",
";  c #C7A302",
":  c #C7A402",
">  c #C7A403",
",  c #C5A205",
"<  c #C6A306",
"1  c #C7A404",
"2  c #C6A405",
"3  c #C7A406",
"4  c #C9A601",
"5  c #C8A504",
"6  c #C8A505",
"7  c #CFAF03",
"8  c #C7A508",
"9  c #C7A50B",
"0  c #C8A608",
"q  c #CAA90F",
"w  c #D5B508",
"e  c #D6B808",
"r  c #CAAA16",
"t  c #CAAB19",
"y  c #CDAD19",
"u  c #CEAF1A",
"i  c #CDAE1D",
"p  c #D6B819",
"a  c #D3B629",
"s  c #D3B62F",
"d  c #D7BB2A",
"f  c #D5B92C",
"g  c #D8BC2E",
"h  c #D8BE38",
"j  c #E0C405",
"k  c #E7CD0C",
"l  c #E9CF09",
"z  c #ECD207",
"x  c #EED60B",
"c  c #F0D80F",
"v  c #E3C816",
"b  c #E1C61A",
"n  c #E5CA18",
"m  c #F0D917",
"M  c #E0C52D",
"N  c #E3C929",
"B  c #EED72C",
"V  c #F2DC25",
"C  c #F3DD2B",
"Z  c #F4DF2A",
"A  c #F4DE2F",
"S  c #EAD334",
"D  c #F5E02E",
"F  c #F4E032",
"G  c #F6E132",
"H  c #F6E134",
"J  c #F5E036",
"K  c #F5E136",
"L  c #F7E236",
"P  c #F6E238",
"I  c #DAC144",
"U  c #DDC647",
"Y  c #E5CE43",
"T  c #E0C84B",
"R  c #E2CC5A",
"E  c #F6E342",
"W  c #F7E342",
"Q  c #F6E243",
"!  c #F8E443",
"~  c #F5E24D",
"^  c #F6E44C",
"/  c #F6E44E",
"(  c #F6E550",
")  c #F6E552",
"_  c #F7E653",
"`  c #F9E652",
"'  c #F7E75F",
"]  c #EAD870",
"[  c #F1E061",
"{  c #F4E360",
"}  c #F7E763",
"|  c #F7E866",
" . c #F9EA70",
".. c #F8EA77",
"X. c #F4E67A",
"o. c #F8EB7F",
"O. c #F9EC7D",
"+. c #F8EC7E",
"@. c #EFDF80",
"#. c #F1E386",
"$. c #F9ED86",
"%. c #F7EA88",
"&. c #F8ED90",
"*. c #F8EC92",
"=. c #FAEF92",
"-. c #F7EC9E",
";. c #FBF19C",
":. c #F9F0A3",
">. c #FAF1A4",
",. c #FBF2A7",
"<. c #FBF2AB",
"1. c #FCF3AA",
"2. c #FAF1AC",
"3. c #FBF2AC",
"4. c #FDF4B4",
"5. c None",
/* pixels */
"5.5.5.5.5.5.5.5.5.5.5.5.5.5.5.5.5.5.5.5.5.5.5.5.",
"5.5.5.5.5.5.5.5.5.5.5.5.5.5.5.5.5.5.5.5.5.5.5.5.",
"5.5.5.5.5.5.5.5.5.5.5.5.X 5.5.5.5.5.5.5.5.5.5.5.",
"5.5.5.5.5.5.5.5.5.5.5.i , 5.5.5.5.5.5.5.5.5.5.5.",
"5.5.5.5.5.5.5.5.5.> s 2.9 5.5.5.5.5.5.5.5.5.5.5.",
"5.5.5.5.5.5.5.5.2 I <.4.9 5.5.5.5.5.5.5.5.5.5.5.",
"5.5.5.5.5.5.5.> R ,.` 1.t 6 6 5.5.5.5.5.5.5.5.5.",
"5.5.5.5.5.5.2 ] ;.! L  .<.-.#.T 6 X 5.5.5.5.5.5.",
"5.5.5.5.5.X X.=.L G G G G W _ O.%.s X 5.5.5.5.5.",
"5.5.5.5.5., U >.^ D D D D D D D W ..d > 5.5.5.5.",
"5.5.5.5.5.5.> h :.( Z } %.$.| ( A J ' 9 5.5.5.5.",
"5.5.5.5.5.5.5.> a *.^ $.t y g Y } J W M > 5.5.5.",
"5.5.5.5.5.5.5.5.X y X.$.2 5.5.> p ^ A S 4 5.5.5.",
"5.5.5.5.5.5.5.5.5.5.q [ , 5.5.5.X N Z B > 5.5.5.",
"5.5.5.5.5.5.5.5.5.5.5.0 X 5.5.5.> b V n > 5.5.5.",
"5.5.5.5.5.5.5.5.5.5.5.5.X 5.5.5.> v m e X 5.5.5.",
"5.5.5.5.5.5.5.5.5.5.5.5.5.5.5.X w m k X 5.5.5.5.",
"5.5.5.5.5.5.5.5.5.5.5.5.5.5.. 7 x z 4 5.5.5.5.5.",
"5.5.5.5.5.5.5.5.5.5.5.5.5.5.X z j X 5.5.5.5.5.5.",
"5.5.5.5.5.5.5.5.5.5.5.5.5.5.. X X 5.5.5.5.5.5.5.",
"5.5.5.5.5.5.5.5.5.5.5.5.5.5.5.5.5.5.5.5.5.5.5.5.",
"5.5.5.5.5.5.5.5.5.5.5.5.5.5.5.5.5.5.5.5.5.5.5.5.",
"5.5.5.5.5.5.5.5.5.5.5.5.5.5.5.5.5.5.5.5.5.5.5.5.",
"5.5.5.5.5.5.5.5.5.5.5.5.5.5.5.5.5.5.5.5.5.5.5.5."
};
