/* XPM */
static char *tm_arc_mode[] = {
/* columns rows colors chars-per-pixel */
"16 17 81 1 ",
"  c #0A0A0A",
". c #0F0F0F",
"X c #131313",
"o c #151515",
"O c #1D1D1D",
"+ c #1E1E1E",
"@ c #202020",
"# c #272727",
"$ c #282828",
"% c #2D2D2D",
"& c #2E2E2E",
"* c #363636",
"= c #373737",
"- c #3A3A3A",
"; c #3E3E3E",
": c #404040",
"> c #454545",
", c #464646",
"< c #474747",
"1 c #4B4B4B",
"2 c #4D4D4D",
"3 c #505050",
"4 c #535353",
"5 c #555555",
"6 c #575757",
"7 c #5A5A5A",
"8 c #5C5C5C",
"9 c #626262",
"0 c #646464",
"q c #676767",
"w c #696969",
"e c #6C6C6C",
"r c #727272",
"t c #767676",
"y c #797979",
"u c #7C7C7C",
"i c #7D7D7D",
"p c #808080",
"a c #818181",
"s c #858585",
"d c #898989",
"f c #8A8A8A",
"g c #8B8B8B",
"h c #939393",
"j c #969696",
"k c #979797",
"l c #989898",
"z c #9A9A9A",
"x c #9C9C9C",
"c c #9D9D9D",
"v c #9F9F9F",
"b c #A1A1A1",
"n c #A2A2A2",
"m c #A3A3A3",
"M c #A4A4A4",
"N c #A6A6A6",
"B c #AEAEAE",
"V c #B0B0B0",
"C c #B1B1B1",
"Z c #B2B2B2",
"A c #B4B4B4",
"S c #B5B5B5",
"D c #B7B7B7",
"F c #B8B8B8",
"G c #BCBCBC",
"H c #BEBEBE",
"J c #C1C1C1",
"K c #C2C2C2",
"L c #C3C3C3",
"P c #C5C5C5",
"I c #C6C6C6",
"U c #C7C7C7",
"Y c #C8C8C8",
"T c #C9C9C9",
"R c #CACACA",
"E c #CBCBCB",
"W c #CCCCCC",
"Q c #CDCDCD",
"! c #CECECE",
"~ c #CFCFCF",
"^ c None",
/* pixels */
"^^^^GDDR^^^^^^^^",
"^Pt$#++*iG^^^^^^",
"^RicG^Pg;XwP^^^^",
"^^^^^^^^RM;2D^^^",
"^^^^^^^^^^D0*D^^",
"^^^^MDR^^^^R27P^",
"RGwX  2DR^^^D2M^",
"D,2cPG0#j^^^P0aR",
"i7P^^^Ra*P^^^g4P",
"2g^^^^^R$j^^^M,P",
";j^^^^^^7t^^^M,G",
"4a^^^^^P*M^^^c,P",
"cc^^^^R0,R^^^g7P",
"RR^^RM4$D^^^RwiR",
"^^^^D$4G^^^^PtM^",
"^^^^~R^^^^^^^^^^",
"^^^^^^^^^^^^^^^^"
};
