/* XPM */
static char *tm_carc_mode[] = {
/* columns rows colors chars-per-pixel */
"17 17 127 2 ",
"   c #09090B",
".  c #0D0D0D",
"X  c #111112",
"o  c #151516",
"O  c #161616",
"+  c #1E1E1F",
"@  c #1F1F23",
"#  c #212121",
"$  c #202024",
"%  c #212126",
"&  c #232328",
"*  c #27272D",
"=  c #282829",
"-  c #28282A",
";  c #2A2A2F",
":  c #323232",
">  c #323237",
",  c #343434",
"<  c #353536",
"1  c #343438",
"2  c #36363A",
"3  c #36353D",
"4  c #36363D",
"5  c #38383B",
"6  c #39393C",
"7  c #383840",
"8  c #393941",
"9  c #3B3B40",
"0  c #3B3A43",
"q  c #3D3D41",
"w  c #474747",
"e  c #42424C",
"r  c #44444C",
"t  c #46464E",
"y  c #4A4A4A",
"u  c #504F5B",
"i  c #515151",
"p  c #535353",
"a  c #565656",
"s  c #54535F",
"d  c #595959",
"f  c #585764",
"g  c #585765",
"h  c #5A5967",
"j  c #5C5C69",
"k  c #666666",
"l  c #6A6A6A",
"z  c #6F6F6F",
"x  c #666573",
"c  c #686775",
"v  c #6C6B7C",
"b  c #6E6D7D",
"n  c #6E6D7E",
"m  c #767676",
"M  c #777777",
"N  c #7A7A7A",
"B  c #7E7E7E",
"V  c #706F81",
"C  c #727181",
"Z  c #777688",
"A  c #7A798B",
"S  c #7D7C8E",
"D  c #7D7D8F",
"F  c #7E7D90",
"G  c #807F91",
"H  c #807F92",
"J  c #808080",
"K  c #838383",
"L  c #858585",
"P  c #868686",
"I  c #878787",
"U  c #888888",
"Y  c #8D8D8D",
"T  c #828194",
"R  c #939393",
"E  c #969696",
"W  c #9A9A9A",
"Q  c #9E9E9E",
"!  c #9492A9",
"~  c #9695AB",
"^  c #9897AE",
"/  c #9C9AB1",
"(  c #A09FB7",
")  c #A4A4A4",
"_  c #A6A6A6",
"`  c #AAAAAA",
"'  c #AEAEAE",
"]  c #A5A4BC",
"[  c #A7A6BF",
"{  c #A8A7BF",
"}  c #B5B5B5",
"|  c #B7B7B7",
" . c #BCBCBC",
".. c #BEBEBE",
"X. c #BFBFBF",
"o. c #ACAAC4",
"O. c #B0AEC8",
"+. c #B6B4CF",
"@. c #B7B5D0",
"#. c #BDBBD7",
"$. c #C0C0C0",
"%. c #C1C1C1",
"&. c #C5C5C5",
"*. c #C6C6C6",
"=. c #C7C7C7",
"-. c #C8C8C8",
";. c #CDCDCD",
":. c #CECECE",
">. c #CFCFCF",
",. c #C2C0DD",
"<. c #CECCEA",
"1. c #D1CFEE",
"2. c #D3D1F0",
"3. c #D4D3F2",
"4. c #D8D6F6",
"5. c #D9D7F7",
"6. c #D9D7F8",
"7. c #DAD8F8",
"8. c #DAD8F9",
"9. c #DBD9F9",
"0. c #DCDAFA",
"q. c #DCDAFB",
"w. c #DDDBFC",
"e. c #DEDCFD",
"r. c #DFDDFE",
"t. c #E0DEFF",
"y. c None",
/* pixels */
"y.y.y.y.y.y.y.y.y.y.y.y.y.y.y.y.y.",
"y.y.y.y.y.y.y.y.y.y.%.m i l %.y.y.",
"y.y.y.;.| N , X   X $ 9 V 9 O | y.",
"y.y.;.P 2 f ~ o.] * T 5.0.0.v w =.",
"y.y.k t ~ 4.t.t.] 2 0.t.t.t.2.5 _ ",
"y.U $ @.0.t.t.t./ t t.t.t.t.0.9 Q ",
";., D t.t.t.t.t.<.@ #.0.t.0.{ , %.",
"' @ <.t.t.t.t.t.0.F 2 H / D @ m y.",
"P t t.t.t.t.t.t.0.0.^ v j v $ U y.",
"N s t.t.t.t.t.t.t.0.t.0.2.0.9 U y.",
"R , 0.t.t.t.t.t.t.t.t.t.t.t.; U y.",
"X.$ O.t.t.t.t.t.t.t.t.t.t.@.  ..y.",
"y.d u 6.t.t.t.t.t.t.t.t.2.j i y.y.",
"y.| $ D 0.t.t.t.t.t.t.4.T 5 %.y.y.",
"y.y.| = C 1.0.0.0.0.2.j $ ) y.y.y.",
"y.y.;.' y 9 c Z Z c 2 i ' y.y.y.y.",
"y.y.y.y.%.W P l l P R %.y.y.y.y.y."
};
