/* XPM */
static char * math_xpm[] = {
"16 16 22 1",
" 	c None",
".	c #306040",
"+	c #60C080",
"@	c #489060",
"#	c #000000",
"$	c #183020",
"%	c #4A4A4A",
"&	c #99CCCC",
"*	c #4C6666",
"=	c #263333",
"-	c #96B0B0",
";	c #558565",
">	c #7AAA8A",
",	c #729999",
"'	c #7F657F",
")	c #FFCBFE",
"!	c #A48AA4",
"~	c #BF98BE",
"{	c #C9AFC9",
"]	c #95A2A2",
"^	c #3F323F",
"/	c #AEA1AE",
"          ..... ",
"         .+++++ ",
"         .@#.$+%",
"         .+#+#+%",
" &&&&&&&*.@$@$+%",
" &=#****-....$+%",
" &&==&&&-.+++++%",
" &&&==&&- ;>>>>%",
" &&&,=&&- ''''  ",
" &&,=&&&-'))))! ",
" &,#****-'~#''{ ",
" &*****,-')#~~{ ",
" *------]'~^)){ ",
"         ''')){ ",
"         ')))){ ",
"          !{{{/ "};
