/* XPM */
static char * tb_open_xpm[] = {
"17 17 6 1",
"  c None	s mask",
". c gray	s mid",
"X c blue",
"o c white	s white",
"O c black	s style",
"+ c darkgray	s dark",
"                 ",
"   OOOOOOOOO+    ",
"   OooooooOoO+   ",
"   OooooooOooO+  ",
"   OooooooOOOO+  ",
" OOOoooooooooOOO ",
" O.O........oO O ",
"OOOOOOOOOOOO.O+O+",
"ooooooooooooOO+O+",
"Oo..........+O+O+",
"Oo...........O+O+",
" Oo..........+OO+",
" Oo...........OO+",
"  Oo+++++++++++O+",
"  OOOOOOOOOOOOOO+",
"   ++++++++++++++",
"                 "};
