/* XPM */
static char * tb_print_xpm[] = {
"17 17 5 1",
" 	c None",
".	c black",
"X	c white",
"o	c gray",
"O	c red",
"   ..........    ",
"   .XXXXXXXX.    ",
"   .X.o.XXXX.    ",
"   .XXXXXXXX.    ",
"   .X.o.XXXX.    ",
"   .XXXXXXXX.    ",
"   .X.o.o.oX.    ",
"   .XXXXXXXX.    ",
"................ ",
".XXXXXXXXXXXXXX. ",
".XOO           . ",
".X             . ",
".X             . ",
"................ ",
" .oooooooooooo.  ",
" ..............  ",
"                 "};
